<svg xmlns="http://www.w3.org/2000/svg" viewBox="0 -0.5 48 48" shape-rendering="crispEdges">
<metadata>Made with Pixels to Svg https://codepen.io/shshaw/pen/XbxvNj</metadata>
<path stroke="#000000" d="M26 12h5M25 13h1M31 13h2M23 14h2M33 14h1M22 15h1M34 15h1M20 16h2M35 16h1M14 17h6M36 17h3M13 18h1M39 18h1M13 19h1M38 19h1M14 20h1M37 20h1M15 21h2M37 21h1M17 22h1M37 22h1M18 23h2M37 23h1M16 24h4M37 24h1M14 25h2M36 25h2M13 26h1M35 26h2M12 27h1M35 27h1M10 28h2M34 28h1M9 29h1M34 29h1M8 30h1M16 30h3M33 30h1M8 31h1M15 31h1M18 31h1M32 31h1M8 32h1M14 32h1M18 32h1M33 32h4M9 33h1M12 33h2M18 33h1M37 33h1M10 34h2M18 34h1M38 34h1M16 35h2M30 35h2M39 35h1M15 36h1M30 36h4M39 36h1M15 37h1M31 37h1M34 37h1M39 37h1M15 38h1M32 38h1M35 38h4M16 39h2M33 39h1M17 40h1M33 40h1M16 41h1M27 41h1M34 41h1M15 42h1M22 42h1M24 42h3M28 42h1M34 42h1M14 43h1M21 43h1M29 43h1M34 43h1M13 44h1M20 44h1M29 44h1M34 44h1M13 45h1M19 45h1M30 45h1M35 45h2M13 46h1M19 46h1M30 46h1M37 46h1M14 47h1M20 47h1M30 47h1M38 47h1" />
<path stroke="#4d1921" d="M26 13h1" />
<path stroke="#622020" d="M27 13h1" />
<path stroke="#612020" d="M28 13h1" />
<path stroke="#612120" d="M29 13h1" />
<path stroke="#5d1f21" d="M30 13h1" />
<path stroke="#691b10" d="M25 14h1" />
<path stroke="#a5360d" d="M26 14h1" />
<path stroke="#c14618" d="M27 14h1" />
<path stroke="#bd4417" d="M28 14h1" />
<path stroke="#bb4314" d="M29 14h1" />
<path stroke="#b84113" d="M30 14h1" />
<path stroke="#9d3312" d="M31 14h1" />
<path stroke="#651f19" d="M32 14h1" />
<path stroke="#461519" d="M23 15h1" />
<path stroke="#792005" d="M24 15h1" />
<path stroke="#9b2e05" d="M25 15h1" />
<path stroke="#b0390c" d="M26 15h1" />
<path stroke="#ba4013" d="M27 15h1" />
<path stroke="#b74013" d="M28 15h1" />
<path stroke="#b23e13" d="M29 15h1" />
<path stroke="#b44013" d="M30 15h1" />
<path stroke="#bc4518" d="M31 15h1" />
<path stroke="#b13f17" d="M32 15h1" />
<path stroke="#83230b" d="M33 15h1" />
<path stroke="#401214" d="M22 16h1" />
<path stroke="#5a1c13" d="M23 16h1" />
<path stroke="#7b2a0b" d="M24 16h1" />
<path stroke="#8d2e06" d="M25 16h1" />
<path stroke="#993107" d="M26 16h1" />
<path stroke="#9b300a" d="M27 16h1" />
<path stroke="#872909" d="M28 16h1" />
<path stroke="#601c06" d="M29 16h1" />
<path stroke="#571e07" d="M30 16h1" />
<path stroke="#63230c" d="M31 16h1" />
<path stroke="#6e240c" d="M32 16h1" />
<path stroke="#8c280c" d="M33 16h1" />
<path stroke="#711407" d="M34 16h1" />
<path stroke="#2b0b10" d="M20 17h1" />
<path stroke="#3e1315" d="M21 17h1" />
<path stroke="#4d1919" d="M22 17h1" />
<path stroke="#4e1a18" d="M23 17h1" />
<path stroke="#5f2213" d="M24 17h1" />
<path stroke="#6c2810" d="M25 17h1" />
<path stroke="#6f250e" d="M26 17h1" />
<path stroke="#551906" d="M27 17h1" />
<path stroke="#453c13" d="M28 17h1" />
<path stroke="#405e1c" d="M29 17h1" />
<path stroke="#3d651e" d="M30 17h1" />
<path stroke="#34611c" d="M31 17h1" />
<path stroke="#2c4d1a" d="M32 17h1" />
<path stroke="#382107" d="M33 17h1" />
<path stroke="#431706" d="M34 17h1" />
<path stroke="#280b19" d="M35 17h1" />
<path stroke="#2a541f" d="M14 18h1M38 18h1M14 19h1M37 37h2" />
<path stroke="#375a2d" d="M15 18h1" />
<path stroke="#35532c" d="M16 18h1" />
<path stroke="#354f2c" d="M17 18h1" />
<path stroke="#374d23" d="M18 18h1" />
<path stroke="#3f4f19" d="M19 18h1" />
<path stroke="#3c4a18" d="M20 18h1" />
<path stroke="#2e2513" d="M21 18h1" />
<path stroke="#2e1110" d="M22 18h1" />
<path stroke="#3d1415" d="M23 18h1" />
<path stroke="#4f1b19" d="M24 18h1" />
<path stroke="#431512" d="M25 18h1" />
<path stroke="#312913" d="M26 18h1" />
<path stroke="#32501b" d="M27 18h1" />
<path stroke="#60912e" d="M28 18h1" />
<path stroke="#6fa32b" d="M29 18h1" />
<path stroke="#74a927" d="M30 18h1" />
<path stroke="#5f9d24" d="M31 18h1" />
<path stroke="#3d8428" d="M32 18h1" />
<path stroke="#4a8029" d="M33 18h1" />
<path stroke="#51772a" d="M34 18h1" />
<path stroke="#1b2b12" d="M35 18h1" />
<path stroke="#234217" d="M36 18h1" />
<path stroke="#427227" d="M37 18h1" />
<path stroke="#638929" d="M15 19h1" />
<path stroke="#527120" d="M16 19h1" />
<path stroke="#3c4c1b" d="M17 19h1" />
<path stroke="#3e501e" d="M18 19h1" />
<path stroke="#64872d" d="M19 19h1" />
<path stroke="#71a02e" d="M20 19h1" />
<path stroke="#5e8727" d="M21 19h1" />
<path stroke="#426020" d="M22 19h1" />
<path stroke="#292711" d="M23 19h1" />
<path stroke="#391413" d="M24 19h1" />
<path stroke="#282713" d="M25 19h1" />
<path stroke="#336628" d="M26 19h1" />
<path stroke="#41702d" d="M27 19h1" />
<path stroke="#405622" d="M28 19h1" />
<path stroke="#4b6423" d="M29 19h1" />
<path stroke="#6b9825" d="M30 19h1" />
<path stroke="#6da522" d="M31 19h1" />
<path stroke="#438924" d="M32 19h1" />
<path stroke="#4e8929" d="M33 19h1" />
<path stroke="#4b6824" d="M34 19h1" />
<path stroke="#29391b" d="M35 19h1" />
<path stroke="#152a11" d="M36 19h1" />
<path stroke="#254722" d="M37 19h1" />
<path stroke="#223a24" d="M15 20h1M18 22h1M16 25h2M35 33h2" />
<path stroke="#3a501f" d="M16 20h1" />
<path stroke="#384c1a" d="M17 20h1" />
<path stroke="#394719" d="M18 20h1" />
<path stroke="#2e3815" d="M19 20h1" />
<path stroke="#3d511b" d="M20 20h1" />
<path stroke="#608729" d="M21 20h1" />
<path stroke="#71a12e" d="M22 20h1" />
<path stroke="#527c25" d="M23 20h1" />
<path stroke="#213813" d="M24 20h1" />
<path stroke="#326527" d="M25 20h1" />
<path stroke="#2f6225" d="M26 20h1" />
<path stroke="#625d32" d="M27 20h1" />
<path stroke="#c0b26e" d="M28 20h1" />
<path stroke="#b9b66a" d="M29 20h1" />
<path stroke="#607334" d="M30 20h1" />
<path stroke="#417821" d="M31 20h1" />
<path stroke="#3e8528" d="M32 20h1" />
<path stroke="#2d541b" d="M33 20h1" />
<path stroke="#8e834b" d="M34 20h1" />
<path stroke="#b7ac6d" d="M35 20h1" />
<path stroke="#63603f" d="M36 20h1" />
<path stroke="#375630" d="M17 21h1" />
<path stroke="#5f7f28" d="M18 21h1" />
<path stroke="#576927" d="M19 21h1" />
<path stroke="#40491c" d="M20 21h1" />
<path stroke="#283112" d="M21 21h1" />
<path stroke="#415b1f" d="M22 21h1" />
<path stroke="#5d8c2b" d="M23 21h1" />
<path stroke="#327125" d="M24 21h1" />
<path stroke="#3c7e2c" d="M25 21h1" />
<path stroke="#2a4419" d="M26 21h1" />
<path stroke="#bc9e5a" d="M27 21h1" />
<path stroke="#cec073" d="M28 21h1" />
<path stroke="#dbd070" d="M29 21h1" />
<path stroke="#a5a05b" d="M30 21h1" />
<path stroke="#2d561c" d="M31 21h1" />
<path stroke="#4c8c28" d="M32 21h1" />
<path stroke="#4f7421" d="M33 21h1" />
<path stroke="#7e7d49" d="M34 21h1" />
<path stroke="#c5ba76" d="M35 21h1" />
<path stroke="#ac9e60" d="M36 21h1" />
<path stroke="#4e682b" d="M19 22h1" />
<path stroke="#5c7527" d="M20 22h1" />
<path stroke="#526823" d="M21 22h1" />
<path stroke="#314115" d="M22 22h1" />
<path stroke="#213711" d="M23 22h1" />
<path stroke="#235a1f" d="M24 22h1" />
<path stroke="#41842d" d="M25 22h1" />
<path stroke="#2d4e1c" d="M26 22h1" />
<path stroke="#b79e54" d="M27 22h1" />
<path stroke="#dac066" d="M28 22h1" />
<path stroke="#e7d674" d="M29 22h1" />
<path stroke="#9c9957" d="M30 22h1" />
<path stroke="#325b1b" d="M31 22h1" />
<path stroke="#5c9323" d="M32 22h1" />
<path stroke="#75a320" d="M33 22h1" />
<path stroke="#758f29" d="M34 22h1" />
<path stroke="#867b44" d="M35 22h1" />
<path stroke="#9a7b4b" d="M36 22h1" />
<path stroke="#1f2d15" d="M20 23h1" />
<path stroke="#43581f" d="M21 23h1" />
<path stroke="#405721" d="M22 23h1" />
<path stroke="#1a3013" d="M23 23h1" />
<path stroke="#1e4d1c" d="M24 23h1" />
<path stroke="#42862c" d="M25 23h1" />
<path stroke="#377225" d="M26 23h1" />
<path stroke="#4f5c25" d="M27 23h1" />
<path stroke="#917d41" d="M28 23h1" />
<path stroke="#92894d" d="M29 23h1" />
<path stroke="#46622a" d="M30 23h1" />
<path stroke="#3f7a24" d="M31 23h1" />
<path stroke="#5d9622" d="M32 23h1" />
<path stroke="#71a31e" d="M33 23h1" />
<path stroke="#90bb1f" d="M34 23h1" />
<path stroke="#788e22" d="M35 23h1" />
<path stroke="#2c3220" d="M36 23h1" />
<path stroke="#3c2514" d="M20 24h1" />
<path stroke="#3a220b" d="M21 24h1" />
<path stroke="#181009" d="M22 24h1" />
<path stroke="#0b1c11" d="M23 24h1" />
<path stroke="#19421a" d="M24 24h1" />
<path stroke="#367829" d="M25 24h1" />
<path stroke="#4d8b29" d="M26 24h1" />
<path stroke="#4a7924" d="M27 24h1" />
<path stroke="#28511a" d="M28 24h1" />
<path stroke="#2b571b" d="M29 24h1" />
<path stroke="#3c7723" d="M30 24h1" />
<path stroke="#2b5b1b" d="M31 24h1" />
<path stroke="#4d7b22" d="M32 24h1" />
<path stroke="#5f8f24" d="M33 24h1" />
<path stroke="#6d9a23" d="M34 24h1" />
<path stroke="#7ea327" d="M35 24h1" />
<path stroke="#3c532d" d="M36 24h1" />
<path stroke="#172c1e" d="M18 25h1" />
<path stroke="#2a2910" d="M19 25h1" />
<path stroke="#7d5422" d="M20 25h1" />
<path stroke="#a46c25" d="M21 25h1" />
<path stroke="#764e20" d="M22 25h1" />
<path stroke="#1c190d" d="M23 25h1" />
<path stroke="#06170b" d="M24 25h1" />
<path stroke="#255822" d="M25 25h1" />
<path stroke="#3d7e28" d="M26 25h1" />
<path stroke="#538e25" d="M27 25h1" />
<path stroke="#5c9727" d="M28 25h1" />
<path stroke="#639d24" d="M29 25h1" />
<path stroke="#609c25" d="M30 25h1" />
<path stroke="#366b23" d="M31 25h1" />
<path stroke="#1a4018" d="M32 25h1" />
<path stroke="#193c14" d="M33 25h1" />
<path stroke="#173514" d="M34 25h1" />
<path stroke="#132820" d="M35 25h1" />
<path stroke="#325439" d="M14 26h1" />
<path stroke="#476921" d="M15 26h1" />
<path stroke="#679025" d="M16 26h1" />
<path stroke="#749f27" d="M17 26h1" />
<path stroke="#659327" d="M18 26h1" />
<path stroke="#365e20" d="M19 26h1" />
<path stroke="#4e3916" d="M20 26h1" />
<path stroke="#b17627" d="M21 26h1" />
<path stroke="#a97125" d="M22 26h1" />
<path stroke="#4a2e14" d="M23 26h1" />
<path stroke="#140b09" d="M24 26h1" />
<path stroke="#0a1409" d="M25 26h1" />
<path stroke="#215221" d="M26 26h1" />
<path stroke="#327625" d="M27 26h1" />
<path stroke="#549222" d="M28 26h1" />
<path stroke="#6ca623" d="M29 26h1" />
<path stroke="#608a23" d="M30 26h1" />
<path stroke="#2f4c1a" d="M31 26h1" />
<path stroke="#1a3517" d="M32 26h1" />
<path stroke="#1f4a21" d="M33 26h1" />
<path stroke="#24542b" d="M34 26h1" />
<path stroke="#304129" d="M13 27h1" />
<path stroke="#729925" d="M14 27h1" />
<path stroke="#7cae22" d="M15 27h1" />
<path stroke="#6a9a1e" d="M16 27h1" />
<path stroke="#6c9d21" d="M17 27h1" />
<path stroke="#699f27" d="M18 27h1" />
<path stroke="#346822" d="M19 27h1" />
<path stroke="#362c10" d="M20 27h1" />
<path stroke="#966223" d="M21 27h1" />
<path stroke="#9b6522" d="M22 27h1" />
<path stroke="#45290e" d="M23 27h1" />
<path stroke="#382213" d="M24 27h1" />
<path stroke="#1e180e" d="M25 27h1" />
<path stroke="#051709" d="M26 27h1" />
<path stroke="#275b22" d="M27 27h1" />
<path stroke="#478a2a" d="M28 27h1" />
<path stroke="#437121" d="M29 27h1" />
<path stroke="#45381a" d="M30 27h1" />
<path stroke="#65332d" d="M31 27h1" />
<path stroke="#492721" d="M32 27h1" />
<path stroke="#27421b" d="M33 27h1" />
<path stroke="#173929" d="M34 27h1" />
<path stroke="#52250d" d="M12 28h1" />
<path stroke="#58320a" d="M13 28h1" />
<path stroke="#576318" d="M14 28h1" />
<path stroke="#558821" d="M15 28h1" />
<path stroke="#417f1e" d="M16 28h1" />
<path stroke="#417d21" d="M17 28h1" />
<path stroke="#3d7b24" d="M18 28h1" />
<path stroke="#1b461b" d="M19 28h1" />
<path stroke="#21190b" d="M20 28h1" />
<path stroke="#623d17" d="M21 28h1" />
<path stroke="#603a14" d="M22 28h1" />
<path stroke="#391f0c" d="M23 28h1" />
<path stroke="#513016" d="M24 28h1" />
<path stroke="#2c3017" d="M25 28h1" />
<path stroke="#203f20" d="M26 28h1" />
<path stroke="#09210d" d="M27 28h1" />
<path stroke="#2e5f24" d="M28 28h1" />
<path stroke="#2a511c" d="M29 28h1" />
<path stroke="#314012" d="M30 28h1" />
<path stroke="#3d4716" d="M31 28h1" />
<path stroke="#465d1f" d="M32 28h1" />
<path stroke="#4c7e2c" d="M33 28h1" />
<path stroke="#3d5c28" d="M10 29h1" />
<path stroke="#415116" d="M11 29h1" />
<path stroke="#4c2b06" d="M12 29h1" />
<path stroke="#69310d" d="M13 29h1" />
<path stroke="#412106" d="M14 29h1" />
<path stroke="#283f12" d="M15 29h1" />
<path stroke="#225b21" d="M16 29h1" />
<path stroke="#0d3520" d="M17 29h1" />
<path stroke="#0a291e" d="M18 29h1" />
<path stroke="#040e0d" d="M19 29h1" />
<path stroke="#05030a" d="M20 29h1" />
<path stroke="#190e0d" d="M21 29h1" />
<path stroke="#170a06" d="M22 29h1M18 39h1" />
<path stroke="#381f0b" d="M23 29h1" />
<path stroke="#7e4f20" d="M24 29h1" />
<path stroke="#493414" d="M25 29h1" />
<path stroke="#2e5125" d="M26 29h1" />
<path stroke="#183d1c" d="M27 29h1" />
<path stroke="#061b0c" d="M28 29h1" />
<path stroke="#2c5722" d="M29 29h1" />
<path stroke="#508027" d="M30 29h1" />
<path stroke="#608f25" d="M31 29h1" />
<path stroke="#5a8c28" d="M32 29h1" />
<path stroke="#284f1f" d="M33 29h1" />
<path stroke="#4e6d2a" d="M9 30h1" />
<path stroke="#77a822" d="M10 30h1" />
<path stroke="#6ca221" d="M11 30h1" />
<path stroke="#51721e" d="M12 30h1" />
<path stroke="#43310b" d="M13 30h1" />
<path stroke="#431a0a" d="M14 30h1" />
<path stroke="#151012" d="M15 30h1" />
<path stroke="#251413" d="M19 30h1" />
<path stroke="#13070d" d="M20 30h1" />
<path stroke="#0a030b" d="M21 30h1" />
<path stroke="#221009" d="M22 30h1" />
<path stroke="#5f3712" d="M23 30h1" />
<path stroke="#8e5b1f" d="M24 30h1" />
<path stroke="#774718" d="M25 30h1" />
<path stroke="#3e3013" d="M26 30h1" />
<path stroke="#214521" d="M27 30h1" />
<path stroke="#152413" d="M28 30h1" />
<path stroke="#171207" d="M29 30h1" />
<path stroke="#151909" d="M30 30h1" />
<path stroke="#12220c" d="M31 30h1" />
<path stroke="#0c1e17" d="M32 30h1" />
<path stroke="#456a1b" d="M9 31h1" />
<path stroke="#6c9921" d="M10 31h1" />
<path stroke="#6ca11f" d="M11 31h1" />
<path stroke="#549125" d="M12 31h1" />
<path stroke="#35601f" d="M13 31h1" />
<path stroke="#19190b" d="M14 31h1" />
<path stroke="#331b13" d="M19 31h1" />
<path stroke="#4a2510" d="M20 31h1" />
<path stroke="#4a250e" d="M21 31h1" />
<path stroke="#643812" d="M22 31h1" />
<path stroke="#7e4c13" d="M23 31h1" />
<path stroke="#a26920" d="M24 31h1" />
<path stroke="#a26a20" d="M25 31h1" />
<path stroke="#7c4e1b" d="M26 31h1" />
<path stroke="#3f290d" d="M27 31h1" />
<path stroke="#462c11" d="M28 31h1" />
<path stroke="#553013" d="M29 31h1" />
<path stroke="#311b0d" d="M30 31h1" />
<path stroke="#183219" d="M31 31h1" />
<path stroke="#2f5724" d="M9 32h1" />
<path stroke="#3e651e" d="M10 32h1" />
<path stroke="#426e23" d="M11 32h1" />
<path stroke="#204115" d="M12 32h1" />
<path stroke="#25501e" d="M13 32h1" />
<path stroke="#0a0407" d="M19 32h1" />
<path stroke="#3e1c0b" d="M20 32h1" />
<path stroke="#562b0e" d="M21 32h1" />
<path stroke="#653710" d="M22 32h1" />
<path stroke="#804d13" d="M23 32h1" />
<path stroke="#a1671f" d="M24 32h1" />
<path stroke="#ab7222" d="M25 32h1" />
<path stroke="#925f1b" d="M26 32h1" />
<path stroke="#734513" d="M27 32h1" />
<path stroke="#6b4012" d="M28 32h1" />
<path stroke="#583310" d="M29 32h1" />
<path stroke="#2d210d" d="M30 32h1" />
<path stroke="#204d1f" d="M31 32h1" />
<path stroke="#234d2b" d="M32 32h1" />
<path stroke="#1c3617" d="M10 33h1" />
<path stroke="#284e28" d="M11 33h1" />
<path stroke="#070004" d="M19 33h1" />
<path stroke="#1c0504" d="M20 33h1" />
<path stroke="#331910" d="M21 33h1" />
<path stroke="#4b2811" d="M22 33h1" />
<path stroke="#724214" d="M23 33h1" />
<path stroke="#7a4913" d="M24 33h1" />
<path stroke="#8d5c1a" d="M25 33h1" />
<path stroke="#905f1c" d="M26 33h1" />
<path stroke="#724512" d="M27 33h1" />
<path stroke="#62390e" d="M28 33h1" />
<path stroke="#462a10" d="M29 33h1" />
<path stroke="#152511" d="M30 33h1" />
<path stroke="#2d652b" d="M31 33h1" />
<path stroke="#35461b" d="M32 33h1" />
<path stroke="#4b210d" d="M33 33h1" />
<path stroke="#3c2311" d="M34 33h1" />
<path stroke="#310506" d="M19 34h1" />
<path stroke="#300503" d="M20 34h1" />
<path stroke="#19090b" d="M21 34h1" />
<path stroke="#201512" d="M22 34h1" />
<path stroke="#412a17" d="M23 34h1" />
<path stroke="#3f2711" d="M24 34h1" />
<path stroke="#7d602a" d="M25 34h1" />
<path stroke="#b5943e" d="M26 34h1" />
<path stroke="#a5873c" d="M27 34h1" />
<path stroke="#a48742" d="M28 34h1" />
<path stroke="#4c3a1f" d="M29 34h1" />
<path stroke="#03090a" d="M30 34h1" />
<path stroke="#1c361a" d="M31 34h1" />
<path stroke="#2e1e0b" d="M32 34h1" />
<path stroke="#391709" d="M33 34h1" />
<path stroke="#2a3913" d="M34 34h1" />
<path stroke="#50812a" d="M35 34h1" />
<path stroke="#527d25" d="M36 34h1" />
<path stroke="#3a5c35" d="M37 34h1" />
<path stroke="#3f1709" d="M18 35h1" />
<path stroke="#501e06" d="M19 35h1" />
<path stroke="#4e1c06" d="M20 35h1" />
<path stroke="#230e09" d="M21 35h1" />
<path stroke="#0b0910" d="M22 35h1" />
<path stroke="#151315" d="M23 35h1" />
<path stroke="#1f1b1c" d="M24 35h1" />
<path stroke="#352c1b" d="M25 35h1" />
<path stroke="#a79244" d="M26 35h1" />
<path stroke="#816d2e" d="M27 35h1" />
<path stroke="#6d5f33" d="M28 35h1" />
<path stroke="#38301e" d="M29 35h1" />
<path stroke="#1e0d10" d="M32 35h1" />
<path stroke="#1b1009" d="M33 35h1" />
<path stroke="#1a3e1a" d="M34 35h1" />
<path stroke="#33531b" d="M35 35h1" />
<path stroke="#4c7523" d="M36 35h1" />
<path stroke="#618928" d="M37 35h1" />
<path stroke="#405632" d="M38 35h1" />
<path stroke="#2d120d" d="M16 36h1" />
<path stroke="#552205" d="M17 36h1" />
<path stroke="#662c06" d="M18 36h1" />
<path stroke="#74350a" d="M19 36h1" />
<path stroke="#562509" d="M20 36h1" />
<path stroke="#29120a" d="M21 36h1" />
<path stroke="#1b0c0a" d="M22 36h1" />
<path stroke="#09050a" d="M23 36h1" />
<path stroke="#151117" d="M24 36h1" />
<path stroke="#130e11" d="M25 36h1" />
<path stroke="#8b7b3d" d="M26 36h1" />
<path stroke="#5f5022" d="M27 36h1" />
<path stroke="#150a09" d="M28 36h1" />
<path stroke="#29140e" d="M29 36h1" />
<path stroke="#1c4623" d="M34 36h1" />
<path stroke="#24441c" d="M35 36h1" />
<path stroke="#243f18" d="M36 36h1" />
<path stroke="#477523" d="M37 36h1" />
<path stroke="#425829" d="M38 36h1" />
<path stroke="#3a1404" d="M16 37h1" />
<path stroke="#5a2304" d="M17 37h1" />
<path stroke="#7a370a" d="M18 37h1" />
<path stroke="#642b07" d="M19 37h1" />
<path stroke="#2a0d06" d="M20 37h1" />
<path stroke="#381e0d" d="M21 37h1" />
<path stroke="#5f3311" d="M22 37h1" />
<path stroke="#43210a" d="M23 37h1" />
<path stroke="#5b3614" d="M24 37h1" />
<path stroke="#7a5422" d="M25 37h1" />
<path stroke="#745524" d="M26 37h1" />
<path stroke="#462e12" d="M27 37h1" />
<path stroke="#4d2a10" d="M28 37h1" />
<path stroke="#653714" d="M29 37h1" />
<path stroke="#4f2910" d="M30 37h1" />
<path stroke="#214f20" d="M35 37h1" />
<path stroke="#255a21" d="M36 37h1" />
<path stroke="#250c0a" d="M16 38h1" />
<path stroke="#341003" d="M17 38h1" />
<path stroke="#512006" d="M18 38h1" />
<path stroke="#381406" d="M19 38h1" />
<path stroke="#060605" d="M20 38h1" />
<path stroke="#2a1c0e" d="M21 38h1" />
<path stroke="#6e3c14" d="M22 38h1" />
<path stroke="#6c380d" d="M23 38h1" />
<path stroke="#6f3e0d" d="M24 38h1" />
<path stroke="#9c6620" d="M25 38h1" />
<path stroke="#9b6723" d="M26 38h1" />
<path stroke="#724212" d="M27 38h1" />
<path stroke="#65360e" d="M28 38h1" />
<path stroke="#5e3311" d="M29 38h1" />
<path stroke="#45250c" d="M30 38h1" />
<path stroke="#382111" d="M31 38h1" />
<path stroke="#101406" d="M19 39h1" />
<path stroke="#1e4b1b" d="M20 39h1" />
<path stroke="#224b1c" d="M21 39h1" />
<path stroke="#403014" d="M22 39h1" />
<path stroke="#6d3e16" d="M23 39h1" />
<path stroke="#64350c" d="M24 39h1" />
<path stroke="#7d4913" d="M25 39h1" />
<path stroke="#915b1b" d="M26 39h1" />
<path stroke="#734518" d="M27 39h1" />
<path stroke="#351e0b" d="M28 39h1" />
<path stroke="#1c190a" d="M29 39h1" />
<path stroke="#1c3c13" d="M30 39h1" />
<path stroke="#294c13" d="M31 39h1" />
<path stroke="#1f422a" d="M32 39h1" />
<path stroke="#173815" d="M18 40h1" />
<path stroke="#34691b" d="M19 40h1" />
<path stroke="#428621" d="M20 40h1" />
<path stroke="#367c23" d="M21 40h1" />
<path stroke="#1e441b" d="M22 40h1" />
<path stroke="#311f0e" d="M23 40h1" />
<path stroke="#522d0e" d="M24 40h1" />
<path stroke="#6e3e13" d="M25 40h1" />
<path stroke="#5e3413" d="M26 40h1" />
<path stroke="#20100c" d="M27 40h1" />
<path stroke="#0c2212" d="M28 40h1" />
<path stroke="#235b20" d="M29 40h1" />
<path stroke="#46851f" d="M30 40h1" />
<path stroke="#669c1e" d="M31 40h1" />
<path stroke="#517d1e" d="M32 40h1" />
<path stroke="#11170c" d="M17 41h1" />
<path stroke="#376a1e" d="M18 41h1" />
<path stroke="#619f25" d="M19 41h1" />
<path stroke="#66a223" d="M20 41h1" />
<path stroke="#4a8e25" d="M21 41h1" />
<path stroke="#1b4c20" d="M22 41h1" />
<path stroke="#020d15" d="M23 41h1" />
<path stroke="#281910" d="M24 41h1" />
<path stroke="#502b13" d="M25 41h1" />
<path stroke="#170d17" d="M26 41h1" />
<path stroke="#041e23" d="M28 41h1" />
<path stroke="#2a6627" d="M29 41h1" />
<path stroke="#52921f" d="M30 41h1" />
<path stroke="#6ca11a" d="M31 41h1" />
<path stroke="#6b9b1f" d="M32 41h1" />
<path stroke="#324b22" d="M33 41h1" />
<path stroke="#250a06" d="M16 42h1" />
<path stroke="#3a1b03" d="M17 42h1" />
<path stroke="#3f4e10" d="M18 42h1" />
<path stroke="#619422" d="M19 42h1" />
<path stroke="#5b9722" d="M20 42h1" />
<path stroke="#347022" d="M21 42h1" />
<path stroke="#0e332e" d="M29 42h1" />
<path stroke="#365e17" d="M30 42h1" />
<path stroke="#4f6a13" d="M31 42h1" />
<path stroke="#61580e" d="M32 42h1" />
<path stroke="#513710" d="M33 42h1" />
<path stroke="#2d110a" d="M15 43h1" />
<path stroke="#4b1c06" d="M16 43h1" />
<path stroke="#582407" d="M17 43h1" />
<path stroke="#462506" d="M18 43h1" />
<path stroke="#374611" d="M19 43h1" />
<path stroke="#294f17" d="M20 43h1" />
<path stroke="#361e06" d="M30 43h1" />
<path stroke="#442104" d="M31 43h1" />
<path stroke="#582506" d="M32 43h1" />
<path stroke="#572307" d="M33 43h1" />
<path stroke="#1f0a06" d="M14 44h1" />
<path stroke="#371302" d="M15 44h1" />
<path stroke="#3e1503" d="M16 44h1M16 45h1" />
<path stroke="#542307" d="M17 44h1" />
<path stroke="#55240a" d="M18 44h1" />
<path stroke="#31170b" d="M19 44h1" />
<path stroke="#250d07" d="M30 44h1" />
<path stroke="#441a06" d="M31 44h1" />
<path stroke="#431804" d="M32 44h1" />
<path stroke="#350e03" d="M33 44h1" />
<path stroke="#240b03" d="M14 45h1" />
<path stroke="#391302" d="M15 45h1" />
<path stroke="#341103" d="M17 45h1" />
<path stroke="#220a05" d="M18 45h1" />
<path stroke="#2e0d06" d="M31 45h1" />
<path stroke="#330e04" d="M32 45h1" />
<path stroke="#371104" d="M33 45h1" />
<path stroke="#34140d" d="M34 45h1" />
<path stroke="#180e19" d="M14 46h1" />
<path stroke="#3a1303" d="M15 46h1" />
<path stroke="#562206" d="M16 46h1" />
<path stroke="#5a2507" d="M17 46h1" />
<path stroke="#3c1a0c" d="M18 46h1" />
<path stroke="#391306" d="M31 46h1" />
<path stroke="#3e1406" d="M32 46h1" />
<path stroke="#471905" d="M33 46h1" />
<path stroke="#5e2509" d="M34 46h1" />
<path stroke="#56240d" d="M35 46h1" />
<path stroke="#361e1f" d="M36 46h1" />
<path stroke="#2c0e04" d="M15 47h1" />
<path stroke="#4b1f07" d="M16 47h1" />
<path stroke="#5c280a" d="M17 47h1" />
<path stroke="#5a290e" d="M18 47h1" />
<path stroke="#3c1f18" d="M19 47h1" />
<path stroke="#311006" d="M31 47h1" />
<path stroke="#381306" d="M32 47h1" />
<path stroke="#4f200b" d="M33 47h1" />
<path stroke="#5e280c" d="M34 47h1" />
<path stroke="#642b0c" d="M35 47h1" />
<path stroke="#612c11" d="M36 47h1" />
<path stroke="#351c1e" d="M37 47h1" />
</svg>