<svg xmlns="http://www.w3.org/2000/svg" viewBox="0 -0.5 48 48" shape-rendering="crispEdges">
<metadata>Made with Pixels to Svg https://codepen.io/shshaw/pen/XbxvNj</metadata>
<path stroke="#000000" d="M17 12h6M27 12h1M15 13h2M23 13h2M26 13h1M28 13h1M14 14h1M25 14h1M28 14h1M13 15h1M28 15h1M12 16h1M28 16h1M12 17h1M28 17h1M11 18h1M28 18h1M10 19h1M28 19h1M9 20h1M29 20h1M7 21h2M29 21h1M6 22h1M28 22h1M7 23h1M28 23h1M8 24h2M28 24h1M10 25h2M28 25h1M12 26h4M28 26h1M15 27h1M29 27h1M14 28h1M30 28h1M14 29h1M30 29h1M13 30h1M31 30h2M13 31h1M33 31h3M12 32h1M36 32h1M12 33h1M36 33h1M12 34h1M17 34h1M37 34h1M11 35h1M17 35h1M37 35h1M11 36h1M17 36h1M19 36h1M36 36h1M10 37h1M16 37h1M19 37h1M35 37h1M10 38h1M16 38h1M20 38h1M36 38h1M39 38h2M10 39h1M16 39h1M20 39h1M37 39h2M41 39h1M10 40h1M16 40h1M20 40h1M29 40h3M41 40h1M11 41h1M14 41h2M20 41h1M28 41h1M32 41h1M41 41h1M12 42h2M21 42h2M29 42h2M33 42h1M40 42h1M23 43h1M31 43h1M34 43h1M39 43h1M23 44h1M31 44h1M35 44h4M23 45h1M31 45h1M24 46h1M31 46h1M24 47h1M30 47h1" />
<path stroke="#521a24" d="M17 13h1" />
<path stroke="#782316" d="M18 13h1" />
<path stroke="#a53913" d="M19 13h1" />
<path stroke="#a93c14" d="M20 13h1" />
<path stroke="#a23c17" d="M21 13h1" />
<path stroke="#73291f" d="M22 13h1" />
<path stroke="#335228" d="M27 13h1" />
<path stroke="#4f171a" d="M15 14h1" />
<path stroke="#80230b" d="M16 14h1" />
<path stroke="#b23f13" d="M17 14h1" />
<path stroke="#bd4716" d="M18 14h1" />
<path stroke="#c14a18" d="M19 14h1" />
<path stroke="#c24a19" d="M20 14h1" />
<path stroke="#bf4a19" d="M21 14h1" />
<path stroke="#b14318" d="M22 14h1" />
<path stroke="#7c240c" d="M23 14h1" />
<path stroke="#39111c" d="M24 14h1" />
<path stroke="#284421" d="M26 14h1" />
<path stroke="#416a29" d="M27 14h1" />
<path stroke="#4e1e25" d="M14 15h1" />
<path stroke="#932d09" d="M15 15h1" />
<path stroke="#ae3e12" d="M16 15h1" />
<path stroke="#b84313" d="M17 15h1" />
<path stroke="#b34113" d="M18 15h1" />
<path stroke="#9d320c" d="M19 15h1" />
<path stroke="#902c0c" d="M20 15h1" />
<path stroke="#892b0d" d="M21 15h1" />
<path stroke="#71270e" d="M22 15h1" />
<path stroke="#41210b" d="M23 15h1M20 16h1" />
<path stroke="#2b210c" d="M24 15h1" />
<path stroke="#0e140c" d="M25 15h1" />
<path stroke="#24401c" d="M26 15h1" />
<path stroke="#3f6629" d="M27 15h1" />
<path stroke="#331323" d="M13 16h1" />
<path stroke="#6b1e09" d="M14 16h1" />
<path stroke="#862a09" d="M15 16h1" />
<path stroke="#902e0b" d="M16 16h1" />
<path stroke="#9b3109" d="M17 16h1" />
<path stroke="#8f2b0a" d="M18 16h1" />
<path stroke="#5e1706" d="M19 16h1" />
<path stroke="#383912" d="M21 16h1" />
<path stroke="#435617" d="M22 16h1" />
<path stroke="#5b8d25" d="M23 16h1" />
<path stroke="#4e832b" d="M24 16h1" />
<path stroke="#1e3a1a" d="M25 16h1" />
<path stroke="#0d1509" d="M26 16h1" />
<path stroke="#273e24" d="M27 16h1" />
<path stroke="#53160c" d="M13 17h1" />
<path stroke="#63210d" d="M14 17h1" />
<path stroke="#5f2110" d="M15 17h1" />
<path stroke="#68240e" d="M16 17h1" />
<path stroke="#76250c" d="M17 17h1" />
<path stroke="#4f2109" d="M18 17h1" />
<path stroke="#41521c" d="M19 17h1" />
<path stroke="#4b7725" d="M20 17h1" />
<path stroke="#4d8b2b" d="M21 17h1" />
<path stroke="#609e25" d="M22 17h1" />
<path stroke="#609e21" d="M23 17h1" />
<path stroke="#466723" d="M24 17h1" />
<path stroke="#99965c" d="M25 17h1" />
<path stroke="#9b9262" d="M26 17h1" />
<path stroke="#2b3032" d="M27 17h1" />
<path stroke="#340d11" d="M12 18h1" />
<path stroke="#491515" d="M13 18h1" />
<path stroke="#4d1918" d="M14 18h1" />
<path stroke="#471818" d="M15 18h1" />
<path stroke="#4f1a15" d="M16 18h1" />
<path stroke="#3e220d" d="M17 18h1" />
<path stroke="#4a6d21" d="M18 18h1" />
<path stroke="#72a82e" d="M19 18h1" />
<path stroke="#6b9b2b" d="M20 18h1" />
<path stroke="#458029" d="M21 18h1" />
<path stroke="#498c28" d="M22 18h1" />
<path stroke="#4c8a22" d="M23 18h1" />
<path stroke="#425b21" d="M24 18h1" />
<path stroke="#aba15d" d="M25 18h1" />
<path stroke="#948554" d="M26 18h1" />
<path stroke="#887954" d="M27 18h1" />
<path stroke="#411418" d="M11 19h1" />
<path stroke="#23090d" d="M12 19h1" />
<path stroke="#371217" d="M13 19h1" />
<path stroke="#431719" d="M14 19h1" />
<path stroke="#441518" d="M15 19h1" />
<path stroke="#2d100d" d="M16 19h1" />
<path stroke="#314e19" d="M17 19h1" />
<path stroke="#649c2d" d="M18 19h1" />
<path stroke="#547822" d="M19 19h1" />
<path stroke="#606d33" d="M20 19h1" />
<path stroke="#4d672e" d="M21 19h1" />
<path stroke="#3e792c" d="M22 19h1" />
<path stroke="#4c8c21" d="M23 19h1" />
<path stroke="#5d8c21" d="M24 19h1" />
<path stroke="#58691c" d="M25 19h1" />
<path stroke="#848434" d="M26 19h1" />
<path stroke="#675e33" d="M27 19h1" />
<path stroke="#2a0c12" d="M10 20h1" />
<path stroke="#28130e" d="M11 20h1" />
<path stroke="#1a1f0c" d="M12 20h1" />
<path stroke="#212110" d="M13 20h1" />
<path stroke="#231c0e" d="M14 20h1" />
<path stroke="#2b100e" d="M15 20h1" />
<path stroke="#222512" d="M16 20h1" />
<path stroke="#3a742b" d="M17 20h1" />
<path stroke="#3d5f20" d="M18 20h1" />
<path stroke="#7f7c49" d="M19 20h1" />
<path stroke="#bab16b" d="M20 20h1" />
<path stroke="#beba6d" d="M21 20h1" />
<path stroke="#4d6c28" d="M22 20h1" />
<path stroke="#57941e" d="M23 20h1" />
<path stroke="#609a17" d="M24 20h1" />
<path stroke="#78a71a" d="M25 20h1" />
<path stroke="#8caf21" d="M26 20h1" />
<path stroke="#77932c" d="M27 20h1" />
<path stroke="#3e5a3a" d="M28 20h1" />
<path stroke="#23371f" d="M9 21h1" />
<path stroke="#354315" d="M10 21h1" />
<path stroke="#4b6321" d="M11 21h1" />
<path stroke="#73992c" d="M12 21h1" />
<path stroke="#6c952a" d="M13 21h1" />
<path stroke="#517e28" d="M14 21h1" />
<path stroke="#223a13" d="M15 21h1" />
<path stroke="#1e4a1e" d="M16 21h1" />
<path stroke="#40802e" d="M17 21h1" />
<path stroke="#374d20" d="M18 21h1" />
<path stroke="#b5a964" d="M19 21h1" />
<path stroke="#bcaf5f" d="M20 21h1" />
<path stroke="#d8cb6e" d="M21 21h1" />
<path stroke="#4a6023" d="M22 21h1" />
<path stroke="#508a1e" d="M23 21h1" />
<path stroke="#5f9d1b" d="M24 21h1" />
<path stroke="#5c961e" d="M25 21h1" />
<path stroke="#4f7a18" d="M26 21h1" />
<path stroke="#53761e" d="M27 21h1" />
<path stroke="#2e4c34" d="M28 21h1" />
<path stroke="#243e2a" d="M7 22h1" />
<path stroke="#517521" d="M8 22h1" />
<path stroke="#6d9924" d="M9 22h1" />
<path stroke="#73972b" d="M10 22h1" />
<path stroke="#4b6420" d="M11 22h1" />
<path stroke="#43581b" d="M12 22h1" />
<path stroke="#3e531a" d="M13 22h1" />
<path stroke="#4a6d24" d="M14 22h1" />
<path stroke="#5d8e2a" d="M15 22h1" />
<path stroke="#317025" d="M16 22h1" />
<path stroke="#41842d" d="M17 22h1" />
<path stroke="#3a5e23" d="M18 22h1" />
<path stroke="#958240" d="M19 22h1" />
<path stroke="#d0a751" d="M20 22h1" />
<path stroke="#908036" d="M21 22h1" />
<path stroke="#31501e" d="M22 22h1" />
<path stroke="#325f1c" d="M23 22h1" />
<path stroke="#4b8628" d="M24 22h1" />
<path stroke="#2a5319" d="M25 22h1" />
<path stroke="#123010" d="M26 22h1M23 28h1" />
<path stroke="#122c13" d="M27 22h1" />
<path stroke="#4a6c2b" d="M8 23h1" />
<path stroke="#4c6d1f" d="M9 23h1" />
<path stroke="#415c1a" d="M10 23h1" />
<path stroke="#465e1e" d="M11 23h1" />
<path stroke="#3d501b" d="M12 23h1" />
<path stroke="#384a1b" d="M13 23h1" />
<path stroke="#32411a" d="M14 23h1" />
<path stroke="#4c6c21" d="M15 23h1" />
<path stroke="#42822a" d="M16 23h1" />
<path stroke="#32792c" d="M17 23h1" />
<path stroke="#49882a" d="M18 23h1" />
<path stroke="#446b1e" d="M19 23h1" />
<path stroke="#4b5119" d="M20 23h1" />
<path stroke="#4f6e1e" d="M21 23h1" />
<path stroke="#4c8325" d="M22 23h1" />
<path stroke="#336a25" d="M23 23h1" />
<path stroke="#33702d" d="M24 23h1" />
<path stroke="#1e4720" d="M25 23h1" />
<path stroke="#245025" d="M26 23h1" />
<path stroke="#295225" d="M27 23h1" />
<path stroke="#2d4523" d="M10 24h1" />
<path stroke="#415d23" d="M11 24h1" />
<path stroke="#5a7c27" d="M12 24h1" />
<path stroke="#567323" d="M13 24h1" />
<path stroke="#4d6220" d="M14 24h1" />
<path stroke="#365018" d="M15 24h1" />
<path stroke="#366b25" d="M16 24h1" />
<path stroke="#23622c" d="M17 24h1" />
<path stroke="#377b29" d="M18 24h1" />
<path stroke="#4d9024" d="M19 24h1" />
<path stroke="#529022" d="M20 24h1" />
<path stroke="#65a022" d="M21 24h1" />
<path stroke="#6aa523" d="M22 24h1" />
<path stroke="#4d7524" d="M23 24h1" />
<path stroke="#31421c" d="M24 24h1" />
<path stroke="#321e19" d="M25 24h1" />
<path stroke="#1c1c12" d="M26 24h1" />
<path stroke="#204022" d="M27 24h1" />
<path stroke="#2c4529" d="M12 25h2" />
<path stroke="#547225" d="M14 25h1" />
<path stroke="#4f6e21" d="M15 25h1" />
<path stroke="#396224" d="M16 25h1" />
<path stroke="#103418" d="M17 25h1" />
<path stroke="#245e29" d="M18 25h1" />
<path stroke="#3f832b" d="M19 25h1" />
<path stroke="#4b8e25" d="M20 25h1" />
<path stroke="#62a123" d="M21 25h1" />
<path stroke="#629023" d="M22 25h1" />
<path stroke="#5b4f25" d="M23 25h1" />
<path stroke="#62422e" d="M24 25h1" />
<path stroke="#352817" d="M25 25h1" />
<path stroke="#445723" d="M26 25h1" />
<path stroke="#2e5623" d="M27 25h1" />
<path stroke="#040b07" d="M16 26h1" />
<path stroke="#010202" d="M17 26h1" />
<path stroke="#0b2412" d="M18 26h1" />
<path stroke="#205a28" d="M19 26h1" />
<path stroke="#36792e" d="M20 26h1" />
<path stroke="#509129" d="M21 26h1" />
<path stroke="#467322" d="M22 26h1" />
<path stroke="#121407" d="M23 26h1" />
<path stroke="#3f4f1e" d="M24 26h1" />
<path stroke="#6c982b" d="M25 26h1" />
<path stroke="#699929" d="M26 26h1" />
<path stroke="#32501b" d="M27 26h1" />
<path stroke="#3f2515" d="M16 27h1" />
<path stroke="#523213" d="M17 27h1" />
<path stroke="#3f2813" d="M18 27h1" />
<path stroke="#111a10" d="M19 27h1" />
<path stroke="#143319" d="M20 27h1" />
<path stroke="#1e491a" d="M21 27h1" />
<path stroke="#366425" d="M22 27h1" />
<path stroke="#2a521e" d="M23 27h1" />
<path stroke="#498029" d="M24 27h1" />
<path stroke="#497b22" d="M25 27h1" />
<path stroke="#294112" d="M26 27h1" />
<path stroke="#231e0c" d="M27 27h1" />
<path stroke="#472b1b" d="M28 27h1" />
<path stroke="#442919" d="M15 28h1" />
<path stroke="#915d20" d="M16 28h1" />
<path stroke="#a86e21" d="M17 28h1" />
<path stroke="#976222" d="M18 28h1" />
<path stroke="#4a2e17" d="M19 28h1" />
<path stroke="#070304" d="M20 28h1" />
<path stroke="#0e0b06" d="M21 28h1" />
<path stroke="#0b1a09" d="M22 28h1" />
<path stroke="#0e3011" d="M24 28h1" />
<path stroke="#071e0e" d="M25 28h1" />
<path stroke="#2e1b10" d="M26 28h1" />
<path stroke="#3e2211" d="M27 28h1" />
<path stroke="#422513" d="M28 28h1" />
<path stroke="#232021" d="M29 28h1" />
<path stroke="#241707" d="M15 29h1" />
<path stroke="#533711" d="M16 29h1" />
<path stroke="#88571c" d="M17 29h1" />
<path stroke="#965d1c" d="M18 29h1" />
<path stroke="#543313" d="M19 29h1" />
<path stroke="#25140a" d="M20 29h1" />
<path stroke="#563517" d="M21 29h1" />
<path stroke="#362d15" d="M22 29h1" />
<path stroke="#2c5527" d="M23 29h1" />
<path stroke="#2e6b2e" d="M24 29h1" />
<path stroke="#214420" d="M25 29h1" />
<path stroke="#45290e" d="M26 29h1" />
<path stroke="#583312" d="M27 29h1" />
<path stroke="#301e0e" d="M28 29h1" />
<path stroke="#21351e" d="M29 29h1" />
<path stroke="#5b8227" d="M14 30h1M14 31h1" />
<path stroke="#52761c" d="M15 30h1" />
<path stroke="#4b701e" d="M16 30h1" />
<path stroke="#3e3e15" d="M17 30h1" />
<path stroke="#6e431b" d="M18 30h1" />
<path stroke="#452912" d="M19 30h1" />
<path stroke="#2d190a" d="M20 30h1" />
<path stroke="#875620" d="M21 30h1M29 36h1" />
<path stroke="#83541e" d="M22 30h1" />
<path stroke="#4a3c16" d="M23 30h1" />
<path stroke="#253310" d="M24 30h1" />
<path stroke="#393313" d="M25 30h1" />
<path stroke="#764a1a" d="M26 30h1" />
<path stroke="#885520" d="M27 30h1" />
<path stroke="#40280e" d="M28 30h1" />
<path stroke="#214922" d="M29 30h1" />
<path stroke="#235b2a" d="M30 30h1M30 31h1" />
<path stroke="#7db220" d="M15 31h1" />
<path stroke="#5c9721" d="M16 31h1" />
<path stroke="#2b5a20" d="M17 31h1" />
<path stroke="#231b0d" d="M18 31h1" />
<path stroke="#12090a" d="M19 31h1" />
<path stroke="#311a0c" d="M20 31h1" />
<path stroke="#956020" d="M21 31h1" />
<path stroke="#ab7022" d="M22 31h1" />
<path stroke="#935e1e" d="M23 31h1" />
<path stroke="#7a4b18" d="M24 31h1" />
<path stroke="#87551c" d="M25 31h1" />
<path stroke="#a46a23" d="M26 31h1" />
<path stroke="#a36a22" d="M27 31h1" />
<path stroke="#794a1b" d="M28 31h1" />
<path stroke="#293014" d="M29 31h1" />
<path stroke="#1c3420" d="M31 31h1" />
<path stroke="#140c15" d="M32 31h1" />
<path stroke="#415e22" d="M13 32h1M13 33h1" />
<path stroke="#79a822" d="M14 32h1" />
<path stroke="#75ac1e" d="M15 32h1" />
<path stroke="#468623" d="M16 32h1" />
<path stroke="#1b4c21" d="M17 32h1" />
<path stroke="#020504" d="M18 32h1" />
<path stroke="#0b0304" d="M19 32h1" />
<path stroke="#4a290e" d="M20 32h1" />
<path stroke="#865219" d="M21 32h1" />
<path stroke="#a1671f" d="M22 32h1" />
<path stroke="#a76c20" d="M23 32h1" />
<path stroke="#a86e20" d="M24 32h1" />
<path stroke="#ab7121" d="M25 32h1" />
<path stroke="#a76d22" d="M26 32h1" />
<path stroke="#a46a22" d="M27 32h1" />
<path stroke="#85511a" d="M28 32h1" />
<path stroke="#361f0a" d="M29 32h1" />
<path stroke="#183418" d="M30 32h1" />
<path stroke="#313d18" d="M31 32h1" />
<path stroke="#491a06" d="M32 32h1" />
<path stroke="#3a240c" d="M33 32h1" />
<path stroke="#405f1f" d="M34 32h1" />
<path stroke="#658d29" d="M35 32h1M35 33h1" />
<path stroke="#78a723" d="M14 33h1" />
<path stroke="#5f961f" d="M15 33h1" />
<path stroke="#397227" d="M16 33h1" />
<path stroke="#062011" d="M17 33h1" />
<path stroke="#1c100b" d="M18 33h1" />
<path stroke="#462411" d="M19 33h1" />
<path stroke="#5d320e" d="M20 33h1" />
<path stroke="#764414" d="M21 33h1" />
<path stroke="#854f17" d="M22 33h1" />
<path stroke="#9d631e" d="M23 33h1" />
<path stroke="#a4691f" d="M24 33h1" />
<path stroke="#a66b23" d="M25 33h1" />
<path stroke="#946423" d="M26 33h1" />
<path stroke="#906825" d="M27 33h1" />
<path stroke="#8a6424" d="M28 33h1" />
<path stroke="#6d5224" d="M29 33h1" />
<path stroke="#10150b" d="M30 33h1" />
<path stroke="#13150c" d="M31 33h1" />
<path stroke="#361306" d="M32 33h1" />
<path stroke="#2e3e17" d="M33 33h1" />
<path stroke="#4f8023" d="M34 33h1" />
<path stroke="#544b13" d="M13 34h1" />
<path stroke="#656918" d="M14 34h1" />
<path stroke="#4d7522" d="M15 34h1" />
<path stroke="#204920" d="M16 34h1" />
<path stroke="#442412" d="M18 34h1M18 35h3M16 36h1" />
<path stroke="#391c11" d="M19 34h1" />
<path stroke="#582d0e" d="M20 34h1" />
<path stroke="#6d4014" d="M21 34h1" />
<path stroke="#784516" d="M22 34h1" />
<path stroke="#724214" d="M23 34h1" />
<path stroke="#653e16" d="M24 34h1" />
<path stroke="#5f3d18" d="M25 34h1" />
<path stroke="#6c5124" d="M26 34h1" />
<path stroke="#a99143" d="M27 34h1" />
<path stroke="#b3a14f" d="M28 34h1" />
<path stroke="#655c34" d="M29 34h1" />
<path stroke="#0b0606" d="M30 34h1" />
<path stroke="#090305" d="M31 34h1" />
<path stroke="#1c0b09" d="M32 34h1" />
<path stroke="#15351c" d="M33 34h1" />
<path stroke="#143717" d="M34 34h1" />
<path stroke="#31511c" d="M35 34h1" />
<path stroke="#567728" d="M36 34h1" />
<path stroke="#361f21" d="M12 35h1" />
<path stroke="#692b0a" d="M13 35h1" />
<path stroke="#5d2909" d="M14 35h1" />
<path stroke="#3f3913" d="M15 35h1" />
<path stroke="#152b1b" d="M16 35h1" />
<path stroke="#522e14" d="M21 35h1" />
<path stroke="#503016" d="M22 35h1" />
<path stroke="#332215" d="M23 35h1" />
<path stroke="#27201a" d="M24 35h1" />
<path stroke="#221e1a" d="M25 35h1" />
<path stroke="#1a1311" d="M26 35h1" />
<path stroke="#4d4021" d="M27 35h1" />
<path stroke="#6b5f32" d="M28 35h1" />
<path stroke="#201006" d="M29 35h1" />
<path stroke="#513113" d="M30 35h1" />
<path stroke="#583619" d="M31 35h1" />
<path stroke="#2a1912" d="M32 35h1" />
<path stroke="#030b0a" d="M33 35h1" />
<path stroke="#092814" d="M34 35h1" />
<path stroke="#225621" d="M35 35h1" />
<path stroke="#467428" d="M36 35h1" />
<path stroke="#2b280d" d="M12 36h1" />
<path stroke="#50490e" d="M13 36h1" />
<path stroke="#4f330c" d="M14 36h1" />
<path stroke="#4a1f0c" d="M15 36h1" />
<path stroke="#0c0715" d="M20 36h1" />
<path stroke="#140c11" d="M21 36h1" />
<path stroke="#141012" d="M22 36h1" />
<path stroke="#131214" d="M23 36h1" />
<path stroke="#100e12" d="M24 36h1" />
<path stroke="#181110" d="M25 36h1" />
<path stroke="#27150b" d="M26 36h1" />
<path stroke="#36200c" d="M27 36h1" />
<path stroke="#4c2e11" d="M28 36h1" />
<path stroke="#935d20" d="M30 36h1" />
<path stroke="#5a3817" d="M31 36h1" />
<path stroke="#2c3112" d="M32 36h1" />
<path stroke="#20300d" d="M33 36h1" />
<path stroke="#0a1907" d="M34 36h1" />
<path stroke="#1e4722" d="M35 36h1" />
<path stroke="#638921" d="M11 37h2" />
<path stroke="#74a223" d="M13 37h1" />
<path stroke="#527421" d="M14 37h1" />
<path stroke="#1e1c09" d="M15 37h1" />
<path stroke="#070b1c" d="M20 37h1" />
<path stroke="#19181e" d="M21 37h1" />
<path stroke="#171013" d="M22 37h1" />
<path stroke="#28150d" d="M23 37h1" />
<path stroke="#351b0b" d="M24 37h1" />
<path stroke="#45240e" d="M25 37h1" />
<path stroke="#6c3f18" d="M26 37h1" />
<path stroke="#82501c" d="M27 37h1" />
<path stroke="#8a551a" d="M28 37h1" />
<path stroke="#996220" d="M29 37h1" />
<path stroke="#5c3916" d="M30 37h1" />
<path stroke="#2b381a" d="M31 37h1" />
<path stroke="#58822a" d="M32 37h1" />
<path stroke="#71a01f" d="M33 37h1" />
<path stroke="#496719" d="M34 37h1" />
<path stroke="#658827" d="M11 38h1" />
<path stroke="#7fb11e" d="M12 38h1" />
<path stroke="#7baf1f" d="M13 38h1" />
<path stroke="#649825" d="M14 38h1" />
<path stroke="#325a1b" d="M15 38h1" />
<path stroke="#1b0d0a" d="M21 38h1" />
<path stroke="#462510" d="M22 38h1" />
<path stroke="#673a14" d="M23 38h1" />
<path stroke="#5c3414" d="M24 38h1" />
<path stroke="#522e13" d="M25 38h1" />
<path stroke="#532d10" d="M26 38h1" />
<path stroke="#764518" d="M27 38h1" />
<path stroke="#8f581c" d="M28 38h1" />
<path stroke="#754919" d="M29 38h1" />
<path stroke="#1b210c" d="M30 38h1" />
<path stroke="#2a5e28" d="M31 38h1" />
<path stroke="#558a2a" d="M32 38h1" />
<path stroke="#6ca11c" d="M33 38h1" />
<path stroke="#6c841a" d="M34 38h1" />
<path stroke="#3e301e" d="M35 38h1" />
<path stroke="#547e22" d="M11 39h1" />
<path stroke="#699b20" d="M12 39h1" />
<path stroke="#608f21" d="M13 39h1" />
<path stroke="#3a611a" d="M14 39h1" />
<path stroke="#527828" d="M15 39h1" />
<path stroke="#502b11" d="M21 39h1" />
<path stroke="#683a14" d="M22 39h1" />
<path stroke="#533312" d="M23 39h1" />
<path stroke="#3e4414" d="M24 39h1" />
<path stroke="#435b13" d="M25 39h1" />
<path stroke="#3f5213" d="M26 39h1" />
<path stroke="#35280c" d="M27 39h1" />
<path stroke="#623916" d="M28 39h1" />
<path stroke="#5b3616" d="M29 39h1" />
<path stroke="#0e200c" d="M30 39h1" />
<path stroke="#18511c" d="M31 39h1" />
<path stroke="#285f1e" d="M32 39h1" />
<path stroke="#446319" d="M33 39h1" />
<path stroke="#583a09" d="M34 39h1" />
<path stroke="#5f2909" d="M35 39h1" />
<path stroke="#2e1512" d="M36 39h1" />
<path stroke="#633012" d="M39 39h1" />
<path stroke="#552407" d="M40 39h1" />
<path stroke="#274930" d="M11 40h1" />
<path stroke="#41671f" d="M12 40h1" />
<path stroke="#365d1e" d="M13 40h1" />
<path stroke="#0c2c2a" d="M14 40h1" />
<path stroke="#183128" d="M15 40h1M12 41h2" />
<path stroke="#412210" d="M21 40h1M21 41h1" />
<path stroke="#472c12" d="M22 40h1" />
<path stroke="#2d4219" d="M23 40h1" />
<path stroke="#629525" d="M24 40h1" />
<path stroke="#7db41b" d="M25 40h1" />
<path stroke="#77ac21" d="M26 40h1" />
<path stroke="#3c5d1c" d="M27 40h1" />
<path stroke="#24180c" d="M28 40h1" />
<path stroke="#091c0d" d="M32 40h1" />
<path stroke="#372706" d="M33 40h1" />
<path stroke="#531f04" d="M34 40h1" />
<path stroke="#572205" d="M35 40h1" />
<path stroke="#381403" d="M36 40h1" />
<path stroke="#3d1906" d="M37 40h1" />
<path stroke="#602c0d" d="M38 40h1" />
<path stroke="#572305" d="M39 40h1" />
<path stroke="#3f1704" d="M40 40h1" />
<path stroke="#142018" d="M22 41h1" />
<path stroke="#32692b" d="M23 41h1" />
<path stroke="#579125" d="M24 41h1" />
<path stroke="#6b921b" d="M25 41h1" />
<path stroke="#667717" d="M26 41h1" />
<path stroke="#4a5318" d="M27 41h1" />
<path stroke="#210c07" d="M33 41h1" />
<path stroke="#471a05" d="M34 41h1" />
<path stroke="#401503" d="M35 41h1" />
<path stroke="#3c1402" d="M36 41h1" />
<path stroke="#582406" d="M37 41h1" />
<path stroke="#522206" d="M38 41h1" />
<path stroke="#331103" d="M39 41h1" />
<path stroke="#180706" d="M40 41h1M39 42h1M38 43h1M24 45h2M30 46h1" />
<path stroke="#133929" d="M23 42h1" />
<path stroke="#2e571f" d="M24 42h1" />
<path stroke="#4c400d" d="M25 42h1" />
<path stroke="#5d2a06" d="M26 42h1" />
<path stroke="#4d2306" d="M27 42h1" />
<path stroke="#27110a" d="M28 42h1" />
<path stroke="#1b0b0e" d="M34 42h1" />
<path stroke="#2d0d03" d="M35 42h1" />
<path stroke="#381302" d="M36 42h1" />
<path stroke="#421803" d="M37 42h1" />
<path stroke="#361203" d="M38 42h1M29 45h1" />
<path stroke="#1a1206" d="M24 43h1" />
<path stroke="#441a03" d="M25 43h1" />
<path stroke="#53230b" d="M26 43h1" />
<path stroke="#361305" d="M27 43h1" />
<path stroke="#441e0a" d="M28 43h1" />
<path stroke="#55280d" d="M29 43h1" />
<path stroke="#3c1e18" d="M30 43h1" />
<path stroke="#110609" d="M35 43h1" />
<path stroke="#341202" d="M36 43h1" />
<path stroke="#321203" d="M37 43h1" />
<path stroke="#170404" d="M24 44h1" />
<path stroke="#2c0d03" d="M25 44h1" />
<path stroke="#351506" d="M26 44h1" />
<path stroke="#63300d" d="M27 44h1" />
<path stroke="#5d2907" d="M28 44h1" />
<path stroke="#451902" d="M29 44h1" />
<path stroke="#391303" d="M30 44h1" />
<path stroke="#461f0a" d="M26 45h1" />
<path stroke="#5c2806" d="M27 45h1" />
<path stroke="#401702" d="M28 45h1" />
<path stroke="#250d0d" d="M30 45h1" />
<path stroke="#130711" d="M25 46h1" />
<path stroke="#431906" d="M26 46h1" />
<path stroke="#3a1302" d="M27 46h1" />
<path stroke="#331003" d="M28 46h1" />
<path stroke="#2a0d06" d="M29 46h1" />
<path stroke="#311106" d="M25 47h2" />
<path stroke="#2e0e03" d="M27 47h1" />
<path stroke="#280d05" d="M28 47h1" />
<path stroke="#0d0712" d="M29 47h1" />
</svg>