<svg xmlns="http://www.w3.org/2000/svg" viewBox="0 -0.5 48 48" shape-rendering="crispEdges">
<metadata>Made with Pixels to Svg https://codepen.io/shshaw/pen/XbxvNj</metadata>
<path stroke="#000000" d="M14 25h2M11 26h3M16 26h1M9 27h2M16 27h1M8 28h1M17 28h3M7 29h1M20 29h1M6 30h1M20 30h1M5 31h1M20 31h1M5 32h1M21 32h1M30 32h2M4 33h1M22 33h1M29 33h1M32 33h1M4 34h1M22 34h2M28 34h1M33 34h1M4 35h1M24 35h1M26 35h2M33 35h1M4 36h1M25 36h2M32 36h4M4 37h1M31 37h3M36 37h1M5 38h1M37 38h1M41 38h2M5 39h1M38 39h3M43 39h1M6 40h1M43 40h1M6 41h1M15 41h1M42 41h1M5 42h1M16 42h2M42 42h1M5 43h1M18 43h1M41 43h1M4 44h1M10 44h3M18 44h3M41 44h1M4 45h1M7 45h3M12 45h1M21 45h1M41 45h1M5 46h2M12 46h1M41 46h1M13 47h3M22 47h16M40 47h1" />
<path stroke="#284629" d="M14 26h1" />
<path stroke="#2a4c30" d="M15 26h1" />
<path stroke="#771405" d="M11 27h2M11 28h1" />
<path stroke="#4a0e05" d="M13 27h1M12 28h1M5 36h1M5 37h2M6 38h1" />
<path stroke="#1e3818" d="M14 27h1" />
<path stroke="#416627" d="M15 27h1" />
<path stroke="#732006" d="M9 28h1M6 31h1M5 33h1M5 34h1M5 35h2" />
<path stroke="#7f2a19" d="M10 28h1" />
<path stroke="#314517" d="M13 28h1" />
<path stroke="#386724" d="M14 28h1" />
<path stroke="#233d15" d="M15 28h1" />
<path stroke="#1c2510" d="M16 28h1M16 29h1" />
<path stroke="#5e1918" d="M8 29h1" />
<path stroke="#9f350e" d="M9 29h1" />
<path stroke="#af4114" d="M10 29h1" />
<path stroke="#681e07" d="M11 29h1" />
<path stroke="#465119" d="M12 29h1" />
<path stroke="#539027" d="M13 29h1" />
<path stroke="#508e2b" d="M14 29h1" />
<path stroke="#274b20" d="M15 29h1" />
<path stroke="#516121" d="M17 29h1" />
<path stroke="#758e2b" d="M18 29h1" />
<path stroke="#375337" d="M19 29h1" />
<path stroke="#5c1718" d="M7 30h1" />
<path stroke="#aa3a12" d="M8 30h1" />
<path stroke="#b44313" d="M9 30h1" />
<path stroke="#762109" d="M10 30h1" />
<path stroke="#2e280c" d="M11 30h1" />
<path stroke="#4e8827" d="M12 30h1" />
<path stroke="#5b9d20" d="M13 30h1" />
<path stroke="#4f8d21" d="M14 30h1" />
<path stroke="#456a21" d="M15 30h1" />
<path stroke="#83a030" d="M16 30h1" />
<path stroke="#85ad21" d="M17 30h1" />
<path stroke="#6d981e" d="M18 30h1" />
<path stroke="#233c1a" d="M19 30h1" />
<path stroke="#9d3210" d="M7 31h1" />
<path stroke="#bc4616" d="M8 31h1" />
<path stroke="#99320d" d="M9 31h1" />
<path stroke="#471f0a" d="M10 31h1" />
<path stroke="#3c5f1a" d="M11 31h1" />
<path stroke="#5b9621" d="M12 31h1" />
<path stroke="#539120" d="M13 31h1" />
<path stroke="#5a9722" d="M14 31h1" />
<path stroke="#77ac24" d="M15 31h1" />
<path stroke="#7eaf1c" d="M16 31h1" />
<path stroke="#6fa51c" d="M17 31h1" />
<path stroke="#477121" d="M18 31h1" />
<path stroke="#153117" d="M19 31h1" />
<path stroke="#5e1c19" d="M6 32h1" />
<path stroke="#b44011" d="M7 32h1" />
<path stroke="#ac3a10" d="M8 32h1" />
<path stroke="#631e07" d="M9 32h1" />
<path stroke="#425618" d="M10 32h1" />
<path stroke="#6fa524" d="M11 32h1" />
<path stroke="#679b21" d="M12 32h1" />
<path stroke="#2e611c" d="M13 32h1" />
<path stroke="#2a6521" d="M14 32h1" />
<path stroke="#4a8727" d="M15 32h1" />
<path stroke="#619d20" d="M16 32h1" />
<path stroke="#538d23" d="M17 32h1" />
<path stroke="#214919" d="M18 32h1" />
<path stroke="#2e5d29" d="M19 32h1" />
<path stroke="#2b5624" d="M20 32h1" />
<path stroke="#86280a" d="M6 33h1" />
<path stroke="#b74516" d="M7 33h1" />
<path stroke="#97340e" d="M8 33h1" />
<path stroke="#451909" d="M9 33h1" />
<path stroke="#44691b" d="M10 33h1" />
<path stroke="#6aa225" d="M11 33h1" />
<path stroke="#397221" d="M12 33h1" />
<path stroke="#276729" d="M13 33h1" />
<path stroke="#2a672e" d="M14 33h1" />
<path stroke="#214b1c" d="M15 33h1" />
<path stroke="#4e8524" d="M16 33h1" />
<path stroke="#418024" d="M17 33h1" />
<path stroke="#326424" d="M18 33h1" />
<path stroke="#2a4f21" d="M19 33h1" />
<path stroke="#467123" d="M20 33h1" />
<path stroke="#365824" d="M21 33h1" />
<path stroke="#314924" d="M30 33h1" />
<path stroke="#36512a" d="M31 33h1" />
<path stroke="#862506" d="M6 34h1" />
<path stroke="#9b340b" d="M7 34h1" />
<path stroke="#7b2b0d" d="M8 34h1" />
<path stroke="#3c180b" d="M9 34h1" />
<path stroke="#45691f" d="M10 34h1" />
<path stroke="#5a9327" d="M11 34h1" />
<path stroke="#276a24" d="M12 34h1" />
<path stroke="#317830" d="M13 34h1" />
<path stroke="#224f23" d="M14 34h1" />
<path stroke="#254d1e" d="M15 34h1" />
<path stroke="#568f24" d="M16 34h1" />
<path stroke="#559421" d="M17 34h1" />
<path stroke="#4c8027" d="M18 34h1" />
<path stroke="#35571c" d="M19 34h1" />
<path stroke="#6ea024" d="M20 34h1" />
<path stroke="#476a1c" d="M21 34h1" />
<path stroke="#385520" d="M29 34h1" />
<path stroke="#38571b" d="M30 34h1" />
<path stroke="#5f8329" d="M31 34h1" />
<path stroke="#2a462a" d="M32 34h1" />
<path stroke="#832a09" d="M7 35h1" />
<path stroke="#5d1f11" d="M8 35h1" />
<path stroke="#34140e" d="M9 35h1" />
<path stroke="#375e20" d="M10 35h1" />
<path stroke="#478b2b" d="M11 35h1" />
<path stroke="#2b712b" d="M12 35h1" />
<path stroke="#225523" d="M13 35h1" />
<path stroke="#225022" d="M14 35h1" />
<path stroke="#377828" d="M15 35h1" />
<path stroke="#5e9a20" d="M16 35h1" />
<path stroke="#66a11c" d="M17 35h1" />
<path stroke="#4c7a1c" d="M18 35h1" />
<path stroke="#3e611a" d="M19 35h1" />
<path stroke="#71ac27" d="M20 35h1" />
<path stroke="#39601f" d="M21 35h1M14 43h1" />
<path stroke="#060917" d="M22 35h1" />
<path stroke="#271f24" d="M23 35h1" />
<path stroke="#243014" d="M28 35h1" />
<path stroke="#477028" d="M29 35h1" />
<path stroke="#2f5a21" d="M30 35h1" />
<path stroke="#1b3613" d="M31 35h1" />
<path stroke="#1f3519" d="M32 35h1" />
<path stroke="#5b190c" d="M6 36h1" />
<path stroke="#6d2410" d="M7 36h1" />
<path stroke="#511b15" d="M8 36h1" />
<path stroke="#321211" d="M9 36h1" />
<path stroke="#254b20" d="M10 36h1" />
<path stroke="#2d772c" d="M11 36h1" />
<path stroke="#2c732d" d="M12 36h1" />
<path stroke="#2c6424" d="M13 36h1" />
<path stroke="#397d28" d="M14 36h1" />
<path stroke="#4e9023" d="M15 36h1" />
<path stroke="#649f1c" d="M16 36h1" />
<path stroke="#65a01b" d="M17 36h1" />
<path stroke="#568d20" d="M18 36h1" />
<path stroke="#477c23" d="M19 36h1" />
<path stroke="#457d24" d="M20 36h1" />
<path stroke="#0e2814" d="M21 36h1" />
<path stroke="#110d11" d="M22 36h1" />
<path stroke="#361e10" d="M23 36h1" />
<path stroke="#221211" d="M24 36h1" />
<path stroke="#412313" d="M27 36h1" />
<path stroke="#35230e" d="M28 36h1" />
<path stroke="#243c18" d="M29 36h1" />
<path stroke="#214422" d="M30 36h1" />
<path stroke="#04111c" d="M31 36h1" />
<path stroke="#4f1915" d="M7 37h1" />
<path stroke="#4c1a19" d="M8 37h1" />
<path stroke="#441919" d="M9 37h1" />
<path stroke="#1e1e10" d="M10 37h1" />
<path stroke="#215824" d="M11 37h1" />
<path stroke="#2c762a" d="M12 37h1" />
<path stroke="#4c902b" d="M13 37h1" />
<path stroke="#5f9e27" d="M14 37h1" />
<path stroke="#5d9d23" d="M15 37h1" />
<path stroke="#5a9922" d="M16 37h1" />
<path stroke="#579623" d="M17 37h1" />
<path stroke="#4c8a27" d="M18 37h1" />
<path stroke="#2b5e21" d="M19 37h1" />
<path stroke="#0a200b" d="M20 37h1" />
<path stroke="#17311c" d="M21 37h1" />
<path stroke="#1f2b1a" d="M22 37h1" />
<path stroke="#573313" d="M23 37h1" />
<path stroke="#774718" d="M24 37h1" />
<path stroke="#5c3716" d="M25 37h1" />
<path stroke="#29190a" d="M26 37h1" />
<path stroke="#4c381a" d="M27 37h1" />
<path stroke="#20110b" d="M28 37h1" />
<path stroke="#030606" d="M29 37h1" />
<path stroke="#051217" d="M30 37h1" />
<path stroke="#629522" d="M34 37h2M34 38h1" />
<path stroke="#461518" d="M7 38h1" />
<path stroke="#3d1415" d="M8 38h1" />
<path stroke="#25110c" d="M9 38h1" />
<path stroke="#384217" d="M10 38h1" />
<path stroke="#426c20" d="M11 38h1" />
<path stroke="#337529" d="M12 38h1" />
<path stroke="#337729" d="M13 38h1" />
<path stroke="#43862a" d="M14 38h1" />
<path stroke="#378028" d="M15 38h1" />
<path stroke="#2f7929" d="M16 38h1" />
<path stroke="#2c722b" d="M17 38h1" />
<path stroke="#205427" d="M18 38h1" />
<path stroke="#061810" d="M19 38h1" />
<path stroke="#0b1b12" d="M20 38h1" />
<path stroke="#1b311a" d="M21 38h1" />
<path stroke="#352b12" d="M22 38h1" />
<path stroke="#8e5a1e" d="M23 38h1" />
<path stroke="#b07325" d="M24 38h1" />
<path stroke="#88571b" d="M25 38h1" />
<path stroke="#9b8139" d="M26 38h1" />
<path stroke="#94813e" d="M27 38h1" />
<path stroke="#18100a" d="M28 38h1" />
<path stroke="#170705" d="M29 38h1" />
<path stroke="#2d150b" d="M30 38h1" />
<path stroke="#331f18" d="M31 38h1" />
<path stroke="#171c18" d="M32 38h1" />
<path stroke="#366423" d="M33 38h1" />
<path stroke="#5b8724" d="M35 38h1" />
<path stroke="#446b21" d="M36 38h1M36 39h2" />
<path stroke="#3e1417" d="M6 39h2" />
<path stroke="#241f10" d="M8 39h1" />
<path stroke="#40621b" d="M9 39h1" />
<path stroke="#6d9924" d="M10 39h1" />
<path stroke="#629224" d="M11 39h1" />
<path stroke="#427325" d="M12 39h1" />
<path stroke="#2e6729" d="M13 39h1" />
<path stroke="#286b2d" d="M14 39h1" />
<path stroke="#25652a" d="M15 39h1" />
<path stroke="#1e4d23" d="M16 39h1" />
<path stroke="#092314" d="M17 39h1" />
<path stroke="#131913" d="M18 39h1" />
<path stroke="#110a0b" d="M19 39h1" />
<path stroke="#201c11" d="M20 39h1" />
<path stroke="#4a2c11" d="M21 39h1" />
<path stroke="#7f4f1a" d="M22 39h1" />
<path stroke="#a66c22" d="M23 39h1" />
<path stroke="#98601f" d="M24 39h1" />
<path stroke="#734e1c" d="M25 39h1" />
<path stroke="#948240" d="M26 39h1" />
<path stroke="#716437" d="M27 39h1" />
<path stroke="#442d14" d="M28 39h1" />
<path stroke="#6d4117" d="M29 39h1" />
<path stroke="#8a5620" d="M30 39h1" />
<path stroke="#6c411a" d="M31 39h1" />
<path stroke="#25230e" d="M32 39h1" />
<path stroke="#316425" d="M33 39h1" />
<path stroke="#478423" d="M34 39h1" />
<path stroke="#508c22" d="M35 39h1" />
<path stroke="#311f23" d="M41 39h1" />
<path stroke="#411b0b" d="M42 39h1" />
<path stroke="#221e17" d="M7 40h1" />
<path stroke="#507623" d="M8 40h1" />
<path stroke="#72a22b" d="M9 40h1" />
<path stroke="#4c731b" d="M10 40h1" />
<path stroke="#254012" d="M11 40h1" />
<path stroke="#2f4b1c" d="M12 40h1" />
<path stroke="#1a3314" d="M13 40h1" />
<path stroke="#15371e" d="M14 40h1" />
<path stroke="#1e2711" d="M15 40h1" />
<path stroke="#3a2910" d="M16 40h1" />
<path stroke="#3e2511" d="M17 40h1" />
<path stroke="#492a15" d="M18 40h1" />
<path stroke="#673f19" d="M19 40h1" />
<path stroke="#7c4d1a" d="M20 40h1" />
<path stroke="#935d1e" d="M21 40h1" />
<path stroke="#a56c21" d="M22 40h1" />
<path stroke="#9a641f" d="M23 40h1" />
<path stroke="#623913" d="M24 40h1" />
<path stroke="#2d1e11" d="M25 40h1" />
<path stroke="#292319" d="M26 40h1" />
<path stroke="#322110" d="M27 40h1" />
<path stroke="#7e4e1a" d="M28 40h1" />
<path stroke="#a86e23" d="M29 40h1" />
<path stroke="#a97022" d="M30 40h1" />
<path stroke="#9c6727" d="M31 40h1" />
<path stroke="#5b441b" d="M32 40h1" />
<path stroke="#244921" d="M33 40h1" />
<path stroke="#2b662b" d="M34 40h1" />
<path stroke="#2d6024" d="M35 40h1" />
<path stroke="#383c0d" d="M36 40h1" />
<path stroke="#401b04" d="M37 40h1" />
<path stroke="#15070a" d="M38 40h1" />
<path stroke="#1c1119" d="M39 40h1" />
<path stroke="#311711" d="M40 40h1" />
<path stroke="#4d210a" d="M41 40h1" />
<path stroke="#3d1e12" d="M42 40h1" />
<path stroke="#395825" d="M7 41h1" />
<path stroke="#6e9a32" d="M8 41h1" />
<path stroke="#3a5418" d="M9 41h1" />
<path stroke="#233112" d="M10 41h1" />
<path stroke="#334615" d="M11 41h1" />
<path stroke="#4d7329" d="M12 41h1" />
<path stroke="#0d1e10" d="M13 41h1" />
<path stroke="#070307" d="M14 41h1" />
<path stroke="#936227" d="M16 41h1" />
<path stroke="#9a6623" d="M17 41h1" />
<path stroke="#5b3616" d="M18 41h1" />
<path stroke="#543113" d="M19 41h1" />
<path stroke="#8d5a1e" d="M20 41h1" />
<path stroke="#aa7023" d="M21 41h1" />
<path stroke="#9a621b" d="M22 41h1" />
<path stroke="#794a17" d="M23 41h1" />
<path stroke="#3a2210" d="M24 41h1" />
<path stroke="#29221f" d="M25 41h1" />
<path stroke="#1c1815" d="M26 41h1" />
<path stroke="#533212" d="M27 41h1" />
<path stroke="#a46a21" d="M28 41h1" />
<path stroke="#ae7422" d="M29 41h1" />
<path stroke="#a46b22" d="M30 41h1" />
<path stroke="#6c461b" d="M31 41h1" />
<path stroke="#29200b" d="M32 41h1" />
<path stroke="#11210c" d="M33 41h1" />
<path stroke="#123119" d="M34 41h1" />
<path stroke="#232c15" d="M35 41h1" />
<path stroke="#391a06" d="M36 41h1" />
<path stroke="#3a1405" d="M37 41h1" />
<path stroke="#341407" d="M38 41h1" />
<path stroke="#5b2a0c" d="M39 41h1" />
<path stroke="#421a06" d="M40 41h1" />
<path stroke="#280c06" d="M41 41h1" />
<path stroke="#244635" d="M6 42h1" />
<path stroke="#5c832e" d="M7 42h1" />
<path stroke="#3c521b" d="M8 42h1" />
<path stroke="#424f1b" d="M9 42h1" />
<path stroke="#52661f" d="M10 42h1" />
<path stroke="#5b7824" d="M11 42h1" />
<path stroke="#2e451a" d="M12 42h1" />
<path stroke="#01030a" d="M13 42h1" />
<path stroke="#070d0c" d="M14 42h1" />
<path stroke="#233014" d="M15 42h1" />
<path stroke="#623c18" d="M18 42h1" />
<path stroke="#341c0c" d="M19 42h1" />
<path stroke="#583312" d="M20 42h1" />
<path stroke="#834f18" d="M21 42h1" />
<path stroke="#7e4b17" d="M22 42h1" />
<path stroke="#522e10" d="M23 42h1" />
<path stroke="#19110e" d="M24 42h1" />
<path stroke="#231f1c" d="M25 42h1" />
<path stroke="#150c09" d="M26 42h1" />
<path stroke="#603713" d="M27 42h1" />
<path stroke="#9c6520" d="M28 42h1" />
<path stroke="#8a5619" d="M29 42h1" />
<path stroke="#583812" d="M30 42h1" />
<path stroke="#253613" d="M31 42h1" />
<path stroke="#3a6b1c" d="M32 42h1" />
<path stroke="#648f22" d="M33 42h1" />
<path stroke="#435d1b" d="M34 42h1" />
<path stroke="#23180a" d="M35 42h1" />
<path stroke="#291007" d="M36 42h1" />
<path stroke="#170603" d="M37 42h1" />
<path stroke="#401a09" d="M38 42h1" />
<path stroke="#4f1f05" d="M39 42h1" />
<path stroke="#2a0b03" d="M40 42h1" />
<path stroke="#0e050a" d="M41 42h1" />
<path stroke="#4f7524" d="M6 43h1" />
<path stroke="#3d5b1c" d="M7 43h1" />
<path stroke="#3d511b" d="M8 43h1" />
<path stroke="#668228" d="M9 43h1" />
<path stroke="#4c6822" d="M10 43h1" />
<path stroke="#243819" d="M11 43h1" />
<path stroke="#000207" d="M12 43h1" />
<path stroke="#050e0a" d="M13 43h1" />
<path stroke="#4b8429" d="M15 43h1" />
<path stroke="#346125" d="M16 43h1" />
<path stroke="#223417" d="M17 43h1" />
<path stroke="#110605" d="M19 43h1" />
<path stroke="#40230d" d="M20 43h1" />
<path stroke="#623510" d="M21 43h1" />
<path stroke="#63350e" d="M22 43h1" />
<path stroke="#472810" d="M23 43h1" />
<path stroke="#100c12" d="M24 43h1" />
<path stroke="#151317" d="M25 43h1" />
<path stroke="#2d180b" d="M26 43h1" />
<path stroke="#6f3f14" d="M27 43h1" />
<path stroke="#744011" d="M28 43h1" />
<path stroke="#532b0b" d="M29 43h1" />
<path stroke="#171806" d="M30 43h1" />
<path stroke="#31691f" d="M31 43h1" />
<path stroke="#589b1e" d="M32 43h1" />
<path stroke="#78ae1e" d="M33 43h1" />
<path stroke="#73811c" d="M34 43h1" />
<path stroke="#5d370b" d="M35 43h1" />
<path stroke="#3a1706" d="M36 43h1" />
<path stroke="#1b0603" d="M37 43h1" />
<path stroke="#602b0b" d="M38 43h1" />
<path stroke="#4a1b03" d="M39 43h1" />
<path stroke="#230903" d="M40 43h1" />
<path stroke="#2f4a29" d="M5 44h1" />
<path stroke="#547924" d="M6 44h1" />
<path stroke="#334b19" d="M7 44h1" />
<path stroke="#425f28" d="M8 44h1" />
<path stroke="#233820" d="M9 44h1" />
<path stroke="#284c19" d="M13 44h1" />
<path stroke="#619620" d="M14 44h1" />
<path stroke="#5c8922" d="M15 44h1" />
<path stroke="#283912" d="M16 44h1" />
<path stroke="#11200d" d="M17 44h1" />
<path stroke="#542d12" d="M21 44h1" />
<path stroke="#5e3310" d="M22 44h1" />
<path stroke="#422410" d="M23 44h1" />
<path stroke="#0e0b11" d="M24 44h1" />
<path stroke="#131118" d="M25 44h1" />
<path stroke="#33190d" d="M26 44h1" />
<path stroke="#6f3e13" d="M27 44h1" />
<path stroke="#6c3d12" d="M28 44h1" />
<path stroke="#5a3213" d="M29 44h1" />
<path stroke="#1b200c" d="M30 44h1" />
<path stroke="#326c24" d="M31 44h1" />
<path stroke="#478a1f" d="M32 44h1" />
<path stroke="#649e21" d="M33 44h1" />
<path stroke="#58540c" d="M34 44h1" />
<path stroke="#5a2404" d="M35 44h1" />
<path stroke="#421a04" d="M36 44h1" />
<path stroke="#401905" d="M37 44h1" />
<path stroke="#6b3107" d="M38 44h1" />
<path stroke="#4b1c03" d="M39 44h1" />
<path stroke="#250a03" d="M40 44h1M40 45h1" />
<path stroke="#364d25" d="M5 45h1" />
<path stroke="#375631" d="M6 45h1" />
<path stroke="#255220" d="M13 45h1" />
<path stroke="#4a7b22" d="M14 45h1" />
<path stroke="#444411" d="M15 45h1" />
<path stroke="#43210b" d="M16 45h1" />
<path stroke="#2a290c" d="M17 45h1" />
<path stroke="#426e20" d="M18 45h1" />
<path stroke="#4e8223" d="M19 45h1" />
<path stroke="#2e4915" d="M20 45h1" />
<path stroke="#4d2a13" d="M22 45h1" />
<path stroke="#2d180d" d="M23 45h1" />
<path stroke="#050309" d="M24 45h1" />
<path stroke="#0d0c14" d="M25 45h1" />
<path stroke="#2a140e" d="M26 45h1" />
<path stroke="#5e3111" d="M27 45h1" />
<path stroke="#5c300e" d="M28 45h1" />
<path stroke="#542e12" d="M29 45h1" />
<path stroke="#19190e" d="M30 45h1" />
<path stroke="#173d1f" d="M31 45h1" />
<path stroke="#285c21" d="M32 45h1" />
<path stroke="#3d7724" d="M33 45h1" />
<path stroke="#40400d" d="M34 45h1" />
<path stroke="#461803" d="M35 45h1" />
<path stroke="#381203" d="M36 45h1" />
<path stroke="#461a03" d="M37 45h1" />
<path stroke="#6d3207" d="M38 45h1" />
<path stroke="#501f03" d="M39 45h1" />
<path stroke="#102e23" d="M13 46h1" />
<path stroke="#21411e" d="M14 46h1" />
<path stroke="#3a1e0d" d="M15 46h1" />
<path stroke="#362a0c" d="M16 46h1" />
<path stroke="#53791e" d="M17 46h1" />
<path stroke="#76a720" d="M18 46h1" />
<path stroke="#7aab20" d="M19 46h1" />
<path stroke="#568a22" d="M20 46h1" />
<path stroke="#1a3211" d="M21 46h1" />
<path stroke="#0e060a" d="M22 46h1" />
<path stroke="#04020d" d="M23 46h1" />
<path stroke="#00010c" d="M24 46h1M31 46h1" />
<path stroke="#01010c" d="M25 46h1" />
<path stroke="#20110e" d="M26 46h1" />
<path stroke="#502b14" d="M27 46h1" />
<path stroke="#502b12" d="M28 46h1" />
<path stroke="#4b2b14" d="M29 46h1" />
<path stroke="#11070c" d="M30 46h1" />
<path stroke="#051517" d="M32 46h1" />
<path stroke="#0a2115" d="M33 46h1" />
<path stroke="#241a0b" d="M34 46h1" />
<path stroke="#3e1706" d="M35 46h1" />
<path stroke="#361306" d="M36 46h1" />
<path stroke="#391304" d="M37 46h1" />
<path stroke="#542206" d="M38 46h1" />
<path stroke="#461a04" d="M39 46h1" />
<path stroke="#210904" d="M40 46h1" />
<path stroke="#19210e" d="M16 47h1" />
<path stroke="#46741f" d="M17 47h1" />
<path stroke="#6a9e23" d="M18 47h1" />
<path stroke="#689c22" d="M19 47h1" />
<path stroke="#477e20" d="M20 47h1" />
<path stroke="#17381b" d="M21 47h1" />
<path stroke="#28100b" d="M38 47h1" />
<path stroke="#270d07" d="M39 47h1" />
</svg>