<svg xmlns="http://www.w3.org/2000/svg" viewBox="0 -0.5 32 32" shape-rendering="crispEdges">
<metadata>Made with Pixels to Svg https://codepen.io/shshaw/pen/XbxvNj</metadata>
<path stroke="#070000" d="M0 24h1M8 24h1" />
<path stroke="#ff9068" d="M1 24h1M9 24h1" />
<path stroke="#f2544c" d="M2 24h1M10 24h1" />
<path stroke="#0e0704" d="M3 24h1M11 24h1" />
<path stroke="#100500" d="M4 24h1M12 24h1" />
<path stroke="#ec4d47" d="M5 24h1M13 24h1" />
<path stroke="#913c57" d="M6 24h1M14 24h1" />
<path stroke="#080000" d="M7 24h1M15 24h1" />
<path stroke="#000200" d="M0 25h1M8 25h1" />
<path stroke="#ff8a64" d="M1 25h1M9 25h1M1 26h1M9 26h1" />
<path stroke="#e85a4b" d="M2 25h1M10 25h1M2 26h1M10 26h1" />
<path stroke="#090702" d="M3 25h1M11 25h1" />
<path stroke="#0b0400" d="M4 25h1M12 25h1" />
<path stroke="#d9654c" d="M5 25h1M13 25h1" />
<path stroke="#8f3b56" d="M6 25h1M14 25h1" />
<path stroke="#000006" d="M7 25h1M15 25h1" />
<path stroke="#000302" d="M0 26h1M8 26h1" />
<path stroke="#070500" d="M3 26h1M11 26h1" />
<path stroke="#0d0500" d="M4 26h1M12 26h1" />
<path stroke="#df6950" d="M5 26h1M13 26h1M5 30h1M13 30h1" />
<path stroke="#8f3a57" d="M6 26h1M14 26h1M6 27h1M14 27h1M6 28h1M14 28h1M6 29h1M14 29h1M6 30h1M14 30h1M6 31h1M14 31h1" />
<path stroke="#080007" d="M7 26h1M15 26h1" />
<path stroke="#000300" d="M0 27h1M8 27h1" />
<path stroke="#ff8961" d="M1 27h1M9 27h1" />
<path stroke="#ea5e50" d="M2 27h1M10 27h1" />
<path stroke="#0b0608" d="M3 27h1M11 27h1" />
<path stroke="#070504" d="M4 27h1M12 27h1" />
<path stroke="#de6950" d="M5 27h1M13 27h1M5 28h1M13 28h1M5 29h1M13 29h1M5 31h1M13 31h1" />
<path stroke="#040102" d="M7 27h1M15 27h1" />
<path stroke="#000005" d="M0 28h1M8 28h1M7 31h1M15 31h1" />
<path stroke="#feb170" d="M1 28h1M9 28h1M1 29h1M9 29h1M1 30h1M9 30h1" />
<path stroke="#e95a46" d="M2 28h1M10 28h1M2 29h1M10 29h1M2 30h1M10 30h1" />
<path stroke="#0a0401" d="M3 28h1M11 28h1" />
<path stroke="#040603" d="M4 28h1M12 28h1" />
<path stroke="#060304" d="M7 28h1M15 28h1" />
<path stroke="#060100" d="M0 29h1M8 29h1" />
<path stroke="#0d0108" d="M3 29h1M11 29h1" />
<path stroke="#070608" d="M4 29h1M12 29h1" />
<path stroke="#010009" d="M7 29h1M15 29h1" />
<path stroke="#030000" d="M0 30h1M8 30h1" />
<path stroke="#040800" d="M3 30h1M11 30h1" />
<path stroke="#0a0600" d="M4 30h1M12 30h1" />
<path stroke="#000004" d="M7 30h1M15 30h1" />
<path stroke="#000000" d="M0 31h1M8 31h1" />
<path stroke="#fdb06d" d="M1 31h1M9 31h1" />
<path stroke="#e95a4a" d="M2 31h1M10 31h1" />
<path stroke="#030608" d="M3 31h1M11 31h1" />
<path stroke="#070700" d="M4 31h1M12 31h1" />
</svg>