<svg xmlns="http://www.w3.org/2000/svg" viewBox="0 -0.5 32 32" shape-rendering="crispEdges">
<metadata>Made with Pixels to Svg https://codepen.io/shshaw/pen/XbxvNj</metadata>
<path stroke="#070000" d="M0 0h1M8 0h1M0 10h1M8 10h1" />
<path stroke="#ff9068" d="M1 0h1M9 0h1M1 10h1M9 10h1" />
<path stroke="#f2544c" d="M2 0h1M10 0h1M2 10h1M10 10h1" />
<path stroke="#0e0704" d="M3 0h1M11 0h1M3 10h1M11 10h1" />
<path stroke="#100500" d="M4 0h1M12 0h1M4 9h1M12 9h1" />
<path stroke="#ec4d47" d="M5 0h1M13 0h1M5 9h1M13 9h1" />
<path stroke="#913c57" d="M6 0h1M14 0h1M6 9h1M14 9h1" />
<path stroke="#080000" d="M7 0h1M15 0h1M7 9h1M15 9h1" />
<path stroke="#000200" d="M0 1h1M8 1h1M0 9h1M8 9h1M0 11h1M8 11h1M0 19h1M0 20h1M8 20h1M0 29h1M8 29h1M0 30h1M8 30h1M0 31h1M8 31h1" />
<path stroke="#ff8a64" d="M1 1h1M9 1h1M1 2h1M9 2h1M1 9h1M9 9h1M1 11h1M9 11h1M1 12h1M1 19h1M1 20h1M9 20h1M1 27h1M9 27h1M1 28h1M9 28h1M1 29h1M9 29h1M1 30h1M9 30h1M1 31h1M9 31h1" />
<path stroke="#e85a4b" d="M2 1h1M10 1h1M2 2h1M10 2h1M2 9h1M10 9h1M2 11h1M10 11h1M2 12h1M10 12h1M2 19h1M10 19h1M2 20h1M10 20h1M2 27h1M10 27h1M2 28h1M10 28h1M2 29h1M10 29h1M2 30h1M10 30h1M2 31h1M10 31h1" />
<path stroke="#090702" d="M3 1h1M11 1h1M3 9h1M11 9h1M3 11h1M11 11h1M3 19h1M11 19h1M3 20h1M11 20h1M3 21h1M11 21h1" />
<path stroke="#0b0400" d="M4 1h1M12 1h1M4 8h1M12 8h1M4 10h1M12 10h1M12 17h1" />
<path stroke="#d9654c" d="M5 1h1M13 1h1M5 10h1M13 10h1" />
<path stroke="#8f3b56" d="M6 1h1M14 1h1M6 10h1M14 10h1" />
<path stroke="#000006" d="M7 1h1M15 1h1M7 10h1M15 10h1M15 19h1" />
<path stroke="#000302" d="M0 2h1M8 2h1M0 12h1" />
<path stroke="#070500" d="M3 2h1M11 2h1M3 12h1M11 12h1" />
<path stroke="#0d0500" d="M4 2h1M12 2h1M4 11h1M12 11h1" />
<path stroke="#df6950" d="M5 2h1M13 2h1M5 6h1M13 6h1M5 8h1M13 8h1M5 11h1M13 11h1M13 15h1M13 17h1M5 22h1M13 22h1M5 23h1M13 23h1M5 24h1M13 24h1M5 26h1M13 26h1M5 27h1M13 27h1" />
<path stroke="#8f3a57" d="M6 2h1M14 2h1M6 3h1M14 3h1M6 4h1M14 4h1M6 5h1M14 5h1M6 6h1M14 6h1M6 7h1M14 7h1M6 8h1M14 8h1M6 11h1M14 11h1M14 12h1M14 13h1M14 14h1M14 15h1M14 16h1M14 17h1M14 18h1M6 21h1M14 21h1M6 22h1M14 22h1M6 23h1M14 23h1M6 24h1M14 24h1M6 25h1M14 25h1M6 26h1M14 26h1" />
<path stroke="#080007" d="M7 2h1M15 2h1M7 11h1M15 11h1" />
<path stroke="#000300" d="M0 3h1M8 3h1M0 13h1M0 21h1M8 21h1M0 27h1M8 27h1M0 28h1M8 28h1" />
<path stroke="#ff8961" d="M1 3h1M9 3h1M1 13h1" />
<path stroke="#ea5e50" d="M2 3h1M10 3h1M2 13h1" />
<path stroke="#0b0608" d="M3 3h1M11 3h1M3 13h1M11 13h1" />
<path stroke="#070504" d="M4 3h1M12 3h1M4 12h1M12 12h1" />
<path stroke="#de6950" d="M5 3h1M13 3h1M5 4h1M13 4h1M5 5h1M13 5h1M5 7h1M13 7h1M5 12h1M13 12h1M13 13h1M13 14h1M13 16h1M5 25h1M13 25h1" />
<path stroke="#040102" d="M7 3h1M15 3h1M15 12h1" />
<path stroke="#000005" d="M0 4h1M8 4h1M7 7h1M15 7h1M7 8h1M15 8h1M0 14h1M15 16h1M15 17h1M15 18h1M7 20h1M15 20h1M7 21h1M15 21h1M7 22h1M15 22h1M7 23h1M15 23h1" />
<path stroke="#feb170" d="M1 4h1M9 4h1M1 5h1M9 5h1M1 6h1M9 6h1M1 14h1M1 15h1M1 16h1" />
<path stroke="#e95a46" d="M2 4h1M10 4h1M2 5h1M10 5h1M2 6h1M10 6h1M2 14h1M2 15h1M2 16h1" />
<path stroke="#0a0401" d="M3 4h1M11 4h1M3 14h1" />
<path stroke="#040603" d="M4 4h1M12 4h1M4 13h1M12 13h1" />
<path stroke="#060304" d="M7 4h1M15 4h1M15 13h1" />
<path stroke="#060100" d="M0 5h1M8 5h1M0 15h1" />
<path stroke="#0d0108" d="M3 5h1M11 5h1M3 15h1" />
<path stroke="#070608" d="M4 5h1M12 5h1M12 14h1" />
<path stroke="#010009" d="M7 5h1M15 5h1M15 14h1" />
<path stroke="#030000" d="M0 6h1M8 6h1M0 16h1M7 25h1M15 25h1" />
<path stroke="#040800" d="M3 6h1M11 6h1M3 16h1" />
<path stroke="#0a0600" d="M4 6h1M12 6h1M12 15h1" />
<path stroke="#000004" d="M7 6h1M15 6h1M15 15h1" />
<path stroke="#000000" d="M0 7h1M8 7h1M0 17h1" />
<path stroke="#fdb06d" d="M1 7h1M9 7h1M1 17h1" />
<path stroke="#e95a4a" d="M2 7h1M10 7h1M2 17h1" />
<path stroke="#030608" d="M3 7h1M11 7h1M3 17h1" />
<path stroke="#070700" d="M4 7h1M12 7h1M12 16h1" />
<path stroke="#000100" d="M0 8h1M8 8h1M0 18h1" />
<path stroke="#fd8962" d="M1 8h1M9 8h1M1 18h1" />
<path stroke="#e95d4e" d="M2 8h1M10 8h1M2 18h1" />
<path stroke="#070507" d="M3 8h1M11 8h1M3 18h1M11 18h1" />
<path stroke="#131313" d="M6 12h4M10 13h1M11 14h1M11 15h1M11 16h1M11 17h1M10 18h1" />
<path stroke="#222222" d="M5 13h1M4 14h1M4 15h1M4 16h1M4 17h1M5 18h1M6 19h4" />
<path stroke="#075802" d="M6 13h4M9 14h2M10 15h1M10 16h1M10 17h1" />
<path stroke="#076901" d="M5 14h4M8 15h2M9 16h1M9 17h1M9 18h1" />
<path stroke="#087c02" d="M5 15h3M7 16h2M8 17h1M8 18h1" />
<path stroke="#098902" d="M5 16h2M6 17h2M7 18h1" />
<path stroke="#0a9802" d="M5 17h1M6 18h1" />
<path stroke="#0b0300" d="M4 18h1M12 18h1M4 19h1M12 19h1M4 21h1M12 21h1" />
<path stroke="#df6750" d="M13 18h1" />
<path stroke="#e2544e" d="M5 19h1M13 19h1" />
<path stroke="#8f3a56" d="M14 19h1M6 28h1M14 28h1M6 29h1M14 29h1M6 30h1M14 30h1" />
<path stroke="#0b0200" d="M4 20h1M12 20h1" />
<path stroke="#e2514d" d="M5 20h1M13 20h1" />
<path stroke="#8f3a55" d="M6 20h1M14 20h1" />
<path stroke="#ff8761" d="M1 21h1M9 21h1" />
<path stroke="#e75b4c" d="M2 21h1M10 21h1" />
<path stroke="#df6851" d="M5 21h1M13 21h1" />
<path stroke="#010200" d="M0 22h1M8 22h1" />
<path stroke="#faac70" d="M1 22h1M9 22h1" />
<path stroke="#e95c4e" d="M2 22h1M10 22h1" />
<path stroke="#090609" d="M3 22h1M11 22h1" />
<path stroke="#0e0400" d="M4 22h1M12 22h1" />
<path stroke="#020100" d="M0 23h1M8 23h1M0 24h1M8 24h1" />
<path stroke="#f98b62" d="M1 23h1M9 23h1" />
<path stroke="#ea5d4f" d="M2 23h1M10 23h1" />
<path stroke="#0c0303" d="M3 23h1M11 23h1M3 29h1M11 29h1" />
<path stroke="#0a0602" d="M4 23h1M12 23h1" />
<path stroke="#fab16d" d="M1 24h1M9 24h1" />
<path stroke="#ea5b49" d="M2 24h1M10 24h1" />
<path stroke="#0b0301" d="M3 24h1M11 24h1M3 25h1M11 25h1M3 26h1M11 26h1M3 27h1M11 27h1M3 28h1M11 28h1" />
<path stroke="#080603" d="M4 24h1M12 24h1M4 25h1M12 25h1M4 26h1M12 26h1M4 27h1M12 27h1" />
<path stroke="#050005" d="M7 24h1M15 24h1" />
<path stroke="#020000" d="M0 25h1M8 25h1" />
<path stroke="#fcb06d" d="M1 25h1M9 25h1" />
<path stroke="#ea5a48" d="M2 25h1M10 25h1" />
<path stroke="#010100" d="M0 26h1M8 26h1" />
<path stroke="#f98b60" d="M1 26h1M9 26h1" />
<path stroke="#eb5d4f" d="M2 26h1M10 26h1" />
<path stroke="#020001" d="M7 26h1M15 26h1" />
<path stroke="#8f3b55" d="M6 27h1M14 27h1" />
<path stroke="#020002" d="M7 27h1M15 27h1" />
<path stroke="#0e0206" d="M4 28h1M12 28h1M4 29h1M12 29h1" />
<path stroke="#e4554f" d="M5 28h1M13 28h1" />
<path stroke="#060001" d="M7 28h1M15 28h1M7 29h1M15 29h1M7 30h1M15 30h1" />
<path stroke="#e5534f" d="M5 29h1M13 29h1M5 30h1M13 30h1" />
<path stroke="#080400" d="M3 30h1M11 30h1" />
<path stroke="#0d0206" d="M4 30h1M12 30h1" />
<path stroke="#070502" d="M3 31h1M11 31h1" />
<path stroke="#0e0307" d="M4 31h1M12 31h1" />
<path stroke="#e15653" d="M5 31h1M13 31h1" />
<path stroke="#8b3c57" d="M6 31h1M14 31h1" />
<path stroke="#070005" d="M7 31h1M15 31h1" />
</svg>