<svg xmlns="http://www.w3.org/2000/svg" viewBox="0 -0.5 32 32" shape-rendering="crispEdges">
<metadata>Made with Pixels to Svg https://codepen.io/shshaw/pen/XbxvNj</metadata>
<path stroke="#070000" d="M0 16h1M8 16h1M0 26h1M8 26h1" />
<path stroke="#ff9068" d="M1 16h1M9 16h1M1 26h1M9 26h1" />
<path stroke="#f2544c" d="M2 16h1M10 16h1M2 26h1M10 26h1" />
<path stroke="#0e0704" d="M3 16h1M11 16h1M3 26h1M11 26h1" />
<path stroke="#100500" d="M4 16h1M12 16h1M4 25h1M12 25h1" />
<path stroke="#ec4d47" d="M5 16h1M13 16h1M5 25h1M13 25h1" />
<path stroke="#913c57" d="M6 16h1M14 16h1M6 25h1M14 25h1" />
<path stroke="#080000" d="M7 16h1M15 16h1M7 25h1M15 25h1" />
<path stroke="#000200" d="M0 17h1M8 17h1M0 25h1M8 25h1M0 27h1M8 27h1" />
<path stroke="#ff8a64" d="M1 17h1M9 17h1M1 18h1M9 18h1M1 25h1M9 25h1M1 27h1M9 27h1M1 28h1" />
<path stroke="#e85a4b" d="M2 17h1M10 17h1M2 18h1M10 18h1M2 25h1M10 25h1M2 27h1M10 27h1M2 28h1M10 28h1" />
<path stroke="#090702" d="M3 17h1M11 17h1M3 25h1M11 25h1M3 27h1M11 27h1" />
<path stroke="#0b0400" d="M4 17h1M12 17h1M4 24h1M12 24h1M4 26h1M12 26h1" />
<path stroke="#d9654c" d="M5 17h1M13 17h1M5 26h1M13 26h1" />
<path stroke="#8f3b56" d="M6 17h1M14 17h1M6 26h1M14 26h1" />
<path stroke="#000006" d="M7 17h1M15 17h1M7 26h1M15 26h1" />
<path stroke="#000302" d="M0 18h1M8 18h1M0 28h1" />
<path stroke="#070500" d="M3 18h1M11 18h1M3 28h1M11 28h1" />
<path stroke="#0d0500" d="M4 18h1M12 18h1M4 27h1M12 27h1" />
<path stroke="#df6950" d="M5 18h1M13 18h1M5 22h1M13 22h1M5 24h1M13 24h1M5 27h1M13 27h1M13 31h1" />
<path stroke="#8f3a57" d="M6 18h1M14 18h1M6 19h1M14 19h1M6 20h1M14 20h1M6 21h1M14 21h1M6 22h1M14 22h1M6 23h1M14 23h1M6 24h1M14 24h1M6 27h1M14 27h1M14 28h1M14 29h1M14 30h1M14 31h1" />
<path stroke="#080007" d="M7 18h1M15 18h1M7 27h1M15 27h1" />
<path stroke="#000300" d="M0 19h1M8 19h1M0 29h1" />
<path stroke="#ff8961" d="M1 19h1M9 19h1M1 29h1" />
<path stroke="#ea5e50" d="M2 19h1M10 19h1M2 29h1" />
<path stroke="#0b0608" d="M3 19h1M11 19h1M3 29h1M11 29h1" />
<path stroke="#070504" d="M4 19h1M12 19h1M4 28h1M12 28h1" />
<path stroke="#de6950" d="M5 19h1M13 19h1M5 20h1M13 20h1M5 21h1M13 21h1M5 23h1M13 23h1M5 28h1M13 28h1M13 29h1M13 30h1" />
<path stroke="#040102" d="M7 19h1M15 19h1M15 28h1" />
<path stroke="#000005" d="M0 20h1M8 20h1M7 23h1M15 23h1M7 24h1M15 24h1M0 30h1" />
<path stroke="#feb170" d="M1 20h1M9 20h1M1 21h1M9 21h1M1 22h1M9 22h1M1 30h1M1 31h1" />
<path stroke="#e95a46" d="M2 20h1M10 20h1M2 21h1M10 21h1M2 22h1M10 22h1M2 30h1M2 31h1" />
<path stroke="#0a0401" d="M3 20h1M11 20h1M3 30h1" />
<path stroke="#040603" d="M4 20h1M12 20h1M4 29h1M12 29h1" />
<path stroke="#060304" d="M7 20h1M15 20h1M15 29h1" />
<path stroke="#060100" d="M0 21h1M8 21h1M0 31h1" />
<path stroke="#0d0108" d="M3 21h1M11 21h1M3 31h1" />
<path stroke="#070608" d="M4 21h1M12 21h1M12 30h1" />
<path stroke="#010009" d="M7 21h1M15 21h1M15 30h1" />
<path stroke="#030000" d="M0 22h1M8 22h1" />
<path stroke="#040800" d="M3 22h1M11 22h1" />
<path stroke="#0a0600" d="M4 22h1M12 22h1M12 31h1" />
<path stroke="#000004" d="M7 22h1M15 22h1M15 31h1" />
<path stroke="#000000" d="M0 23h1M8 23h1" />
<path stroke="#fdb06d" d="M1 23h1M9 23h1" />
<path stroke="#e95a4a" d="M2 23h1M10 23h1" />
<path stroke="#030608" d="M3 23h1M11 23h1" />
<path stroke="#070700" d="M4 23h1M12 23h1" />
<path stroke="#000100" d="M0 24h1M8 24h1" />
<path stroke="#fd8962" d="M1 24h1M9 24h1" />
<path stroke="#e95d4e" d="M2 24h1M10 24h1" />
<path stroke="#070507" d="M3 24h1M11 24h1" />
<path stroke="#131313" d="M6 28h4M10 29h1M11 30h1M11 31h1" />
<path stroke="#222222" d="M5 29h1M4 30h1M4 31h1" />
<path stroke="#075802" d="M6 29h4M9 30h2M10 31h1" />
<path stroke="#076901" d="M5 30h4M8 31h2" />
<path stroke="#087c02" d="M5 31h3" />
</svg>