<svg xmlns="http://www.w3.org/2000/svg" viewBox="0 -0.5 32 32" shape-rendering="crispEdges">
<metadata>Made with Pixels to Svg https://codepen.io/shshaw/pen/XbxvNj</metadata>
<path stroke="#1aa108" d="M2 0h8M14 0h11M28 0h4M0 1h5M8 1h8M21 1h8M31 1h1M4 4h1M22 4h1M3 5h1M5 5h1M15 5h1M21 5h1M23 5h1M29 5h2M3 6h1M6 6h1M14 6h1M16 6h1M22 6h1M24 6h1M28 6h1M31 6h1M2 7h2M6 7h1M13 7h1M16 7h1M23 7h1M25 7h1M28 7h1M30 7h1M0 8h3M6 8h5M12 8h2M15 8h5M23 8h1M25 8h3M30 8h2M10 9h2M20 9h3" />
<path stroke="#21c408" d="M5 1h3M16 1h5M29 1h2M0 2h5M7 2h10M20 2h3M24 2h4M30 2h2M0 3h1M4 3h2M8 3h1M14 3h2M20 3h3M31 3h1M3 4h1M5 4h2M14 4h3M20 4h2M23 4h2M28 4h3M2 5h1M6 5h2M12 5h3M16 5h2M24 5h5M31 5h1M0 6h3M7 6h2M12 6h2M17 6h2M21 6h1M25 6h3M0 7h2M7 7h6M17 7h1M19 7h4M26 7h2M31 7h1M11 8h1M20 8h3" />
<path stroke="#0e210e" d="M5 2h2M18 2h1M23 2h1M29 2h1M1 3h1M9 3h1M16 3h2M24 3h2M28 3h1M0 4h2M8 4h1M10 4h1M13 4h1M31 4h1M4 5h1M10 5h1M22 5h1M4 6h2M15 6h1M19 6h1M23 6h1M29 6h2M4 7h2M14 7h2M18 7h1M24 7h1M29 7h1M3 8h3M14 8h1M24 8h1M28 8h2M0 9h10M12 9h8M23 9h9M1 10h2M5 10h2M9 10h4M19 10h6M29 10h3M2 11h9M23 11h8M1 12h2M10 12h2M15 12h9M31 12h1M0 13h2M11 13h5M21 13h1M31 13h1M0 14h1M12 14h1M21 14h1M31 14h1M0 15h1M12 15h1M21 15h1M31 15h1M0 16h1M12 16h1M21 16h1M31 16h1M0 17h3M12 17h1M20 17h3M29 17h3M3 18h3M11 18h3M19 18h2M23 18h7M5 19h7M14 19h6M5 20h2M15 20h1M17 20h2M31 20h1M4 21h2M15 21h1M18 21h2M30 21h2M3 22h2M14 22h1M19 22h4M28 22h3M1 23h1M3 23h1M13 23h2M22 23h7M0 24h5M12 24h2M28 24h1M2 25h1M4 25h12M27 25h1M2 26h2M16 26h3M25 26h3M31 26h1M3 27h1M18 27h4M23 27h3M30 27h2M4 28h1M17 28h2M21 28h3M29 28h2M3 29h3M15 29h3M28 29h2M2 30h2M5 30h1M12 30h4M18 30h2M27 30h4M0 31h3M6 31h6M20 31h7M30 31h2" />
<path stroke="#22cc08" d="M17 2h1M19 2h1M28 2h1M2 3h2M6 3h2M10 3h4M18 3h2M23 3h1M26 3h2M29 3h2M2 4h1M7 4h1M9 4h1M11 4h2M17 4h3M25 4h3M0 5h2M8 5h2M11 5h1M18 5h3M9 6h3M20 6h1" />
<path stroke="#522a02" d="M0 10h1M3 10h1M7 10h2M13 10h3M17 10h2M25 10h2M28 10h1M11 11h1M13 11h1M15 11h1M17 11h6M31 11h1M0 12h1M3 12h7M12 12h3M24 12h7M2 13h1M10 13h1M16 13h5M22 13h2M30 13h1M1 14h1M11 14h1M13 14h3M20 14h1M22 14h1M30 14h1M1 15h1M11 15h1M13 15h1M20 15h1M22 15h1M30 15h1M1 16h2M11 16h1M13 16h1M20 16h1M22 16h1M29 16h2M3 17h3M11 17h1M13 17h1M19 17h1M23 17h6M0 18h3M6 18h5M14 18h5M21 18h2M30 18h2M0 19h1M3 19h2M12 19h2M20 19h10M31 19h1M0 20h1M4 20h1M7 20h5M14 20h1M16 20h1M19 20h1M30 20h1M0 21h1M3 21h1M6 21h1M14 21h1M16 21h2M20 21h3M28 21h2M0 22h3M5 22h1M13 22h1M15 22h1M18 22h1M23 22h5M31 22h1M0 23h1M2 23h1M4 23h1M12 23h1M15 23h1M19 23h3M29 23h2M5 24h7M14 24h1M22 24h6M29 24h1M0 25h2M3 25h1M16 25h3M25 25h2M28 25h1M31 25h1M0 26h2M4 26h12M19 26h3M23 26h2M28 26h1M30 26h1M0 27h1M2 27h1M4 27h1M16 27h2M22 27h1M26 27h2M29 27h1M0 28h1M3 28h1M5 28h1M15 28h2M19 28h2M24 28h2M28 28h1M31 28h1M0 29h1M2 29h1M6 29h1M12 29h3M18 29h2M21 29h3M27 29h1M30 29h1M0 30h2M4 30h1M6 30h6M16 30h2M20 30h7M3 31h1M5 31h1M12 31h4M18 31h2M27 31h2" />
<path stroke="#452301" d="M4 10h1M16 10h1M27 10h1M0 11h2M12 11h1M14 11h1M16 11h1M6 14h2M26 14h2M4 15h2M7 15h2M16 15h1M25 15h1M8 16h2M16 16h1M2 20h1M25 20h2M24 21h2M8 22h3M7 23h1M17 23h1M18 24h2M1 28h1M9 28h2M27 28h1M17 31h1" />
<path stroke="#733b03" d="M3 13h7M24 13h6M2 14h4M8 14h3M16 14h4M23 14h3M28 14h2M2 15h2M6 15h1M9 15h2M14 15h2M17 15h3M23 15h2M26 15h4M3 16h5M10 16h1M14 16h2M17 16h3M23 16h6M6 17h5M14 17h5M1 19h2M30 19h1M1 20h1M3 20h1M12 20h2M20 20h5M27 20h3M1 21h2M7 21h7M23 21h1M26 21h2M6 22h2M11 22h2M16 22h2M5 23h2M8 23h4M16 23h1M18 23h1M31 23h1M15 24h3M20 24h2M30 24h2M19 25h6M29 25h2M22 26h1M29 26h1M1 27h1M5 27h11M28 27h1M2 28h1M6 28h3M11 28h4M26 28h1M1 29h1M7 29h5M20 29h1M24 29h3M31 29h1M31 30h1M4 31h1M16 31h1M29 31h1" />
</svg>