<svg xmlns="http://www.w3.org/2000/svg" viewBox="0 -0.5 32 32" shape-rendering="crispEdges">
<metadata>Made with Pixels to Svg https://codepen.io/shshaw/pen/XbxvNj</metadata>
<path stroke="#3a444f" d="M0 0h5M0 1h4M8 3h1M0 7h3M0 8h3M0 9h2M8 10h1M7 11h1M1 15h2M0 16h4M9 16h1M0 17h3M9 17h1M0 18h2M6 22h2M7 23h2M0 24h2M0 25h2M0 26h1M6 29h2M5 30h4M5 31h4" />
<path stroke="#2b3540" d="M5 0h2M4 1h2M0 2h5M8 2h2M4 3h1M7 3h1M9 3h1M8 4h2M1 5h2M0 6h6M3 7h2M3 8h1M2 9h2M7 9h3M0 10h4M7 10h1M9 10h1M6 11h1M8 11h2M6 12h3M7 13h1M0 14h4M0 15h1M3 15h2M4 16h1M3 17h2M2 18h2M0 19h3M6 20h2M5 21h4M5 22h1M8 22h2M0 23h3M6 23h1M9 23h1M2 24h1M6 24h4M2 25h1M1 26h2M0 27h2M0 28h1M5 28h4M0 29h1M4 29h2M8 29h2M0 30h1M4 30h1M9 30h1M4 31h1M9 31h1" />
<path stroke="#182029" d="M7 0h5M6 1h2M11 1h1M5 2h2M11 2h1M0 3h4M5 3h1M11 3h1M0 4h1M3 4h4M11 4h1M6 5h2M11 5h1M7 6h5M6 7h4M11 7h1M5 8h2M11 8h1M5 9h1M11 9h1M5 10h1M11 10h1M4 11h1M11 11h1M0 12h5M11 12h1M4 13h2M9 13h3M5 14h2M8 14h2M11 14h1M6 15h3M11 15h1M6 16h2M11 16h1M6 17h1M11 17h1M5 18h4M11 18h1M4 19h2M8 19h2M11 19h1M3 20h2M9 20h3M0 21h3M11 21h1M3 22h1M11 22h1M4 23h1M11 23h1M4 24h1M11 24h1M4 25h1M11 25h1M4 26h6M11 26h1M3 27h2M9 27h3M2 28h2M10 28h2M2 29h1M11 29h1M2 30h1M11 30h1M2 31h1M11 31h1" />
<path stroke="#232d38" d="M8 1h3M7 2h1M10 2h1M6 3h1M10 3h1M1 4h2M7 4h1M10 4h1M0 5h1M3 5h3M8 5h3M6 6h1M5 7h1M10 7h1M4 8h1M7 8h4M4 9h1M6 9h1M10 9h1M4 10h1M6 10h1M10 10h1M0 11h4M5 11h1M10 11h1M5 12h1M9 12h2M0 13h4M6 13h1M8 13h1M4 14h1M7 14h1M10 14h1M5 15h1M9 15h2M5 16h1M8 16h1M10 16h1M5 17h1M7 17h2M10 17h1M4 18h1M9 18h2M3 19h1M6 19h2M10 19h1M0 20h3M5 20h1M8 20h1M3 21h2M9 21h2M0 22h3M4 22h1M10 22h1M3 23h1M5 23h1M10 23h1M3 24h1M5 24h1M10 24h1M3 25h1M5 25h6M3 26h1M10 26h1M2 27h1M5 27h4M1 28h1M4 28h1M9 28h1M1 29h1M3 29h1M10 29h1M1 30h1M3 30h1M10 30h1M0 31h2M3 31h1M10 31h1" />
</svg>