<svg xmlns="http://www.w3.org/2000/svg" viewBox="0 -0.5 32 32" shape-rendering="crispEdges">
<metadata>Made with Pixels to Svg https://codepen.io/shshaw/pen/XbxvNj</metadata>
<path stroke="#b5b3b5" d="M2 0h28M0 1h2M3 1h3M10 1h12M30 1h2M14 2h6" />
<path stroke="#101630" d="M2 1h1" />
<path stroke="#919191" d="M6 1h2M9 1h1M22 1h7M0 2h1M2 2h6M9 2h5M20 2h10M31 2h1" />
<path stroke="#080d21" d="M8 1h1M29 1h1M1 2h1M8 2h1M30 2h1M1 3h1M9 3h1M31 3h1M0 4h1M10 4h1M30 4h2M0 5h1M11 5h3M30 5h1M1 6h1M14 6h2M29 6h1M1 7h1M16 7h1M29 7h1M1 8h2M17 8h1M28 8h1M2 9h1M16 9h2M26 9h6M2 10h2M15 10h2M18 10h1M21 10h5M4 11h2M15 11h1M18 11h1M20 11h2M4 12h12M19 12h2M4 13h1M14 13h1M19 13h1M3 14h2M15 14h1M19 14h1M3 15h1M15 15h2M19 15h1M3 16h1M16 16h1M19 16h1M1 17h2M4 17h1M16 17h2M19 17h1M0 18h1M4 18h2M15 18h2M18 18h2M31 18h1M5 19h2M14 19h2M19 19h3M30 19h1M6 20h2M13 20h2M22 20h8M7 21h3M13 21h1M24 21h1M9 22h5M23 22h1M7 23h2M13 23h1M22 23h1M6 24h2M13 24h1M22 24h2M5 25h1M13 25h1M23 25h2M0 26h1M4 26h2M13 26h1M21 26h2M24 26h2M30 26h2M1 27h2M4 27h1M13 27h1M18 27h3M26 27h1M28 27h3M3 28h2M14 28h1M16 28h2M26 28h3M3 29h2M14 29h2M26 29h1M4 30h2M12 30h2M26 30h1M5 31h1M12 31h1M26 31h1" />
<path stroke="#858585" d="M0 3h1M2 3h7M10 3h21" />
<path stroke="#404247" d="M1 4h9M11 4h19M1 5h1M10 5h1M14 5h2M29 5h1M31 5h1M0 6h1M2 6h1M11 6h3M16 6h1M28 6h1M30 6h2M0 7h1M2 7h1M14 7h2M17 7h1M28 7h1M30 7h1M0 8h1M3 8h1M16 8h1M18 8h1M26 8h2M29 8h3M1 9h1M3 9h1M15 9h1M18 9h1M21 9h5M1 10h1M4 10h2M14 10h1M17 10h1M19 10h2M26 10h6M2 11h2M6 11h9M16 11h2M19 11h1M22 11h4M3 12h1M16 12h1M18 12h1M21 12h1M3 13h1M5 13h9M15 13h1M18 13h1M20 13h1M2 14h1M5 14h1M14 14h1M16 14h1M18 14h1M20 14h1M2 15h1M4 15h1M14 15h1M17 15h2M20 15h1M1 16h2M4 16h1M15 16h1M17 16h2M20 16h1M0 17h1M3 17h1M5 17h1M15 17h1M18 17h1M20 17h1M31 17h1M1 18h3M6 18h1M14 18h1M17 18h1M20 18h2M30 18h1M0 19h1M4 19h1M7 19h1M13 19h1M16 19h1M18 19h1M22 19h8M31 19h1M5 20h1M8 20h2M12 20h1M15 20h1M19 20h3M30 20h1M6 21h1M10 21h3M14 21h1M22 21h2M25 21h5M7 22h2M14 22h1M22 22h1M24 22h1M6 23h1M9 23h4M14 23h1M21 23h1M23 23h1M5 24h1M12 24h1M14 24h1M21 24h1M24 24h1M0 25h1M4 25h1M12 25h1M14 25h1M21 25h2M25 25h1M30 25h2M1 26h3M12 26h1M14 26h1M18 26h3M23 26h1M26 26h1M28 26h2M0 27h1M3 27h1M5 27h1M12 27h1M14 27h1M16 27h2M21 27h2M24 27h2M27 27h1M31 27h1M0 28h3M5 28h1M13 28h1M15 28h1M18 28h3M25 28h1M29 28h3M0 29h1M2 29h1M5 29h1M12 29h2M16 29h2M25 29h1M27 29h2M31 29h1M0 30h1M3 30h1M6 30h1M11 30h1M14 30h2M25 30h1M27 30h1M31 30h1M0 31h5M6 31h6M13 31h13M27 31h5" />
<path stroke="#5a5b5c" d="M2 5h8M16 5h13M3 6h8M22 6h6M3 7h6M31 7h1M0 9h1M0 10h1M0 11h2M26 11h6M0 12h2M17 12h1M22 12h10M0 13h1M16 13h2M21 13h11M6 14h8M25 14h7M5 15h9M10 16h5M1 19h3M17 19h1M0 20h5M16 20h3M31 20h1M0 21h4M15 21h7M30 21h2M0 22h2M16 22h6M25 22h7M18 23h3M27 23h5M8 24h4M30 24h2M6 25h6M7 26h5M9 27h3M23 27h1M11 28h2M21 28h3M1 29h1M18 29h4M29 29h2M16 30h4M30 30h1" />
<path stroke="#4f4f4f" d="M17 6h5M9 7h5M18 7h10M4 8h12M19 8h7M4 9h11M19 9h2M6 10h8M2 12h1M1 13h2M0 14h2M17 14h1M21 14h4M0 15h2M21 15h11M0 16h1M5 16h5M21 16h11M6 17h9M21 17h10M7 18h7M22 18h8M8 19h5M10 20h2M4 21h2M2 22h5M15 22h1M0 23h6M15 23h3M24 23h3M0 24h5M15 24h6M25 24h5M1 25h3M15 25h6M26 25h4M6 26h1M15 26h3M27 26h1M6 27h3M15 27h1M6 28h5M24 28h1M6 29h6M22 29h3M1 30h2M7 30h4M20 30h5M28 30h2" />
</svg>