<svg xmlns="http://www.w3.org/2000/svg" viewBox="0 -0.5 32 32" shape-rendering="crispEdges">
<metadata>Made with Pixels to Svg https://codepen.io/shshaw/pen/XbxvNj</metadata>
<path stroke="#b7babd" d="M2 0h8M25 0h5M7 1h1M9 1h4M19 1h1M21 1h6M11 2h8M20 2h1" />
<path stroke="#cdcfd1" d="M10 0h15M13 1h6" />
<path stroke="#838a8f" d="M0 1h1M2 1h5M27 1h1M29 1h3M3 2h6M23 2h4M28 2h2M9 3h2M12 3h2M19 3h4" />
<path stroke="#10151c" d="M1 1h1M8 1h1M20 1h1M28 1h1M2 2h1M9 2h2M19 2h1M21 2h2M27 2h1M31 2h1M2 3h3M7 3h2M11 3h1M14 3h5M23 3h1M26 3h2M30 3h1M1 4h1M5 4h2M11 4h1M13 4h1M18 4h1M23 4h3M27 4h1M29 4h1M0 5h1M5 5h1M11 5h2M19 5h1M22 5h1M28 5h1M5 6h1M10 6h1M13 6h1M19 6h1M21 6h1M28 6h1M4 7h2M9 7h1M14 7h1M19 7h2M29 7h1M0 8h4M18 8h2M29 8h3" />
<path stroke="#535b63" d="M0 2h2M30 2h1M0 3h2M5 3h2M24 3h2M28 3h1M7 4h4M12 4h1M14 4h4M19 4h4M16 5h3" />
<path stroke="#49525c" d="M29 3h1M31 3h1M0 4h1M2 4h3M26 4h1M28 4h1M30 4h2M4 5h1M6 5h5M13 5h3M20 5h2M23 5h5M11 6h2M14 6h5M20 6h1M22 6h3" />
<path stroke="#2a323d" d="M1 5h3M29 5h3M1 6h4M6 6h4M25 6h3M29 6h2M8 7h1M10 7h4M15 7h4M21 7h6" />
<path stroke="#171e26" d="M0 6h1M31 6h1M0 7h4M27 7h2M30 7h2M4 8h14M20 8h9" />
<path stroke="#222b36" d="M6 7h2" />
</svg>