<svg xmlns="http://www.w3.org/2000/svg" viewBox="0 -0.5 32 32" shape-rendering="crispEdges">
<metadata>Made with Pixels to Svg https://codepen.io/shshaw/pen/XbxvNj</metadata>
<path stroke="#362209" d="M0 0h1M0 1h1M0 2h1M0 3h1M1 4h1M1 5h1M1 6h1M1 7h1M2 8h1M2 9h1M2 10h1M2 11h1M3 12h1M3 13h1M3 14h1M3 15h1M4 16h1M4 17h1M4 18h1M4 19h1M5 20h1M5 21h1M5 22h1M5 23h1M6 24h1M6 25h1M6 26h1M6 27h1M7 28h1M7 29h1M7 30h1M7 31h1" />
<path stroke="#5c3b0e" d="M1 0h1M6 0h1M1 1h1M6 1h1M1 2h1M6 2h1M1 3h2M5 3h2M0 4h1M2 4h1M5 4h1M7 4h1M0 5h1M2 5h1M5 5h1M7 5h1M0 6h1M2 6h1M5 6h1M7 6h1M0 7h1M2 7h4M7 7h1M0 8h2M3 8h2M6 8h2M1 9h1M3 9h2M6 9h1M1 10h1M3 10h2M6 10h1M1 11h1M3 11h2M6 11h1M1 12h2M5 12h2M2 13h1M5 13h1M2 14h1M5 14h1M2 15h1M5 15h1M2 16h1M5 16h1M2 17h1M5 17h1M2 18h1M5 18h1M2 19h1M5 19h2M1 20h1M3 20h2M6 20h1M1 21h1M3 21h2M6 21h1M1 22h1M3 22h2M6 22h1M0 23h2M3 23h1M6 23h2M0 24h1M2 24h1M5 24h1M7 24h1M0 25h1M2 25h1M5 25h1M7 25h1M0 26h1M2 26h1M5 26h1M7 26h1M0 27h1M2 27h1M5 27h1M7 27h1M1 28h2M6 28h1M1 29h1M6 29h1M1 30h1M6 30h1M1 31h1M6 31h1" />
<path stroke="#805319" d="M2 0h4M2 1h4M2 2h4M3 3h2M3 4h2M3 5h2M3 6h2M0 9h1M7 9h1M0 10h1M7 10h1M0 11h1M7 11h1M0 12h1M7 12h1M0 13h2M6 13h2M0 14h2M6 14h2M0 15h2M6 15h2M0 16h2M6 16h2M0 17h2M6 17h2M0 18h2M6 18h2M0 19h2M7 19h1M0 20h1M7 20h1M0 21h1M7 21h1M0 22h1M7 22h1M4 23h1M3 24h2M3 25h2M3 26h2M3 27h2M3 28h3M2 29h4M2 30h4M2 31h4" />
<path stroke="#261804" d="M7 0h1M7 1h1M7 2h1M7 3h1M6 4h1M6 5h1M6 6h1M6 7h1M5 8h1M5 9h1M5 10h1M5 11h1M4 12h1M4 13h1M4 14h1M4 15h1M3 16h1M3 17h1M3 18h1M3 19h1M2 20h1M2 21h1M2 22h1M2 23h1M1 24h1M1 25h1M1 26h1M1 27h1M0 28h1M0 29h1M0 30h1M0 31h1" />
<path stroke="#211403" d="M8 0h1M8 1h1M8 2h1M8 3h1M8 4h1M8 5h1M8 6h1M8 7h1M8 8h1M8 9h1M8 10h1M8 11h1M8 12h1M8 13h1M8 14h1M8 15h1M8 16h1M8 17h1M8 18h1M8 19h1M8 20h1M8 21h1M8 22h1M8 23h1M8 24h1M8 25h1M8 26h1M8 27h1M8 28h1M8 29h1M8 30h1M8 31h1" />
</svg>