<svg xmlns="http://www.w3.org/2000/svg" viewBox="0 -0.5 32 32" shape-rendering="crispEdges">
<metadata>Made with Pixels to Svg https://codepen.io/shshaw/pen/XbxvNj</metadata>
<path stroke="#b8895e" d="M2 0h28M9 1h16M14 2h6" />
<path stroke="#a87747" d="M0 1h8M25 1h5M31 1h1M7 2h7M20 2h6" />
<path stroke="#2e2821" d="M8 1h1M30 1h1M0 3h1M23 5h1M11 6h1M27 7h1M6 8h1" />
<path stroke="#916536" d="M0 2h7M26 2h6M1 3h31" />
<path stroke="#633a0e" d="M0 4h12M23 4h9M16 5h3M0 6h11M16 6h16" />
<path stroke="#694318" d="M12 4h11M0 5h16M19 5h4M24 5h8" />
<path stroke="#3d2305" d="M12 6h4M0 7h27M28 7h4M0 8h6M7 8h3M15 8h13M30 8h2" />
<path stroke="#2e1d04" d="M10 8h5M28 8h2M0 9h32" />
<path stroke="#1a0f02" d="M0 10h2M30 10h2M0 11h8M24 11h8M0 12h3M7 12h16M28 12h4" />
<path stroke="#261805" d="M2 10h28M8 11h16" />
<path stroke="#0d0802" d="M3 12h4M23 12h5M6 13h19" />
</svg>