<svg xmlns="http://www.w3.org/2000/svg" viewBox="0 -0.5 32 32" shape-rendering="crispEdges">
<metadata>Made with Pixels to Svg https://codepen.io/shshaw/pen/XbxvNj</metadata>
<path stroke="#593419" d="M1 0h3M6 0h4M16 0h7M27 0h4M0 1h32M12 2h5" />
<path stroke="#693f21" d="M4 0h2M10 0h6M23 0h4" />
<path stroke="#45260f" d="M0 2h12M17 2h15M10 3h9M6 7h1M25 7h1M6 8h1M25 8h1" />
<path stroke="#381e0a" d="M0 3h10M19 3h13M8 4h18M5 7h1M7 7h1M24 7h1M26 7h1M5 8h1M7 8h1M24 8h1M26 8h1M6 9h1M25 9h1M6 10h1M25 10h1" />
<path stroke="#291606" d="M0 4h8M26 4h6M7 5h21M4 7h1M8 7h1M23 7h1M27 7h1M4 8h1M8 8h1M23 8h1M27 8h1M5 9h1M7 9h1M24 9h1M26 9h1M5 10h1M7 10h1M24 10h1M26 10h1M6 11h1M25 11h1" />
<path stroke="#1a0e03" d="M0 5h7M28 5h4M0 6h32" />
</svg>