<svg xmlns="http://www.w3.org/2000/svg" viewBox="0 -0.5 60 48" shape-rendering="crispEdges">
<metadata>Made with Pixels to Svg https://codepen.io/shshaw/pen/XbxvNj</metadata>
<path stroke="#000000" d="M19 8h6M16 9h3M25 9h2M13 10h3M27 10h1M10 11h3M28 11h1M4 12h7M29 12h1M3 13h1M30 13h1M4 14h1M30 14h4M5 15h1M34 15h1M6 16h1M33 16h1M54 16h3M7 17h1M32 17h1M52 17h2M57 17h1M8 18h1M23 18h1M30 18h2M49 18h3M57 18h1M9 19h1M23 19h1M41 19h2M46 19h3M56 19h1M10 20h2M13 20h1M30 20h1M40 20h1M43 20h3M55 20h1M9 21h2M30 21h2M39 21h1M54 21h1M8 22h1M30 22h9M51 22h3M7 23h2M17 23h1M28 23h3M48 23h3M6 24h1M27 24h1M45 24h3M5 25h1M26 25h1M44 25h1M4 26h1M25 26h4M40 26h2M44 26h1M3 27h1M22 27h3M29 27h2M38 27h3M42 27h2M2 28h1M22 28h2M31 28h7M2 29h1M22 29h1M1 30h1M1 31h1M21 31h1M1 32h1M21 32h1M0 33h1M12 33h1M21 33h1M0 34h1M19 34h1M21 34h1M0 35h1M1 36h1M6 36h1M2 37h4M7 37h1M23 37h2M8 38h1M24 38h1M7 39h1M25 39h1M4 40h3M16 40h2M25 40h1M3 41h1M13 41h3M18 41h1M26 41h1M2 42h1M11 42h2M19 42h1M27 42h4M1 43h1M9 43h2M20 43h1M31 43h1M1 44h1M7 44h2M21 44h1M31 44h1M2 45h1M8 45h2M22 45h1M30 45h2M3 46h1M10 46h1M23 46h1M28 46h2M4 47h1M10 47h1M23 47h1" />
<path stroke="#660603" d="M19 9h1" />
<path stroke="#8e1900" d="M20 9h1" />
<path stroke="#8d2202" d="M21 9h1" />
<path stroke="#882101" d="M22 9h1" />
<path stroke="#8c2000" d="M23 9h1" />
<path stroke="#611b10" d="M24 9h1" />
<path stroke="#4f0000" d="M16 10h1" />
<path stroke="#620500" d="M17 10h1" />
<path stroke="#781100" d="M18 10h1" />
<path stroke="#a22d0d" d="M19 10h1" />
<path stroke="#d55928" d="M20 10h1" />
<path stroke="#da5727" d="M21 10h1" />
<path stroke="#d75222" d="M22 10h1" />
<path stroke="#d95220" d="M23 10h1" />
<path stroke="#cb4a17" d="M24 10h1" />
<path stroke="#a31e00" d="M25 10h1" />
<path stroke="#630c10" d="M26 10h1" />
<path stroke="#290307" d="M13 11h1" />
<path stroke="#3d0100" d="M14 11h1" />
<path stroke="#430401" d="M15 11h1" />
<path stroke="#631106" d="M16 11h1" />
<path stroke="#872b07" d="M17 11h1" />
<path stroke="#9d3a0d" d="M18 11h1" />
<path stroke="#a13c10" d="M19 11h1" />
<path stroke="#b04418" d="M20 11h1" />
<path stroke="#ae3f16" d="M21 11h1" />
<path stroke="#ac3a13" d="M22 11h1" />
<path stroke="#ac3811" d="M23 11h1" />
<path stroke="#c14b19" d="M24 11h1" />
<path stroke="#d25922" d="M25 11h1" />
<path stroke="#b0360b" d="M26 11h1" />
<path stroke="#750600" d="M27 11h1" />
<path stroke="#180000" d="M11 12h1" />
<path stroke="#150000" d="M12 12h1" />
<path stroke="#4a0703" d="M13 12h1" />
<path stroke="#55110e" d="M14 12h1" />
<path stroke="#451010" d="M15 12h1" />
<path stroke="#4b1511" d="M16 12h1" />
<path stroke="#6a270a" d="M17 12h1" />
<path stroke="#712e0d" d="M18 12h1" />
<path stroke="#78340e" d="M19 12h1" />
<path stroke="#a0390b" d="M20 12h1" />
<path stroke="#a6390c" d="M21 12h1" />
<path stroke="#af370b" d="M22 12h1" />
<path stroke="#b3360b" d="M23 12h1" />
<path stroke="#bc3c10" d="M24 12h1" />
<path stroke="#ba3f13" d="M25 12h1" />
<path stroke="#c24414" d="M26 12h1" />
<path stroke="#b33812" d="M27 12h1" />
<path stroke="#5d0600" d="M28 12h1" />
<path stroke="#3f5500" d="M4 13h1" />
<path stroke="#53770c" d="M5 13h1" />
<path stroke="#4d6c03" d="M6 13h1" />
<path stroke="#547605" d="M7 13h1" />
<path stroke="#547806" d="M8 13h1" />
<path stroke="#56760c" d="M9 13h1" />
<path stroke="#456412" d="M10 13h1" />
<path stroke="#3d5b10" d="M11 13h1" />
<path stroke="#2a3d0c" d="M12 13h1" />
<path stroke="#050002" d="M13 13h1" />
<path stroke="#2e0406" d="M14 13h1" />
<path stroke="#4a1411" d="M15 13h1" />
<path stroke="#431419" d="M16 13h1" />
<path stroke="#471820" d="M17 13h1" />
<path stroke="#5a2021" d="M18 13h1" />
<path stroke="#6a2213" d="M19 13h1" />
<path stroke="#87270b" d="M20 13h1" />
<path stroke="#7c1f06" d="M21 13h1" />
<path stroke="#490902" d="M22 13h1" />
<path stroke="#4e0a03" d="M23 13h1" />
<path stroke="#631204" d="M24 13h1" />
<path stroke="#8e2410" d="M25 13h1" />
<path stroke="#952a10" d="M26 13h1" />
<path stroke="#92250e" d="M27 13h1" />
<path stroke="#5e0703" d="M28 13h1" />
<path stroke="#620000" d="M29 13h1" />
<path stroke="#67870e" d="M5 14h1" />
<path stroke="#73991c" d="M6 14h1" />
<path stroke="#405a11" d="M7 14h1" />
<path stroke="#354e12" d="M8 14h1" />
<path stroke="#314a13" d="M9 14h1" />
<path stroke="#3e6116" d="M10 14h1" />
<path stroke="#a0d52b" d="M11 14h1" />
<path stroke="#96c62c" d="M12 14h1" />
<path stroke="#4a7711" d="M13 14h1" />
<path stroke="#113006" d="M14 14h1" />
<path stroke="#220206" d="M15 14h1" />
<path stroke="#4e1917" d="M16 14h1" />
<path stroke="#501f20" d="M17 14h1" />
<path stroke="#3e070d" d="M18 14h1" />
<path stroke="#250301" d="M19 14h1" />
<path stroke="#220705" d="M20 14h1" />
<path stroke="#151c06" d="M21 14h1" />
<path stroke="#2e8216" d="M22 14h1" />
<path stroke="#218023" d="M23 14h1" />
<path stroke="#084620" d="M24 14h1" />
<path stroke="#350203" d="M25 14h1" />
<path stroke="#320303" d="M26 14h1" />
<path stroke="#340303" d="M27 14h1" />
<path stroke="#370201" d="M28 14h1" />
<path stroke="#4e0000" d="M29 14h1" />
<path stroke="#536b06" d="M6 15h1" />
<path stroke="#061809" d="M7 15h1" />
<path stroke="#1f3015" d="M8 15h1" />
<path stroke="#2a3a17" d="M9 15h1" />
<path stroke="#213112" d="M10 15h1" />
<path stroke="#719023" d="M11 15h1" />
<path stroke="#8bb025" d="M12 15h1" />
<path stroke="#719e1e" d="M13 15h1" />
<path stroke="#55921e" d="M14 15h1" />
<path stroke="#13390b" d="M15 15h1" />
<path stroke="#290001" d="M16 15h1" />
<path stroke="#5e0603" d="M17 15h1" />
<path stroke="#1e1204" d="M18 15h1" />
<path stroke="#2b6e10" d="M19 15h1" />
<path stroke="#4ea227" d="M20 15h1" />
<path stroke="#73b728" d="M21 15h1" />
<path stroke="#7cba1f" d="M22 15h1" />
<path stroke="#6fb625" d="M23 15h1" />
<path stroke="#509624" d="M24 15h1" />
<path stroke="#39721f" d="M25 15h1" />
<path stroke="#2a681c" d="M26 15h1" />
<path stroke="#29681b" d="M27 15h1" />
<path stroke="#317421" d="M28 15h1" />
<path stroke="#1c320d" d="M29 15h1" />
<path stroke="#000100" d="M30 15h1" />
<path stroke="#273403" d="M31 15h1" />
<path stroke="#3f4403" d="M32 15h1" />
<path stroke="#222000" d="M33 15h1" />
<path stroke="#628016" d="M7 16h1" />
<path stroke="#4e7122" d="M8 16h1" />
<path stroke="#445e23" d="M9 16h1" />
<path stroke="#394c19" d="M10 16h1" />
<path stroke="#141f07" d="M11 16h1" />
<path stroke="#19230a" d="M12 16h1" />
<path stroke="#122307" d="M13 16h1" />
<path stroke="#6eaa24" d="M14 16h1" />
<path stroke="#357419" d="M15 16h1" />
<path stroke="#040704" d="M16 16h1" />
<path stroke="#141305" d="M17 16h1" />
<path stroke="#125f24" d="M18 16h1" />
<path stroke="#278a2a" d="M19 16h1" />
<path stroke="#285e13" d="M20 16h1" />
<path stroke="#385e13" d="M21 16h1" />
<path stroke="#83ae24" d="M22 16h1" />
<path stroke="#97c82b" d="M23 16h1" />
<path stroke="#90bf24" d="M24 16h1" />
<path stroke="#73b227" d="M25 16h1" />
<path stroke="#429425" d="M26 16h1" />
<path stroke="#449c28" d="M27 16h1" />
<path stroke="#4fb22c" d="M28 16h1" />
<path stroke="#1f5419" d="M29 16h1" />
<path stroke="#0d511f" d="M30 16h1" />
<path stroke="#4d962b" d="M31 16h1" />
<path stroke="#1f361e" d="M32 16h1" />
<path stroke="#376518" d="M8 17h1" />
<path stroke="#5c8924" d="M9 17h1" />
<path stroke="#4f721a" d="M10 17h1" />
<path stroke="#536918" d="M11 17h1" />
<path stroke="#4d581a" d="M12 17h1" />
<path stroke="#040905" d="M13 17h1" />
<path stroke="#377319" d="M14 17h1" />
<path stroke="#2f7223" d="M15 17h1" />
<path stroke="#2d7e2b" d="M16 17h1" />
<path stroke="#2e8d2b" d="M17 17h1" />
<path stroke="#1a813a" d="M18 17h1" />
<path stroke="#2a3f18" d="M19 17h1" />
<path stroke="#573310" d="M20 17h1" />
<path stroke="#58350e" d="M21 17h1" />
<path stroke="#2e360e" d="M22 17h1" />
<path stroke="#304712" d="M23 17h1" />
<path stroke="#92bc2a" d="M24 17h1" />
<path stroke="#8bb627" d="M25 17h1" />
<path stroke="#4e8f24" d="M26 17h1" />
<path stroke="#378525" d="M27 17h1" />
<path stroke="#275516" d="M28 17h1" />
<path stroke="#000002" d="M29 17h1M12 20h1M20 25h1M10 28h1M9 29h1M10 30h1M7 36h1" />
<path stroke="#144a14" d="M30 17h1" />
<path stroke="#1f4411" d="M31 17h1" />
<path stroke="#b8b5b9" d="M54 17h2M55 19h1M54 20h1M49 21h3M53 21h1M43 22h2M48 22h2M44 23h1M46 23h2" />
<path stroke="#d5d5d8" d="M56 17h1" />
<path stroke="#426303" d="M9 18h1" />
<path stroke="#5c8810" d="M10 18h1" />
<path stroke="#78ae21" d="M11 18h1" />
<path stroke="#577c19" d="M12 18h1" />
<path stroke="#325112" d="M13 18h1" />
<path stroke="#1a3109" d="M14 18h1" />
<path stroke="#00070c" d="M15 18h1" />
<path stroke="#418e25" d="M16 18h1" />
<path stroke="#3d902c" d="M17 18h1" />
<path stroke="#217d39" d="M18 18h1" />
<path stroke="#4d4513" d="M19 18h1" />
<path stroke="#ebbe43" d="M20 18h1" />
<path stroke="#fff792" d="M21 18h1" />
<path stroke="#2d2d2a" d="M22 18h1" />
<path stroke="#15200a" d="M24 18h1" />
<path stroke="#25410e" d="M25 18h1" />
<path stroke="#538c21" d="M26 18h1" />
<path stroke="#324f1b" d="M27 18h1" />
<path stroke="#000001" d="M28 18h2M16 22h1M19 25h1M9 31h1M8 35h1M22 35h1M28 47h1" />
<path stroke="#d1c8bc" d="M52 18h1" />
<path stroke="#ccc3ba" d="M53 18h1" />
<path stroke="#ccc5bd" d="M54 18h1" />
<path stroke="#cfc2b4" d="M55 18h1" />
<path stroke="#afafb0" d="M56 18h1M43 21h1M48 21h1M52 21h1M45 22h1M50 22h1M43 23h1M45 23h1" />
<path stroke="#5e7502" d="M10 19h1M40 22h1M40 23h1M7 24h1M40 24h1M4 27h1M3 28h1" />
<path stroke="#44690c" d="M11 19h1" />
<path stroke="#3c6410" d="M12 19h1" />
<path stroke="#477216" d="M13 19h1" />
<path stroke="#2e430d" d="M14 19h1" />
<path stroke="#000005" d="M15 19h1" />
<path stroke="#378422" d="M16 19h1" />
<path stroke="#388f2d" d="M17 19h1" />
<path stroke="#217e39" d="M18 19h1" />
<path stroke="#534c17" d="M19 19h1" />
<path stroke="#edc147" d="M20 19h1" />
<path stroke="#ffff96" d="M21 19h1" />
<path stroke="#4c4e30" d="M22 19h1" />
<path stroke="#0a1f07" d="M24 19h1" />
<path stroke="#529014" d="M25 19h1" />
<path stroke="#6a9917" d="M26 19h1" />
<path stroke="#a7c62c" d="M27 19h1" />
<path stroke="#37410c" d="M28 19h1" />
<path stroke="#000411" d="M29 19h1" />
<path stroke="#cdc7c2" d="M49 19h1" />
<path stroke="#c2beb9" d="M50 19h1" />
<path stroke="#dfd9d5" d="M51 19h1" />
<path stroke="#afaeae" d="M52 19h1" />
<path stroke="#d8d6d6" d="M53 19h1" />
<path stroke="#fffefd" d="M54 19h1" />
<path stroke="#002007" d="M14 20h1" />
<path stroke="#003915" d="M15 20h1" />
<path stroke="#3c7b1c" d="M16 20h1" />
<path stroke="#3e972d" d="M17 20h1" />
<path stroke="#22833a" d="M18 20h1" />
<path stroke="#535e1e" d="M19 20h1" />
<path stroke="#b27c21" d="M20 20h1" />
<path stroke="#cda237" d="M21 20h1" />
<path stroke="#c48b21" d="M22 20h1" />
<path stroke="#5a651a" d="M23 20h1" />
<path stroke="#3e9028" d="M24 20h1" />
<path stroke="#6b9e17" d="M25 20h1" />
<path stroke="#669717" d="M26 20h1" />
<path stroke="#74a21b" d="M27 20h1" />
<path stroke="#b0ce26" d="M28 20h1" />
<path stroke="#435116" d="M29 20h1" />
<path stroke="#681a00" d="M41 20h1" />
<path stroke="#421a00" d="M42 20h1" />
<path stroke="#796953" d="M46 20h1" />
<path stroke="#a39f9a" d="M47 20h1" />
<path stroke="#b2aea9" d="M48 20h1" />
<path stroke="#b2b0ae" d="M49 20h1" />
<path stroke="#b5b5b5" d="M50 20h1" />
<path stroke="#cdcdce" d="M51 20h1" />
<path stroke="#dfdede" d="M52 20h1" />
<path stroke="#c0bfbd" d="M53 20h1" />
<path stroke="#100703" d="M11 21h1" />
<path stroke="#221003" d="M12 21h1" />
<path stroke="#4b270c" d="M13 21h1" />
<path stroke="#153e12" d="M14 21h1" />
<path stroke="#00310e" d="M15 21h1" />
<path stroke="#2a5514" d="M16 21h1" />
<path stroke="#3f9a2c" d="M17 21h1" />
<path stroke="#3d9c35" d="M18 21h1" />
<path stroke="#2a8e30" d="M19 21h1" />
<path stroke="#234a15" d="M20 21h1" />
<path stroke="#22340b" d="M21 21h1" />
<path stroke="#293c0c" d="M22 21h1" />
<path stroke="#288124" d="M23 21h1" />
<path stroke="#2f741c" d="M24 21h1" />
<path stroke="#7da61b" d="M25 21h1" />
<path stroke="#79ad1a" d="M26 21h1" />
<path stroke="#6fa719" d="M27 21h1" />
<path stroke="#89b820" d="M28 21h1" />
<path stroke="#88b412" d="M29 21h1" />
<path stroke="#110a01" d="M40 21h1" />
<path stroke="#8f3f0e" d="M41 21h1" />
<path stroke="#341906" d="M42 21h1" />
<path stroke="#958a7f" d="M44 21h1" />
<path stroke="#827e79" d="M45 21h1" />
<path stroke="#9c9fa6" d="M46 21h1" />
<path stroke="#cecdce" d="M47 21h1" />
<path stroke="#0c0000" d="M9 22h1" />
<path stroke="#5c3a10" d="M10 22h1" />
<path stroke="#b88429" d="M11 22h1" />
<path stroke="#b8862a" d="M12 22h1" />
<path stroke="#cb9230" d="M13 22h1" />
<path stroke="#7a3e10" d="M14 22h1" />
<path stroke="#110000" d="M15 22h1" />
<path stroke="#133c12" d="M17 22h1" />
<path stroke="#43942c" d="M18 22h1" />
<path stroke="#4ba22a" d="M19 22h1" />
<path stroke="#4a9e2a" d="M20 22h1" />
<path stroke="#4ea12c" d="M21 22h1" />
<path stroke="#50a72e" d="M22 22h1" />
<path stroke="#4ea82d" d="M23 22h1" />
<path stroke="#0a310c" d="M24 22h1" />
<path stroke="#36470c" d="M25 22h1" />
<path stroke="#3d5d12" d="M26 22h1" />
<path stroke="#3a5f13" d="M27 22h1" />
<path stroke="#375c07" d="M28 22h1" />
<path stroke="#375700" d="M29 22h1" />
<path stroke="#508718" d="M39 22h1M31 25h1M34 26h1" />
<path stroke="#672e0e" d="M41 22h1" />
<path stroke="#351904" d="M42 22h1" />
<path stroke="#cbcbcc" d="M46 22h1" />
<path stroke="#aeafad" d="M47 22h1" />
<path stroke="#442305" d="M9 23h1" />
<path stroke="#b28129" d="M10 23h1" />
<path stroke="#b8852b" d="M11 23h1" />
<path stroke="#ba892c" d="M12 23h1" />
<path stroke="#ad792a" d="M13 23h1" />
<path stroke="#b87825" d="M14 23h1" />
<path stroke="#5b3009" d="M15 23h1" />
<path stroke="#271403" d="M16 23h1" />
<path stroke="#12240c" d="M18 23h1" />
<path stroke="#3f8522" d="M19 23h1" />
<path stroke="#4ba229" d="M20 23h1" />
<path stroke="#52a92c" d="M21 23h1" />
<path stroke="#50a02a" d="M22 23h1" />
<path stroke="#5aa82a" d="M23 23h1" />
<path stroke="#2a7b24" d="M24 23h1" />
<path stroke="#054c1a" d="M25 23h1" />
<path stroke="#0e5718" d="M26 23h1" />
<path stroke="#011702" d="M27 23h1" />
<path stroke="#5d3610" d="M31 23h2M28 24h3M10 25h1M27 25h1" />
<path stroke="#a9d72c" d="M33 23h3M31 24h2M34 24h1M32 25h4M6 26h1" />
<path stroke="#7c2700" d="M36 23h3M36 24h1M36 25h2M2 30h1" />
<path stroke="#74ac20" d="M39 23h1M29 25h1M31 26h2M34 27h2" />
<path stroke="#562306" d="M41 23h1" />
<path stroke="#6d3d11" d="M42 23h1" />
<path stroke="#7caa18" d="M8 24h1" />
<path stroke="#293d0e" d="M9 24h1" />
<path stroke="#a96c1f" d="M10 24h1" />
<path stroke="#b7862b" d="M11 24h1" />
<path stroke="#af8128" d="M12 24h1" />
<path stroke="#a46e23" d="M13 24h1" />
<path stroke="#84521a" d="M14 24h1" />
<path stroke="#522406" d="M15 24h1" />
<path stroke="#536b1c" d="M16 24h1" />
<path stroke="#1f521b" d="M17 24h1" />
<path stroke="#000003" d="M18 24h1M21 26h3M12 27h1M10 29h1M9 30h1M8 31h1M7 32h2M8 36h1" />
<path stroke="#010303" d="M19 24h1M21 25h1" />
<path stroke="#1e5714" d="M20 24h1" />
<path stroke="#3a751b" d="M21 24h1" />
<path stroke="#5fb02a" d="M22 24h1" />
<path stroke="#60af2c" d="M23 24h1" />
<path stroke="#68b32d" d="M24 24h1" />
<path stroke="#389630" d="M25 24h1" />
<path stroke="#023310" d="M26 24h1" />
<path stroke="#5d9a20" d="M33 24h1M30 25h1M33 26h1M35 26h1" />
<path stroke="#467a12" d="M35 24h1M36 26h1" />
<path stroke="#712104" d="M37 24h2M38 25h1M5 31h1" />
<path stroke="#5d1205" d="M39 24h1M5 32h1" />
<path stroke="#020101" d="M41 24h1" />
<path stroke="#8b4a16" d="M42 24h1" />
<path stroke="#3d240d" d="M43 24h1" />
<path stroke="#03120a" d="M44 24h1" />
<path stroke="#475c10" d="M6 25h1" />
<path stroke="#86b01a" d="M7 25h1" />
<path stroke="#93c422" d="M8 25h1" />
<path stroke="#416b19" d="M9 25h1" />
<path stroke="#996120" d="M11 25h1" />
<path stroke="#8d5b1c" d="M12 25h1" />
<path stroke="#784616" d="M13 25h1" />
<path stroke="#301a07" d="M14 25h1" />
<path stroke="#7b4916" d="M15 25h1" />
<path stroke="#5f4514" d="M16 25h1" />
<path stroke="#50972a" d="M17 25h1" />
<path stroke="#0a5118" d="M18 25h1" />
<path stroke="#274710" d="M22 25h1" />
<path stroke="#284714" d="M23 25h1" />
<path stroke="#2d4c11" d="M24 25h1" />
<path stroke="#0e2c0b" d="M25 25h1" />
<path stroke="#1e5a16" d="M28 25h1M31 27h1" />
<path stroke="#530703" d="M39 25h2M37 26h3M37 27h1M4 32h1" />
<path stroke="#061501" d="M41 25h1" />
<path stroke="#602c0c" d="M42 25h1" />
<path stroke="#552c12" d="M43 25h1" />
<path stroke="#6a8406" d="M5 26h1" />
<path stroke="#95bf25" d="M7 26h1" />
<path stroke="#6ca120" d="M8 26h1" />
<path stroke="#4c9a22" d="M9 26h1" />
<path stroke="#1f5818" d="M10 26h1" />
<path stroke="#3c3013" d="M11 26h1" />
<path stroke="#3f2b12" d="M12 26h1" />
<path stroke="#1b170b" d="M13 26h1" />
<path stroke="#231205" d="M14 26h1" />
<path stroke="#aa671c" d="M15 26h1" />
<path stroke="#84320e" d="M16 26h1" />
<path stroke="#415219" d="M17 26h1" />
<path stroke="#36a332" d="M18 26h1" />
<path stroke="#035e20" d="M19 26h1" />
<path stroke="#000a06" d="M20 26h1M18 40h1" />
<path stroke="#000006" d="M24 26h1M8 30h1" />
<path stroke="#1f3d0c" d="M29 26h1M32 27h1" />
<path stroke="#247418" d="M30 26h1M33 27h1M36 27h1" />
<path stroke="#140200" d="M42 26h1" />
<path stroke="#1e0300" d="M43 26h1" />
<path stroke="#9aca28" d="M5 27h1" />
<path stroke="#81ab1a" d="M6 27h1" />
<path stroke="#578e1b" d="M7 27h1" />
<path stroke="#36831f" d="M8 27h1" />
<path stroke="#195a16" d="M9 27h1" />
<path stroke="#071c07" d="M10 27h1" />
<path stroke="#000103" d="M11 27h1M18 39h1" />
<path stroke="#171109" d="M13 27h1" />
<path stroke="#744112" d="M14 27h1" />
<path stroke="#a5651c" d="M15 27h1" />
<path stroke="#91571e" d="M16 27h1" />
<path stroke="#3c0a04" d="M17 27h1" />
<path stroke="#1c5220" d="M18 27h1" />
<path stroke="#24521f" d="M19 27h1" />
<path stroke="#1f0c03" d="M20 27h1" />
<path stroke="#422b0e" d="M21 27h1" />
<path stroke="#578617" d="M4 28h1" />
<path stroke="#7dab1b" d="M5 28h1" />
<path stroke="#649218" d="M6 28h1" />
<path stroke="#4d8b18" d="M7 28h1" />
<path stroke="#286318" d="M8 28h1" />
<path stroke="#000305" d="M9 28h1" />
<path stroke="#130603" d="M11 28h1" />
<path stroke="#371f0a" d="M12 28h1" />
<path stroke="#603713" d="M13 28h1" />
<path stroke="#835216" d="M14 28h1" />
<path stroke="#ac7824" d="M15 28h1" />
<path stroke="#a97121" d="M16 28h1" />
<path stroke="#7e420e" d="M17 28h1" />
<path stroke="#300c02" d="M18 28h1" />
<path stroke="#3d1b06" d="M19 28h1" />
<path stroke="#5b3512" d="M20 28h1" />
<path stroke="#502a0d" d="M21 28h1" />
<path stroke="#213906" d="M3 29h1" />
<path stroke="#569222" d="M4 29h1" />
<path stroke="#6fa71c" d="M5 29h1" />
<path stroke="#619d1c" d="M6 29h1" />
<path stroke="#3c771e" d="M7 29h1" />
<path stroke="#010506" d="M8 29h1" />
<path stroke="#5c330d" d="M11 29h1" />
<path stroke="#683d12" d="M12 29h1" />
<path stroke="#623d16" d="M13 29h1" />
<path stroke="#96651f" d="M14 29h1" />
<path stroke="#b58022" d="M15 29h1" />
<path stroke="#b38024" d="M16 29h1" />
<path stroke="#9f6e1e" d="M17 29h1" />
<path stroke="#7b4c16" d="M18 29h1" />
<path stroke="#6c4314" d="M19 29h1" />
<path stroke="#513212" d="M20 29h1" />
<path stroke="#542d10" d="M21 29h1" />
<path stroke="#662811" d="M3 30h1" />
<path stroke="#49450e" d="M4 30h1" />
<path stroke="#536a16" d="M5 30h1" />
<path stroke="#576916" d="M6 30h1" />
<path stroke="#072812" d="M7 30h1" />
<path stroke="#2b1405" d="M11 30h1M19 35h1" />
<path stroke="#49290d" d="M12 30h1" />
<path stroke="#673e18" d="M13 30h1" />
<path stroke="#6c441a" d="M14 30h1" />
<path stroke="#936520" d="M15 30h1" />
<path stroke="#b38227" d="M16 30h1" />
<path stroke="#b98628" d="M17 30h1" />
<path stroke="#9d6a21" d="M18 30h1" />
<path stroke="#724a19" d="M19 30h1" />
<path stroke="#5a3616" d="M20 30h1" />
<path stroke="#281206" d="M21 30h1" />
<path stroke="#000604" d="M22 30h1" />
<path stroke="#4f0400" d="M2 31h1" />
<path stroke="#893211" d="M3 31h1" />
<path stroke="#742b0b" d="M4 31h1" />
<path stroke="#550a03" d="M6 31h1" />
<path stroke="#020002" d="M7 31h1" />
<path stroke="#02060d" d="M10 31h1" />
<path stroke="#111418" d="M11 31h1" />
<path stroke="#2a1b13" d="M12 31h1" />
<path stroke="#32190a" d="M13 31h1" />
<path stroke="#76340b" d="M14 31h1" />
<path stroke="#6d300a" d="M15 31h1" />
<path stroke="#895414" d="M16 31h1" />
<path stroke="#8a5a17" d="M17 31h1" />
<path stroke="#784714" d="M18 31h1" />
<path stroke="#573210" d="M19 31h1" />
<path stroke="#4c270d" d="M20 31h1" />
<path stroke="#382b00" d="M2 32h1" />
<path stroke="#461305" d="M3 32h1" />
<path stroke="#200003" d="M6 32h1" />
<path stroke="#1a0104" d="M9 32h1" />
<path stroke="#32070b" d="M10 32h1" />
<path stroke="#4c1b18" d="M11 32h1" />
<path stroke="#2a0d09" d="M12 32h1" />
<path stroke="#181413" d="M13 32h1" />
<path stroke="#522a1c" d="M14 32h1" />
<path stroke="#3e100c" d="M15 32h1" />
<path stroke="#563316" d="M16 32h1" />
<path stroke="#a37624" d="M17 32h1" />
<path stroke="#95681f" d="M18 32h1" />
<path stroke="#a27524" d="M19 32h1" />
<path stroke="#805b1f" d="M20 32h1" />
<path stroke="#557e06" d="M1 33h1" />
<path stroke="#6cae17" d="M2 33h1" />
<path stroke="#4b6e0e" d="M3 33h1" />
<path stroke="#464e0c" d="M4 33h1" />
<path stroke="#3f5c11" d="M5 33h1" />
<path stroke="#1f6414" d="M6 33h1" />
<path stroke="#020904" d="M7 33h1" />
<path stroke="#400105" d="M8 33h1" />
<path stroke="#681f09" d="M9 33h1" />
<path stroke="#581306" d="M10 33h1" />
<path stroke="#240302" d="M11 33h1" />
<path stroke="#03030c" d="M13 33h1" />
<path stroke="#252427" d="M14 33h1" />
<path stroke="#2d292a" d="M15 33h1" />
<path stroke="#372e25" d="M16 33h1" />
<path stroke="#786021" d="M17 33h1" />
<path stroke="#c99c33" d="M18 33h1" />
<path stroke="#5e4a19" d="M19 33h1" />
<path stroke="#9b752d" d="M20 33h1" />
<path stroke="#688205" d="M1 34h1" />
<path stroke="#76a214" d="M2 34h1" />
<path stroke="#6a9b13" d="M3 34h1" />
<path stroke="#6ca318" d="M4 34h1" />
<path stroke="#669b14" d="M5 34h1" />
<path stroke="#4d8c14" d="M6 34h1" />
<path stroke="#102205" d="M7 34h1" />
<path stroke="#350002" d="M8 34h1" />
<path stroke="#743506" d="M9 34h1" />
<path stroke="#572b09" d="M10 34h1" />
<path stroke="#5e330c" d="M11 34h1" />
<path stroke="#4a250b" d="M12 34h1" />
<path stroke="#0b0202" d="M13 34h1" />
<path stroke="#040307" d="M14 34h1" />
<path stroke="#0b0a11" d="M15 34h1" />
<path stroke="#000007" d="M16 34h1" />
<path stroke="#211706" d="M17 34h1" />
<path stroke="#be9332" d="M18 34h1" />
<path stroke="#201307" d="M20 34h1" />
<path stroke="#41670a" d="M1 35h1" />
<path stroke="#75a113" d="M2 35h1" />
<path stroke="#719b11" d="M3 35h1" />
<path stroke="#7aa614" d="M4 35h1" />
<path stroke="#557c11" d="M5 35h1" />
<path stroke="#152509" d="M6 35h1" />
<path stroke="#061505" d="M7 35h1" />
<path stroke="#321205" d="M9 35h1" />
<path stroke="#65310b" d="M10 35h1" />
<path stroke="#934d13" d="M11 35h1" />
<path stroke="#7e4212" d="M12 35h1" />
<path stroke="#542b0d" d="M13 35h1" />
<path stroke="#341704" d="M14 35h1" />
<path stroke="#462406" d="M15 35h1" />
<path stroke="#5c3409" d="M16 35h1" />
<path stroke="#4f3107" d="M17 35h1" />
<path stroke="#4c3a14" d="M18 35h1" />
<path stroke="#250e03" d="M20 35h1" />
<path stroke="#070201" d="M21 35h1" />
<path stroke="#1c5007" d="M2 36h1" />
<path stroke="#3a7718" d="M3 36h1" />
<path stroke="#53931e" d="M4 36h1" />
<path stroke="#1b450e" d="M5 36h1" />
<path stroke="#210903" d="M9 36h1" />
<path stroke="#723106" d="M10 36h1" />
<path stroke="#9c5013" d="M11 36h1" />
<path stroke="#814614" d="M12 36h1" />
<path stroke="#653610" d="M13 36h1" />
<path stroke="#7a4411" d="M14 36h1" />
<path stroke="#a86718" d="M15 36h1" />
<path stroke="#b9791c" d="M16 36h1" />
<path stroke="#966518" d="M17 36h1" />
<path stroke="#4f290a" d="M18 36h1" />
<path stroke="#67370d" d="M19 36h1" />
<path stroke="#6a390e" d="M20 36h1" />
<path stroke="#5f2506" d="M21 36h1" />
<path stroke="#1c0201" d="M22 36h1" />
<path stroke="#000010" d="M23 36h1" />
<path stroke="#000004" d="M8 37h1" />
<path stroke="#030103" d="M9 37h1" />
<path stroke="#100401" d="M10 37h1" />
<path stroke="#391103" d="M11 37h1" />
<path stroke="#964e17" d="M12 37h1" />
<path stroke="#7e4313" d="M13 37h1" />
<path stroke="#623611" d="M14 37h1" />
<path stroke="#885117" d="M15 37h1" />
<path stroke="#aa751b" d="M16 37h1" />
<path stroke="#a5751e" d="M17 37h1" />
<path stroke="#7e4413" d="M18 37h1" />
<path stroke="#65350d" d="M19 37h1" />
<path stroke="#5c290a" d="M20 37h1" />
<path stroke="#44210a" d="M21 37h1" />
<path stroke="#091a01" d="M22 37h1" />
<path stroke="#13430e" d="M9 38h1" />
<path stroke="#195018" d="M10 38h1" />
<path stroke="#010b02" d="M11 38h1" />
<path stroke="#56270a" d="M12 38h1" />
<path stroke="#6f3810" d="M13 38h1" />
<path stroke="#673710" d="M14 38h1" />
<path stroke="#6b3813" d="M15 38h1" />
<path stroke="#995d19" d="M16 38h1" />
<path stroke="#8d5816" d="M17 38h1" />
<path stroke="#5c2c0b" d="M18 38h1" />
<path stroke="#321002" d="M19 38h1" />
<path stroke="#000303" d="M20 38h1" />
<path stroke="#1f3c0c" d="M21 38h1" />
<path stroke="#5b9420" d="M22 38h1" />
<path stroke="#283f04" d="M23 38h1" />
<path stroke="#253f0b" d="M8 39h1" />
<path stroke="#578417" d="M9 39h1" />
<path stroke="#568018" d="M10 39h1" />
<path stroke="#447016" d="M11 39h1" />
<path stroke="#0a2c07" d="M12 39h1" />
<path stroke="#000402" d="M13 39h1" />
<path stroke="#552407" d="M14 39h1" />
<path stroke="#632e0a" d="M15 39h1" />
<path stroke="#441b06" d="M16 39h1" />
<path stroke="#200604" d="M17 39h1" />
<path stroke="#032309" d="M19 39h1" />
<path stroke="#14601b" d="M20 39h1" />
<path stroke="#407218" d="M21 39h1" />
<path stroke="#678413" d="M22 39h1" />
<path stroke="#7ba11e" d="M23 39h1" />
<path stroke="#233300" d="M24 39h1" />
<path stroke="#312501" d="M7 40h1" />
<path stroke="#54851a" d="M8 40h1" />
<path stroke="#689019" d="M9 40h1" />
<path stroke="#648b19" d="M10 40h1" />
<path stroke="#3c6312" d="M11 40h1" />
<path stroke="#29721e" d="M12 40h1" />
<path stroke="#00220a" d="M13 40h1" />
<path stroke="#3f1200" d="M14 40h1" />
<path stroke="#421e02" d="M15 40h1" />
<path stroke="#23741c" d="M19 40h1" />
<path stroke="#316a18" d="M20 40h1" />
<path stroke="#396117" d="M21 40h1" />
<path stroke="#5d811a" d="M22 40h1" />
<path stroke="#749c21" d="M23 40h1" />
<path stroke="#495a0d" d="M24 40h1" />
<path stroke="#130000" d="M4 41h1" />
<path stroke="#200200" d="M5 41h1" />
<path stroke="#4c0d02" d="M6 41h1" />
<path stroke="#4f380a" d="M7 41h1" />
<path stroke="#458f1c" d="M8 41h1" />
<path stroke="#6c981b" d="M9 41h1" />
<path stroke="#588118" d="M10 41h1" />
<path stroke="#43751c" d="M11 41h1" />
<path stroke="#204b0c" d="M12 41h1" />
<path stroke="#0c3309" d="M19 41h1" />
<path stroke="#28661e" d="M20 41h1" />
<path stroke="#3e781e" d="M21 41h1" />
<path stroke="#6a901b" d="M22 41h1" />
<path stroke="#6a7e20" d="M23 41h1" />
<path stroke="#6b3909" d="M24 41h1" />
<path stroke="#440600" d="M25 41h1" />
<path stroke="#230904" d="M3 42h1" />
<path stroke="#451303" d="M4 42h1" />
<path stroke="#391206" d="M5 42h1" />
<path stroke="#5c1e06" d="M6 42h1" />
<path stroke="#5d2206" d="M7 42h1" />
<path stroke="#4f4d16" d="M8 42h1" />
<path stroke="#428e29" d="M9 42h1" />
<path stroke="#216418" d="M10 42h1" />
<path stroke="#011502" d="M20 42h1" />
<path stroke="#196b1a" d="M21 42h1" />
<path stroke="#464e0e" d="M22 42h1" />
<path stroke="#5c1206" d="M23 42h1" />
<path stroke="#621f09" d="M24 42h1" />
<path stroke="#67200a" d="M25 42h1" />
<path stroke="#190000" d="M26 42h1" />
<path stroke="#2d0300" d="M2 43h1" />
<path stroke="#441303" d="M3 43h1" />
<path stroke="#441506" d="M4 43h1" />
<path stroke="#250902" d="M5 43h1" />
<path stroke="#300b03" d="M6 43h1" />
<path stroke="#350902" d="M7 43h1" />
<path stroke="#2a0400" d="M8 43h1" />
<path stroke="#0c0300" d="M21 43h1" />
<path stroke="#4b1403" d="M22 43h1" />
<path stroke="#531a06" d="M23 43h1" />
<path stroke="#5a2007" d="M24 43h1" />
<path stroke="#3c1104" d="M25 43h1" />
<path stroke="#2a0702" d="M26 43h1" />
<path stroke="#2b0e0e" d="M27 43h1" />
<path stroke="#541a01" d="M28 43h1" />
<path stroke="#601900" d="M29 43h1" />
<path stroke="#581100" d="M30 43h1" />
<path stroke="#411104" d="M2 44h1" />
<path stroke="#431406" d="M3 44h1" />
<path stroke="#3f1304" d="M4 44h1" />
<path stroke="#381003" d="M5 44h1" />
<path stroke="#2d0c03" d="M6 44h1" />
<path stroke="#190301" d="M22 44h1" />
<path stroke="#3d0d03" d="M23 44h1" />
<path stroke="#350d03" d="M24 44h1" />
<path stroke="#230903" d="M25 44h1" />
<path stroke="#571e06" d="M26 44h1" />
<path stroke="#7f3003" d="M27 44h1" />
<path stroke="#833406" d="M28 44h1" />
<path stroke="#863607" d="M29 44h1" />
<path stroke="#661f05" d="M30 44h1" />
<path stroke="#340b01" d="M3 45h1" />
<path stroke="#461506" d="M4 45h1" />
<path stroke="#4e1b05" d="M5 45h1" />
<path stroke="#692503" d="M6 45h1" />
<path stroke="#4e1700" d="M7 45h1" />
<path stroke="#200300" d="M23 45h1" />
<path stroke="#3e1105" d="M24 45h1" />
<path stroke="#421305" d="M25 45h1" />
<path stroke="#511b06" d="M26 45h1" />
<path stroke="#672706" d="M27 45h1" />
<path stroke="#773206" d="M28 45h1" />
<path stroke="#521c02" d="M29 45h1" />
<path stroke="#350b00" d="M4 46h1" />
<path stroke="#572107" d="M5 46h1" />
<path stroke="#752c03" d="M6 46h1" />
<path stroke="#813404" d="M7 46h1" />
<path stroke="#611f00" d="M8 46h1" />
<path stroke="#4a1700" d="M9 46h1" />
<path stroke="#441101" d="M24 46h1" />
<path stroke="#4c1705" d="M25 46h1" />
<path stroke="#4b1505" d="M26 46h1" />
<path stroke="#4a1804" d="M27 46h1" />
<path stroke="#491702" d="M5 47h1" />
<path stroke="#692702" d="M6 47h1" />
<path stroke="#662501" d="M7 47h1" />
<path stroke="#6a2903" d="M8 47h1" />
<path stroke="#652400" d="M9 47h1" />
<path stroke="#050101" d="M24 47h1" />
<path stroke="#060102" d="M25 47h2" />
<path stroke="#040102" d="M27 47h1" />
</svg>