<svg xmlns="http://www.w3.org/2000/svg" viewBox="0 -0.5 32 32" shape-rendering="crispEdges">
<metadata>Made with Pixels to Svg https://codepen.io/shshaw/pen/XbxvNj</metadata>
<path stroke="#07016d" d="M13 15h6M19 16h1M20 17h1M20 18h1" />
<path stroke="#080280" d="M12 16h7M18 17h2M19 18h1" />
<path stroke="#0c0494" d="M11 17h7M17 18h2" />
<path stroke="#0d04a5" d="M11 18h6" />
<path stroke="#776e71" d="M9 19h1" />
<path stroke="#8b8883" d="M10 19h1" />
<path stroke="#454d5e" d="M11 19h1" />
<path stroke="#3c4664" d="M12 19h1" />
<path stroke="#464f69" d="M13 19h1" />
<path stroke="#4a5269" d="M14 19h1" />
<path stroke="#4d576d" d="M15 19h1" />
<path stroke="#4f5671" d="M16 19h2" />
<path stroke="#535c76" d="M18 19h1" />
<path stroke="#4f4d64" d="M19 19h1" />
<path stroke="#4c424a" d="M20 19h1" />
<path stroke="#6c6b70" d="M21 19h1" />
<path stroke="#79787a" d="M22 19h1" />
<path stroke="#424967" d="M7 20h1" />
<path stroke="#6b738b" d="M8 20h1" />
<path stroke="#555d73" d="M9 20h1" />
<path stroke="#6e747b" d="M10 20h1" />
<path stroke="#9c9d9d" d="M11 20h1" />
<path stroke="#9c9f9d" d="M12 20h2" />
<path stroke="#a5aaa8" d="M14 20h1" />
<path stroke="#9ea3a1" d="M15 20h1" />
<path stroke="#9c9e9d" d="M16 20h2" />
<path stroke="#9ba09d" d="M18 20h1" />
<path stroke="#9da39e" d="M19 20h1" />
<path stroke="#9b9f9a" d="M20 20h1" />
<path stroke="#8f969c" d="M21 20h1" />
<path stroke="#61677f" d="M22 20h1" />
<path stroke="#727290" d="M23 20h1" />
<path stroke="#4b4e66" d="M24 20h1" />
<path stroke="#000312" d="M8 21h1" />
<path stroke="#242c50" d="M9 21h1" />
<path stroke="#414c6b" d="M10 21h1" />
<path stroke="#49526e" d="M11 21h1" />
<path stroke="#444d66" d="M12 21h1" />
<path stroke="#697385" d="M13 21h1" />
<path stroke="#6d7888" d="M14 21h1" />
<path stroke="#6a7584" d="M15 21h1" />
<path stroke="#687282" d="M16 21h2" />
<path stroke="#687585" d="M18 21h1" />
<path stroke="#657386" d="M19 21h1" />
<path stroke="#647188" d="M20 21h1" />
<path stroke="#4e5a75" d="M21 21h1" />
<path stroke="#0b1029" d="M22 21h1" />
<path stroke="#171e32" d="M23 21h1" />
<path stroke="#06041c" d="M9 22h2" />
<path stroke="#11142e" d="M11 22h1" />
<path stroke="#282e4b" d="M12 22h1" />
<path stroke="#252d4b" d="M13 22h1" />
<path stroke="#252e49" d="M14 22h1M14 24h1" />
<path stroke="#272e49" d="M15 22h1" />
<path stroke="#272d49" d="M16 22h2" />
<path stroke="#252e4d" d="M18 22h1" />
<path stroke="#232c4e" d="M19 22h1" />
<path stroke="#1a2244" d="M20 22h1" />
<path stroke="#141835" d="M21 22h1" />
<path stroke="#030309" d="M22 22h1" />
<path stroke="#030703" d="M10 23h1M20 23h2" />
<path stroke="#03050c" d="M11 23h1" />
<path stroke="#000005" d="M12 23h2" />
<path stroke="#000004" d="M14 23h1" />
<path stroke="#000003" d="M15 23h4M16 31h2" />
<path stroke="#000002" d="M19 23h1M18 27h1" />
<path stroke="#383e5b" d="M11 24h2" />
<path stroke="#252d49" d="M13 24h1" />
<path stroke="#29324c" d="M15 24h1" />
<path stroke="#2b324c" d="M16 24h2" />
<path stroke="#2b334d" d="M18 24h1" />
<path stroke="#2b3754" d="M19 24h2" />
<path stroke="#afb5bf" d="M11 25h2" />
<path stroke="#a2abb5" d="M13 25h1" />
<path stroke="#a6afba" d="M14 25h1" />
<path stroke="#a7b0bd" d="M15 25h1" />
<path stroke="#a9b2bf" d="M16 25h2" />
<path stroke="#9ca7b6" d="M18 25h1" />
<path stroke="#6c7d98" d="M19 25h2" />
<path stroke="#11152e" d="M12 26h2" />
<path stroke="#1c1f38" d="M14 26h1" />
<path stroke="#1c213c" d="M15 26h1" />
<path stroke="#232540" d="M16 26h2" />
<path stroke="#13142d" d="M18 26h1" />
<path stroke="#0a0d31" d="M19 26h1M18 30h2" />
<path stroke="#515c7b" d="M12 27h2" />
<path stroke="#070e31" d="M14 27h1" />
<path stroke="#000221" d="M15 27h1" />
<path stroke="#000013" d="M16 27h2" />
<path stroke="#02020b" d="M19 27h1M18 31h2" />
<path stroke="#b6bebf" d="M11 28h2" />
<path stroke="#bfc8cc" d="M13 28h1" />
<path stroke="#99a0a8" d="M14 28h1" />
<path stroke="#90979e" d="M15 28h1" />
<path stroke="#898f95" d="M16 28h2" />
<path stroke="#989e9c" d="M18 28h1" />
<path stroke="#a7b0b5" d="M19 28h2" />
<path stroke="#cdd0ce" d="M11 29h2" />
<path stroke="#c5c7c0" d="M13 29h1" />
<path stroke="#d2d3cb" d="M14 29h1" />
<path stroke="#d3d5ce" d="M15 29h1" />
<path stroke="#ced2cf" d="M16 29h2" />
<path stroke="#aeb6be" d="M18 29h1" />
<path stroke="#5c6b81" d="M19 29h2" />
<path stroke="#30374f" d="M12 30h2" />
<path stroke="#1f2441" d="M14 30h1" />
<path stroke="#202743" d="M15 30h1" />
<path stroke="#1e2542" d="M16 30h2" />
<path stroke="#272e4e" d="M12 31h2" />
<path stroke="#000015" d="M14 31h1" />
<path stroke="#000018" d="M15 31h1" />
</svg>