<svg xmlns="http://www.w3.org/2000/svg" viewBox="0 -0.5 32 32" shape-rendering="crispEdges">
<metadata>Made with Pixels to Svg https://codepen.io/shshaw/pen/XbxvNj</metadata>
<path stroke="#7a0505" d="M13 19h6M19 20h1M20 21h1M20 22h1" />
<path stroke="#890404" d="M12 20h7M18 21h2M19 22h1" />
<path stroke="#a50303" d="M11 21h7M17 22h2" />
<path stroke="#b40505" d="M11 22h6" />
<path stroke="#776e71" d="M9 23h1" />
<path stroke="#8b8883" d="M10 23h1" />
<path stroke="#454d5e" d="M11 23h1" />
<path stroke="#3c4664" d="M12 23h1" />
<path stroke="#464f69" d="M13 23h1" />
<path stroke="#4a5269" d="M14 23h1" />
<path stroke="#4d576d" d="M15 23h1" />
<path stroke="#4f5671" d="M16 23h2" />
<path stroke="#535c76" d="M18 23h1" />
<path stroke="#4f4d64" d="M19 23h1" />
<path stroke="#4c424a" d="M20 23h1" />
<path stroke="#6c6b70" d="M21 23h1" />
<path stroke="#79787a" d="M22 23h1" />
<path stroke="#424967" d="M7 24h1" />
<path stroke="#6b738b" d="M8 24h1" />
<path stroke="#555d73" d="M9 24h1" />
<path stroke="#6e747b" d="M10 24h1" />
<path stroke="#9c9d9d" d="M11 24h1" />
<path stroke="#9c9f9d" d="M12 24h2" />
<path stroke="#a5aaa8" d="M14 24h1" />
<path stroke="#9ea3a1" d="M15 24h1" />
<path stroke="#9c9e9d" d="M16 24h2" />
<path stroke="#9ba09d" d="M18 24h1" />
<path stroke="#9da39e" d="M19 24h1" />
<path stroke="#9b9f9a" d="M20 24h1" />
<path stroke="#8f969c" d="M21 24h1" />
<path stroke="#61677f" d="M22 24h1" />
<path stroke="#727290" d="M23 24h1" />
<path stroke="#4b4e66" d="M24 24h1" />
<path stroke="#000312" d="M8 25h1" />
<path stroke="#242c50" d="M9 25h1" />
<path stroke="#414c6b" d="M10 25h1" />
<path stroke="#49526e" d="M11 25h1" />
<path stroke="#444d66" d="M12 25h1" />
<path stroke="#697385" d="M13 25h1" />
<path stroke="#6d7888" d="M14 25h1" />
<path stroke="#6a7584" d="M15 25h1" />
<path stroke="#687282" d="M16 25h2" />
<path stroke="#687585" d="M18 25h1" />
<path stroke="#657386" d="M19 25h1" />
<path stroke="#647188" d="M20 25h1" />
<path stroke="#4e5a75" d="M21 25h1" />
<path stroke="#0b1029" d="M22 25h1" />
<path stroke="#171e32" d="M23 25h1" />
<path stroke="#06041c" d="M9 26h2" />
<path stroke="#11142e" d="M11 26h1" />
<path stroke="#282e4b" d="M12 26h1" />
<path stroke="#252d4b" d="M13 26h1" />
<path stroke="#252e49" d="M14 26h1" />
<path stroke="#272e49" d="M15 26h1" />
<path stroke="#272d49" d="M16 26h2" />
<path stroke="#252e4d" d="M18 26h1" />
<path stroke="#232c4e" d="M19 26h1" />
<path stroke="#1a2244" d="M20 26h1" />
<path stroke="#141835" d="M21 26h1" />
<path stroke="#030309" d="M22 26h1" />
<path stroke="#030703" d="M10 27h1M20 27h2" />
<path stroke="#03050c" d="M11 27h1" />
<path stroke="#000005" d="M12 27h2" />
<path stroke="#000004" d="M14 27h1" />
<path stroke="#000003" d="M15 27h4" />
<path stroke="#000002" d="M19 27h1" />
<path stroke="#bfc5c4" d="M11 28h2" />
<path stroke="#b8bbc1" d="M13 28h1" />
<path stroke="#aaaeb1" d="M14 28h1" />
<path stroke="#a8acae" d="M15 28h1" />
<path stroke="#9c9fa4" d="M16 28h2" />
<path stroke="#a4abaa" d="M18 28h1" />
<path stroke="#a4b5bb" d="M19 28h2" />
<path stroke="#b4bbbd" d="M11 29h2" />
<path stroke="#bac0bd" d="M13 29h1" />
<path stroke="#bbc0bb" d="M14 29h1" />
<path stroke="#babfbc" d="M15 29h1" />
<path stroke="#a7adae" d="M16 29h2" />
<path stroke="#8e949c" d="M18 29h1" />
<path stroke="#4a526b" d="M19 29h2" />
<path stroke="#3c455d" d="M12 30h1" />
<path stroke="#40475f" d="M13 30h1" />
<path stroke="#42495f" d="M14 30h1" />
<path stroke="#434b62" d="M15 30h1" />
<path stroke="#3e445d" d="M16 30h2" />
<path stroke="#353c54" d="M18 30h1" />
<path stroke="#2e324a" d="M19 30h1" />
<path stroke="#515466" d="M12 31h1" />
<path stroke="#505264" d="M13 31h1" />
<path stroke="#4d5269" d="M14 31h1" />
<path stroke="#464d68" d="M15 31h1" />
<path stroke="#434a63" d="M16 31h2" />
<path stroke="#40465f" d="M18 31h1" />
<path stroke="#43475f" d="M19 31h1" />
</svg>