<svg xmlns="http://www.w3.org/2000/svg" viewBox="0 -0.5 32 32" shape-rendering="crispEdges">
<metadata>Made with Pixels to Svg https://codepen.io/shshaw/pen/XbxvNj</metadata>
<path stroke="#7a0505" d="M13 23h6M19 24h1M20 25h1M20 26h1" />
<path stroke="#890404" d="M12 24h7M18 25h2M19 26h1" />
<path stroke="#a50303" d="M11 25h7M17 26h2" />
<path stroke="#b40505" d="M11 26h6" />
<path stroke="#776e71" d="M9 27h1" />
<path stroke="#8b8883" d="M10 27h1" />
<path stroke="#454d5e" d="M11 27h1" />
<path stroke="#3c4664" d="M12 27h1" />
<path stroke="#464f69" d="M13 27h1" />
<path stroke="#4a5269" d="M14 27h1" />
<path stroke="#4d576d" d="M15 27h1" />
<path stroke="#4f5671" d="M16 27h2" />
<path stroke="#535c76" d="M18 27h1" />
<path stroke="#4f4d64" d="M19 27h1" />
<path stroke="#4c424a" d="M20 27h1" />
<path stroke="#6c6b70" d="M21 27h1" />
<path stroke="#79787a" d="M22 27h1" />
<path stroke="#424967" d="M7 28h1" />
<path stroke="#6b738b" d="M8 28h1" />
<path stroke="#555d73" d="M9 28h1" />
<path stroke="#6e747b" d="M10 28h1" />
<path stroke="#9c9d9d" d="M11 28h1" />
<path stroke="#9c9f9d" d="M12 28h2" />
<path stroke="#a5aaa8" d="M14 28h1" />
<path stroke="#9ea3a1" d="M15 28h1" />
<path stroke="#9c9e9d" d="M16 28h2" />
<path stroke="#9ba09d" d="M18 28h1" />
<path stroke="#9da39e" d="M19 28h1" />
<path stroke="#9b9f9a" d="M20 28h1" />
<path stroke="#8f969c" d="M21 28h1" />
<path stroke="#61677f" d="M22 28h1" />
<path stroke="#727290" d="M23 28h1" />
<path stroke="#4b4e66" d="M24 28h1" />
<path stroke="#000312" d="M8 29h1" />
<path stroke="#242c50" d="M9 29h1" />
<path stroke="#414c6b" d="M10 29h1" />
<path stroke="#49526e" d="M11 29h1" />
<path stroke="#444d66" d="M12 29h1" />
<path stroke="#697385" d="M13 29h1" />
<path stroke="#6d7888" d="M14 29h1" />
<path stroke="#6a7584" d="M15 29h1" />
<path stroke="#687282" d="M16 29h2" />
<path stroke="#687585" d="M18 29h1" />
<path stroke="#657386" d="M19 29h1" />
<path stroke="#647188" d="M20 29h1" />
<path stroke="#4e5a75" d="M21 29h1" />
<path stroke="#0b1029" d="M22 29h1" />
<path stroke="#171e32" d="M23 29h1" />
<path stroke="#06041c" d="M9 30h2" />
<path stroke="#11142e" d="M11 30h1" />
<path stroke="#282e4b" d="M12 30h1" />
<path stroke="#252d4b" d="M13 30h1" />
<path stroke="#252e49" d="M14 30h1" />
<path stroke="#272e49" d="M15 30h1" />
<path stroke="#272d49" d="M16 30h2" />
<path stroke="#252e4d" d="M18 30h1" />
<path stroke="#232c4e" d="M19 30h1" />
<path stroke="#1a2244" d="M20 30h1" />
<path stroke="#141835" d="M21 30h1" />
<path stroke="#030309" d="M22 30h1" />
<path stroke="#030703" d="M10 31h1M20 31h2" />
<path stroke="#03050c" d="M11 31h1" />
<path stroke="#000005" d="M12 31h2" />
<path stroke="#000004" d="M14 31h1" />
<path stroke="#000003" d="M15 31h4" />
<path stroke="#000002" d="M19 31h1" />
</svg>