<svg xmlns="http://www.w3.org/2000/svg" viewBox="0 -0.5 48 48" shape-rendering="crispEdges">
<metadata>Made with Pixels to Svg https://codepen.io/shshaw/pen/XbxvNj</metadata>
<path stroke="#000000" d="M34 3h5M32 4h2M39 4h3M29 5h3M42 5h1M28 6h1M43 6h2M27 7h1M44 7h1M27 8h1M43 8h1M27 9h1M43 9h1M27 10h1M44 10h1M28 11h1M43 11h1M23 12h4M28 12h1M42 12h1M20 13h3M27 13h2M42 13h1M17 14h3M42 14h1M15 15h2M42 15h1M14 16h1M41 16h1M14 17h1M40 17h3M14 18h1M36 18h4M43 18h1M14 19h1M36 19h2M44 19h1M15 20h1M26 20h1M44 20h1M16 21h1M27 21h1M44 21h1M17 22h1M28 22h1M44 22h1M17 23h1M28 23h1M43 23h1M28 24h1M39 24h4M16 25h1M28 25h1M39 25h1M16 26h1M27 26h1M37 26h2M15 27h1M23 27h4M32 27h5M15 28h1M33 28h1M14 29h1M34 29h1M14 30h1M35 30h1M13 31h1M36 31h1M36 32h1M11 33h1M36 33h1M10 34h1M36 34h1M9 35h1M35 35h1M8 36h1M34 36h1M7 37h1M33 37h1M17 38h2M31 38h2M16 39h1M18 39h1M28 39h3M4 40h1M15 40h1M19 40h1M27 40h1M4 41h1M14 41h1M20 41h1M24 41h1M3 42h1M13 42h1M21 42h1M3 43h1M22 43h1M26 43h1M3 44h1M23 44h3M3 45h1M4 46h1M5 47h1" />
<path stroke="#212239" d="M34 4h1" />
<path stroke="#313049" d="M35 4h1" />
<path stroke="#34324a" d="M36 4h1" />
<path stroke="#333147" d="M37 4h1" />
<path stroke="#252537" d="M38 4h1" />
<path stroke="#1b1a2d" d="M32 5h1" />
<path stroke="#222138" d="M33 5h1" />
<path stroke="#222239" d="M34 5h1" />
<path stroke="#1f1f33" d="M35 5h1" />
<path stroke="#212034" d="M36 5h1M38 5h1" />
<path stroke="#252439" d="M37 5h1" />
<path stroke="#1f1e35" d="M39 5h1" />
<path stroke="#282743" d="M40 5h1" />
<path stroke="#2a2843" d="M41 5h1" />
<path stroke="#010105" d="M29 6h1M26 19h1M11 45h1" />
<path stroke="#01010c" d="M30 6h1" />
<path stroke="#040515" d="M31 6h1" />
<path stroke="#19182d" d="M32 6h1" />
<path stroke="#201f34" d="M33 6h1" />
<path stroke="#1e1e33" d="M34 6h1" />
<path stroke="#070919" d="M35 6h1" />
<path stroke="#0a0a1a" d="M36 6h1" />
<path stroke="#040310" d="M37 6h1" />
<path stroke="#090615" d="M38 6h1" />
<path stroke="#111023" d="M39 6h1" />
<path stroke="#21203a" d="M40 6h1" />
<path stroke="#24223c" d="M41 6h1" />
<path stroke="#0e101e" d="M42 6h1" />
<path stroke="#010103" d="M28 7h1M22 19h1M5 39h1M12 43h1" />
<path stroke="#010104" d="M29 7h1" />
<path stroke="#000105" d="M30 7h1M33 9h1M8 41h1M10 45h1" />
<path stroke="#010107" d="M31 7h1M18 24h1" />
<path stroke="#040513" d="M32 7h1" />
<path stroke="#141429" d="M33 7h1" />
<path stroke="#1a1b31" d="M34 7h1" />
<path stroke="#070a1b" d="M35 7h1M27 17h1" />
<path stroke="#0a0b1c" d="M36 7h1" />
<path stroke="#02020c" d="M37 7h1M35 8h1M24 35h1" />
<path stroke="#171528" d="M38 7h1" />
<path stroke="#24233d" d="M39 7h1" />
<path stroke="#101127" d="M40 7h1" />
<path stroke="#0b0c21" d="M41 7h1" />
<path stroke="#151731" d="M42 7h1" />
<path stroke="#1b1a36" d="M43 7h1" />
<path stroke="#000002" d="M28 8h1M29 9h1M29 10h1M29 12h1M35 18h1M25 19h1M23 20h1M22 21h1M36 21h2M20 22h1M36 22h2M23 37h2M23 38h2M6 39h1M24 39h1M7 40h1M24 40h2M5 41h1M7 41h1M6 42h1M8 42h1M7 44h1M7 45h1" />
<path stroke="#000003" d="M29 8h1M30 10h1M34 10h1M30 11h1M23 19h2M22 20h1M21 21h1M21 22h1M20 23h1M17 24h1M17 25h1M21 25h1M23 35h1M23 36h1M25 38h1M25 39h2M5 40h2M6 41h1M7 42h1M7 43h5M8 44h2M12 44h1M12 45h1" />
<path stroke="#000004" d="M30 8h1M30 9h3M18 23h1M10 44h2" />
<path stroke="#000104" d="M31 8h1M40 10h1M19 23h1M20 24h1M24 36h1" />
<path stroke="#000005" d="M32 8h1" />
<path stroke="#020310" d="M33 8h1" />
<path stroke="#060719" d="M34 8h1" />
<path stroke="#03030c" d="M36 8h1" />
<path stroke="#12101c" d="M37 8h1" />
<path stroke="#1b1b2d" d="M38 8h1" />
<path stroke="#282a42" d="M39 8h1" />
<path stroke="#0d1123" d="M40 8h1" />
<path stroke="#070b21" d="M41 8h1" />
<path stroke="#0c122a" d="M42 8h1" />
<path stroke="#000001" d="M28 9h1M29 11h1M34 11h1M37 23h1M24 32h1M22 35h1M22 36h1M22 37h1M22 38h1M23 39h1M25 41h1M6 43h1" />
<path stroke="#000106" d="M34 9h1M18 25h1M20 25h1" />
<path stroke="#190a0a" d="M35 9h1" />
<path stroke="#6d3725" d="M36 9h1" />
<path stroke="#291718" d="M37 9h1" />
<path stroke="#100e18" d="M38 9h1" />
<path stroke="#191c2e" d="M39 9h1" />
<path stroke="#0c1224" d="M40 9h1" />
<path stroke="#030618" d="M41 9h1" />
<path stroke="#0c132a" d="M42 9h1" />
<path stroke="#010101" d="M28 10h1" />
<path stroke="#020105" d="M31 10h1" />
<path stroke="#0c060b" d="M32 10h1" />
<path stroke="#030206" d="M33 10h1" />
<path stroke="#3c1c15" d="M35 10h1" />
<path stroke="#aa5636" d="M36 10h1" />
<path stroke="#803f2c" d="M37 10h1" />
<path stroke="#6b3d2d" d="M38 10h1" />
<path stroke="#140a0b" d="M39 10h1" />
<path stroke="#010106" d="M41 10h1M9 42h1" />
<path stroke="#06091a" d="M42 10h1M33 20h1" />
<path stroke="#060718" d="M43 10h1M32 21h1" />
<path stroke="#462721" d="M31 11h1" />
<path stroke="#be8771" d="M32 11h1" />
<path stroke="#62443c" d="M33 11h1" />
<path stroke="#4e281e" d="M35 11h1" />
<path stroke="#ac654a" d="M36 11h1" />
<path stroke="#af6e57" d="M37 11h1" />
<path stroke="#442920" d="M38 11h1" />
<path stroke="#352421" d="M39 11h1" />
<path stroke="#85584b" d="M40 11h1" />
<path stroke="#3c2520" d="M41 11h1" />
<path stroke="#010302" d="M42 11h1M26 41h1" />
<path stroke="#030103" d="M30 12h1" />
<path stroke="#a75b46" d="M31 12h1" />
<path stroke="#ffb691" d="M32 12h1" />
<path stroke="#876253" d="M33 12h1" />
<path stroke="#2d1210" d="M34 12h1" />
<path stroke="#bb7055" d="M35 12h1" />
<path stroke="#fda87f" d="M36 12h1" />
<path stroke="#df9c7d" d="M37 12h1" />
<path stroke="#1e1411" d="M38 12h1" />
<path stroke="#5f4238" d="M39 12h1" />
<path stroke="#fbab88" d="M40 12h1M40 13h1" />
<path stroke="#6f4c3c" d="M41 12h1" />
<path stroke="#110e20" d="M23 13h1" />
<path stroke="#1b152d" d="M24 13h1" />
<path stroke="#1c1830" d="M25 13h1" />
<path stroke="#131122" d="M26 13h1" />
<path stroke="#030415" d="M29 13h1" />
<path stroke="#050207" d="M30 13h1" />
<path stroke="#a35544" d="M31 13h1" />
<path stroke="#ffb18b" d="M32 13h1" />
<path stroke="#896251" d="M33 13h1" />
<path stroke="#693425" d="M34 13h1" />
<path stroke="#f99d75" d="M35 13h1" />
<path stroke="#ffa67a" d="M36 13h1" />
<path stroke="#e09574" d="M37 13h1" />
<path stroke="#231410" d="M38 13h1" />
<path stroke="#69493d" d="M39 13h1" />
<path stroke="#6c4c3c" d="M41 13h1" />
<path stroke="#8b6a55" d="M20 14h1" />
<path stroke="#442c29" d="M21 14h1" />
<path stroke="#070b1f" d="M22 14h1" />
<path stroke="#20213e" d="M23 14h1" />
<path stroke="#23233f" d="M24 14h2" />
<path stroke="#1e1f37" d="M26 14h1" />
<path stroke="#0b0c1f" d="M27 14h1" />
<path stroke="#030519" d="M28 14h1" />
<path stroke="#070a24" d="M29 14h1" />
<path stroke="#281317" d="M30 14h1" />
<path stroke="#4d241e" d="M31 14h1" />
<path stroke="#c58067" d="M32 14h1" />
<path stroke="#835644" d="M33 14h1" />
<path stroke="#a1563e" d="M34 14h1" />
<path stroke="#ff9f75" d="M35 14h1" />
<path stroke="#fea076" d="M36 14h1" />
<path stroke="#f09871" d="M37 14h1" />
<path stroke="#a3654b" d="M38 14h1" />
<path stroke="#c28065" d="M39 14h1" />
<path stroke="#ffad8b" d="M40 14h1" />
<path stroke="#6f4e3e" d="M41 14h1" />
<path stroke="#956b50" d="M17 15h1" />
<path stroke="#c48264" d="M18 15h1" />
<path stroke="#c38164" d="M19 15h1" />
<path stroke="#f6a383" d="M20 15h1" />
<path stroke="#b2715e" d="M21 15h1" />
<path stroke="#2a1b25" d="M22 15h1" />
<path stroke="#171a34" d="M23 15h1" />
<path stroke="#181b33" d="M24 15h1" />
<path stroke="#151a32" d="M25 15h1" />
<path stroke="#13172d" d="M26 15h1" />
<path stroke="#0d1125" d="M27 15h1M27 16h1" />
<path stroke="#030414" d="M28 15h1" />
<path stroke="#060a20" d="M29 15h1" />
<path stroke="#32171a" d="M30 15h1" />
<path stroke="#803c32" d="M31 15h1" />
<path stroke="#50241b" d="M32 15h1" />
<path stroke="#4a1e14" d="M33 15h1" />
<path stroke="#b45e41" d="M34 15h1" />
<path stroke="#ff9e73" d="M35 15h1" />
<path stroke="#fd9e75" d="M36 15h1" />
<path stroke="#fc9d74" d="M37 15h1" />
<path stroke="#fc996e" d="M38 15h1" />
<path stroke="#fb9974" d="M39 15h1" />
<path stroke="#dd9279" d="M40 15h1" />
<path stroke="#564034" d="M41 15h1" />
<path stroke="#7f5f4f" d="M15 16h1" />
<path stroke="#d79880" d="M16 16h1" />
<path stroke="#f5a37e" d="M17 16h1" />
<path stroke="#ffaa80" d="M18 16h1" />
<path stroke="#f69a76" d="M19 16h1" />
<path stroke="#d87a5b" d="M20 16h1" />
<path stroke="#d57a5e" d="M21 16h1" />
<path stroke="#432424" d="M22 16h1" />
<path stroke="#0c1025" d="M23 16h1" />
<path stroke="#10132a" d="M24 16h1" />
<path stroke="#0e1229" d="M25 16h1" />
<path stroke="#0d1127" d="M26 16h1" />
<path stroke="#030311" d="M28 16h1" />
<path stroke="#0a0d21" d="M29 16h1" />
<path stroke="#110a13" d="M30 16h1" />
<path stroke="#8b3f35" d="M31 16h1" />
<path stroke="#85372a" d="M32 16h1" />
<path stroke="#45170d" d="M33 16h1" />
<path stroke="#a15039" d="M34 16h1" />
<path stroke="#f19369" d="M35 16h1" />
<path stroke="#ffa176" d="M36 16h1" />
<path stroke="#ffa278" d="M37 16h1" />
<path stroke="#ffa87f" d="M38 16h1" />
<path stroke="#e08e74" d="M39 16h1" />
<path stroke="#5a3932" d="M40 16h1" />
<path stroke="#e29a80" d="M15 17h1" />
<path stroke="#ffaa85" d="M16 17h1" />
<path stroke="#ffa77e" d="M17 17h1" />
<path stroke="#fea87e" d="M18 17h1" />
<path stroke="#ef956e" d="M19 17h1" />
<path stroke="#cf7857" d="M20 17h1" />
<path stroke="#663124" d="M21 17h1" />
<path stroke="#170609" d="M22 17h1" />
<path stroke="#040617" d="M23 17h1" />
<path stroke="#060a1e" d="M24 17h1" />
<path stroke="#060b20" d="M25 17h1" />
<path stroke="#090c21" d="M26 17h1" />
<path stroke="#02020b" d="M28 17h1" />
<path stroke="#0a0c1c" d="M29 17h1" />
<path stroke="#090c1b" d="M30 17h1M29 18h1M28 20h1" />
<path stroke="#281113" d="M31 17h1" />
<path stroke="#9c5441" d="M32 17h1" />
<path stroke="#5b2719" d="M33 17h1" />
<path stroke="#3e1710" d="M34 17h1" />
<path stroke="#723a28" d="M35 17h1" />
<path stroke="#a66649" d="M36 17h1" />
<path stroke="#b77b5e" d="M37 17h1" />
<path stroke="#b9866b" d="M38 17h1" />
<path stroke="#674a40" d="M39 17h1" />
<path stroke="#d38b71" d="M15 18h1" />
<path stroke="#ffa67f" d="M16 18h1" />
<path stroke="#ffa67d" d="M17 18h1" />
<path stroke="#ef8c66" d="M18 18h1" />
<path stroke="#dd744f" d="M19 18h1" />
<path stroke="#f7a275" d="M20 18h1" />
<path stroke="#92624b" d="M21 18h1" />
<path stroke="#0c0607" d="M22 18h1" />
<path stroke="#01030d" d="M23 18h1" />
<path stroke="#020411" d="M24 18h1" />
<path stroke="#030513" d="M25 18h2M32 22h1" />
<path stroke="#02030c" d="M27 18h1M31 23h1" />
<path stroke="#040510" d="M28 18h1" />
<path stroke="#090d1c" d="M30 18h1" />
<path stroke="#0c0a13" d="M31 18h1" />
<path stroke="#281313" d="M32 18h1" />
<path stroke="#53281f" d="M33 18h1" />
<path stroke="#221215" d="M34 18h1" />
<path stroke="#d0896d" d="M40 18h1" />
<path stroke="#dc9775" d="M41 18h1" />
<path stroke="#694c3a" d="M42 18h1" />
<path stroke="#5a3a2b" d="M15 19h1" />
<path stroke="#ec9776" d="M16 19h1" />
<path stroke="#ffa77d" d="M17 19h1" />
<path stroke="#f0946c" d="M18 19h1" />
<path stroke="#cd6341" d="M19 19h1" />
<path stroke="#ba6849" d="M20 19h1" />
<path stroke="#4f3228" d="M21 19h1" />
<path stroke="#03040d" d="M27 19h1" />
<path stroke="#090b1a" d="M28 19h1" />
<path stroke="#090c1e" d="M29 19h1" />
<path stroke="#070c1b" d="M30 19h1M30 20h1" />
<path stroke="#070b1b" d="M31 19h1" />
<path stroke="#060918" d="M32 19h2" />
<path stroke="#030918" d="M34 19h1" />
<path stroke="#01060e" d="M35 19h1" />
<path stroke="#693329" d="M38 19h1" />
<path stroke="#b2604f" d="M39 19h1" />
<path stroke="#f59a78" d="M40 19h1" />
<path stroke="#ffad85" d="M41 19h1" />
<path stroke="#ed9f7f" d="M42 19h1" />
<path stroke="#83604d" d="M43 19h1" />
<path stroke="#825743" d="M16 20h1" />
<path stroke="#f29b78" d="M17 20h1" />
<path stroke="#ffaf85" d="M18 20h1" />
<path stroke="#cd8567" d="M19 20h1" />
<path stroke="#341a15" d="M20 20h1" />
<path stroke="#010003" d="M21 20h1" />
<path stroke="#100b0c" d="M24 20h1" />
<path stroke="#3c2d2a" d="M25 20h1" />
<path stroke="#050614" d="M27 20h1" />
<path stroke="#090d1e" d="M29 20h1M29 21h1" />
<path stroke="#060a1a" d="M31 20h1" />
<path stroke="#060919" d="M32 20h1" />
<path stroke="#030411" d="M34 20h1" />
<path stroke="#02040b" d="M35 20h1" />
<path stroke="#000206" d="M36 20h1" />
<path stroke="#090205" d="M37 20h1" />
<path stroke="#7e3a32" d="M38 20h1" />
<path stroke="#5e3129" d="M39 20h1" />
<path stroke="#e09071" d="M40 20h1" />
<path stroke="#ffaa83" d="M41 20h1" />
<path stroke="#ffac86" d="M42 20h1" />
<path stroke="#b27762" d="M43 20h1" />
<path stroke="#8d5641" d="M17 21h1" />
<path stroke="#d08868" d="M18 21h1" />
<path stroke="#58372c" d="M19 21h1" />
<path stroke="#010102" d="M20 21h1" />
<path stroke="#030102" d="M23 21h1M38 23h1" />
<path stroke="#6f4c3f" d="M24 21h1" />
<path stroke="#e5a183" d="M25 21h1" />
<path stroke="#885e50" d="M26 21h1" />
<path stroke="#0b0b19" d="M28 21h1" />
<path stroke="#040613" d="M30 21h2" />
<path stroke="#050617" d="M33 21h1" />
<path stroke="#03020a" d="M34 21h1" />
<path stroke="#040103" d="M35 21h1" />
<path stroke="#391414" d="M38 21h1" />
<path stroke="#62322a" d="M39 21h1" />
<path stroke="#dc8464" d="M40 21h1" />
<path stroke="#fea980" d="M41 21h1" />
<path stroke="#ffae86" d="M42 21h1" />
<path stroke="#ad725e" d="M43 21h1" />
<path stroke="#150a0b" d="M18 22h1" />
<path stroke="#030104" d="M19 22h1" />
<path stroke="#110707" d="M22 22h1" />
<path stroke="#865541" d="M23 22h1" />
<path stroke="#e89873" d="M24 22h1" />
<path stroke="#fda67a" d="M25 22h1" />
<path stroke="#f7a37d" d="M26 22h1" />
<path stroke="#b17459" d="M27 22h1" />
<path stroke="#030412" d="M29 22h1" />
<path stroke="#01030b" d="M30 22h1" />
<path stroke="#020410" d="M31 22h1" />
<path stroke="#04030e" d="M33 22h1" />
<path stroke="#44181b" d="M34 22h1" />
<path stroke="#431519" d="M35 22h1" />
<path stroke="#2a0c0c" d="M38 22h1" />
<path stroke="#a64533" d="M39 22h1" />
<path stroke="#c75b3e" d="M40 22h1" />
<path stroke="#f99b71" d="M41 22h1" />
<path stroke="#f29e77" d="M42 22h1" />
<path stroke="#754b3c" d="M43 22h1" />
<path stroke="#170709" d="M21 23h1" />
<path stroke="#aa6d51" d="M22 23h1" />
<path stroke="#f7a076" d="M23 23h1" />
<path stroke="#fea277" d="M24 23h1" />
<path stroke="#fda377" d="M25 23h1" />
<path stroke="#ffa77b" d="M26 23h1" />
<path stroke="#df906e" d="M27 23h1" />
<path stroke="#020512" d="M29 23h1" />
<path stroke="#02030e" d="M30 23h1" />
<path stroke="#020207" d="M32 23h1" />
<path stroke="#52211f" d="M33 23h1" />
<path stroke="#ba4e3f" d="M34 23h1" />
<path stroke="#7f352d" d="M35 23h1" />
<path stroke="#19060a" d="M36 23h1" />
<path stroke="#762d20" d="M39 23h1" />
<path stroke="#9f462e" d="M40 23h1" />
<path stroke="#a85539" d="M41 23h1" />
<path stroke="#784a34" d="M42 23h1" />
<path stroke="#000109" d="M19 24h1" />
<path stroke="#170707" d="M21 24h1" />
<path stroke="#bf7554" d="M22 24h1" />
<path stroke="#ffa274" d="M23 24h1" />
<path stroke="#fea577" d="M24 24h1" />
<path stroke="#fea678" d="M25 24h1" />
<path stroke="#ffa87e" d="M26 24h1" />
<path stroke="#c88269" d="M27 24h1" />
<path stroke="#020617" d="M29 24h1" />
<path stroke="#020614" d="M30 24h1" />
<path stroke="#040610" d="M31 24h1" />
<path stroke="#2e1513" d="M32 24h1" />
<path stroke="#b4503d" d="M33 24h1" />
<path stroke="#d85d42" d="M34 24h1" />
<path stroke="#cd5b41" d="M35 24h1" />
<path stroke="#b14c36" d="M36 24h1" />
<path stroke="#642318" d="M37 24h1" />
<path stroke="#170403" d="M38 24h1" />
<path stroke="#000107" d="M19 25h1" />
<path stroke="#5c2d21" d="M22 25h1" />
<path stroke="#d57b53" d="M23 25h1" />
<path stroke="#fd9e6e" d="M24 25h1" />
<path stroke="#fda173" d="M25 25h1" />
<path stroke="#d68765" d="M26 25h1" />
<path stroke="#4c2a27" d="M27 25h1" />
<path stroke="#020515" d="M29 25h1" />
<path stroke="#010412" d="M30 25h1" />
<path stroke="#0a0609" d="M31 25h1" />
<path stroke="#934e36" d="M32 25h1" />
<path stroke="#d35f43" d="M33 25h1" />
<path stroke="#d55d41" d="M34 25h1" />
<path stroke="#d35d3f" d="M35 25h1" />
<path stroke="#c9593c" d="M36 25h1" />
<path stroke="#a84b30" d="M37 25h1" />
<path stroke="#452714" d="M38 25h1" />
<path stroke="#121321" d="M17 26h1" />
<path stroke="#191c25" d="M18 26h1" />
<path stroke="#1b1f28" d="M19 26h1" />
<path stroke="#0a0c18" d="M20 26h1" />
<path stroke="#02030d" d="M21 26h1" />
<path stroke="#050307" d="M22 26h1" />
<path stroke="#572c1f" d="M23 26h1" />
<path stroke="#83452c" d="M24 26h1" />
<path stroke="#844731" d="M25 26h1" />
<path stroke="#55322d" d="M26 26h1" />
<path stroke="#1b1e2d" d="M28 26h1" />
<path stroke="#1e2131" d="M29 26h1" />
<path stroke="#202331" d="M30 26h1" />
<path stroke="#18181e" d="M31 26h1" />
<path stroke="#2e1711" d="M32 26h1" />
<path stroke="#924332" d="M33 26h1" />
<path stroke="#b05038" d="M34 26h1" />
<path stroke="#ac4d35" d="M35 26h1" />
<path stroke="#60291b" d="M36 26h1" />
<path stroke="#282945" d="M16 27h1" />
<path stroke="#5d617c" d="M17 27h1" />
<path stroke="#727985" d="M18 27h1" />
<path stroke="#747a84" d="M19 27h1" />
<path stroke="#565c69" d="M20 27h1" />
<path stroke="#474b5d" d="M21 27h1" />
<path stroke="#474b5c" d="M22 27h1" />
<path stroke="#62687e" d="M27 27h1" />
<path stroke="#686d83" d="M28 27h1" />
<path stroke="#74788a" d="M29 27h1" />
<path stroke="#7b7f8f" d="M30 27h1" />
<path stroke="#787a87" d="M31 27h1" />
<path stroke="#494a70" d="M16 28h1" />
<path stroke="#656a82" d="M17 28h1" />
<path stroke="#777f8a" d="M18 28h1M24 28h1M18 29h1" />
<path stroke="#777e88" d="M19 28h1" />
<path stroke="#767d8a" d="M20 28h1M21 29h1" />
<path stroke="#767d8b" d="M21 28h1" />
<path stroke="#757c89" d="M22 28h1M24 29h1" />
<path stroke="#757b87" d="M23 28h1" />
<path stroke="#7d8590" d="M25 28h1M17 32h1" />
<path stroke="#7d8391" d="M26 28h1M32 31h1" />
<path stroke="#6b7186" d="M27 28h1" />
<path stroke="#535b73" d="M28 28h1" />
<path stroke="#717789" d="M29 28h1" />
<path stroke="#7d8291" d="M30 28h2" />
<path stroke="#828897" d="M32 28h1M33 29h1M34 30h1M34 31h2M35 32h1" />
<path stroke="#343556" d="M15 29h1" />
<path stroke="#565a79" d="M16 29h1" />
<path stroke="#717687" d="M17 29h1" />
<path stroke="#777e8a" d="M19 29h1" />
<path stroke="#767e8a" d="M20 29h1" />
<path stroke="#757c88" d="M22 29h1" />
<path stroke="#727885" d="M23 29h1" />
<path stroke="#7b828f" d="M25 29h1" />
<path stroke="#4b4f61" d="M26 29h1" />
<path stroke="#2a3047" d="M27 29h1" />
<path stroke="#555e75" d="M28 29h1" />
<path stroke="#787e8f" d="M29 29h1" />
<path stroke="#7b808e" d="M30 29h1" />
<path stroke="#7a7f8e" d="M31 29h1" />
<path stroke="#7c828f" d="M32 29h1M32 30h1" />
<path stroke="#515678" d="M15 30h1" />
<path stroke="#646c83" d="M16 30h1" />
<path stroke="#79818c" d="M17 30h1" />
<path stroke="#78808b" d="M18 30h1" />
<path stroke="#787f8b" d="M19 30h3" />
<path stroke="#787e8a" d="M22 30h1" />
<path stroke="#565b72" d="M23 30h1" />
<path stroke="#3f4461" d="M24 30h1" />
<path stroke="#393e5c" d="M25 30h1" />
<path stroke="#222547" d="M26 30h1" />
<path stroke="#33385b" d="M27 30h1" />
<path stroke="#6a7388" d="M28 30h1" />
<path stroke="#7a808f" d="M29 30h1" />
<path stroke="#7a808d" d="M30 30h1M30 31h1" />
<path stroke="#7a808e" d="M31 30h1" />
<path stroke="#818793" d="M33 30h1" />
<path stroke="#4e536c" d="M14 31h1" />
<path stroke="#555e7a" d="M15 31h1" />
<path stroke="#626a7f" d="M16 31h1" />
<path stroke="#7b838e" d="M17 31h1" />
<path stroke="#7a818d" d="M18 31h3" />
<path stroke="#7b828d" d="M21 31h1" />
<path stroke="#787f8d" d="M22 31h1" />
<path stroke="#444963" d="M23 31h1" />
<path stroke="#111433" d="M24 31h1" />
<path stroke="#15193e" d="M25 31h1" />
<path stroke="#282b54" d="M26 31h1" />
<path stroke="#3d4369" d="M27 31h1" />
<path stroke="#575f7a" d="M28 31h1" />
<path stroke="#6e7687" d="M29 31h1" />
<path stroke="#7b818f" d="M31 31h1" />
<path stroke="#828896" d="M33 31h1" />
<path stroke="#06090d" d="M12 32h1" />
<path stroke="#4b5068" d="M13 32h1" />
<path stroke="#646b88" d="M14 32h1" />
<path stroke="#5a637e" d="M15 32h1" />
<path stroke="#5f677b" d="M16 32h1" />
<path stroke="#7c838f" d="M18 32h2" />
<path stroke="#7d848f" d="M20 32h1" />
<path stroke="#808792" d="M21 32h1M17 33h1" />
<path stroke="#6c7385" d="M22 32h1" />
<path stroke="#1b1e2b" d="M23 32h1" />
<path stroke="#01020b" d="M25 32h1" />
<path stroke="#0a0b1f" d="M26 32h1" />
<path stroke="#13152b" d="M27 32h1" />
<path stroke="#2d324b" d="M28 32h1" />
<path stroke="#4f546c" d="M29 32h1" />
<path stroke="#747a8c" d="M30 32h1" />
<path stroke="#7e8594" d="M31 32h1" />
<path stroke="#7f8795" d="M32 32h1" />
<path stroke="#828a99" d="M33 32h1" />
<path stroke="#868e9f" d="M34 32h1" />
<path stroke="#131722" d="M12 33h1" />
<path stroke="#5a607d" d="M13 33h1" />
<path stroke="#656e8b" d="M14 33h1" />
<path stroke="#5a6480" d="M15 33h1" />
<path stroke="#5b6477" d="M16 33h1" />
<path stroke="#7e8590" d="M18 33h1" />
<path stroke="#7f8690" d="M19 33h1" />
<path stroke="#828991" d="M20 33h1" />
<path stroke="#848a97" d="M21 33h1" />
<path stroke="#4e5468" d="M22 33h1" />
<path stroke="#21211b" d="M23 33h1" />
<path stroke="#15150d" d="M24 33h1" />
<path stroke="#06061b" d="M25 33h1" />
<path stroke="#1e1f3c" d="M26 33h1" />
<path stroke="#2a2b45" d="M27 33h1" />
<path stroke="#12121e" d="M28 33h1" />
<path stroke="#0d0e1a" d="M29 33h1" />
<path stroke="#5e6174" d="M30 33h1" />
<path stroke="#818a9a" d="M31 33h1" />
<path stroke="#808a99" d="M32 33h1" />
<path stroke="#828c9c" d="M33 33h1" />
<path stroke="#8892a5" d="M34 33h1" />
<path stroke="#868fa2" d="M35 33h1M34 34h2M34 35h1" />
<path stroke="#2a304c" d="M11 34h1M10 35h1" />
<path stroke="#3c425b" d="M12 34h1" />
<path stroke="#676d8b" d="M13 34h1" />
<path stroke="#68718d" d="M14 34h1" />
<path stroke="#5b6482" d="M15 34h1" />
<path stroke="#525b6d" d="M16 34h1" />
<path stroke="#818792" d="M17 34h1" />
<path stroke="#7f8792" d="M18 34h1" />
<path stroke="#828992" d="M19 34h1" />
<path stroke="#7d8490" d="M20 34h1" />
<path stroke="#535a6a" d="M21 34h1" />
<path stroke="#111321" d="M22 34h1" />
<path stroke="#10100e" d="M23 34h1" />
<path stroke="#121218" d="M24 34h1" />
<path stroke="#1e1f3f" d="M25 34h1M25 35h1" />
<path stroke="#45496e" d="M26 34h1" />
<path stroke="#5d6183" d="M27 34h1" />
<path stroke="#52566d" d="M28 34h1" />
<path stroke="#2d303c" d="M29 34h1" />
<path stroke="#686c7d" d="M30 34h1" />
<path stroke="#818a9b" d="M31 34h1" />
<path stroke="#808b9a" d="M32 34h1" />
<path stroke="#838e9e" d="M33 34h1" />
<path stroke="#505a80" d="M11 35h1" />
<path stroke="#4e5a7d" d="M12 35h1" />
<path stroke="#444962" d="M13 35h1" />
<path stroke="#6b718a" d="M14 35h1" />
<path stroke="#5e6682" d="M15 35h1" />
<path stroke="#383f53" d="M16 35h1" />
<path stroke="#7a7e8b" d="M17 35h1" />
<path stroke="#818695" d="M18 35h1" />
<path stroke="#7f8594" d="M19 35h1" />
<path stroke="#5a5f73" d="M20 35h1" />
<path stroke="#141724" d="M21 35h1" />
<path stroke="#494c70" d="M26 35h1" />
<path stroke="#5f6482" d="M27 35h1" />
<path stroke="#606580" d="M28 35h1" />
<path stroke="#616881" d="M29 35h1" />
<path stroke="#757d91" d="M30 35h1" />
<path stroke="#80899a" d="M31 35h1" />
<path stroke="#808c9b" d="M32 35h1" />
<path stroke="#7c8898" d="M33 35h1" />
<path stroke="#1b203d" d="M9 36h1" />
<path stroke="#373d68" d="M10 36h1" />
<path stroke="#616e95" d="M11 36h1" />
<path stroke="#627397" d="M12 36h1" />
<path stroke="#2e364e" d="M13 36h1" />
<path stroke="#393c4c" d="M14 36h1" />
<path stroke="#5e647f" d="M15 36h1" />
<path stroke="#323854" d="M16 36h1" />
<path stroke="#626880" d="M17 36h1" />
<path stroke="#6a718a" d="M18 36h1" />
<path stroke="#575b73" d="M19 36h1" />
<path stroke="#40445a" d="M20 36h1" />
<path stroke="#151724" d="M21 36h1" />
<path stroke="#0b0b23" d="M25 36h1" />
<path stroke="#242545" d="M26 36h1" />
<path stroke="#4b4e6b" d="M27 36h1" />
<path stroke="#585e79" d="M28 36h1" />
<path stroke="#525b76" d="M29 36h1" />
<path stroke="#58617e" d="M30 36h1" />
<path stroke="#5d6685" d="M31 36h1" />
<path stroke="#5c6684" d="M32 36h1" />
<path stroke="#434c5f" d="M33 36h1" />
<path stroke="#11172a" d="M8 37h1" />
<path stroke="#2a315c" d="M9 37h1" />
<path stroke="#4d557d" d="M10 37h1" />
<path stroke="#647497" d="M11 37h1" />
<path stroke="#66789c" d="M12 37h1" />
<path stroke="#586785" d="M13 37h1" />
<path stroke="#191b2a" d="M14 37h1" />
<path stroke="#454a63" d="M15 37h1" />
<path stroke="#3f496b" d="M16 37h1" />
<path stroke="#555e80" d="M17 37h1" />
<path stroke="#494d6e" d="M18 37h1" />
<path stroke="#1c1e33" d="M19 37h1" />
<path stroke="#50546d" d="M20 37h1" />
<path stroke="#2a2c3f" d="M21 37h1" />
<path stroke="#03030e" d="M25 37h1" />
<path stroke="#10112d" d="M26 37h1" />
<path stroke="#1e2141" d="M27 37h1" />
<path stroke="#2c304f" d="M28 37h1" />
<path stroke="#494d6c" d="M29 37h1" />
<path stroke="#575d79" d="M30 37h1" />
<path stroke="#303651" d="M31 37h1" />
<path stroke="#283147" d="M32 37h1" />
<path stroke="#040e05" d="M6 38h1" />
<path stroke="#0c1018" d="M7 38h1" />
<path stroke="#2b3252" d="M8 38h1" />
<path stroke="#3d476d" d="M9 38h1" />
<path stroke="#606e90" d="M10 38h1" />
<path stroke="#617396" d="M11 38h1" />
<path stroke="#617598" d="M12 38h1" />
<path stroke="#5f7294" d="M13 38h1" />
<path stroke="#3f4b64" d="M14 38h1" />
<path stroke="#22293e" d="M15 38h1" />
<path stroke="#2b364d" d="M16 38h1" />
<path stroke="#05070c" d="M19 38h1" />
<path stroke="#5c5f78" d="M20 38h1" />
<path stroke="#212232" d="M21 38h1" />
<path stroke="#030312" d="M26 38h1" />
<path stroke="#050514" d="M27 38h1" />
<path stroke="#060615" d="M28 38h1" />
<path stroke="#1b1b2c" d="M29 38h1" />
<path stroke="#282935" d="M30 38h1" />
<path stroke="#070913" d="M7 39h1" />
<path stroke="#2b334f" d="M8 39h1" />
<path stroke="#4c5b7f" d="M9 39h1" />
<path stroke="#617496" d="M10 39h1" />
<path stroke="#5e7396" d="M11 39h1" />
<path stroke="#5e7498" d="M12 39h1" />
<path stroke="#5f759a" d="M13 39h1" />
<path stroke="#61779c" d="M14 39h1" />
<path stroke="#455672" d="M15 39h1" />
<path stroke="#6a707d" d="M19 39h2M20 40h1" />
<path stroke="#747582" d="M21 39h1" />
<path stroke="#111118" d="M22 39h1" />
<path stroke="#000101" d="M27 39h1" />
<path stroke="#111728" d="M8 40h1" />
<path stroke="#515f81" d="M9 40h1" />
<path stroke="#61759a" d="M10 40h1" />
<path stroke="#5d7398" d="M11 40h1" />
<path stroke="#5e7399" d="M12 40h1" />
<path stroke="#5e7398" d="M13 40h1" />
<path stroke="#465674" d="M14 40h1" />
<path stroke="#93949f" d="M21 40h1" />
<path stroke="#777882" d="M22 40h1" />
<path stroke="#03040a" d="M23 40h1" />
<path stroke="#000102" d="M26 40h1" />
<path stroke="#252c41" d="M9 41h1" />
<path stroke="#5a668b" d="M10 41h1" />
<path stroke="#607197" d="M11 41h1" />
<path stroke="#5e6e93" d="M12 41h1" />
<path stroke="#465470" d="M13 41h1" />
<path stroke="#afb2bc" d="M21 41h2M22 42h1M23 43h1" />
<path stroke="#3d3f49" d="M23 41h1" />
<path stroke="#06070d" d="M4 42h1" />
<path stroke="#010004" d="M5 42h1" />
<path stroke="#23253a" d="M10 42h1" />
<path stroke="#30344b" d="M11 42h1" />
<path stroke="#2d3445" d="M12 42h1" />
<path stroke="#9396a5" d="M23 42h1" />
<path stroke="#474753" d="M24 42h1" />
<path stroke="#2d2b37" d="M25 42h1" />
<path stroke="#020604" d="M26 42h1" />
<path stroke="#69667c" d="M4 43h1" />
<path stroke="#2a2834" d="M5 43h1" />
<path stroke="#51515c" d="M24 43h1" />
<path stroke="#373a40" d="M25 43h1" />
<path stroke="#85859c" d="M4 44h1M4 45h1M5 46h1" />
<path stroke="#646473" d="M5 44h1" />
<path stroke="#020206" d="M6 44h1" />
<path stroke="#aaadb9" d="M5 45h1" />
<path stroke="#464751" d="M6 45h1" />
<path stroke="#000103" d="M8 45h2" />
<path stroke="#040705" d="M13 45h1" />
<path stroke="#858796" d="M6 46h1" />
<path stroke="#646572" d="M7 46h1" />
<path stroke="#5e616c" d="M8 46h1" />
<path stroke="#5b5e69" d="M9 46h1M8 47h2" />
<path stroke="#5a5d69" d="M10 46h1" />
<path stroke="#5b5e6c" d="M11 46h1" />
<path stroke="#424452" d="M12 46h1" />
<path stroke="#020204" d="M13 46h1" />
<path stroke="#565864" d="M6 47h1" />
<path stroke="#5b5d69" d="M7 47h1" />
<path stroke="#5a5e69" d="M10 47h1" />
<path stroke="#5b5e6b" d="M11 47h1" />
<path stroke="#454a56" d="M12 47h1" />
<path stroke="#030506" d="M13 47h1" />
</svg>