<svg xmlns="http://www.w3.org/2000/svg" viewBox="0 -0.5 11 11" shape-rendering="crispEdges">
<metadata>Made with Pixels to Svg https://codepen.io/shshaw/pen/XbxvNj</metadata>
<path stroke="#000000" d="M2 0h3M6 0h3M1 1h1M5 1h1M9 1h1M0 2h1M10 2h1M0 3h1M10 3h1M0 4h1M10 4h1M0 5h1M10 5h1M1 6h1M9 6h1M2 7h1M8 7h1M3 8h1M7 8h1M4 9h1M6 9h1M5 10h1" />
<path stroke="#db0707" d="M2 1h3M1 2h1M4 2h2M1 3h1M3 3h3M1 4h5M1 5h5M2 6h4M3 7h3M4 8h2" />
<path stroke="#f7f7f7" d="M2 2h2M2 3h1" />
<path stroke="#850404" d="M5 9h1" />
</svg>