<svg xmlns="http://www.w3.org/2000/svg" viewBox="0 -0.5 48 48" shape-rendering="crispEdges">
<metadata>Made with Pixels to Svg https://codepen.io/shshaw/pen/XbxvNj</metadata>
<path stroke="#000000" d="M33 7h5M31 8h2M38 8h3M29 9h2M41 9h2M43 10h1M42 11h1M42 12h1M42 13h2M41 14h1M22 15h5M40 15h1M18 16h4M27 16h2M40 16h1M16 17h2M40 17h1M15 18h1M40 18h1M14 19h1M39 19h1M14 20h1M38 20h4M15 21h1M35 21h3M42 21h1M15 22h1M35 22h2M43 22h1M16 23h1M24 23h1M35 23h1M43 23h1M17 24h1M25 24h1M43 24h1M17 25h1M25 25h1M37 25h2M43 25h1M17 26h1M25 26h1M38 26h2M42 26h1M17 27h1M25 27h1M38 27h4M17 28h1M24 28h1M31 28h3M37 28h1M17 29h1M21 29h3M30 29h1M34 29h3M17 30h1M30 30h1M16 31h1M31 31h1M15 32h1M32 32h1M14 33h1M33 33h1M13 34h1M34 34h1M12 35h1M34 35h1M11 36h1M34 36h1M10 37h1M20 37h2M34 37h1M9 38h1M19 38h2M33 38h1M18 39h2M32 39h1M17 40h1M19 40h1M29 40h3M16 41h1M19 41h1M27 41h2M5 42h1M15 42h1M19 42h1M25 42h2M4 43h1M14 43h1M19 43h1M25 43h1M4 44h1M13 44h1M20 44h1M24 44h1M4 45h1M21 45h3M5 46h1M14 46h1M6 47h1" />
<path stroke="#27273d" d="M33 8h1" />
<path stroke="#2a2a41" d="M34 8h1" />
<path stroke="#2a2940" d="M35 8h1" />
<path stroke="#2d2c42" d="M36 8h1" />
<path stroke="#171623" d="M37 8h1" />
<path stroke="#202032" d="M31 9h1" />
<path stroke="#26263a" d="M32 9h2" />
<path stroke="#111022" d="M34 9h1" />
<path stroke="#151527" d="M35 9h1" />
<path stroke="#181729" d="M36 9h1" />
<path stroke="#181826" d="M37 9h1" />
<path stroke="#232336" d="M38 9h1" />
<path stroke="#2c2b42" d="M39 9h1" />
<path stroke="#2c2a38" d="M40 9h1" />
<path stroke="#03040b" d="M28 10h1" />
<path stroke="#030314" d="M29 10h1" />
<path stroke="#0b0b19" d="M30 10h1" />
<path stroke="#1b1b2d" d="M31 10h1" />
<path stroke="#252538" d="M32 10h1" />
<path stroke="#262639" d="M33 10h1" />
<path stroke="#0b0a19" d="M34 10h1" />
<path stroke="#0e0d1a" d="M35 10h1" />
<path stroke="#0b0a16" d="M36 10h1" />
<path stroke="#1e1c2b" d="M37 10h1" />
<path stroke="#242437" d="M38 10h1" />
<path stroke="#201f33" d="M39 10h1" />
<path stroke="#2d2a41" d="M40 10h1" />
<path stroke="#2f2c41" d="M41 10h1" />
<path stroke="#0e0e1d" d="M42 10h1M41 13h1" />
<path stroke="#020309" d="M28 11h1M8 42h1M8 43h1M10 43h1M8 44h2M11 44h1" />
<path stroke="#02040b" d="M29 11h1" />
<path stroke="#02050a" d="M30 11h1" />
<path stroke="#02040f" d="M31 11h1" />
<path stroke="#151725" d="M32 11h1" />
<path stroke="#1c1b2c" d="M33 11h1" />
<path stroke="#090815" d="M34 11h1M36 11h1" />
<path stroke="#12121e" d="M35 11h1" />
<path stroke="#2f2f46" d="M37 11h1" />
<path stroke="#24253a" d="M38 11h1" />
<path stroke="#131425" d="M39 11h1" />
<path stroke="#19192f" d="M40 11h1" />
<path stroke="#19182d" d="M41 11h1M40 12h2" />
<path stroke="#010308" d="M28 12h1" />
<path stroke="#02030b" d="M29 12h1" />
<path stroke="#020409" d="M30 12h1" />
<path stroke="#02040c" d="M31 12h1" />
<path stroke="#05060e" d="M32 12h1" />
<path stroke="#060710" d="M33 12h1" />
<path stroke="#150c0e" d="M34 12h1" />
<path stroke="#2f1c1b" d="M35 12h1" />
<path stroke="#221d28" d="M36 12h1" />
<path stroke="#25273c" d="M37 12h1" />
<path stroke="#25273d" d="M38 12h1" />
<path stroke="#0f1020" d="M39 12h1" />
<path stroke="#020207" d="M28 13h1M23 43h2" />
<path stroke="#020209" d="M29 13h1M36 24h1M18 28h1M8 41h1M7 43h1" />
<path stroke="#030309" d="M30 13h1M7 44h1" />
<path stroke="#04040b" d="M31 13h1" />
<path stroke="#03040a" d="M32 13h1M22 42h1" />
<path stroke="#02040a" d="M33 13h1" />
<path stroke="#3e1c13" d="M34 13h1" />
<path stroke="#893d28" d="M35 13h1" />
<path stroke="#50271f" d="M36 13h1" />
<path stroke="#422724" d="M37 13h1" />
<path stroke="#0d101e" d="M38 13h1M31 23h1" />
<path stroke="#090b18" d="M39 13h1" />
<path stroke="#101024" d="M40 13h1" />
<path stroke="#020206" d="M28 14h1M22 22h1M21 40h1M12 44h1" />
<path stroke="#010208" d="M29 14h1M22 38h1" />
<path stroke="#1d1515" d="M30 14h1" />
<path stroke="#68463f" d="M31 14h1" />
<path stroke="#281917" d="M32 14h1" />
<path stroke="#06050a" d="M33 14h1" />
<path stroke="#3f1f18" d="M34 14h1" />
<path stroke="#985c49" d="M35 14h1" />
<path stroke="#85503b" d="M36 14h1" />
<path stroke="#41271f" d="M37 14h1" />
<path stroke="#291a16" d="M38 14h1" />
<path stroke="#21110e" d="M39 14h1" />
<path stroke="#09070d" d="M40 14h1" />
<path stroke="#010206" d="M29 15h1" />
<path stroke="#593a31" d="M30 15h1" />
<path stroke="#faaa89" d="M31 15h1" />
<path stroke="#5a372c" d="M32 15h1" />
<path stroke="#341915" d="M33 15h1" />
<path stroke="#a45b47" d="M34 15h1" />
<path stroke="#f29e80" d="M35 15h1" />
<path stroke="#7b5547" d="M36 15h1" />
<path stroke="#1e1816" d="M37 15h1" />
<path stroke="#ce8e76" d="M38 15h1" />
<path stroke="#bc8068" d="M39 15h1" />
<path stroke="#1b1829" d="M22 16h2" />
<path stroke="#1f1b2f" d="M24 16h1" />
<path stroke="#1f1c2f" d="M25 16h1" />
<path stroke="#12121d" d="M26 16h1" />
<path stroke="#010207" d="M29 16h1M21 39h2M22 40h1" />
<path stroke="#5e3930" d="M30 16h1" />
<path stroke="#fdab88" d="M31 16h1" />
<path stroke="#5b3a2f" d="M32 16h1" />
<path stroke="#7c392b" d="M33 16h1" />
<path stroke="#ed8869" d="M34 16h1" />
<path stroke="#f79d7a" d="M35 16h1" />
<path stroke="#7d5646" d="M36 16h1" />
<path stroke="#1f1b19" d="M37 16h1" />
<path stroke="#d2957c" d="M38 16h1" />
<path stroke="#ae7962" d="M39 16h1" />
<path stroke="#d29884" d="M18 17h3" />
<path stroke="#865753" d="M21 17h1" />
<path stroke="#1a1d37" d="M22 17h1" />
<path stroke="#24243b" d="M23 17h1" />
<path stroke="#27253d" d="M24 17h1" />
<path stroke="#24253c" d="M25 17h1" />
<path stroke="#212238" d="M26 17h1" />
<path stroke="#0e1022" d="M27 17h1" />
<path stroke="#0c0f24" d="M28 17h1" />
<path stroke="#14141d" d="M29 17h1" />
<path stroke="#301918" d="M30 17h1" />
<path stroke="#a76c55" d="M31 17h1" />
<path stroke="#623f34" d="M32 17h1" />
<path stroke="#e18162" d="M33 17h1" />
<path stroke="#f99571" d="M34 17h1" />
<path stroke="#f89a74" d="M35 17h1" />
<path stroke="#d08a6b" d="M36 17h1" />
<path stroke="#b2806c" d="M37 17h1" />
<path stroke="#eea382" d="M38 17h1" />
<path stroke="#a2715a" d="M39 17h1" />
<path stroke="#d9a087" d="M16 18h2" />
<path stroke="#feb495" d="M18 18h1" />
<path stroke="#feb695" d="M19 18h1" />
<path stroke="#feb291" d="M20 18h1" />
<path stroke="#de967f" d="M21 18h1" />
<path stroke="#191627" d="M22 18h1" />
<path stroke="#22233a" d="M23 18h1" />
<path stroke="#24253b" d="M24 18h1" />
<path stroke="#23253b" d="M25 18h1" />
<path stroke="#202238" d="M26 18h1" />
<path stroke="#0e0f20" d="M27 18h1" />
<path stroke="#0b0f1f" d="M28 18h1" />
<path stroke="#050509" d="M29 18h1" />
<path stroke="#8e4d3d" d="M30 18h1" />
<path stroke="#4c2620" d="M31 18h1" />
<path stroke="#2c130d" d="M32 18h1" />
<path stroke="#e27854" d="M33 18h1" />
<path stroke="#fb9a72" d="M34 18h1" />
<path stroke="#fb9c76" d="M35 18h1" />
<path stroke="#fb9e78" d="M36 18h1" />
<path stroke="#fca17c" d="M37 18h1" />
<path stroke="#e99876" d="M38 18h1" />
<path stroke="#88614e" d="M39 18h1" />
<path stroke="#be9483" d="M15 19h1" />
<path stroke="#f9ab89" d="M16 19h1" />
<path stroke="#feac86" d="M17 19h1" />
<path stroke="#fead87" d="M18 19h1" />
<path stroke="#fcaa85" d="M19 19h2M18 21h1" />
<path stroke="#e9916b" d="M21 19h1" />
<path stroke="#663831" d="M22 19h1" />
<path stroke="#161a2c" d="M23 19h1M15 39h1" />
<path stroke="#191b30" d="M24 19h1" />
<path stroke="#171c2f" d="M25 19h1" />
<path stroke="#15182b" d="M26 19h1" />
<path stroke="#0c0e1c" d="M27 19h1" />
<path stroke="#0c0e1d" d="M28 19h1" />
<path stroke="#0c0f1c" d="M29 19h1" />
<path stroke="#452520" d="M30 19h1" />
<path stroke="#8b4b3d" d="M31 19h1" />
<path stroke="#5b2a20" d="M32 19h1" />
<path stroke="#bd644c" d="M33 19h1" />
<path stroke="#f29871" d="M34 19h1" />
<path stroke="#fda77d" d="M35 19h1" />
<path stroke="#fca880" d="M36 19h1" />
<path stroke="#f0a686" d="M37 19h1" />
<path stroke="#845c4d" d="M38 19h1" />
<path stroke="#e2a691" d="M15 20h1" />
<path stroke="#fda984" d="M16 20h1" />
<path stroke="#fea881" d="M17 20h1" />
<path stroke="#fdac84" d="M18 20h1" />
<path stroke="#f9a782" d="M19 20h2" />
<path stroke="#c67756" d="M21 20h1" />
<path stroke="#ab715e" d="M22 20h1" />
<path stroke="#070c17" d="M23 20h1" />
<path stroke="#090d1b" d="M24 20h1" />
<path stroke="#0a0f1d" d="M25 20h1" />
<path stroke="#0c0f1d" d="M26 20h1" />
<path stroke="#070814" d="M27 20h1" />
<path stroke="#0d0f1d" d="M28 20h1" />
<path stroke="#0d1321" d="M29 20h1" />
<path stroke="#19141c" d="M30 20h1" />
<path stroke="#7c3a2e" d="M31 20h1" />
<path stroke="#8d4f42" d="M32 20h1" />
<path stroke="#2e1817" d="M33 20h1" />
<path stroke="#583528" d="M34 20h1" />
<path stroke="#694734" d="M35 20h1" />
<path stroke="#694938" d="M36 20h1" />
<path stroke="#694e44" d="M37 20h1" />
<path stroke="#d78d70" d="M16 21h1" />
<path stroke="#fea97f" d="M17 21h1" />
<path stroke="#d8734f" d="M19 21h1" />
<path stroke="#f8ae8a" d="M20 21h1" />
<path stroke="#322622" d="M21 21h1" />
<path stroke="#040306" d="M22 21h1" />
<path stroke="#03070f" d="M23 21h1" />
<path stroke="#060912" d="M24 21h1" />
<path stroke="#050912" d="M25 21h1M29 24h1" />
<path stroke="#060711" d="M26 21h1" />
<path stroke="#090b17" d="M27 21h1" />
<path stroke="#0f1221" d="M28 21h1M28 23h1" />
<path stroke="#0d1421" d="M29 21h1" />
<path stroke="#0e111f" d="M30 21h1" />
<path stroke="#0d0b12" d="M31 21h1" />
<path stroke="#0d0a0f" d="M32 21h1" />
<path stroke="#1a1625" d="M33 21h1" />
<path stroke="#020611" d="M34 21h1" />
<path stroke="#491d17" d="M38 21h1" />
<path stroke="#d68566" d="M39 21h1" />
<path stroke="#fea57f" d="M40 21h1" />
<path stroke="#e99c79" d="M41 21h1" />
<path stroke="#9a644d" d="M16 22h1" />
<path stroke="#f5a579" d="M17 22h1" />
<path stroke="#da7044" d="M18 22h1" />
<path stroke="#a75d45" d="M19 22h1" />
<path stroke="#a67665" d="M20 22h1" />
<path stroke="#23191a" d="M21 22h1" />
<path stroke="#03050b" d="M23 22h1" />
<path stroke="#070810" d="M24 22h1" />
<path stroke="#070911" d="M25 22h1" />
<path stroke="#0b0c17" d="M26 22h1" />
<path stroke="#0f111f" d="M27 22h1" />
<path stroke="#0f1321" d="M28 22h1M31 22h1" />
<path stroke="#0f1421" d="M29 22h1" />
<path stroke="#101321" d="M30 22h1" />
<path stroke="#0f121d" d="M32 22h1" />
<path stroke="#0a0c1a" d="M33 22h1" />
<path stroke="#040915" d="M34 22h1" />
<path stroke="#160f10" d="M37 22h1" />
<path stroke="#7e3f32" d="M38 22h1" />
<path stroke="#7f4636" d="M39 22h1" />
<path stroke="#f89d79" d="M40 22h1" />
<path stroke="#fda079" d="M41 22h1" />
<path stroke="#f0a787" d="M42 22h1" />
<path stroke="#98664b" d="M17 23h1" />
<path stroke="#b16948" d="M18 23h1" />
<path stroke="#49302c" d="M19 23h1" />
<path stroke="#0a060e" d="M20 23h1" />
<path stroke="#040309" d="M21 23h1" />
<path stroke="#050408" d="M22 23h1" />
<path stroke="#0f0c10" d="M23 23h1" />
<path stroke="#090d19" d="M25 23h1M27 25h1" />
<path stroke="#0c0e1b" d="M26 23h1" />
<path stroke="#0e1220" d="M27 23h1M27 26h1" />
<path stroke="#101422" d="M29 23h1" />
<path stroke="#0b0d1a" d="M30 23h1" />
<path stroke="#0d101c" d="M32 23h1M15 33h1" />
<path stroke="#0a0d18" d="M33 23h1M23 36h1" />
<path stroke="#0e070b" d="M34 23h1" />
<path stroke="#06080c" d="M36 23h1" />
<path stroke="#05040b" d="M37 23h1" />
<path stroke="#2e1716" d="M38 23h1" />
<path stroke="#5d362e" d="M39 23h1" />
<path stroke="#f79877" d="M40 23h1" />
<path stroke="#fe9e77" d="M41 23h1" />
<path stroke="#f9a37f" d="M42 23h1" />
<path stroke="#1d1213" d="M18 24h1" />
<path stroke="#08060e" d="M19 24h1" />
<path stroke="#07050d" d="M20 24h1" />
<path stroke="#06030a" d="M21 24h1" />
<path stroke="#2b1c18" d="M22 24h1" />
<path stroke="#a8755f" d="M23 24h1" />
<path stroke="#382525" d="M24 24h1" />
<path stroke="#0c0e1a" d="M26 24h1" />
<path stroke="#0d101d" d="M27 24h1M28 26h1" />
<path stroke="#0e111e" d="M28 24h1" />
<path stroke="#070713" d="M30 24h1" />
<path stroke="#0e101d" d="M31 24h1" />
<path stroke="#0c0f1a" d="M32 24h1" />
<path stroke="#0a070e" d="M33 24h1" />
<path stroke="#310d0a" d="M34 24h1" />
<path stroke="#11050a" d="M35 24h1" />
<path stroke="#010209" d="M37 24h1" />
<path stroke="#412222" d="M38 24h1" />
<path stroke="#b05444" d="M39 24h1" />
<path stroke="#cc6145" d="M40 24h1" />
<path stroke="#fd9c74" d="M41 24h1" />
<path stroke="#d78b6c" d="M42 24h1" />
<path stroke="#060209" d="M18 25h1" />
<path stroke="#07050b" d="M19 25h1" />
<path stroke="#1a0d10" d="M20 25h1" />
<path stroke="#673c33" d="M21 25h1" />
<path stroke="#fca07c" d="M22 25h1" />
<path stroke="#fea279" d="M23 25h1" />
<path stroke="#c87d5e" d="M24 25h1" />
<path stroke="#0c0e19" d="M26 25h1" />
<path stroke="#0b0e19" d="M28 25h1" />
<path stroke="#050710" d="M29 25h1" />
<path stroke="#04040f" d="M30 25h1M24 40h1" />
<path stroke="#05050d" d="M31 25h1" />
<path stroke="#0e0b10" d="M32 25h1" />
<path stroke="#68392e" d="M33 25h1" />
<path stroke="#954834" d="M34 25h1" />
<path stroke="#673e39" d="M35 25h1" />
<path stroke="#160f12" d="M36 25h1" />
<path stroke="#974131" d="M39 25h1" />
<path stroke="#bb5138" d="M40 25h1M40 26h2" />
<path stroke="#c9734a" d="M41 25h2" />
<path stroke="#050208" d="M18 26h1" />
<path stroke="#16090c" d="M19 26h1" />
<path stroke="#9f5641" d="M20 26h1" />
<path stroke="#fb9a71" d="M21 26h1" />
<path stroke="#fe9e75" d="M22 26h1" />
<path stroke="#fea076" d="M23 26h1" />
<path stroke="#fea277" d="M24 26h1" />
<path stroke="#0f121e" d="M26 26h1" />
<path stroke="#0a0d1a" d="M29 26h1" />
<path stroke="#090c1b" d="M30 26h1" />
<path stroke="#080913" d="M31 26h1M23 38h1" />
<path stroke="#5b2a28" d="M32 26h1" />
<path stroke="#c75e49" d="M33 26h1" />
<path stroke="#c65e45" d="M34 26h1" />
<path stroke="#c15e46" d="M35 26h1" />
<path stroke="#7d3d30" d="M36 26h1" />
<path stroke="#4c221c" d="M37 26h1" />
<path stroke="#040208" d="M18 27h1" />
<path stroke="#0f070a" d="M19 27h1" />
<path stroke="#9c5942" d="M20 27h1" />
<path stroke="#fd9d71" d="M21 27h1" />
<path stroke="#fe9e72" d="M22 27h1" />
<path stroke="#fe9e73" d="M23 27h1" />
<path stroke="#f19672" d="M24 27h1" />
<path stroke="#10121d" d="M26 27h1" />
<path stroke="#101322" d="M27 27h2" />
<path stroke="#080c19" d="M29 27h1" />
<path stroke="#070914" d="M30 27h1" />
<path stroke="#020306" d="M31 27h1M23 39h1M23 40h1" />
<path stroke="#743931" d="M32 27h1" />
<path stroke="#c05d48" d="M33 27h1" />
<path stroke="#cb5e44" d="M34 27h1" />
<path stroke="#cc5f44" d="M35 27h1" />
<path stroke="#cb5d40" d="M36 27h1" />
<path stroke="#b2543e" d="M37 27h1" />
<path stroke="#030209" d="M19 28h1" />
<path stroke="#13090a" d="M20 28h1" />
<path stroke="#c56a41" d="M21 28h1" />
<path stroke="#e26e41" d="M22 28h1" />
<path stroke="#df7f5a" d="M23 28h1" />
<path stroke="#222432" d="M25 28h1" />
<path stroke="#121625" d="M26 28h1" />
<path stroke="#0f1523" d="M27 28h1" />
<path stroke="#0e1320" d="M28 28h1" />
<path stroke="#020308" d="M29 28h1M9 43h1M8 45h3" />
<path stroke="#030606" d="M30 28h1" />
<path stroke="#b65d49" d="M34 28h1" />
<path stroke="#c06248" d="M35 28h1" />
<path stroke="#954d39" d="M36 28h1" />
<path stroke="#333857" d="M18 29h1" />
<path stroke="#575e83" d="M19 29h1" />
<path stroke="#7e848f" d="M20 29h1M24 29h2" />
<path stroke="#7c838d" d="M26 29h1" />
<path stroke="#7b838d" d="M27 29h1" />
<path stroke="#7c838e" d="M28 29h1M22 31h1" />
<path stroke="#1f2125" d="M29 29h1" />
<path stroke="#1c1f35" d="M18 30h1" />
<path stroke="#494f74" d="M19 30h1" />
<path stroke="#7c7f97" d="M20 30h1" />
<path stroke="#8b919d" d="M21 30h1" />
<path stroke="#838993" d="M22 30h1" />
<path stroke="#7c838b" d="M23 30h1" />
<path stroke="#7b818a" d="M24 30h1" />
<path stroke="#79818c" d="M25 30h1" />
<path stroke="#78818b" d="M26 30h2" />
<path stroke="#7a838c" d="M28 30h1" />
<path stroke="#7e868f" d="M29 30h1" />
<path stroke="#1a1c37" d="M17 31h1" />
<path stroke="#07080e" d="M18 31h1" />
<path stroke="#313655" d="M19 31h1" />
<path stroke="#505474" d="M20 31h1" />
<path stroke="#7a8190" d="M21 31h1" />
<path stroke="#78808c" d="M23 31h1" />
<path stroke="#77808b" d="M24 31h2" />
<path stroke="#78808b" d="M26 31h2M24 32h4" />
<path stroke="#79828c" d="M28 31h1M25 33h1" />
<path stroke="#7b848f" d="M29 31h1" />
<path stroke="#79828b" d="M30 31h1" />
<path stroke="#171731" d="M16 32h1" />
<path stroke="#252644" d="M17 32h1" />
<path stroke="#05050c" d="M18 32h1" />
<path stroke="#0d0e1d" d="M19 32h1" />
<path stroke="#2f3155" d="M20 32h1" />
<path stroke="#5f637d" d="M21 32h1" />
<path stroke="#777c8b" d="M22 32h1" />
<path stroke="#787f8c" d="M23 32h1" />
<path stroke="#7a828d" d="M28 32h1" />
<path stroke="#7b8490" d="M29 32h1" />
<path stroke="#7d8591" d="M30 32h1M29 33h1" />
<path stroke="#7f8892" d="M31 32h1" />
<path stroke="#2b2b48" d="M16 33h1" />
<path stroke="#2a2e4d" d="M17 33h1" />
<path stroke="#181d3b" d="M18 33h1M19 34h1" />
<path stroke="#0a0b1d" d="M19 33h1" />
<path stroke="#16172c" d="M20 33h1" />
<path stroke="#343957" d="M21 33h1" />
<path stroke="#555b74" d="M22 33h1" />
<path stroke="#737b89" d="M23 33h1" />
<path stroke="#79818d" d="M24 33h1M27 33h1" />
<path stroke="#79818b" d="M26 33h1" />
<path stroke="#7b838f" d="M28 33h1" />
<path stroke="#7e8691" d="M30 33h1" />
<path stroke="#7e8592" d="M31 33h1" />
<path stroke="#808691" d="M32 33h1" />
<path stroke="#16142e" d="M14 34h2" />
<path stroke="#3a3b5b" d="M16 34h1" />
<path stroke="#454a67" d="M17 34h1" />
<path stroke="#232746" d="M18 34h1" />
<path stroke="#10142d" d="M20 34h1" />
<path stroke="#181e37" d="M21 34h1" />
<path stroke="#1e2439" d="M22 34h1" />
<path stroke="#414754" d="M23 34h1" />
<path stroke="#4d535d" d="M24 34h1" />
<path stroke="#4e545d" d="M25 34h1" />
<path stroke="#828894" d="M26 34h2M27 35h2M28 36h2" />
<path stroke="#7f8592" d="M28 34h1" />
<path stroke="#7f8793" d="M29 34h1" />
<path stroke="#808792" d="M30 34h3" />
<path stroke="#747788" d="M33 34h1" />
<path stroke="#070815" d="M13 35h2" />
<path stroke="#383854" d="M15 35h1" />
<path stroke="#494d6b" d="M16 35h1" />
<path stroke="#4d526f" d="M17 35h1" />
<path stroke="#3f4362" d="M18 35h1" />
<path stroke="#191f41" d="M19 35h1" />
<path stroke="#1b2144" d="M20 35h1" />
<path stroke="#1a2041" d="M21 35h1" />
<path stroke="#161929" d="M22 35h1" />
<path stroke="#0c0e14" d="M23 35h1" />
<path stroke="#0b0b14" d="M24 35h1" />
<path stroke="#0c0c16" d="M25 35h1" />
<path stroke="#131321" d="M26 35h1" />
<path stroke="#818894" d="M29 35h1" />
<path stroke="#818994" d="M30 35h1" />
<path stroke="#808893" d="M31 35h1" />
<path stroke="#818893" d="M32 35h1" />
<path stroke="#767a8e" d="M33 35h1" />
<path stroke="#1c1b37" d="M12 36h1" />
<path stroke="#191b31" d="M13 36h1" />
<path stroke="#3a3e56" d="M14 36h1" />
<path stroke="#4a4f6a" d="M15 36h1" />
<path stroke="#494f6b" d="M16 36h1" />
<path stroke="#4b4f6c" d="M17 36h1" />
<path stroke="#434865" d="M18 36h1" />
<path stroke="#1b1f3b" d="M19 36h1" />
<path stroke="#1a1c30" d="M20 36h1" />
<path stroke="#171a2a" d="M21 36h1" />
<path stroke="#141724" d="M22 36h1" />
<path stroke="#33354d" d="M24 36h1" />
<path stroke="#3d3f64" d="M25 36h1" />
<path stroke="#545a76" d="M26 36h1" />
<path stroke="#636977" d="M27 36h1" />
<path stroke="#818995" d="M30 36h1" />
<path stroke="#818993" d="M31 36h1" />
<path stroke="#808793" d="M32 36h1" />
<path stroke="#73788a" d="M33 36h1" />
<path stroke="#0e1024" d="M11 37h1" />
<path stroke="#1c1d38" d="M12 37h1" />
<path stroke="#17192e" d="M13 37h1" />
<path stroke="#393d55" d="M14 37h1" />
<path stroke="#4a516e" d="M15 37h1M29 39h1" />
<path stroke="#484f6c" d="M16 37h1" />
<path stroke="#3c4161" d="M17 37h1" />
<path stroke="#222643" d="M18 37h1" />
<path stroke="#151829" d="M19 37h1" />
<path stroke="#0d0e16" d="M22 37h1" />
<path stroke="#0c0d1a" d="M23 37h1" />
<path stroke="#2f334f" d="M24 37h1" />
<path stroke="#656b88" d="M25 37h1" />
<path stroke="#7c8397" d="M26 37h1" />
<path stroke="#7f8698" d="M27 37h1" />
<path stroke="#7f8492" d="M28 37h1" />
<path stroke="#767c8b" d="M29 37h1" />
<path stroke="#757c8c" d="M30 37h1" />
<path stroke="#757b8a" d="M31 37h1" />
<path stroke="#626881" d="M32 37h1" />
<path stroke="#40474f" d="M33 37h1" />
<path stroke="#0f1125" d="M10 38h1" />
<path stroke="#15162c" d="M11 38h1" />
<path stroke="#2c3251" d="M12 38h1" />
<path stroke="#20243c" d="M13 38h1" />
<path stroke="#23263c" d="M14 38h1" />
<path stroke="#484e6b" d="M15 38h1" />
<path stroke="#4a506e" d="M16 38h1" />
<path stroke="#2c2f50" d="M17 38h1" />
<path stroke="#171b35" d="M18 38h1" />
<path stroke="#020208" d="M21 38h1M6 41h1M22 41h1M24 41h1M11 45h1" />
<path stroke="#272844" d="M24 38h1" />
<path stroke="#4f5374" d="M25 38h1" />
<path stroke="#555e7e" d="M26 38h1" />
<path stroke="#565e7f" d="M27 38h1" />
<path stroke="#565d7b" d="M28 38h1" />
<path stroke="#535a75" d="M29 38h1" />
<path stroke="#545d78" d="M30 38h1" />
<path stroke="#575e7a" d="M31 38h1" />
<path stroke="#2c3042" d="M32 38h1" />
<path stroke="#0d0f13" d="M8 39h1" />
<path stroke="#181930" d="M9 39h1" />
<path stroke="#121129" d="M10 39h1" />
<path stroke="#21243c" d="M11 39h1" />
<path stroke="#394263" d="M12 39h1" />
<path stroke="#39405f" d="M13 39h1" />
<path stroke="#121429" d="M14 39h1" />
<path stroke="#252840" d="M16 39h1" />
<path stroke="#25284a" d="M17 39h1" />
<path stroke="#252731" d="M20 39h1" />
<path stroke="#19192c" d="M24 39h1" />
<path stroke="#23264a" d="M25 39h1" />
<path stroke="#272c50" d="M26 39h1" />
<path stroke="#383f65" d="M27 39h1" />
<path stroke="#4a5275" d="M28 39h1" />
<path stroke="#4b5471" d="M30 39h1" />
<path stroke="#2c2f40" d="M31 39h1" />
<path stroke="#03010b" d="M7 40h1" />
<path stroke="#0a0911" d="M8 40h1" />
<path stroke="#1b1b2f" d="M9 40h1" />
<path stroke="#252742" d="M10 40h1" />
<path stroke="#383d5a" d="M11 40h1M11 41h1" />
<path stroke="#383f5f" d="M12 40h1" />
<path stroke="#3b4164" d="M13 40h1" />
<path stroke="#3d4463" d="M14 40h1" />
<path stroke="#21253c" d="M15 40h1" />
<path stroke="#15162d" d="M16 40h1" />
<path stroke="#2a2b34" d="M20 40h1" />
<path stroke="#11142e" d="M25 40h1" />
<path stroke="#151733" d="M26 40h1" />
<path stroke="#2a304d" d="M27 40h1" />
<path stroke="#49506b" d="M28 40h1" />
<path stroke="#020109" d="M7 41h1" />
<path stroke="#171624" d="M9 41h1" />
<path stroke="#393a56" d="M10 41h1" />
<path stroke="#373d5e" d="M12 41h1" />
<path stroke="#3a3f62" d="M13 41h1" />
<path stroke="#3c4264" d="M14 41h1" />
<path stroke="#15192d" d="M15 41h1" />
<path stroke="#5c5d68" d="M20 41h1" />
<path stroke="#0b0b10" d="M21 41h1M10 46h1" />
<path stroke="#020307" d="M23 41h1M23 42h1" />
<path stroke="#020104" d="M25 41h1" />
<path stroke="#040904" d="M26 41h1" />
<path stroke="#03020a" d="M6 42h1" />
<path stroke="#02020a" d="M7 42h1" />
<path stroke="#04040c" d="M9 42h1" />
<path stroke="#121221" d="M10 42h1" />
<path stroke="#383c59" d="M11 42h1" />
<path stroke="#363c5e" d="M12 42h1" />
<path stroke="#373e5f" d="M13 42h1" />
<path stroke="#1a1e2f" d="M14 42h1" />
<path stroke="#7f8390" d="M20 42h1" />
<path stroke="#555968" d="M21 42h1" />
<path stroke="#030208" d="M24 42h1" />
<path stroke="#3e3f44" d="M5 43h1" />
<path stroke="#201e25" d="M6 43h1" />
<path stroke="#0a0b13" d="M11 43h1" />
<path stroke="#0b0c14" d="M12 43h1" />
<path stroke="#0e1216" d="M13 43h1" />
<path stroke="#5a5c67" d="M20 43h1" />
<path stroke="#cad0de" d="M21 43h1" />
<path stroke="#03030c" d="M22 43h1" />
<path stroke="#676770" d="M5 44h1" />
<path stroke="#55545e" d="M6 44h1" />
<path stroke="#02030a" d="M10 44h1" />
<path stroke="#9fa4b3" d="M21 44h1" />
<path stroke="#797b8e" d="M22 44h1" />
<path stroke="#252531" d="M23 44h1" />
<path stroke="#4b4a51" d="M5 45h1" />
<path stroke="#b8b7c6" d="M6 45h1" />
<path stroke="#1c1c23" d="M7 45h1" />
<path stroke="#030207" d="M12 45h1" />
<path stroke="#030306" d="M13 45h1" />
<path stroke="#8e8e9c" d="M6 46h1" />
<path stroke="#9092a1" d="M7 46h1" />
<path stroke="#15161a" d="M8 46h1" />
<path stroke="#101114" d="M9 46h1" />
<path stroke="#0b0b0f" d="M11 46h1" />
<path stroke="#0a0a0f" d="M12 46h1" />
<path stroke="#06050c" d="M13 46h1" />
<path stroke="#9396aa" d="M7 47h1" />
<path stroke="#8c8fa1" d="M8 47h1" />
<path stroke="#898c9e" d="M9 47h1" />
<path stroke="#838698" d="M10 47h1" />
<path stroke="#787f90" d="M11 47h1" />
<path stroke="#696e82" d="M12 47h1" />
<path stroke="#242736" d="M13 47h1" />
<path stroke="#010804" d="M14 47h1" />
</svg>