<svg xmlns="http://www.w3.org/2000/svg" viewBox="0 -0.5 48 48" shape-rendering="crispEdges">
<metadata>Made with Pixels to Svg https://codepen.io/shshaw/pen/XbxvNj</metadata>
<path stroke="#000000" d="M31 5h4M28 6h3M35 6h3M26 7h2M38 7h2M25 8h1M41 8h1M40 9h1M40 10h1M41 11h1M26 13h1M39 13h1M26 14h1M39 14h1M19 15h8M39 15h1M15 16h4M39 16h1M11 17h4M38 17h1M10 18h1M37 18h1M9 19h1M36 19h4M9 20h1M33 20h2M40 20h1M9 21h1M33 21h2M41 21h1M10 22h1M41 22h1M10 23h1M41 23h1M11 24h1M19 24h1M40 24h1M12 25h1M20 25h1M39 25h1M20 26h1M37 26h2M13 27h1M20 27h1M29 27h1M35 27h1M13 28h1M20 28h1M28 28h1M30 28h1M34 28h1M14 29h1M19 29h1M29 29h1M31 29h3M15 30h4M30 30h1M16 31h1M31 31h1M15 32h1M32 32h1M8 33h7M33 33h1M6 34h2M34 34h1M5 35h1M24 35h1M35 35h1M5 36h1M23 36h1M25 36h1M36 36h1M5 37h1M22 37h1M26 37h1M36 37h1M5 38h1M21 38h1M27 38h1M37 38h1M5 39h1M20 39h1M28 39h1M37 39h1M5 40h1M12 40h8M28 40h2M37 40h1M5 41h1M10 41h2M29 41h1M37 41h1M5 42h1M10 42h1M29 42h1M6 43h1M9 43h1M38 43h1M7 44h2M39 44h2M41 45h1M41 46h1M30 47h2M41 47h1" />
<path stroke="#25223c" d="M31 6h1" />
<path stroke="#282541" d="M32 6h1" />
<path stroke="#292742" d="M33 6h1" />
<path stroke="#2a2740" d="M34 6h1" />
<path stroke="#101221" d="M28 7h1" />
<path stroke="#222037" d="M29 7h1" />
<path stroke="#242239" d="M30 7h1" />
<path stroke="#1a192e" d="M31 7h1" />
<path stroke="#18172d" d="M32 7h1" />
<path stroke="#1a1a31" d="M33 7h1" />
<path stroke="#1a1930" d="M34 7h1" />
<path stroke="#1b1a31" d="M35 7h1" />
<path stroke="#2c2844" d="M36 7h1" />
<path stroke="#36314e" d="M37 7h1" />
<path stroke="#000003" d="M26 8h1M26 10h1M26 11h3M26 12h2M17 23h1M34 24h1M10 34h1M10 35h1M10 36h1M9 37h2M8 38h1M10 38h1M8 39h1M8 40h1M10 40h1M9 41h1M31 44h6M31 45h2M31 46h1" />
<path stroke="#00010a" d="M27 8h1" />
<path stroke="#101023" d="M28 8h1" />
<path stroke="#1f1f35" d="M29 8h1" />
<path stroke="#222138" d="M30 8h1M36 8h1" />
<path stroke="#070918" d="M31 8h1" />
<path stroke="#040615" d="M32 8h1M26 25h1" />
<path stroke="#020312" d="M33 8h1M29 24h1" />
<path stroke="#030413" d="M34 8h1" />
<path stroke="#0e0d21" d="M35 8h1" />
<path stroke="#212038" d="M37 8h1" />
<path stroke="#1b1c34" d="M38 8h1" />
<path stroke="#18172c" d="M39 8h1" />
<path stroke="#10111c" d="M40 8h1" />
<path stroke="#010107" d="M25 9h1M15 33h1M35 43h1" />
<path stroke="#000004" d="M26 9h1M27 10h1M29 11h2M9 35h1M9 36h1M9 38h1M9 39h2M9 40h1M36 43h1M37 44h1" />
<path stroke="#000106" d="M27 9h1" />
<path stroke="#02030e" d="M28 9h1M24 20h1M20 23h2M28 24h1M21 26h1" />
<path stroke="#0a0b1f" d="M29 9h1" />
<path stroke="#212138" d="M30 9h1" />
<path stroke="#101020" d="M31 9h1" />
<path stroke="#030311" d="M32 9h1" />
<path stroke="#010211" d="M33 9h1" />
<path stroke="#0d0d21" d="M34 9h1" />
<path stroke="#2b2742" d="M35 9h1" />
<path stroke="#1e1b32" d="M36 9h1" />
<path stroke="#06071a" d="M37 9h1M39 11h2" />
<path stroke="#181a36" d="M38 9h1" />
<path stroke="#21203f" d="M39 9h1" />
<path stroke="#000002" d="M25 10h1M25 11h1M25 12h1M33 23h1M14 24h2M33 24h1M14 25h1M8 36h1M8 37h1M30 44h1M30 45h1" />
<path stroke="#000104" d="M28 10h1" />
<path stroke="#010109" d="M29 10h1M29 25h1" />
<path stroke="#060718" d="M30 10h1" />
<path stroke="#060613" d="M31 10h1" />
<path stroke="#020103" d="M32 10h1" />
<path stroke="#0a0611" d="M33 10h1" />
<path stroke="#130d1c" d="M34 10h1" />
<path stroke="#2b2740" d="M35 10h1" />
<path stroke="#222038" d="M36 10h1" />
<path stroke="#030414" d="M37 10h1" />
<path stroke="#0b0e25" d="M38 10h1" />
<path stroke="#06061a" d="M39 10h1M24 19h1" />
<path stroke="#000102" d="M31 11h1M30 46h1" />
<path stroke="#673725" d="M32 11h1" />
<path stroke="#7a402c" d="M33 11h1" />
<path stroke="#2a0d0c" d="M34 11h1" />
<path stroke="#120d14" d="M35 11h1" />
<path stroke="#0e1024" d="M36 11h1" />
<path stroke="#01020e" d="M37 11h1" />
<path stroke="#030618" d="M38 11h1M29 22h1" />
<path stroke="#050306" d="M28 12h1" />
<path stroke="#0b0609" d="M29 12h1" />
<path stroke="#020104" d="M30 12h1" />
<path stroke="#030103" d="M31 12h1M27 13h1" />
<path stroke="#844c37" d="M32 12h1" />
<path stroke="#914d37" d="M33 12h1" />
<path stroke="#7d4f3a" d="M34 12h1" />
<path stroke="#3d2d25" d="M35 12h1" />
<path stroke="#201313" d="M36 12h1" />
<path stroke="#281515" d="M37 12h1" />
<path stroke="#040207" d="M38 12h1" />
<path stroke="#03060e" d="M39 12h1" />
<path stroke="#040c0a" d="M40 12h1M37 42h1" />
<path stroke="#8a5f50" d="M28 13h1" />
<path stroke="#c19279" d="M29 13h1" />
<path stroke="#342420" d="M30 13h1" />
<path stroke="#120504" d="M31 13h1" />
<path stroke="#a86a54" d="M32 13h1" />
<path stroke="#e4997b" d="M33 13h1" />
<path stroke="#795645" d="M34 13h1" />
<path stroke="#030203" d="M35 13h1" />
<path stroke="#aa7762" d="M36 13h1" />
<path stroke="#d98b67" d="M37 13h1" />
<path stroke="#2e1c11" d="M38 13h1" />
<path stroke="#1c0e0d" d="M27 14h1" />
<path stroke="#dc9577" d="M28 14h1" />
<path stroke="#f7c29f" d="M29 14h1" />
<path stroke="#413129" d="M30 14h1" />
<path stroke="#612c1f" d="M31 14h1" />
<path stroke="#f19777" d="M32 14h1" />
<path stroke="#ffae8a" d="M33 14h1" />
<path stroke="#765344" d="M34 14h1" />
<path stroke="#010102" d="M35 14h1" />
<path stroke="#bb846b" d="M36 14h1" />
<path stroke="#efa179" d="M37 14h1" />
<path stroke="#382a19" d="M38 14h1" />
<path stroke="#1e0c0e" d="M27 15h1" />
<path stroke="#c57f67" d="M28 15h1" />
<path stroke="#f5c29e" d="M29 15h1" />
<path stroke="#4f382d" d="M30 15h1" />
<path stroke="#a95b41" d="M31 15h1" />
<path stroke="#fd9d78" d="M32 15h1" />
<path stroke="#ffa882" d="M33 15h1" />
<path stroke="#855b49" d="M34 15h1" />
<path stroke="#201311" d="M35 15h1" />
<path stroke="#c38a6e" d="M36 15h1" />
<path stroke="#eea37c" d="M37 15h1" />
<path stroke="#392e1e" d="M38 15h1M38 16h1" />
<path stroke="#131023" d="M19 16h1" />
<path stroke="#232139" d="M20 16h1" />
<path stroke="#232239" d="M21 16h1M20 17h1M20 18h1" />
<path stroke="#24233a" d="M22 16h1" />
<path stroke="#1f1c32" d="M23 16h1" />
<path stroke="#070717" d="M24 16h1" />
<path stroke="#070a24" d="M25 16h1" />
<path stroke="#0e0b1f" d="M26 16h1" />
<path stroke="#472423" d="M27 16h1" />
<path stroke="#61382d" d="M28 16h1" />
<path stroke="#ad856b" d="M29 16h1" />
<path stroke="#633d30" d="M30 16h1" />
<path stroke="#d98160" d="M31 16h1" />
<path stroke="#ffa279" d="M32 16h1" />
<path stroke="#fea37c" d="M33 16h1" />
<path stroke="#e89775" d="M34 16h1" />
<path stroke="#d88f72" d="M35 16h1" />
<path stroke="#f4a780" d="M36 16h1" />
<path stroke="#e89f79" d="M37 16h1" />
<path stroke="#d19174" d="M15 17h1" />
<path stroke="#f5ac84" d="M16 17h1" />
<path stroke="#e49b79" d="M17 17h1" />
<path stroke="#4d2e2c" d="M18 17h1" />
<path stroke="#18142b" d="M19 17h1" />
<path stroke="#232339" d="M21 17h1M21 18h1" />
<path stroke="#24243d" d="M22 17h1" />
<path stroke="#27253f" d="M23 17h1" />
<path stroke="#0e1023" d="M24 17h1" />
<path stroke="#030519" d="M25 17h1" />
<path stroke="#090c23" d="M26 17h1" />
<path stroke="#68322b" d="M27 17h1" />
<path stroke="#8e4230" d="M28 17h1" />
<path stroke="#55251f" d="M29 17h1" />
<path stroke="#622d24" d="M30 17h1" />
<path stroke="#e58966" d="M31 17h1" />
<path stroke="#ffa77b" d="M32 17h1" />
<path stroke="#ffa67b" d="M33 17h1" />
<path stroke="#ffa67d" d="M34 17h1" />
<path stroke="#ffa77e" d="M35 17h1" />
<path stroke="#f3a079" d="M36 17h1" />
<path stroke="#845f49" d="M37 17h1" />
<path stroke="#e6a284" d="M11 18h1" />
<path stroke="#eca584" d="M12 18h1" />
<path stroke="#efa685" d="M13 18h1" />
<path stroke="#f3a280" d="M14 18h1" />
<path stroke="#f49570" d="M15 18h1" />
<path stroke="#fca779" d="M16 18h1" />
<path stroke="#ffb586" d="M17 18h1" />
<path stroke="#895a4a" d="M18 18h1" />
<path stroke="#141123" d="M19 18h1" />
<path stroke="#24243c" d="M22 18h1" />
<path stroke="#212139" d="M23 18h1" />
<path stroke="#0d0e22" d="M24 18h1" />
<path stroke="#020311" d="M25 18h1M31 21h1M23 23h1M24 24h1" />
<path stroke="#060a21" d="M26 18h1" />
<path stroke="#24121a" d="M27 18h1" />
<path stroke="#ad533d" d="M28 18h1" />
<path stroke="#94402e" d="M29 18h1" />
<path stroke="#5a231e" d="M30 18h1" />
<path stroke="#a5533d" d="M31 18h1" />
<path stroke="#e08963" d="M32 18h1" />
<path stroke="#ee9a72" d="M33 18h1" />
<path stroke="#f09a74" d="M34 18h1" />
<path stroke="#ea9571" d="M35 18h1" />
<path stroke="#9f6a52" d="M36 18h1" />
<path stroke="#efaa8c" d="M10 19h1" />
<path stroke="#ffae87" d="M11 19h1" />
<path stroke="#ffaf86" d="M12 19h1" />
<path stroke="#ffb086" d="M13 19h1" />
<path stroke="#f2a17f" d="M14 19h1" />
<path stroke="#814536" d="M15 19h1" />
<path stroke="#d78661" d="M16 19h1" />
<path stroke="#ffb785" d="M17 19h1" />
<path stroke="#cf8664" d="M18 19h1" />
<path stroke="#2c1a21" d="M19 19h1" />
<path stroke="#101327" d="M20 19h1" />
<path stroke="#14172b" d="M21 19h1" />
<path stroke="#14172d" d="M22 19h1" />
<path stroke="#0e1128" d="M23 19h1" />
<path stroke="#020310" d="M25 19h1M28 25h1" />
<path stroke="#070b1e" d="M26 19h1" />
<path stroke="#060a1c" d="M27 19h1" />
<path stroke="#402221" d="M28 19h1" />
<path stroke="#944c3a" d="M29 19h1" />
<path stroke="#512721" d="M30 19h1" />
<path stroke="#220e14" d="M31 19h1" />
<path stroke="#341a14" d="M32 19h1" />
<path stroke="#3f2b1a" d="M33 19h2" />
<path stroke="#362217" d="M35 19h1" />
<path stroke="#efa686" d="M10 20h1" />
<path stroke="#ffad86" d="M11 20h1" />
<path stroke="#fead85" d="M12 20h1" />
<path stroke="#faa980" d="M13 20h1" />
<path stroke="#f2a280" d="M14 20h1" />
<path stroke="#724c3f" d="M15 20h1" />
<path stroke="#a15a40" d="M16 20h1" />
<path stroke="#f48f62" d="M17 20h1" />
<path stroke="#dc815a" d="M18 20h1" />
<path stroke="#2c1718" d="M19 20h1" />
<path stroke="#020615" d="M20 20h1" />
<path stroke="#030719" d="M21 20h1" />
<path stroke="#04091a" d="M22 20h1" />
<path stroke="#030615" d="M23 20h1M28 22h1" />
<path stroke="#040713" d="M25 20h1" />
<path stroke="#060b19" d="M26 20h1M25 21h1M26 22h1" />
<path stroke="#060b1b" d="M27 20h1" />
<path stroke="#060713" d="M28 20h1" />
<path stroke="#361f20" d="M29 20h1" />
<path stroke="#241418" d="M30 20h1" />
<path stroke="#0a0b1c" d="M31 20h1" />
<path stroke="#010106" d="M32 20h1M31 22h1M8 35h1M8 41h1" />
<path stroke="#0d0502" d="M35 20h1" />
<path stroke="#9b5f4b" d="M36 20h1" />
<path stroke="#e99e7f" d="M37 20h1" />
<path stroke="#c1846b" d="M38 20h1M40 21h1" />
<path stroke="#d59072" d="M39 20h1M39 21h1" />
<path stroke="#916954" d="M10 21h1" />
<path stroke="#ffb18a" d="M11 21h1" />
<path stroke="#fca981" d="M12 21h1" />
<path stroke="#c96d50" d="M13 21h1" />
<path stroke="#e58f70" d="M14 21h1" />
<path stroke="#b67c62" d="M15 21h1" />
<path stroke="#4e2115" d="M16 21h1" />
<path stroke="#96422c" d="M17 21h1" />
<path stroke="#632c20" d="M18 21h1" />
<path stroke="#0b0409" d="M19 21h1" />
<path stroke="#010209" d="M20 21h1M22 21h1" />
<path stroke="#01020a" d="M21 21h1M18 22h2" />
<path stroke="#02020a" d="M23 21h1" />
<path stroke="#030612" d="M24 21h1M22 24h1M22 27h1" />
<path stroke="#050b19" d="M26 21h1" />
<path stroke="#050a18" d="M27 21h1" />
<path stroke="#040919" d="M28 21h1" />
<path stroke="#03071b" d="M29 21h1" />
<path stroke="#030619" d="M30 21h1M29 23h1" />
<path stroke="#10050b" d="M32 21h1" />
<path stroke="#653125" d="M35 21h1" />
<path stroke="#d87c56" d="M36 21h1M36 22h1M37 23h1" />
<path stroke="#ee9270" d="M37 21h1" />
<path stroke="#ffa37e" d="M38 21h1" />
<path stroke="#e19c7d" d="M11 22h1" />
<path stroke="#ffa57e" d="M12 22h1" />
<path stroke="#c8674b" d="M13 22h1" />
<path stroke="#a5634e" d="M14 22h1" />
<path stroke="#724d3f" d="M15 22h1" />
<path stroke="#020102" d="M16 22h1" />
<path stroke="#040206" d="M17 22h1" />
<path stroke="#02020c" d="M20 22h1" />
<path stroke="#01020c" d="M21 22h1M22 23h1M24 28h1" />
<path stroke="#01020b" d="M22 22h1M18 23h1M27 24h1M25 28h2" />
<path stroke="#030412" d="M23 22h1" />
<path stroke="#060a1a" d="M24 22h1M25 23h1" />
<path stroke="#060b1a" d="M25 22h1" />
<path stroke="#050917" d="M27 22h1M26 26h1" />
<path stroke="#020617" d="M30 22h1" />
<path stroke="#280d10" d="M32 22h1" />
<path stroke="#240b0e" d="M33 22h1" />
<path stroke="#010104" d="M34 22h1" />
<path stroke="#65362b" d="M35 22h1" />
<path stroke="#dd8a66" d="M37 22h1M36 23h1" />
<path stroke="#ffa37c" d="M38 22h1" />
<path stroke="#ffa781" d="M39 22h2" />
<path stroke="#885b4a" d="M11 23h1" />
<path stroke="#ef906e" d="M12 23h1" />
<path stroke="#a35541" d="M13 23h1" />
<path stroke="#241111" d="M14 23h1" />
<path stroke="#010003" d="M15 23h1" />
<path stroke="#000001" d="M16 23h1M13 25h1" />
<path stroke="#02030d" d="M19 23h1" />
<path stroke="#060719" d="M24 23h1" />
<path stroke="#060a19" d="M26 23h1M23 25h1M24 26h2" />
<path stroke="#030410" d="M27 23h1" />
<path stroke="#030513" d="M28 23h1M27 25h1" />
<path stroke="#010311" d="M30 23h1" />
<path stroke="#150607" d="M31 23h1" />
<path stroke="#3a1914" d="M32 23h1" />
<path stroke="#010103" d="M34 23h1" />
<path stroke="#2b1517" d="M35 23h1" />
<path stroke="#fea37b" d="M38 23h1" />
<path stroke="#fea784" d="M39 23h1" />
<path stroke="#724d3e" d="M40 23h1" />
<path stroke="#3a1f18" d="M12 24h1" />
<path stroke="#1a090a" d="M13 24h1" />
<path stroke="#010002" d="M16 24h1M34 25h1" />
<path stroke="#47302c" d="M17 24h1" />
<path stroke="#3a2725" d="M18 24h1" />
<path stroke="#02040d" d="M20 24h1" />
<path stroke="#02040e" d="M21 24h1" />
<path stroke="#040614" d="M23 24h1" />
<path stroke="#030411" d="M25 24h1" />
<path stroke="#030512" d="M26 24h1" />
<path stroke="#04020a" d="M30 24h1" />
<path stroke="#672c22" d="M31 24h1" />
<path stroke="#723328" d="M32 24h1" />
<path stroke="#34181a" d="M35 24h1" />
<path stroke="#894232" d="M36 24h1" />
<path stroke="#b84f31" d="M37 24h1" />
<path stroke="#e58057" d="M38 24h1" />
<path stroke="#c0775b" d="M39 24h1" />
<path stroke="#12090c" d="M15 25h1" />
<path stroke="#684137" d="M16 25h1" />
<path stroke="#db8f71" d="M17 25h1" />
<path stroke="#cd8669" d="M18 25h1" />
<path stroke="#4f322d" d="M19 25h1" />
<path stroke="#020511" d="M21 25h1" />
<path stroke="#050915" d="M22 25h1" />
<path stroke="#060919" d="M24 25h2" />
<path stroke="#4e211f" d="M30 25h1" />
<path stroke="#c05741" d="M31 25h1" />
<path stroke="#a24c39" d="M32 25h1" />
<path stroke="#331815" d="M33 25h1" />
<path stroke="#040102" d="M35 25h1" />
<path stroke="#55241c" d="M36 25h1" />
<path stroke="#74311f" d="M37 25h1" />
<path stroke="#763a27" d="M38 25h1" />
<path stroke="#090c06" d="M13 26h1" />
<path stroke="#492820" d="M14 26h1" />
<path stroke="#ba755a" d="M15 26h1" />
<path stroke="#f49b75" d="M16 26h1" />
<path stroke="#ffa178" d="M17 26h1" />
<path stroke="#ffa57a" d="M18 26h1" />
<path stroke="#c37c61" d="M19 26h1" />
<path stroke="#050714" d="M22 26h1" />
<path stroke="#060918" d="M23 26h1" />
<path stroke="#050715" d="M27 26h1" />
<path stroke="#02030c" d="M28 26h1M21 27h1M21 28h1" />
<path stroke="#321313" d="M29 26h1" />
<path stroke="#ae4f3c" d="M30 26h1" />
<path stroke="#cc5c41" d="M31 26h1" />
<path stroke="#cf6145" d="M32 26h1" />
<path stroke="#b85a3f" d="M33 26h1" />
<path stroke="#823a29" d="M34 26h1" />
<path stroke="#32100d" d="M35 26h1" />
<path stroke="#030703" d="M36 26h1" />
<path stroke="#b86d54" d="M14 27h1" />
<path stroke="#ffa278" d="M15 27h1M18 27h1" />
<path stroke="#ffa177" d="M16 27h1" />
<path stroke="#fea077" d="M17 27h1" />
<path stroke="#d08265" d="M19 27h1" />
<path stroke="#040715" d="M23 27h1" />
<path stroke="#040717" d="M24 27h2" />
<path stroke="#050717" d="M26 27h1" />
<path stroke="#03040d" d="M27 27h1" />
<path stroke="#020604" d="M28 27h1" />
<path stroke="#5b281b" d="M30 27h1" />
<path stroke="#b14f39" d="M31 27h1" />
<path stroke="#d66344" d="M32 27h1" />
<path stroke="#bf5a3a" d="M33 27h1" />
<path stroke="#7c3f28" d="M34 27h1" />
<path stroke="#734d37" d="M14 28h1" />
<path stroke="#ef9971" d="M15 28h1" />
<path stroke="#ffa075" d="M16 28h1" />
<path stroke="#ff9f73" d="M17 28h1" />
<path stroke="#f39870" d="M18 28h1" />
<path stroke="#814c3c" d="M19 28h1" />
<path stroke="#020510" d="M22 28h1" />
<path stroke="#020410" d="M23 28h1" />
<path stroke="#010203" d="M27 28h1" />
<path stroke="#4d2517" d="M31 28h1" />
<path stroke="#6c3521" d="M32 28h1" />
<path stroke="#4e2a17" d="M33 28h1" />
<path stroke="#7b4934" d="M15 29h1" />
<path stroke="#bb6b4a" d="M16 29h1" />
<path stroke="#bb6947" d="M17 29h1" />
<path stroke="#885645" d="M18 29h1" />
<path stroke="#393f4a" d="M20 29h1" />
<path stroke="#404650" d="M21 29h1" />
<path stroke="#1c1f34" d="M22 29h1M24 29h1" />
<path stroke="#1e2036" d="M23 29h1" />
<path stroke="#191a30" d="M25 29h1" />
<path stroke="#17172b" d="M26 29h1" />
<path stroke="#1b1a30" d="M27 29h1" />
<path stroke="#25293c" d="M28 29h1" />
<path stroke="#7e8694" d="M19 30h1M34 36h1" />
<path stroke="#7e8894" d="M20 30h1" />
<path stroke="#7c8692" d="M21 30h1" />
<path stroke="#494e6d" d="M22 30h1" />
<path stroke="#474c6a" d="M23 30h1" />
<path stroke="#434966" d="M24 30h1" />
<path stroke="#414464" d="M25 30h1" />
<path stroke="#3c3e5d" d="M26 30h1" />
<path stroke="#414362" d="M27 30h1" />
<path stroke="#5b627d" d="M28 30h1" />
<path stroke="#7b8396" d="M29 30h1" />
<path stroke="#646783" d="M17 31h1" />
<path stroke="#818798" d="M18 31h1" />
<path stroke="#7e8794" d="M19 31h1" />
<path stroke="#7b8490" d="M20 31h1" />
<path stroke="#79838e" d="M21 31h1" />
<path stroke="#777d8e" d="M22 31h6M21 33h3M29 33h1M22 34h2M29 34h1M15 35h1M21 35h3M21 36h2" />
<path stroke="#777e8d" d="M28 31h1M22 32h7" />
<path stroke="#787f8f" d="M29 31h1" />
<path stroke="#7a8193" d="M30 31h1" />
<path stroke="#232543" d="M16 32h1" />
<path stroke="#7a848f" d="M17 32h2M20 32h1M16 33h4M24 33h3M15 34h6M16 35h5M17 36h4" />
<path stroke="#7b8494" d="M19 32h1" />
<path stroke="#79828e" d="M21 32h1" />
<path stroke="#777e8e" d="M29 32h1" />
<path stroke="#788090" d="M30 32h1M30 34h1" />
<path stroke="#798292" d="M31 32h1" />
<path stroke="#79828f" d="M20 33h1" />
<path stroke="#757989" d="M27 33h1" />
<path stroke="#777c8c" d="M28 33h1" />
<path stroke="#778090" d="M30 33h1" />
<path stroke="#788191" d="M31 33h1" />
<path stroke="#798291" d="M32 33h1" />
<path stroke="#03020e" d="M8 34h1" />
<path stroke="#000005" d="M9 34h1" />
<path stroke="#17182e" d="M11 34h1M11 35h2M11 36h2M11 37h2M12 38h1M13 39h1M35 42h1" />
<path stroke="#2c3355" d="M12 34h1M13 36h2M13 37h1M15 37h1M13 38h1M15 38h1M14 39h2M33 40h1M33 41h1" />
<path stroke="#303557" d="M13 34h1M13 35h1M14 37h1M14 38h1M16 38h1M16 39h1M34 40h1M34 41h1" />
<path stroke="#202342" d="M14 34h1M14 35h1M15 36h1M31 38h1" />
<path stroke="#7a828e" d="M21 34h1" />
<path stroke="#1b1f43" d="M24 34h1" />
<path stroke="#2e325d" d="M25 34h1" />
<path stroke="#383e66" d="M26 34h1" />
<path stroke="#555b78" d="M27 34h1" />
<path stroke="#717689" d="M28 34h1" />
<path stroke="#798191" d="M31 34h1" />
<path stroke="#7a8291" d="M32 34h1" />
<path stroke="#7b8392" d="M33 34h1" />
<path stroke="#8d8d9a" d="M6 35h1" />
<path stroke="#343342" d="M7 35h1" />
<path stroke="#181c3a" d="M25 35h1M26 36h1M27 37h1M28 38h1M29 39h1" />
<path stroke="#2c335a" d="M26 35h1M27 36h1M28 37h1M29 38h1" />
<path stroke="#373f66" d="M27 35h1" />
<path stroke="#4c5171" d="M28 35h1" />
<path stroke="#697086" d="M29 35h1M33 38h1" />
<path stroke="#7a8292" d="M30 35h2" />
<path stroke="#7a8392" d="M32 35h1" />
<path stroke="#7b8493" d="M33 35h1" />
<path stroke="#7d8593" d="M34 35h1" />
<path stroke="#8f8f9b" d="M6 36h1M6 38h1" />
<path stroke="#101018" d="M7 36h1" />
<path stroke="#5b5f74" d="M16 36h1M16 37h1" />
<path stroke="#363c65" d="M28 36h1" />
<path stroke="#434a70" d="M29 36h1" />
<path stroke="#5d657e" d="M30 36h1" />
<path stroke="#747c8d" d="M31 36h1" />
<path stroke="#7c8594" d="M32 36h2" />
<path stroke="#7d8493" d="M35 36h1" />
<path stroke="#8d8c98" d="M6 37h1" />
<path stroke="#11121a" d="M7 37h1" />
<path stroke="#66697f" d="M17 37h2" />
<path stroke="#585e6d" d="M19 37h3M18 38h1" />
<path stroke="#313565" d="M29 37h1" />
<path stroke="#333964" d="M30 37h1" />
<path stroke="#43495e" d="M31 37h1" />
<path stroke="#767d8d" d="M32 37h1" />
<path stroke="#818897" d="M33 37h1" />
<path stroke="#818796" d="M34 37h1" />
<path stroke="#686d84" d="M35 37h1" />
<path stroke="#12131b" d="M7 38h1M7 39h1" />
<path stroke="#1e1c30" d="M11 38h1" />
<path stroke="#6c6e84" d="M17 38h1" />
<path stroke="#282d58" d="M19 38h1" />
<path stroke="#282c52" d="M20 38h1" />
<path stroke="#272a57" d="M30 38h1" />
<path stroke="#535770" d="M32 38h1" />
<path stroke="#5e647d" d="M34 38h1" />
<path stroke="#3a3f63" d="M35 38h1" />
<path stroke="#202241" d="M36 38h1" />
<path stroke="#91929d" d="M6 39h1" />
<path stroke="#020109" d="M11 39h1" />
<path stroke="#0e0d22" d="M12 39h1" />
<path stroke="#313249" d="M17 39h1" />
<path stroke="#2b2d4b" d="M18 39h1" />
<path stroke="#232447" d="M19 39h1" />
<path stroke="#0b0b22" d="M30 39h1" />
<path stroke="#11132a" d="M31 39h1" />
<path stroke="#1e223f" d="M32 39h1" />
<path stroke="#313658" d="M33 39h1" />
<path stroke="#313758" d="M34 39h1" />
<path stroke="#30365a" d="M35 39h1" />
<path stroke="#353957" d="M36 39h1" />
<path stroke="#9495a1" d="M6 40h1" />
<path stroke="#14151e" d="M7 40h1" />
<path stroke="#030704" d="M11 40h1" />
<path stroke="#121329" d="M30 40h1" />
<path stroke="#242a46" d="M31 40h1" />
<path stroke="#282e4e" d="M32 40h1" />
<path stroke="#32375b" d="M35 40h1" />
<path stroke="#232740" d="M36 40h1" />
<path stroke="#a6a9b6" d="M6 41h1" />
<path stroke="#636570" d="M7 41h1" />
<path stroke="#2c304f" d="M30 41h1" />
<path stroke="#2c3354" d="M31 41h1" />
<path stroke="#2b3354" d="M32 41h1" />
<path stroke="#33375a" d="M35 41h1" />
<path stroke="#20203a" d="M36 41h1" />
<path stroke="#9da0ab" d="M6 42h1" />
<path stroke="#9ea2af" d="M7 42h1" />
<path stroke="#21212c" d="M8 42h1" />
<path stroke="#03020b" d="M9 42h1" />
<path stroke="#333657" d="M30 42h1" />
<path stroke="#2e3455" d="M31 42h1" />
<path stroke="#2d3353" d="M32 42h2" />
<path stroke="#2e3350" d="M34 42h1" />
<path stroke="#060514" d="M36 42h1" />
<path stroke="#5f616b" d="M7 43h1" />
<path stroke="#565863" d="M8 43h1" />
<path stroke="#060b0b" d="M29 43h1" />
<path stroke="#101122" d="M30 43h1" />
<path stroke="#0e1122" d="M31 43h1" />
<path stroke="#0d1021" d="M32 43h1" />
<path stroke="#0c1021" d="M33 43h1" />
<path stroke="#0c0e1e" d="M34 43h1" />
<path stroke="#030309" d="M37 43h1M35 45h2" />
<path stroke="#010302" d="M29 44h1" />
<path stroke="#020209" d="M38 44h1" />
<path stroke="#010202" d="M29 45h1" />
<path stroke="#030307" d="M33 45h1" />
<path stroke="#030409" d="M34 45h1" />
<path stroke="#04040a" d="M37 45h2" />
<path stroke="#0c0c18" d="M39 45h1" />
<path stroke="#2e2d41" d="M40 45h1" />
<path stroke="#000602" d="M29 46h1" />
<path stroke="#03030a" d="M32 46h1" />
<path stroke="#696b74" d="M33 46h1" />
<path stroke="#8b8d95" d="M34 46h1" />
<path stroke="#898b92" d="M35 46h1" />
<path stroke="#888a92" d="M36 46h1" />
<path stroke="#898d95" d="M37 46h1" />
<path stroke="#898e98" d="M38 46h1" />
<path stroke="#8b909f" d="M39 46h1" />
<path stroke="#6e7184" d="M40 46h1" />
<path stroke="#333c3f" d="M32 47h2" />
<path stroke="#464b4f" d="M34 47h1" />
<path stroke="#464a4e" d="M35 47h1" />
<path stroke="#474a4f" d="M36 47h2" />
<path stroke="#464a50" d="M38 47h1" />
<path stroke="#464951" d="M39 47h1" />
<path stroke="#31323a" d="M40 47h1" />
</svg>