<svg xmlns="http://www.w3.org/2000/svg" viewBox="0 -0.5 32 32" shape-rendering="crispEdges">
<metadata>Made with Pixels to Svg https://codepen.io/shshaw/pen/XbxvNj</metadata>
<path stroke="#d1c0c0" d="M5 22h1" />
<path stroke="#9f99a4" d="M15 22h1" />
<path stroke="#9f9ca0" d="M25 22h1" />
<path stroke="#b4aba9" d="M5 23h1" />
<path stroke="#a1a8b5" d="M15 23h1" />
<path stroke="#a4a3a8" d="M25 23h1" />
<path stroke="#212536" d="M4 24h1M3 26h1" />
<path stroke="#b5b5b2" d="M5 24h1" />
<path stroke="#2b3546" d="M6 24h1" />
<path stroke="#66635c" d="M14 24h1" />
<path stroke="#c0b7ae" d="M15 24h1" />
<path stroke="#5a6485" d="M16 24h1" />
<path stroke="#35394e" d="M24 24h1M17 25h1M17 26h1M27 26h1M18 28h1" />
<path stroke="#d1cdcb" d="M25 24h1" />
<path stroke="#737383" d="M26 24h1" />
<path stroke="#c2bbb6" d="M4 25h1" />
<path stroke="#c0b9aa" d="M5 25h1" />
<path stroke="#333844" d="M6 25h1" />
<path stroke="#5b5b54" d="M14 25h1" />
<path stroke="#c3ac8e" d="M15 25h1" />
<path stroke="#727481" d="M16 25h1" />
<path stroke="#5d667c" d="M24 25h1M24 26h1" />
<path stroke="#c9c0ac" d="M25 25h1" />
<path stroke="#8a8076" d="M26 25h1" />
<path stroke="#9a9794" d="M4 26h1" />
<path stroke="#988b74" d="M5 26h1" />
<path stroke="#4f5670" d="M6 26h1" />
<path stroke="#222b3f" d="M7 26h1M7 27h1" />
<path stroke="#39404b" d="M13 26h1" />
<path stroke="#6e7b91" d="M14 26h1" />
<path stroke="#888373" d="M15 26h1" />
<path stroke="#7f7e7c" d="M16 26h1" />
<path stroke="#7482a2" d="M23 26h1M23 27h1M24 28h1" />
<path stroke="#7b7f7c" d="M25 26h1" />
<path stroke="#858479" d="M26 26h1" />
<path stroke="#5f688d" d="M3 27h1" />
<path stroke="#b2b5b9" d="M4 27h1" />
<path stroke="#a5a39c" d="M5 27h1" />
<path stroke="#6d809d" d="M6 27h1" />
<path stroke="#36405e" d="M13 27h1" />
<path stroke="#8e9ab5" d="M14 27h1" />
<path stroke="#b3bbb7" d="M15 27h1" />
<path stroke="#7885a0" d="M16 27h1" />
<path stroke="#394170" d="M17 27h1" />
<path stroke="#8691ae" d="M24 27h1" />
<path stroke="#b1b9c4" d="M25 27h1" />
<path stroke="#939fb2" d="M26 27h1" />
<path stroke="#4f5d83" d="M27 27h1" />
<path stroke="#647297" d="M3 28h1" />
<path stroke="#7f8fab" d="M4 28h1" />
<path stroke="#909db0" d="M5 28h1" />
<path stroke="#617692" d="M6 28h1" />
<path stroke="#222744" d="M7 28h1" />
<path stroke="#241c32" d="M8 28h1M8 29h1M8 30h1" />
<path stroke="#333960" d="M13 28h1" />
<path stroke="#6f81a8" d="M14 28h1" />
<path stroke="#798aaa" d="M15 28h1" />
<path stroke="#6c7da2" d="M16 28h1" />
<path stroke="#343c69" d="M17 28h1" />
<path stroke="#282e47" d="M22 28h1" />
<path stroke="#647194" d="M23 28h1M24 29h1" />
<path stroke="#7b8dac" d="M25 28h1" />
<path stroke="#6f83a3" d="M26 28h1" />
<path stroke="#4b587f" d="M27 28h1" />
<path stroke="#1a232d" d="M2 29h1" />
<path stroke="#5f6d92" d="M3 29h1" />
<path stroke="#7488a5" d="M4 29h1" />
<path stroke="#6f84a2" d="M5 29h1" />
<path stroke="#556688" d="M6 29h1" />
<path stroke="#2e375c" d="M7 29h1" />
<path stroke="#111713" d="M12 29h1" />
<path stroke="#3c4571" d="M13 29h1" />
<path stroke="#6d7da1" d="M14 29h1" />
<path stroke="#7384a3" d="M15 29h1" />
<path stroke="#647393" d="M16 29h1" />
<path stroke="#38426c" d="M17 29h1" />
<path stroke="#1c2437" d="M18 29h1" />
<path stroke="#313553" d="M22 29h1" />
<path stroke="#3f4970" d="M23 29h1M24 30h1" />
<path stroke="#6c7f9e" d="M25 29h1" />
<path stroke="#647696" d="M26 29h1" />
<path stroke="#424f75" d="M27 29h1" />
<path stroke="#242e4b" d="M28 29h1" />
<path stroke="#182344" d="M2 30h1" />
<path stroke="#4e5c88" d="M3 30h1" />
<path stroke="#5c6b8e" d="M4 30h1" />
<path stroke="#5b688a" d="M5 30h1" />
<path stroke="#3f4971" d="M6 30h1" />
<path stroke="#36426e" d="M7 30h1" />
<path stroke="#1a0c1a" d="M12 30h1" />
<path stroke="#374575" d="M13 30h1" />
<path stroke="#424f7d" d="M14 30h1" />
<path stroke="#45557f" d="M15 30h1" />
<path stroke="#3c4771" d="M16 30h1" />
<path stroke="#333e6a" d="M17 30h1" />
<path stroke="#1f203a" d="M18 30h1" />
<path stroke="#242c55" d="M22 30h1" />
<path stroke="#0a1028" d="M23 30h1M23 31h2" />
<path stroke="#414f75" d="M25 30h1" />
<path stroke="#3d4970" d="M26 30h1" />
<path stroke="#3c456e" d="M27 30h1" />
<path stroke="#273158" d="M28 30h1" />
<path stroke="#242033" d="M2 31h1" />
<path stroke="#1e2141" d="M3 31h1" />
<path stroke="#151c3f" d="M4 31h1" />
<path stroke="#1c1f42" d="M5 31h1" />
<path stroke="#202344" d="M6 31h1" />
<path stroke="#20203d" d="M7 31h1" />
<path stroke="#39252e" d="M8 31h1" />
<path stroke="#101021" d="M12 31h2" />
<path stroke="#14172d" d="M14 31h1" />
<path stroke="#13152c" d="M15 31h1" />
<path stroke="#10122d" d="M16 31h1" />
<path stroke="#1b1831" d="M17 31h1" />
<path stroke="#362230" d="M18 31h1" />
<path stroke="#241420" d="M22 31h1" />
<path stroke="#10122a" d="M25 31h1" />
<path stroke="#131431" d="M26 31h1" />
<path stroke="#241f37" d="M27 31h1" />
<path stroke="#2b1f34" d="M28 31h1" />
</svg>