<svg xmlns="http://www.w3.org/2000/svg" viewBox="0 -0.5 32 48" shape-rendering="crispEdges">
<metadata>Made with Pixels to Svg https://codepen.io/shshaw/pen/XbxvNj</metadata>
<path stroke="#000000" d="M25 5h2M23 6h2M27 6h1M18 7h6M28 7h1M16 8h2M29 8h1M15 9h1M28 9h3M27 10h4M26 11h6M12 12h1M27 12h2M31 12h1M12 13h1M31 13h1M12 14h1M31 14h1M12 15h1M25 15h1M31 15h1M12 16h2M25 16h1M30 16h1M13 17h1M25 17h1M30 17h1M11 18h3M30 18h1M10 19h1M29 19h1M8 20h2M28 20h1M7 21h1M26 21h2M6 22h1M25 22h1M5 23h1M24 23h1M4 24h1M24 24h1M4 25h1M10 25h2M24 25h1M4 26h1M9 26h3M23 26h1M4 27h1M8 27h4M23 27h1M4 28h1M7 28h4M23 28h2M5 29h5M15 29h1M25 29h1M7 30h2M15 30h1M26 30h1M8 31h2M14 31h1M27 31h1M9 32h5M28 32h1M10 33h1M29 33h1M9 34h1M18 34h1M30 34h1M8 35h1M17 35h1M19 35h2M30 35h1M7 36h1M17 36h1M21 36h1M30 36h1M6 37h1M16 37h1M20 37h1M30 37h1M5 38h1M15 38h1M19 38h2M29 38h1M4 39h1M14 39h1M18 39h1M28 39h1M13 40h1M17 40h1M27 40h1M12 41h1M17 41h1M25 41h2M1 42h1M10 42h2M17 42h1M23 42h2M0 43h2M9 43h1M18 43h1M23 43h1M0 44h1M8 44h1M19 44h1M22 44h2M0 45h1M3 45h1M8 45h1M20 45h1M23 45h1M0 46h1M21 46h2" />
<path stroke="#f0a288" d="M25 6h2M26 7h2M28 8h1" />
<path stroke="#ef9d77" d="M24 7h1M23 8h2M24 9h1M25 10h1" />
<path stroke="#f8a586" d="M25 7h1" />
<path stroke="#202235" d="M18 8h1" />
<path stroke="#222136" d="M19 8h1" />
<path stroke="#212237" d="M20 8h1" />
<path stroke="#212338" d="M21 8h1" />
<path stroke="#121a28" d="M22 8h1" />
<path stroke="#ffa780" d="M25 8h1" />
<path stroke="#fea883" d="M26 8h1" />
<path stroke="#ffaa85" d="M27 8h1" />
<path stroke="#201c35" d="M16 9h1" />
<path stroke="#22213a" d="M17 9h1" />
<path stroke="#232339" d="M18 9h1" />
<path stroke="#222337" d="M19 9h1" />
<path stroke="#1a1b30" d="M20 9h1" />
<path stroke="#15152b" d="M21 9h1" />
<path stroke="#14132b" d="M22 9h1" />
<path stroke="#140e1b" d="M23 9h1" />
<path stroke="#ea9975" d="M25 9h1" />
<path stroke="#ffa880" d="M26 9h1" />
<path stroke="#fea882" d="M27 9h1" />
<path stroke="#010003" d="M14 10h1" />
<path stroke="#010106" d="M15 10h1M17 11h1M15 24h1M13 25h1" />
<path stroke="#141324" d="M16 10h1" />
<path stroke="#151528" d="M17 10h1" />
<path stroke="#18192b" d="M18 10h1" />
<path stroke="#1c1e31" d="M19 10h1" />
<path stroke="#040615" d="M20 10h1" />
<path stroke="#060719" d="M21 10h1" />
<path stroke="#0d0c22" d="M22 10h1" />
<path stroke="#0b0b24" d="M23 10h1" />
<path stroke="#070614" d="M24 10h1" />
<path stroke="#b57055" d="M26 10h1" />
<path stroke="#060b06" d="M13 11h1" />
<path stroke="#000003" d="M14 11h1M13 12h1M13 13h2M3 40h1M2 41h2M3 42h2M3 43h2M4 44h3" />
<path stroke="#000104" d="M15 11h1M15 13h2M6 43h1" />
<path stroke="#010209" d="M16 11h1M12 26h1" />
<path stroke="#020209" d="M18 11h1M16 24h1M4 41h1" />
<path stroke="#040613" d="M19 11h1M18 29h2" />
<path stroke="#030412" d="M20 11h1M24 12h1" />
<path stroke="#141730" d="M21 11h1" />
<path stroke="#191a32" d="M22 11h1M11 20h1" />
<path stroke="#060615" d="M23 11h1" />
<path stroke="#060720" d="M24 11h1" />
<path stroke="#01010b" d="M25 11h1" />
<path stroke="#000004" d="M14 12h1M17 12h1" />
<path stroke="#000105" d="M15 12h1" />
<path stroke="#000005" d="M16 12h1" />
<path stroke="#020104" d="M18 12h1" />
<path stroke="#0d0609" d="M19 12h1" />
<path stroke="#0a060e" d="M20 12h1" />
<path stroke="#121228" d="M21 12h1M12 23h1" />
<path stroke="#22233c" d="M22 12h1" />
<path stroke="#0e1020" d="M23 12h1" />
<path stroke="#020311" d="M25 12h1" />
<path stroke="#01020b" d="M26 12h1M14 24h1" />
<path stroke="#b96e51" d="M29 12h1" />
<path stroke="#855c44" d="M30 12h1" />
<path stroke="#000002" d="M17 13h3M13 14h4M18 14h1M12 25h1M20 39h1M20 40h1M21 41h2M2 42h1M21 42h2M5 43h1M3 44h1M7 44h1" />
<path stroke="#b2704e" d="M20 13h1" />
<path stroke="#a16b54" d="M21 13h2M23 14h1" />
<path stroke="#06060d" d="M23 13h1" />
<path stroke="#04040b" d="M24 13h1" />
<path stroke="#02020a" d="M25 13h1" />
<path stroke="#030209" d="M26 13h1" />
<path stroke="#412018" d="M27 13h1" />
<path stroke="#b7613f" d="M28 13h1" />
<path stroke="#f99c72" d="M29 13h1" />
<path stroke="#8c5d45" d="M30 13h1" />
<path stroke="#000001" d="M17 14h1M13 15h1M19 39h1M20 41h1M4 45h4" />
<path stroke="#f2a17c" d="M19 14h1" />
<path stroke="#c97b57" d="M20 14h1" />
<path stroke="#361e13" d="M21 14h1" />
<path stroke="#31201a" d="M22 14h1" />
<path stroke="#9f6851" d="M24 14h1" />
<path stroke="#251514" d="M25 14h1" />
<path stroke="#d9653e" d="M26 14h1M26 15h2" />
<path stroke="#bd5937" d="M27 14h1" />
<path stroke="#fda578" d="M28 14h2M28 15h1M29 16h1" />
<path stroke="#855741" d="M30 14h1" />
<path stroke="#150d11" d="M14 15h1" />
<path stroke="#684541" d="M15 15h1" />
<path stroke="#67433d" d="M16 15h1M18 17h1M18 18h1" />
<path stroke="#130a0a" d="M17 15h1" />
<path stroke="#4b3025" d="M18 15h1M18 16h1" />
<path stroke="#f39f7a" d="M19 15h1" />
<path stroke="#ef9873" d="M20 15h1" />
<path stroke="#6c4738" d="M21 15h1" />
<path stroke="#3f2821" d="M22 15h1" />
<path stroke="#ef9d78" d="M23 15h1" />
<path stroke="#ea9773" d="M24 15h1" />
<path stroke="#f59c70" d="M29 15h1" />
<path stroke="#7a4e3a" d="M30 15h1" />
<path stroke="#3f2927" d="M14 16h1" />
<path stroke="#f39f87" d="M15 16h1" />
<path stroke="#faa181" d="M16 16h1" />
<path stroke="#c07c5e" d="M17 16h1" />
<path stroke="#fb9d74" d="M19 16h1" />
<path stroke="#ffa57b" d="M20 16h1M22 18h1" />
<path stroke="#91604c" d="M21 16h1" />
<path stroke="#33201b" d="M22 16h1" />
<path stroke="#e79b79" d="M23 16h1" />
<path stroke="#f3a781" d="M24 16h1" />
<path stroke="#b3563a" d="M26 16h1M26 17h2M26 18h1" />
<path stroke="#c55a36" d="M27 16h1" />
<path stroke="#df6d45" d="M28 16h1" />
<path stroke="#31201b" d="M14 17h1" />
<path stroke="#c7735c" d="M15 17h1" />
<path stroke="#f0916b" d="M16 17h1" />
<path stroke="#ffaa7e" d="M17 17h1" />
<path stroke="#fe9e74" d="M19 17h1" />
<path stroke="#fea178" d="M20 17h1" />
<path stroke="#d98d6b" d="M21 17h1" />
<path stroke="#b87a5f" d="M22 17h1" />
<path stroke="#f4a27f" d="M23 17h1" />
<path stroke="#fdb38b" d="M24 17h1" />
<path stroke="#ac5839" d="M28 17h1" />
<path stroke="#7c4028" d="M29 17h1" />
<path stroke="#030203" d="M14 18h1" />
<path stroke="#240b0c" d="M15 18h1" />
<path stroke="#5f2c1e" d="M16 18h1" />
<path stroke="#a06249" d="M17 18h1" />
<path stroke="#ffa077" d="M19 18h1" />
<path stroke="#fea077" d="M20 18h1" />
<path stroke="#ffa178" d="M21 18h1" />
<path stroke="#ffa67d" d="M23 18h1" />
<path stroke="#cd8467" d="M24 18h1" />
<path stroke="#54372d" d="M25 18h1" />
<path stroke="#d87351" d="M27 18h1" />
<path stroke="#c56747" d="M28 18h1" />
<path stroke="#6c4229" d="M29 18h1" />
<path stroke="#100d1f" d="M11 19h1M13 19h1" />
<path stroke="#111020" d="M12 19h1" />
<path stroke="#141225" d="M14 19h1" />
<path stroke="#0b0b1e" d="M15 19h1" />
<path stroke="#02020d" d="M16 19h1M23 25h1" />
<path stroke="#0e0305" d="M17 19h1" />
<path stroke="#a9543d" d="M18 19h1" />
<path stroke="#ef926c" d="M19 19h1" />
<path stroke="#fda177" d="M20 19h1" />
<path stroke="#ffa279" d="M21 19h1" />
<path stroke="#fea37a" d="M22 19h1" />
<path stroke="#f3a07a" d="M23 19h1" />
<path stroke="#825240" d="M24 19h1" />
<path stroke="#0c050a" d="M25 19h1" />
<path stroke="#49252a" d="M26 19h1" />
<path stroke="#713933" d="M27 19h1" />
<path stroke="#64362b" d="M28 19h1" />
<path stroke="#0d131e" d="M10 20h1" />
<path stroke="#1e1c37" d="M12 20h1" />
<path stroke="#201f39" d="M13 20h1" />
<path stroke="#23223a" d="M14 20h1" />
<path stroke="#1a1a31" d="M15 20h1" />
<path stroke="#090b1e" d="M16 20h1" />
<path stroke="#0d0610" d="M17 20h1" />
<path stroke="#54281f" d="M18 20h1" />
<path stroke="#6c3a2b" d="M19 20h1" />
<path stroke="#cf7f5f" d="M20 20h1" />
<path stroke="#e2926e" d="M21 20h1" />
<path stroke="#bb7c5f" d="M22 20h1" />
<path stroke="#4c3128" d="M23 20h1" />
<path stroke="#120a0a" d="M24 20h1" />
<path stroke="#060613" d="M25 20h1" />
<path stroke="#19142a" d="M26 20h1" />
<path stroke="#1e172b" d="M27 20h1" />
<path stroke="#3a2d24" d="M8 21h2" />
<path stroke="#1c192d" d="M10 21h1" />
<path stroke="#1a1c36" d="M11 21h1" />
<path stroke="#1e1e37" d="M12 21h1" />
<path stroke="#20213a" d="M13 21h1" />
<path stroke="#23223c" d="M14 21h1" />
<path stroke="#1b1c33" d="M15 21h1" />
<path stroke="#050614" d="M16 21h1M17 25h1" />
<path stroke="#070a1b" d="M17 21h1" />
<path stroke="#1a0e12" d="M18 21h1" />
<path stroke="#582e27" d="M19 21h1" />
<path stroke="#331512" d="M20 21h1" />
<path stroke="#251414" d="M21 21h1" />
<path stroke="#191013" d="M22 21h1" />
<path stroke="#02020c" d="M23 21h1" />
<path stroke="#010104" d="M24 21h1" />
<path stroke="#020206" d="M25 21h1" />
<path stroke="#dc8d6e" d="M7 22h2M6 23h2M6 24h1" />
<path stroke="#e89373" d="M9 22h1" />
<path stroke="#784e4a" d="M10 22h1" />
<path stroke="#222038" d="M11 22h1" />
<path stroke="#20203a" d="M12 22h1" />
<path stroke="#212139" d="M13 22h1" />
<path stroke="#181a30" d="M14 22h1" />
<path stroke="#0a0d20" d="M15 22h1" />
<path stroke="#02030b" d="M16 22h1" />
<path stroke="#040918" d="M17 22h1" />
<path stroke="#040717" d="M18 22h1" />
<path stroke="#050613" d="M19 22h1M19 25h1" />
<path stroke="#02030e" d="M20 22h1M21 24h1" />
<path stroke="#060918" d="M21 22h1" />
<path stroke="#060a1a" d="M22 22h1M19 23h1M19 24h1" />
<path stroke="#060a1b" d="M23 22h1" />
<path stroke="#02030a" d="M24 22h1M16 29h1" />
<path stroke="#ffa27a" d="M8 23h1" />
<path stroke="#ffa378" d="M9 23h1" />
<path stroke="#eb9872" d="M10 23h1" />
<path stroke="#613e3c" d="M11 23h1" />
<path stroke="#0c1023" d="M13 23h1" />
<path stroke="#050a1b" d="M14 23h1" />
<path stroke="#030512" d="M15 23h1M22 26h1" />
<path stroke="#02020b" d="M16 23h1M13 24h1M20 25h1" />
<path stroke="#050918" d="M17 23h1M20 23h2M21 27h1M21 28h1" />
<path stroke="#060a19" d="M18 23h1M22 23h1" />
<path stroke="#050919" d="M23 23h1" />
<path stroke="#f49c7a" d="M5 24h1M5 25h1M8 25h2M5 26h2M5 27h1" />
<path stroke="#fea17e" d="M7 24h1M7 25h1" />
<path stroke="#f29a75" d="M8 24h1" />
<path stroke="#ef9970" d="M9 24h1" />
<path stroke="#fba071" d="M10 24h1" />
<path stroke="#96563e" d="M11 24h1" />
<path stroke="#04030b" d="M12 24h1" />
<path stroke="#070a19" d="M17 24h1" />
<path stroke="#070b1a" d="M18 24h1" />
<path stroke="#030614" d="M20 24h1M21 26h1M22 27h1" />
<path stroke="#050717" d="M22 24h1" />
<path stroke="#050617" d="M23 24h1" />
<path stroke="#f69f7d" d="M6 25h1" />
<path stroke="#01020a" d="M14 25h2" />
<path stroke="#010109" d="M16 25h1M21 25h1" />
<path stroke="#060715" d="M18 25h1" />
<path stroke="#02030d" d="M22 25h1" />
<path stroke="#fd9f7c" d="M7 26h1" />
<path stroke="#f59977" d="M8 26h1" />
<path stroke="#010310" d="M13 26h1" />
<path stroke="#01030e" d="M14 26h2M13 27h1" />
<path stroke="#030612" d="M16 26h1" />
<path stroke="#040614" d="M17 26h1" />
<path stroke="#030613" d="M18 26h1" />
<path stroke="#020410" d="M19 26h1" />
<path stroke="#030511" d="M20 26h1M20 29h1" />
<path stroke="#f09a79" d="M6 27h1" />
<path stroke="#fc9e79" d="M7 27h1" />
<path stroke="#fc9c71" d="M12 27h1M11 28h3M10 29h4M9 30h4M10 31h2" />
<path stroke="#01030d" d="M14 27h1" />
<path stroke="#020611" d="M15 27h1" />
<path stroke="#040917" d="M16 27h1" />
<path stroke="#070c1c" d="M17 27h1" />
<path stroke="#070d1c" d="M18 27h1M17 28h2" />
<path stroke="#060c1b" d="M19 27h1" />
<path stroke="#060b19" d="M20 27h1" />
<path stroke="#443122" d="M5 28h1" />
<path stroke="#bf7a60" d="M6 28h1" />
<path stroke="#010207" d="M14 28h1" />
<path stroke="#02040c" d="M15 28h1" />
<path stroke="#060a17" d="M16 28h1" />
<path stroke="#060c1c" d="M19 28h2" />
<path stroke="#01020c" d="M22 28h1" />
<path stroke="#9a5f40" d="M14 29h1M12 31h1" />
<path stroke="#050611" d="M17 29h1" />
<path stroke="#101121" d="M21 29h1" />
<path stroke="#2e3241" d="M22 29h1" />
<path stroke="#4a4e61" d="M23 29h1" />
<path stroke="#2e353a" d="M24 29h1" />
<path stroke="#c87d5e" d="M13 30h1" />
<path stroke="#4b3031" d="M14 30h1" />
<path stroke="#3e4355" d="M16 30h1" />
<path stroke="#3e4558" d="M17 30h1" />
<path stroke="#3f465c" d="M18 30h1" />
<path stroke="#40475d" d="M19 30h1" />
<path stroke="#40445a" d="M20 30h1" />
<path stroke="#404358" d="M21 30h1" />
<path stroke="#676c81" d="M22 30h1" />
<path stroke="#838c9c" d="M23 30h1" />
<path stroke="#777e8f" d="M24 30h1" />
<path stroke="#6a7180" d="M25 30h1" />
<path stroke="#301b1b" d="M13 31h1" />
<path stroke="#7d8694" d="M15 31h1" />
<path stroke="#7b8393" d="M16 31h1" />
<path stroke="#768091" d="M17 31h1" />
<path stroke="#747e91" d="M18 31h1" />
<path stroke="#6a748a" d="M19 31h1" />
<path stroke="#414760" d="M20 31h1" />
<path stroke="#53576d" d="M21 31h1" />
<path stroke="#798090" d="M22 31h1" />
<path stroke="#7b8493" d="M23 31h1" />
<path stroke="#7a8393" d="M24 31h1" />
<path stroke="#7a8292" d="M25 31h1" />
<path stroke="#757c8c" d="M26 31h1" />
<path stroke="#7e8692" d="M14 32h1" />
<path stroke="#7f8793" d="M15 32h1" />
<path stroke="#808894" d="M16 32h1" />
<path stroke="#6b7285" d="M17 32h1" />
<path stroke="#5c617c" d="M18 32h1" />
<path stroke="#444a68" d="M19 32h1" />
<path stroke="#2e3351" d="M20 32h1" />
<path stroke="#676b82" d="M21 32h1" />
<path stroke="#7b8391" d="M22 32h1M10 36h1" />
<path stroke="#798190" d="M23 32h3M24 33h2" />
<path stroke="#7a8291" d="M26 32h1" />
<path stroke="#7c8392" d="M27 32h1" />
<path stroke="#7c8491" d="M11 33h3M13 37h1" />
<path stroke="#7d8692" d="M14 33h1" />
<path stroke="#7f8893" d="M15 33h1" />
<path stroke="#828a97" d="M16 33h1" />
<path stroke="#525671" d="M17 33h1" />
<path stroke="#24254d" d="M18 33h1" />
<path stroke="#272b57" d="M19 33h1" />
<path stroke="#3e436d" d="M20 33h1" />
<path stroke="#565c7c" d="M21 33h1" />
<path stroke="#6d7488" d="M22 33h1" />
<path stroke="#78808f" d="M23 33h1" />
<path stroke="#7a8290" d="M26 33h1M25 34h2M11 36h1" />
<path stroke="#7d8593" d="M27 33h1" />
<path stroke="#808794" d="M28 33h1M15 34h1" />
<path stroke="#777c8d" d="M10 34h1" />
<path stroke="#7a828d" d="M11 34h1" />
<path stroke="#7b838f" d="M12 34h1" />
<path stroke="#7c8490" d="M13 34h1M10 37h1" />
<path stroke="#7d8592" d="M14 34h1M14 35h1" />
<path stroke="#7e8393" d="M16 34h1" />
<path stroke="#2d2e3f" d="M17 34h1" />
<path stroke="#1a1e3e" d="M19 34h1" />
<path stroke="#35395f" d="M20 34h1" />
<path stroke="#3d4067" d="M21 34h1" />
<path stroke="#494d70" d="M22 34h1" />
<path stroke="#646a81" d="M23 34h1" />
<path stroke="#7a8192" d="M24 34h1" />
<path stroke="#7d8491" d="M27 34h1M14 36h1" />
<path stroke="#858c99" d="M28 34h1" />
<path stroke="#5b616a" d="M29 34h1" />
<path stroke="#66687e" d="M9 35h1" />
<path stroke="#7a808e" d="M10 35h1" />
<path stroke="#7a828e" d="M11 35h1" />
<path stroke="#7a828f" d="M12 35h1" />
<path stroke="#7c8390" d="M13 35h1M13 36h1" />
<path stroke="#7f8595" d="M15 35h1" />
<path stroke="#585f75" d="M16 35h1" />
<path stroke="#34375a" d="M21 35h2M21 37h2" />
<path stroke="#272941" d="M23 35h1" />
<path stroke="#535767" d="M24 35h1" />
<path stroke="#757a87" d="M25 35h1" />
<path stroke="#7b818f" d="M26 35h1" />
<path stroke="#7d8490" d="M27 35h1" />
<path stroke="#808795" d="M28 35h1" />
<path stroke="#4b5160" d="M29 35h1" />
<path stroke="#21242b" d="M8 36h1" />
<path stroke="#787e8f" d="M9 36h1" />
<path stroke="#7b8390" d="M12 36h1" />
<path stroke="#797f92" d="M15 36h1" />
<path stroke="#404b5e" d="M16 36h1" />
<path stroke="#2a2c49" d="M22 36h1" />
<path stroke="#292b41" d="M23 36h1" />
<path stroke="#282938" d="M24 36h1" />
<path stroke="#6b6e7e" d="M25 36h1" />
<path stroke="#7a7f8e" d="M26 36h1" />
<path stroke="#79808f" d="M27 36h1" />
<path stroke="#5d6784" d="M28 36h1" />
<path stroke="#252c4a" d="M29 36h1" />
<path stroke="#3e3f52" d="M7 37h1" />
<path stroke="#414356" d="M8 37h1" />
<path stroke="#717888" d="M9 37h1" />
<path stroke="#7c8492" d="M11 37h2" />
<path stroke="#7d8591" d="M14 37h1" />
<path stroke="#586472" d="M15 37h1" />
<path stroke="#424665" d="M23 37h1" />
<path stroke="#454b67" d="M24 37h1" />
<path stroke="#515674" d="M25 37h1" />
<path stroke="#525674" d="M26 37h1" />
<path stroke="#505575" d="M27 37h1" />
<path stroke="#333a60" d="M28 37h2M28 38h1M23 39h2M23 41h1" />
<path stroke="#454760" d="M6 38h1" />
<path stroke="#6b6c8b" d="M7 38h1" />
<path stroke="#5d5f7e" d="M8 38h1" />
<path stroke="#525a75" d="M9 38h1" />
<path stroke="#767e8f" d="M10 38h1" />
<path stroke="#7f8797" d="M11 38h1" />
<path stroke="#7f8697" d="M12 38h2" />
<path stroke="#6e7685" d="M14 38h1" />
<path stroke="#2b2d4b" d="M21 38h2M21 39h2M27 39h1M22 40h5M24 41h1" />
<path stroke="#34395b" d="M23 38h1" />
<path stroke="#383f62" d="M24 38h1" />
<path stroke="#3c4266" d="M25 38h1" />
<path stroke="#3e4268" d="M26 38h1" />
<path stroke="#393c61" d="M27 38h1" />
<path stroke="#3a3d55" d="M5 39h1" />
<path stroke="#575a7b" d="M6 39h1" />
<path stroke="#525675" d="M7 39h1" />
<path stroke="#474c6d" d="M8 39h1" />
<path stroke="#3f4466" d="M9 39h1" />
<path stroke="#333854" d="M10 39h1" />
<path stroke="#525873" d="M11 39h1" />
<path stroke="#5b607f" d="M12 39h1" />
<path stroke="#626786" d="M13 39h1" />
<path stroke="#383c5e" d="M25 39h1" />
<path stroke="#343655" d="M26 39h1" />
<path stroke="#27243c" d="M4 40h1" />
<path stroke="#454668" d="M5 40h1" />
<path stroke="#42476b" d="M6 40h1" />
<path stroke="#3e4465" d="M7 40h1" />
<path stroke="#3d4265" d="M8 40h1" />
<path stroke="#3f4366" d="M9 40h1" />
<path stroke="#202344" d="M10 40h1" />
<path stroke="#141832" d="M11 40h1" />
<path stroke="#181c2d" d="M12 40h1" />
<path stroke="#8d8c94" d="M18 40h1M18 41h1M18 42h1" />
<path stroke="#27252b" d="M19 40h1M19 41h1" />
<path stroke="#07071b" d="M21 40h1" />
<path stroke="#282942" d="M5 41h1" />
<path stroke="#3e4365" d="M6 41h1" />
<path stroke="#3e4468" d="M7 41h1" />
<path stroke="#3d4267" d="M8 41h1" />
<path stroke="#3e4369" d="M9 41h1" />
<path stroke="#2a2d51" d="M10 41h1" />
<path stroke="#0e171c" d="M11 41h1" />
<path stroke="#020207" d="M5 42h1M7 43h1" />
<path stroke="#191c32" d="M6 42h1" />
<path stroke="#323653" d="M7 42h1" />
<path stroke="#313453" d="M8 42h1" />
<path stroke="#252741" d="M9 42h1" />
<path stroke="#8b8d95" d="M19 42h1" />
<path stroke="#111119" d="M20 42h1" />
<path stroke="#05030b" d="M2 43h1" />
<path stroke="#050a09" d="M8 43h1" />
<path stroke="#989ca5" d="M19 43h1" />
<path stroke="#838590" d="M20 43h1" />
<path stroke="#070711" d="M21 43h1" />
<path stroke="#020107" d="M22 43h1" />
<path stroke="#6a6977" d="M1 44h1" />
<path stroke="#27252e" d="M2 44h1" />
<path stroke="#8f91a1" d="M20 44h1M21 45h1" />
<path stroke="#6f7186" d="M21 44h1M22 45h1" />
<path stroke="#777784" d="M1 45h1" />
<path stroke="#2c2c36" d="M2 45h1" />
<path stroke="#45454f" d="M1 46h1" />
<path stroke="#73747c" d="M2 46h1" />
<path stroke="#5f6065" d="M3 46h1" />
<path stroke="#575b61" d="M4 46h1" />
<path stroke="#585c63" d="M5 46h1" />
<path stroke="#5c5d66" d="M6 46h1" />
<path stroke="#45454e" d="M7 46h1" />
<path stroke="#030306" d="M8 46h1" />
<path stroke="#010103" d="M1 47h1" />
<path stroke="#787981" d="M2 47h1" />
<path stroke="#a9acb6" d="M3 47h1" />
<path stroke="#a3aab5" d="M4 47h1" />
<path stroke="#a5acb7" d="M5 47h1" />
<path stroke="#a9afbc" d="M6 47h1" />
<path stroke="#898996" d="M7 47h1" />
<path stroke="#07090d" d="M8 47h1" />
</svg>