<svg xmlns="http://www.w3.org/2000/svg" viewBox="0 -0.5 48 24" shape-rendering="crispEdges">
<metadata>Made with Pixels to Svg https://codepen.io/shshaw/pen/XbxvNj</metadata>
<path stroke="#000000" d="M38 8h4M36 9h2M42 9h2M34 10h2M44 10h1M34 11h1M34 12h1M26 13h8M17 14h9M46 14h1M16 15h1M24 15h1M45 15h1M5 16h2M13 16h3M24 16h1M36 16h1M44 16h1M4 17h1M7 17h1M10 17h3M15 17h1M18 17h2M25 17h1M35 17h1M44 17h1M3 18h1M8 18h2M11 18h1M16 18h5M26 18h1M31 18h1M36 18h4M44 18h2M2 19h1M5 19h1M10 19h1M13 19h1M26 19h1M30 19h1M40 19h1M46 19h1M1 20h1M4 20h1M9 20h1M12 20h1M40 20h1M46 20h1M0 21h1M4 21h2M8 21h1M12 21h2M25 21h6M40 21h1M46 21h1M0 22h1M4 22h5M12 22h5M24 22h1M31 22h1M40 22h6M1 23h4M9 23h4M17 23h6M32 23h9" />
<path stroke="#27243a" d="M38 9h1" />
<path stroke="#3a3a56" d="M39 9h1" />
<path stroke="#383954" d="M40 9h1" />
<path stroke="#373754" d="M41 9h1" />
<path stroke="#28293e" d="M36 10h1" />
<path stroke="#3a3e53" d="M37 10h1" />
<path stroke="#222536" d="M38 10h1" />
<path stroke="#0a0c1a" d="M39 10h1" />
<path stroke="#131524" d="M40 10h1" />
<path stroke="#1c1f31" d="M41 10h1" />
<path stroke="#35384e" d="M42 10h1" />
<path stroke="#3c3f56" d="M43 10h1" />
<path stroke="#030718" d="M45 10h1" />
<path stroke="#303051" d="M35 11h1" />
<path stroke="#1a2136" d="M36 11h1" />
<path stroke="#151829" d="M37 11h1" />
<path stroke="#383c54" d="M38 11h1" />
<path stroke="#0d0e1b" d="M39 11h1" />
<path stroke="#030915" d="M40 11h1" />
<path stroke="#0b1222" d="M41 11h1" />
<path stroke="#36374c" d="M42 11h1" />
<path stroke="#25283c" d="M43 11h1" />
<path stroke="#030511" d="M44 11h1" />
<path stroke="#00010b" d="M45 11h1" />
<path stroke="#01010d" d="M46 11h1" />
<path stroke="#0b1127" d="M35 12h1" />
<path stroke="#060c1f" d="M36 12h1" />
<path stroke="#0c1123" d="M37 12h1" />
<path stroke="#2a3045" d="M38 12h1" />
<path stroke="#272e41" d="M39 12h1" />
<path stroke="#371e1b" d="M40 12h1" />
<path stroke="#120405" d="M41 12h1" />
<path stroke="#0c1322" d="M42 12h1" />
<path stroke="#070c1b" d="M43 12h1" />
<path stroke="#020513" d="M44 12h1" />
<path stroke="#020514" d="M45 12h1" />
<path stroke="#000002" d="M34 13h1M3 21h1M11 21h1" />
<path stroke="#010209" d="M35 13h1" />
<path stroke="#010103" d="M36 13h1" />
<path stroke="#060605" d="M37 13h1" />
<path stroke="#0d0402" d="M38 13h1" />
<path stroke="#491e10" d="M39 13h1" />
<path stroke="#823c27" d="M40 13h1" />
<path stroke="#4e1a0b" d="M41 13h1" />
<path stroke="#000001" d="M42 13h1M31 17h1" />
<path stroke="#000413" d="M43 13h1" />
<path stroke="#020615" d="M44 13h2" />
<path stroke="#1f2336" d="M26 14h1" />
<path stroke="#0a0e1a" d="M27 14h1" />
<path stroke="#0e1321" d="M28 14h1" />
<path stroke="#1f2536" d="M29 14h1" />
<path stroke="#141928" d="M30 14h1" />
<path stroke="#171c2b" d="M31 14h1" />
<path stroke="#2d3345" d="M32 14h1" />
<path stroke="#2e3547" d="M33 14h1" />
<path stroke="#242939" d="M34 14h1" />
<path stroke="#000003" d="M35 14h1M27 20h1M41 20h1" />
<path stroke="#21130c" d="M36 14h1" />
<path stroke="#f8af77" d="M37 14h1" />
<path stroke="#392718" d="M38 14h1" />
<path stroke="#82533d" d="M39 14h1" />
<path stroke="#e7a279" d="M40 14h1" />
<path stroke="#724530" d="M41 14h1" />
<path stroke="#1e1312" d="M42 14h1" />
<path stroke="#c38364" d="M43 14h1" />
<path stroke="#1c151c" d="M44 14h1" />
<path stroke="#00000a" d="M45 14h1" />
<path stroke="#686b7e" d="M17 15h1M17 16h2M10 18h1" />
<path stroke="#888f9d" d="M18 15h1M23 15h1M22 16h2M22 17h3M21 18h2M24 18h2M17 19h2M20 19h1M24 19h2M17 20h1M19 20h1M21 20h1M23 20h2M19 21h4" />
<path stroke="#868f9b" d="M19 15h1" />
<path stroke="#7e8692" d="M20 15h1M21 19h3M18 20h1" />
<path stroke="#808896" d="M21 15h1" />
<path stroke="#7a808e" d="M22 15h1" />
<path stroke="#272c3d" d="M25 15h1" />
<path stroke="#050614" d="M26 15h1" />
<path stroke="#121725" d="M27 15h1" />
<path stroke="#24293a" d="M28 15h1" />
<path stroke="#181c2e" d="M29 15h1" />
<path stroke="#090c1b" d="M30 15h1" />
<path stroke="#353849" d="M31 15h1" />
<path stroke="#2e3345" d="M32 15h1" />
<path stroke="#2c3243" d="M33 15h1" />
<path stroke="#34384d" d="M34 15h1" />
<path stroke="#0e1728" d="M35 15h1" />
<path stroke="#150906" d="M36 15h1" />
<path stroke="#ffbc85" d="M37 15h1" />
<path stroke="#6a4933" d="M38 15h1" />
<path stroke="#9c694a" d="M39 15h1" />
<path stroke="#ffd39a" d="M40 15h1" />
<path stroke="#936147" d="M41 15h1" />
<path stroke="#201311" d="M42 15h1" />
<path stroke="#ffb588" d="M43 15h1" />
<path stroke="#2c2119" d="M44 15h1" />
<path stroke="#4f5671" d="M16 16h1M16 17h2M9 19h1" />
<path stroke="#7e8694" d="M19 16h1M23 18h1M19 19h1M20 20h1M22 20h1" />
<path stroke="#7e8693" d="M20 16h1" />
<path stroke="#8b92a2" d="M21 16h1" />
<path stroke="#040718" d="M25 16h1" />
<path stroke="#01020c" d="M26 16h1" />
<path stroke="#181c2d" d="M27 16h1" />
<path stroke="#1b2032" d="M28 16h1" />
<path stroke="#0d1327" d="M29 16h1" />
<path stroke="#000106" d="M30 16h1M6 20h1M14 20h1" />
<path stroke="#222432" d="M31 16h1" />
<path stroke="#383c50" d="M32 16h1" />
<path stroke="#33374c" d="M33 16h1" />
<path stroke="#35394f" d="M34 16h1" />
<path stroke="#181a28" d="M35 16h1" />
<path stroke="#4b2514" d="M37 16h1" />
<path stroke="#d86a3f" d="M38 16h1" />
<path stroke="#ffaf78" d="M39 16h1" />
<path stroke="#ffb886" d="M40 16h1" />
<path stroke="#cb8861" d="M41 16h1" />
<path stroke="#986746" d="M42 16h1" />
<path stroke="#ffae7f" d="M43 16h1" />
<path stroke="#a19bb0" d="M5 17h1M13 17h1" />
<path stroke="#726d85" d="M6 17h1M14 17h1" />
<path stroke="#808694" d="M20 17h1" />
<path stroke="#757c91" d="M21 17h1" />
<path stroke="#01020d" d="M26 17h1" />
<path stroke="#0a1021" d="M27 17h1" />
<path stroke="#0d1427" d="M28 17h1" />
<path stroke="#0a1125" d="M29 17h1" />
<path stroke="#000105" d="M30 17h1" />
<path stroke="#111525" d="M32 17h1" />
<path stroke="#181924" d="M33 17h1" />
<path stroke="#131320" d="M34 17h1" />
<path stroke="#151929" d="M36 17h1" />
<path stroke="#010a20" d="M37 17h1" />
<path stroke="#110000" d="M38 17h1" />
<path stroke="#e68755" d="M39 17h1" />
<path stroke="#ffbc84" d="M40 17h1" />
<path stroke="#ffb781" d="M41 17h1" />
<path stroke="#ffc889" d="M42 17h1" />
<path stroke="#b17854" d="M43 17h1" />
<path stroke="#dfdee1" d="M4 18h1M12 18h1" />
<path stroke="#565864" d="M5 18h1M13 18h1" />
<path stroke="#070d20" d="M6 18h1M14 18h1" />
<path stroke="#030412" d="M7 18h1M15 18h1" />
<path stroke="#040918" d="M27 18h1" />
<path stroke="#0a1123" d="M28 18h1" />
<path stroke="#060b1c" d="M29 18h1" />
<path stroke="#000107" d="M30 18h1" />
<path stroke="#a76943" d="M32 18h1" />
<path stroke="#d38d5d" d="M33 18h1" />
<path stroke="#d78f5f" d="M34 18h1" />
<path stroke="#432714" d="M35 18h1" />
<path stroke="#df8959" d="M40 18h1" />
<path stroke="#f39965" d="M41 18h1" />
<path stroke="#8c5739" d="M42 18h1" />
<path stroke="#020102" d="M43 18h1" />
<path stroke="#c1bdc4" d="M3 19h1M11 19h1" />
<path stroke="#4c4f56" d="M4 19h1M12 19h1" />
<path stroke="#000104" d="M6 19h1M14 19h1" />
<path stroke="#01030d" d="M7 19h1M15 19h1" />
<path stroke="#37405b" d="M8 19h1M16 19h1" />
<path stroke="#050b1e" d="M27 19h1" />
<path stroke="#030918" d="M28 19h1" />
<path stroke="#020410" d="M29 19h1" />
<path stroke="#f18f5b" d="M31 19h1M31 20h2" />
<path stroke="#ffb578" d="M32 19h1" />
<path stroke="#ffb67a" d="M33 19h1" />
<path stroke="#ffbb7d" d="M34 19h1" />
<path stroke="#e59a66" d="M35 19h1" />
<path stroke="#634230" d="M36 19h1" />
<path stroke="#5c4031" d="M37 19h1" />
<path stroke="#5d3d2a" d="M38 19h1" />
<path stroke="#342117" d="M39 19h1" />
<path stroke="#0b0302" d="M41 19h1" />
<path stroke="#2e201c" d="M42 19h1" />
<path stroke="#ffaa7a" d="M43 19h2" />
<path stroke="#d4906b" d="M45 19h1" />
<path stroke="#d6d1d5" d="M2 20h1M10 20h1" />
<path stroke="#4a4d53" d="M3 20h1M11 20h1" />
<path stroke="#030610" d="M5 20h1M13 20h1" />
<path stroke="#020512" d="M7 20h1M15 20h1" />
<path stroke="#3c445f" d="M8 20h1M16 20h1" />
<path stroke="#474b61" d="M25 20h1" />
<path stroke="#01010b" d="M26 20h1" />
<path stroke="#010001" d="M28 20h1" />
<path stroke="#030104" d="M29 20h1" />
<path stroke="#0b100b" d="M30 20h1" />
<path stroke="#ffb173" d="M33 20h1" />
<path stroke="#f7ae73" d="M34 20h1" />
<path stroke="#ffb376" d="M35 20h1" />
<path stroke="#ffb97d" d="M36 20h1" />
<path stroke="#ffb77e" d="M37 20h1" />
<path stroke="#ffba84" d="M38 20h1" />
<path stroke="#ffb780" d="M39 20h1" />
<path stroke="#ffbb84" d="M42 20h3M42 21h2" />
<path stroke="#ffbc88" d="M45 20h1M45 21h1" />
<path stroke="#aeaaaf" d="M1 21h1M9 21h1" />
<path stroke="#cbc4ce" d="M2 21h1M10 21h1" />
<path stroke="#000004" d="M6 21h1M14 21h1" />
<path stroke="#010109" d="M7 21h1M15 21h1" />
<path stroke="#292c44" d="M16 21h1" />
<path stroke="#454d68" d="M17 21h1" />
<path stroke="#454d65" d="M18 21h1" />
<path stroke="#373657" d="M23 21h2" />
<path stroke="#522214" d="M31 21h1" />
<path stroke="#b5603e" d="M32 21h1M33 22h2" />
<path stroke="#ff965e" d="M33 21h1" />
<path stroke="#ffa76b" d="M34 21h1" />
<path stroke="#ffa56c" d="M35 21h1" />
<path stroke="#ffa267" d="M36 21h1" />
<path stroke="#ffab71" d="M37 21h1" />
<path stroke="#ffb179" d="M38 21h1" />
<path stroke="#ffa56d" d="M39 21h1" />
<path stroke="#000005" d="M41 21h1" />
<path stroke="#f5865d" d="M44 21h1" />
<path stroke="#514a5f" d="M1 22h1M9 22h1" />
<path stroke="#5a5573" d="M2 22h1M10 22h1" />
<path stroke="#141420" d="M3 22h1M11 22h1" />
<path stroke="#111221" d="M17 22h1" />
<path stroke="#292a3f" d="M18 22h1" />
<path stroke="#25283a" d="M19 22h1" />
<path stroke="#1c1f30" d="M20 22h1" />
<path stroke="#1a1e2c" d="M21 22h1" />
<path stroke="#1b1c2e" d="M22 22h1" />
<path stroke="#020a07" d="M23 22h1" />
<path stroke="#512916" d="M32 22h1" />
<path stroke="#a65c3d" d="M35 22h1" />
<path stroke="#a85b39" d="M36 22h1" />
<path stroke="#a75634" d="M37 22h1" />
<path stroke="#ae5b3c" d="M38 22h1" />
<path stroke="#733521" d="M39 22h1" />
</svg>