<svg xmlns="http://www.w3.org/2000/svg" viewBox="0 -0.5 32 48" shape-rendering="crispEdges">
<metadata>Made with Pixels to Svg https://codepen.io/shshaw/pen/XbxvNj</metadata>
<path stroke="#000000" d="M21 14h5M19 15h2M26 15h2M17 16h2M28 16h2M16 17h1M30 17h1M15 18h1M29 18h1M15 19h1M29 19h1M15 20h1M30 20h1M15 21h1M29 21h1M16 22h2M28 22h1M11 23h5M28 23h1M9 24h1M28 24h1M8 25h1M28 25h1M7 26h1M27 26h1M25 27h2M23 28h1M22 29h1M3 30h1M22 30h1M11 31h1M23 31h1M2 32h2M11 32h1M18 32h2M24 32h1M2 33h1M11 33h1M18 33h2M24 33h1M2 34h1M12 34h1M18 34h2M24 34h1M2 35h1M13 35h1M18 35h2M24 35h1M2 36h1M14 36h6M23 36h1M3 37h1M20 37h3M4 38h2M22 38h1M5 39h1M22 39h1M4 40h1M14 40h2M22 40h1M3 41h1M13 41h1M15 41h1M2 42h1M12 42h1M16 42h1M11 43h1M16 43h1M23 43h1M1 44h1M10 44h1M25 45h1M1 46h1M1 47h1M16 47h2M26 47h1" />
<path stroke="#24223c" d="M21 15h1" />
<path stroke="#292740" d="M22 15h1" />
<path stroke="#28273f" d="M23 15h2" />
<path stroke="#222037" d="M25 15h1" />
<path stroke="#15152b" d="M19 16h1M13 25h1" />
<path stroke="#1f1e35" d="M20 16h1" />
<path stroke="#1b1a2e" d="M21 16h1" />
<path stroke="#0c0e1f" d="M22 16h1" />
<path stroke="#0e1122" d="M23 16h1" />
<path stroke="#0e1121" d="M24 16h1" />
<path stroke="#131224" d="M25 16h1" />
<path stroke="#29273f" d="M26 16h1" />
<path stroke="#2e2d49" d="M27 16h1" />
<path stroke="#000006" d="M17 17h1" />
<path stroke="#010109" d="M18 17h1" />
<path stroke="#0d0e21" d="M19 17h1" />
<path stroke="#19192e" d="M20 17h1" />
<path stroke="#17172a" d="M21 17h1" />
<path stroke="#020411" d="M22 17h1" />
<path stroke="#01030e" d="M23 17h1M10 30h1M9 32h1" />
<path stroke="#030510" d="M24 17h1" />
<path stroke="#1e1b2e" d="M25 17h1" />
<path stroke="#212035" d="M26 17h1" />
<path stroke="#12142b" d="M27 17h1" />
<path stroke="#151934" d="M28 17h1" />
<path stroke="#171934" d="M29 17h1" />
<path stroke="#000003" d="M16 18h1M18 19h1M18 20h1M3 43h1M3 44h3M17 46h1" />
<path stroke="#000004" d="M17 18h1" />
<path stroke="#000105" d="M18 18h1M11 28h1" />
<path stroke="#01020a" d="M19 18h1" />
<path stroke="#0b0c1e" d="M20 18h1M21 43h1M17 44h4" />
<path stroke="#17152a" d="M21 18h1" />
<path stroke="#02030d" d="M22 18h1M6 27h1" />
<path stroke="#01030c" d="M23 18h1M6 32h1" />
<path stroke="#0c0c1a" d="M24 18h1" />
<path stroke="#322d47" d="M25 18h1" />
<path stroke="#27243c" d="M26 18h1" />
<path stroke="#040618" d="M27 18h1" />
<path stroke="#0d1127" d="M28 18h1" />
<path stroke="#000001" d="M16 19h1M16 20h1M17 21h1M2 43h1" />
<path stroke="#000002" d="M17 19h1M17 20h1M19 20h3M17 23h1M24 28h1M4 30h1M4 31h1M22 43h1M2 44h1M16 44h1M22 44h2M3 45h4M16 45h2M19 45h6M10 46h1M10 47h1" />
<path stroke="#000103" d="M19 19h1" />
<path stroke="#000106" d="M20 19h1M5 31h1" />
<path stroke="#01010a" d="M21 19h1" />
<path stroke="#0b0306" d="M22 19h1" />
<path stroke="#381513" d="M23 19h1" />
<path stroke="#302025" d="M24 19h1" />
<path stroke="#211e30" d="M25 19h1" />
<path stroke="#1e2035" d="M26 19h1" />
<path stroke="#020514" d="M27 19h1" />
<path stroke="#0a0d22" d="M28 19h1" />
<path stroke="#2d0e0b" d="M22 20h1" />
<path stroke="#823827" d="M23 20h1" />
<path stroke="#553127" d="M24 20h1" />
<path stroke="#321c17" d="M25 20h1" />
<path stroke="#06060b" d="M26 20h1" />
<path stroke="#020206" d="M27 20h1M22 42h1" />
<path stroke="#02030e" d="M28 20h1" />
<path stroke="#060717" d="M29 20h1M12 25h1M21 44h1" />
<path stroke="#000102" d="M16 21h1M16 46h1" />
<path stroke="#020103" d="M18 21h1" />
<path stroke="#573c34" d="M19 21h1" />
<path stroke="#5f463f" d="M20 21h1" />
<path stroke="#010102" d="M21 21h1M9 46h1" />
<path stroke="#371913" d="M22 21h1" />
<path stroke="#985f4f" d="M23 21h1" />
<path stroke="#996e61" d="M24 21h1" />
<path stroke="#170b09" d="M25 21h1" />
<path stroke="#744d3e" d="M26 21h1" />
<path stroke="#915a43" d="M27 21h1" />
<path stroke="#150e09" d="M28 21h1" />
<path stroke="#2e1813" d="M18 22h1" />
<path stroke="#e39479" d="M19 22h1" />
<path stroke="#bc917c" d="M20 22h1" />
<path stroke="#210d0b" d="M21 22h1" />
<path stroke="#b4674c" d="M22 22h1" />
<path stroke="#f9a385" d="M23 22h1" />
<path stroke="#ab7967" d="M24 22h1" />
<path stroke="#020102" d="M25 22h1" />
<path stroke="#ae7a64" d="M26 22h1" />
<path stroke="#e99d78" d="M27 22h1" />
<path stroke="#060d17" d="M16 23h1" />
<path stroke="#391a13" d="M18 23h1" />
<path stroke="#ef9779" d="M19 23h1" />
<path stroke="#bd9580" d="M20 23h1" />
<path stroke="#49231a" d="M21 23h1" />
<path stroke="#eb8e68" d="M22 23h1" />
<path stroke="#ffa27d" d="M23 23h1" />
<path stroke="#b17660" d="M24 23h1" />
<path stroke="#0e0907" d="M25 23h1" />
<path stroke="#b27e68" d="M26 23h1" />
<path stroke="#e69c79" d="M27 23h1" />
<path stroke="#030609" d="M10 24h1" />
<path stroke="#09091a" d="M11 24h1" />
<path stroke="#0a091a" d="M12 24h1" />
<path stroke="#050311" d="M13 24h1" />
<path stroke="#0a0719" d="M14 24h1" />
<path stroke="#0c0b1b" d="M15 24h1" />
<path stroke="#090918" d="M16 24h1" />
<path stroke="#060713" d="M17 24h1" />
<path stroke="#28100e" d="M18 24h1" />
<path stroke="#926050" d="M19 24h1" />
<path stroke="#9a715f" d="M20 24h1" />
<path stroke="#8d4c38" d="M21 24h1" />
<path stroke="#f8956c" d="M22 24h1" />
<path stroke="#fd9c75" d="M23 24h1" />
<path stroke="#e69170" d="M24 24h1" />
<path stroke="#bc7a61" d="M25 24h1" />
<path stroke="#ea9b7d" d="M26 24h1" />
<path stroke="#de9377" d="M27 24h1" />
<path stroke="#0c0b1e" d="M9 25h1" />
<path stroke="#14142b" d="M10 25h1" />
<path stroke="#101127" d="M11 25h1" />
<path stroke="#202037" d="M14 25h1" />
<path stroke="#202137" d="M15 25h1" />
<path stroke="#191a2e" d="M16 25h1" />
<path stroke="#090613" d="M17 25h1M18 27h1" />
<path stroke="#642d25" d="M18 25h1" />
<path stroke="#683025" d="M19 25h1" />
<path stroke="#582520" d="M20 25h1" />
<path stroke="#a14d37" d="M21 25h1" />
<path stroke="#f78f67" d="M22 25h1" />
<path stroke="#fd9a73" d="M23 25h1" />
<path stroke="#fe9b74" d="M24 25h1" />
<path stroke="#ffa078" d="M25 25h1" />
<path stroke="#f39d7b" d="M26 25h1" />
<path stroke="#805141" d="M27 25h1" />
<path stroke="#0d0d23" d="M8 26h1" />
<path stroke="#17172d" d="M9 26h1" />
<path stroke="#18192e" d="M10 26h1" />
<path stroke="#090a18" d="M11 26h1" />
<path stroke="#070a1a" d="M12 26h1" />
<path stroke="#1b1c35" d="M13 26h1" />
<path stroke="#1c1e35" d="M14 26h1" />
<path stroke="#1c1e34" d="M15 26h1" />
<path stroke="#1c1c32" d="M16 26h1M16 27h1" />
<path stroke="#070918" d="M17 26h1" />
<path stroke="#411e1e" d="M18 26h1" />
<path stroke="#964735" d="M19 26h1" />
<path stroke="#6a2c24" d="M20 26h1" />
<path stroke="#753124" d="M21 26h1" />
<path stroke="#c36546" d="M22 26h1" />
<path stroke="#ee8c66" d="M23 26h1" />
<path stroke="#fa9e75" d="M24 26h1" />
<path stroke="#ef9a73" d="M25 26h1" />
<path stroke="#976d56" d="M26 26h1" />
<path stroke="#0a0b20" d="M7 27h1" />
<path stroke="#101227" d="M8 27h1" />
<path stroke="#121429" d="M9 27h1" />
<path stroke="#131528" d="M10 27h1" />
<path stroke="#050611" d="M11 27h1" />
<path stroke="#070719" d="M12 27h1" />
<path stroke="#191a32" d="M13 27h1" />
<path stroke="#1b1c33" d="M14 27h1" />
<path stroke="#1b1c32" d="M15 27h1" />
<path stroke="#0b0a19" d="M17 27h1" />
<path stroke="#6c3a2b" d="M19 27h1" />
<path stroke="#844534" d="M20 27h1" />
<path stroke="#13060d" d="M21 27h1" />
<path stroke="#2c110d" d="M22 27h1" />
<path stroke="#4e2a1b" d="M23 27h1" />
<path stroke="#5e3e29" d="M24 27h1" />
<path stroke="#000005" d="M5 28h1" />
<path stroke="#030411" d="M6 28h1" />
<path stroke="#040617" d="M7 28h1" />
<path stroke="#030717" d="M8 28h1" />
<path stroke="#030918" d="M9 28h1" />
<path stroke="#030615" d="M10 28h1" />
<path stroke="#060617" d="M12 28h1" />
<path stroke="#111228" d="M13 28h1" />
<path stroke="#111225" d="M14 28h1" />
<path stroke="#121325" d="M15 28h1" />
<path stroke="#141528" d="M16 28h1" />
<path stroke="#0a0a18" d="M17 28h1" />
<path stroke="#060719" d="M18 28h1" />
<path stroke="#110c17" d="M19 28h1" />
<path stroke="#180e19" d="M20 28h1" />
<path stroke="#060918" d="M21 28h1" />
<path stroke="#010305" d="M22 28h1M9 45h1" />
<path stroke="#020404" d="M4 29h1" />
<path stroke="#010107" d="M5 29h1" />
<path stroke="#020410" d="M6 29h1" />
<path stroke="#020512" d="M7 29h2" />
<path stroke="#010512" d="M9 29h1" />
<path stroke="#010311" d="M10 29h1" />
<path stroke="#010103" d="M11 29h1M19 31h1" />
<path stroke="#392225" d="M12 29h1" />
<path stroke="#543a39" d="M13 29h1" />
<path stroke="#4a3232" d="M14 29h1" />
<path stroke="#4c3232" d="M15 29h1" />
<path stroke="#362224" d="M16 29h1" />
<path stroke="#04040e" d="M17 29h1" />
<path stroke="#040719" d="M18 29h1" />
<path stroke="#060a1c" d="M19 29h1" />
<path stroke="#060a1b" d="M20 29h1" />
<path stroke="#02050e" d="M21 29h1M6 31h1" />
<path stroke="#010106" d="M5 30h1" />
<path stroke="#020510" d="M6 30h1" />
<path stroke="#020511" d="M7 30h1M9 30h1M9 31h1" />
<path stroke="#020611" d="M8 30h1M7 31h1" />
<path stroke="#020002" d="M11 30h1" />
<path stroke="#714132" d="M12 30h1" />
<path stroke="#e39471" d="M13 30h1" />
<path stroke="#f59f7d" d="M14 30h1" />
<path stroke="#f7a180" d="M15 30h1" />
<path stroke="#a86a53" d="M16 30h1" />
<path stroke="#030103" d="M17 30h1" />
<path stroke="#010310" d="M18 30h1" />
<path stroke="#000310" d="M19 30h1" />
<path stroke="#070912" d="M20 30h1" />
<path stroke="#0b0c09" d="M21 30h1" />
<path stroke="#090915" d="M3 31h1" />
<path stroke="#020610" d="M8 31h1" />
<path stroke="#060610" d="M10 31h1" />
<path stroke="#4c332c" d="M12 31h1" />
<path stroke="#aa6651" d="M13 31h1" />
<path stroke="#ffa27c" d="M14 31h1" />
<path stroke="#ffa37e" d="M15 31h1" />
<path stroke="#b07159" d="M16 31h1" />
<path stroke="#030102" d="M17 31h1" />
<path stroke="#010206" d="M18 31h1" />
<path stroke="#3c2420" d="M20 31h1" />
<path stroke="#814c3d" d="M21 31h1" />
<path stroke="#513d2e" d="M22 31h1" />
<path stroke="#3e3e4d" d="M4 32h1" />
<path stroke="#131423" d="M5 32h1" />
<path stroke="#02040e" d="M7 32h2" />
<path stroke="#0c090e" d="M10 32h1" />
<path stroke="#b6785e" d="M12 32h1" />
<path stroke="#b36c54" d="M13 32h1" />
<path stroke="#ffa37f" d="M14 32h2" />
<path stroke="#d28465" d="M16 32h1" />
<path stroke="#794d3e" d="M17 32h1" />
<path stroke="#b2755f" d="M20 32h1" />
<path stroke="#f4a882" d="M21 32h1" />
<path stroke="#ebab88" d="M22 32h1" />
<path stroke="#665443" d="M23 32h1" />
<path stroke="#4b4f6b" d="M3 33h1" />
<path stroke="#8b8f9f" d="M4 33h1" />
<path stroke="#656876" d="M5 33h1" />
<path stroke="#4a4d58" d="M6 33h1" />
<path stroke="#4a4d5a" d="M7 33h1" />
<path stroke="#474b56" d="M8 33h1" />
<path stroke="#464954" d="M9 33h1" />
<path stroke="#47454e" d="M10 33h1" />
<path stroke="#a44d32" d="M12 33h1" />
<path stroke="#da7b59" d="M13 33h1" />
<path stroke="#ffa680" d="M14 33h1" />
<path stroke="#fea37e" d="M15 33h1" />
<path stroke="#fa9772" d="M16 33h1" />
<path stroke="#e69477" d="M17 33h1" />
<path stroke="#b77357" d="M20 33h1" />
<path stroke="#ffb589" d="M21 33h1" />
<path stroke="#ffb78b" d="M22 33h1" />
<path stroke="#a4765f" d="M23 33h1" />
<path stroke="#4a4d68" d="M3 34h1" />
<path stroke="#898e9b" d="M4 34h1" />
<path stroke="#868c98" d="M5 34h1" />
<path stroke="#848b96" d="M6 34h1" />
<path stroke="#838a95" d="M7 34h1" />
<path stroke="#828994" d="M8 34h1" />
<path stroke="#848b95" d="M9 34h1" />
<path stroke="#868c95" d="M10 34h1" />
<path stroke="#3d3d43" d="M11 34h1" />
<path stroke="#b25534" d="M13 34h1" />
<path stroke="#ee865a" d="M14 34h1" />
<path stroke="#ec845a" d="M15 34h1" />
<path stroke="#ea825c" d="M16 34h1" />
<path stroke="#cb7f67" d="M17 34h1" />
<path stroke="#b26c4f" d="M20 34h1" />
<path stroke="#ffb98c" d="M21 34h1" />
<path stroke="#ffb386" d="M22 34h1" />
<path stroke="#996654" d="M23 34h1" />
<path stroke="#404262" d="M3 35h1" />
<path stroke="#7e8394" d="M4 35h1" />
<path stroke="#848b97" d="M5 35h1" />
<path stroke="#828995" d="M6 35h1" />
<path stroke="#818994" d="M7 35h2" />
<path stroke="#828a95" d="M9 35h1" />
<path stroke="#858e98" d="M10 35h1" />
<path stroke="#7d848d" d="M11 35h1" />
<path stroke="#5b5b65" d="M12 35h1" />
<path stroke="#55291c" d="M14 35h1" />
<path stroke="#53291e" d="M15 35h1" />
<path stroke="#502921" d="M16 35h1" />
<path stroke="#351c1c" d="M17 35h1" />
<path stroke="#c46b46" d="M20 35h1" />
<path stroke="#f69566" d="M21 35h1" />
<path stroke="#d77550" d="M22 35h1" />
<path stroke="#4b2a23" d="M23 35h1" />
<path stroke="#313558" d="M3 36h1" />
<path stroke="#545a7d" d="M4 36h1" />
<path stroke="#787f8f" d="M5 36h1" />
<path stroke="#808793" d="M6 36h1" />
<path stroke="#818894" d="M7 36h1" />
<path stroke="#838b98" d="M8 36h1" />
<path stroke="#838c98" d="M9 36h1" />
<path stroke="#848d97" d="M10 36h1" />
<path stroke="#868f99" d="M11 36h1" />
<path stroke="#8d94a0" d="M12 36h1" />
<path stroke="#717682" d="M13 36h1" />
<path stroke="#5e3022" d="M20 36h1" />
<path stroke="#612d1c" d="M21 36h1" />
<path stroke="#3e180e" d="M22 36h1" />
<path stroke="#3a406b" d="M4 37h1" />
<path stroke="#474e72" d="M5 37h1" />
<path stroke="#464f67" d="M6 37h1" />
<path stroke="#58606e" d="M7 37h1" />
<path stroke="#858e9c" d="M8 37h1" />
<path stroke="#858e9b" d="M9 37h1" />
<path stroke="#858e99" d="M10 37h1M11 38h1M10 39h1" />
<path stroke="#868e99" d="M11 37h1M10 38h1M9 39h1" />
<path stroke="#8a919c" d="M12 37h1" />
<path stroke="#6e747e" d="M13 37h1" />
<path stroke="#151a28" d="M14 37h1" />
<path stroke="#444962" d="M15 37h1" />
<path stroke="#62657e" d="M16 37h1" />
<path stroke="#666b83" d="M17 37h1" />
<path stroke="#73788f" d="M18 37h1" />
<path stroke="#717486" d="M19 37h1" />
<path stroke="#101229" d="M6 38h1" />
<path stroke="#242834" d="M7 38h1" />
<path stroke="#858c98" d="M8 38h1" />
<path stroke="#87909c" d="M9 38h1" />
<path stroke="#89909b" d="M12 38h1" />
<path stroke="#6c727a" d="M13 38h1" />
<path stroke="#090c18" d="M14 38h1" />
<path stroke="#1c2142" d="M15 38h1" />
<path stroke="#383c5c" d="M16 38h1" />
<path stroke="#272a3d" d="M17 38h1" />
<path stroke="#636579" d="M18 38h1" />
<path stroke="#7b7d90" d="M19 38h1" />
<path stroke="#7a7c8b" d="M20 38h1" />
<path stroke="#5d6078" d="M21 38h1" />
<path stroke="#434252" d="M6 39h1" />
<path stroke="#2e2e3a" d="M7 39h1" />
<path stroke="#626570" d="M8 39h1" />
<path stroke="#858d99" d="M11 39h1" />
<path stroke="#898f9b" d="M12 39h1" />
<path stroke="#6f747d" d="M13 39h1" />
<path stroke="#090b14" d="M14 39h1" />
<path stroke="#0c1129" d="M15 39h1" />
<path stroke="#151732" d="M16 39h1" />
<path stroke="#111325" d="M17 39h1" />
<path stroke="#2e3147" d="M18 39h1" />
<path stroke="#474c69" d="M19 39h1" />
<path stroke="#444a66" d="M20 39h1" />
<path stroke="#2b3250" d="M21 39h1" />
<path stroke="#5e5e6e" d="M5 40h1" />
<path stroke="#818394" d="M6 40h1" />
<path stroke="#777a89" d="M7 40h1" />
<path stroke="#727886" d="M8 40h1" />
<path stroke="#838b99" d="M9 40h1" />
<path stroke="#828b98" d="M10 40h1" />
<path stroke="#838a99" d="M11 40h1" />
<path stroke="#828799" d="M12 40h1" />
<path stroke="#5b606c" d="M13 40h1" />
<path stroke="#0c0c1f" d="M16 40h1" />
<path stroke="#1c1f37" d="M17 40h1" />
<path stroke="#21233f" d="M18 40h1" />
<path stroke="#2b3053" d="M19 40h3M19 41h2M19 42h1" />
<path stroke="#41415a" d="M4 41h1" />
<path stroke="#6a6b86" d="M5 41h1" />
<path stroke="#74788e" d="M6 41h1" />
<path stroke="#6c738a" d="M7 41h1" />
<path stroke="#626984" d="M8 41h1" />
<path stroke="#5e6581" d="M9 41h1" />
<path stroke="#5a617e" d="M10 41h1" />
<path stroke="#575e7f" d="M11 41h1" />
<path stroke="#494b6c" d="M12 41h1" />
<path stroke="#252545" d="M16 41h1" />
<path stroke="#2d3050" d="M17 41h2M17 42h2" />
<path stroke="#2c3150" d="M21 41h1" />
<path stroke="#04060d" d="M22 41h1" />
<path stroke="#070612" d="M3 42h1" />
<path stroke="#373751" d="M4 42h1" />
<path stroke="#414564" d="M5 42h1" />
<path stroke="#454b68" d="M6 42h1" />
<path stroke="#474d6c" d="M7 42h1" />
<path stroke="#464c6e" d="M8 42h1" />
<path stroke="#474d71" d="M9 42h1" />
<path stroke="#454a70" d="M10 42h1" />
<path stroke="#363a5c" d="M11 42h1" />
<path stroke="#292c49" d="M20 42h1" />
<path stroke="#292c4c" d="M21 42h1M17 43h4" />
<path stroke="#010209" d="M4 43h1" />
<path stroke="#0b0d1e" d="M5 43h1" />
<path stroke="#30344b" d="M6 43h1" />
<path stroke="#464c6b" d="M7 43h1" />
<path stroke="#494d71" d="M8 43h1" />
<path stroke="#474d6e" d="M9 43h1" />
<path stroke="#2b3247" d="M10 43h1" />
<path stroke="#060917" d="M6 44h1" />
<path stroke="#2d3149" d="M7 44h1" />
<path stroke="#3e4160" d="M8 44h1" />
<path stroke="#292e44" d="M9 44h1" />
<path stroke="#06060a" d="M24 44h1" />
<path stroke="#0b0c12" d="M1 45h1" />
<path stroke="#060611" d="M2 45h1" />
<path stroke="#010105" d="M7 45h1" />
<path stroke="#020209" d="M8 45h1" />
<path stroke="#04040a" d="M18 45h1" />
<path stroke="#454653" d="M2 46h1" />
<path stroke="#181820" d="M3 46h1" />
<path stroke="#1a1a23" d="M4 46h1" />
<path stroke="#1b1b23" d="M5 46h1" />
<path stroke="#1b1b22" d="M6 46h1" />
<path stroke="#1b1a21" d="M7 46h1" />
<path stroke="#17151b" d="M8 46h1" />
<path stroke="#12121a" d="M18 46h7" />
<path stroke="#13131c" d="M25 46h1" />
<path stroke="#06070c" d="M26 46h1" />
<path stroke="#8e8e98" d="M2 47h1" />
<path stroke="#888a93" d="M3 47h1" />
<path stroke="#898c96" d="M4 47h1" />
<path stroke="#8c8e98" d="M5 47h1" />
<path stroke="#8e9099" d="M6 47h1" />
<path stroke="#90909a" d="M7 47h1" />
<path stroke="#7b7a83" d="M8 47h1" />
<path stroke="#0b090e" d="M9 47h1" />
<path stroke="#6e7280" d="M18 47h7" />
<path stroke="#585a69" d="M25 47h1" />
</svg>