<svg xmlns="http://www.w3.org/2000/svg" viewBox="0 -0.5 32 32" shape-rendering="crispEdges">
<metadata>Made with Pixels to Svg https://codepen.io/shshaw/pen/XbxvNj</metadata>
<path stroke="#93c62d" d="M2 0h1M2 1h1" />
<path stroke="#abd322" d="M3 0h1" />
<path stroke="#8fc125" d="M4 0h1" />
<path stroke="#4b942a" d="M5 0h1" />
<path stroke="#71ad21" d="M9 0h1" />
<path stroke="#a8ce27" d="M10 0h1" />
<path stroke="#9fc923" d="M11 0h1" />
<path stroke="#9bc725" d="M12 0h1" />
<path stroke="#a0cb29" d="M13 0h1" />
<path stroke="#99c82d" d="M19 0h1" />
<path stroke="#6ea828" d="M20 0h1" />
<path stroke="#86b623" d="M21 0h1" />
<path stroke="#9fc920" d="M22 0h1" />
<path stroke="#8cb818" d="M23 0h1" />
<path stroke="#93c21f" d="M24 0h1" />
<path stroke="#8fc612" d="M27 0h1" />
<path stroke="#5d9b20" d="M28 0h1" />
<path stroke="#549a2a" d="M29 0h1" />
<path stroke="#73b335" d="M1 1h1" />
<path stroke="#acd71e" d="M3 1h1" />
<path stroke="#94c824" d="M4 1h1" />
<path stroke="#519d2b" d="M5 1h1" />
<path stroke="#3f9034" d="M6 1h1" />
<path stroke="#5aa02a" d="M8 1h1" />
<path stroke="#8dc525" d="M9 1h1" />
<path stroke="#a5ce2b" d="M10 1h1" />
<path stroke="#a3cb22" d="M11 1h1" />
<path stroke="#a7cf27" d="M12 1h1" />
<path stroke="#94bd2b" d="M13 1h1" />
<path stroke="#84b128" d="M14 1h1" />
<path stroke="#9fc725" d="M15 1h1" />
<path stroke="#a0c81e" d="M17 1h1" />
<path stroke="#9bc621" d="M18 1h1" />
<path stroke="#79a925" d="M19 1h1" />
<path stroke="#9bcb2b" d="M20 1h1" />
<path stroke="#aad627" d="M21 1h1" />
<path stroke="#9ac422" d="M22 1h1" />
<path stroke="#9bc427" d="M23 1h1" />
<path stroke="#49871c" d="M24 1h1" />
<path stroke="#7ebc16" d="M26 1h1" />
<path stroke="#84c216" d="M27 1h1" />
<path stroke="#3f8827" d="M28 1h1M29 4h1" />
<path stroke="#277c2b" d="M29 1h1" />
<path stroke="#6bb936" d="M30 1h1" />
<path stroke="#022b19" d="M0 2h1" />
<path stroke="#4da344" d="M1 2h1" />
<path stroke="#93ca30" d="M2 2h1" />
<path stroke="#abd91e" d="M3 2h1" />
<path stroke="#a4d722" d="M4 2h1" />
<path stroke="#a8e03e" d="M5 2h1" />
<path stroke="#65a540" d="M6 2h1" />
<path stroke="#002b15" d="M7 2h1" />
<path stroke="#5e9a2b" d="M8 2h1" />
<path stroke="#79b82c" d="M9 2h1" />
<path stroke="#4c7e19" d="M10 2h1" />
<path stroke="#a2cd2c" d="M11 2h1" />
<path stroke="#a8d129" d="M12 2h1" />
<path stroke="#6ca231" d="M13 2h1" />
<path stroke="#1e641f" d="M14 2h1" />
<path stroke="#8ebd27" d="M15 2h1" />
<path stroke="#a1cc1e" d="M16 2h1" />
<path stroke="#97c71b" d="M17 2h1" />
<path stroke="#84b424" d="M18 2h1" />
<path stroke="#619732" d="M19 2h1" />
<path stroke="#8cc639" d="M20 2h1" />
<path stroke="#95c725" d="M21 2h1" />
<path stroke="#9fc916" d="M22 2h1" />
<path stroke="#a5cf20" d="M23 2h1" />
<path stroke="#317b20" d="M24 2h1" />
<path stroke="#4e9d27" d="M25 2h1" />
<path stroke="#98d917" d="M26 2h1" />
<path stroke="#4d9d18" d="M27 2h1" />
<path stroke="#29762c" d="M28 2h1" />
<path stroke="#388a29" d="M29 2h1" />
<path stroke="#448624" d="M30 2h1" />
<path stroke="#18471b" d="M31 2h1" />
<path stroke="#07301a" d="M0 3h1" />
<path stroke="#207c36" d="M1 3h1" />
<path stroke="#7cb834" d="M2 3h1" />
<path stroke="#9fd223" d="M3 3h1" />
<path stroke="#74b023" d="M4 3h1" />
<path stroke="#2d6b23" d="M5 3h1" />
<path stroke="#11541f" d="M6 3h1" />
<path stroke="#195a20" d="M7 3h1" />
<path stroke="#559c2c" d="M8 3h1" />
<path stroke="#64a328" d="M9 3h1" />
<path stroke="#92c030" d="M10 3h1" />
<path stroke="#94c220" d="M11 3h1" />
<path stroke="#9ecc23" d="M12 3h1" />
<path stroke="#609a2b" d="M13 3h1" />
<path stroke="#357923" d="M14 3h1" />
<path stroke="#9acc27" d="M15 3h1" />
<path stroke="#9aca1f" d="M16 3h1" />
<path stroke="#89be22" d="M17 3h1" />
<path stroke="#5c9729" d="M18 3h1" />
<path stroke="#175b24" d="M19 3h1" />
<path stroke="#1b682a" d="M20 3h1" />
<path stroke="#4c8722" d="M21 3h1" />
<path stroke="#9ac513" d="M22 3h1" />
<path stroke="#95c112" d="M23 3h1" />
<path stroke="#4d9830" d="M24 3h1" />
<path stroke="#358e20" d="M25 3h1" />
<path stroke="#8dd014" d="M26 3h1" />
<path stroke="#5fa821" d="M27 3h1" />
<path stroke="#145e2c" d="M28 3h1" />
<path stroke="#4c9d2c" d="M29 3h1" />
<path stroke="#275c12" d="M30 3h1" />
<path stroke="#001902" d="M31 3h1" />
<path stroke="#286330" d="M0 4h1" />
<path stroke="#14682a" d="M1 4h1" />
<path stroke="#428b30" d="M2 4h1" />
<path stroke="#6fb523" d="M3 4h1" />
<path stroke="#6db32c" d="M4 4h1" />
<path stroke="#0e491f" d="M5 4h1" />
<path stroke="#619538" d="M6 4h1" />
<path stroke="#518f2e" d="M7 4h1" />
<path stroke="#236b23" d="M8 4h1" />
<path stroke="#3d7925" d="M9 4h1" />
<path stroke="#8abe30" d="M10 4h1" />
<path stroke="#93c625" d="M11 4h1" />
<path stroke="#94c822" d="M12 4h1" />
<path stroke="#68a129" d="M13 4h1" />
<path stroke="#69a228" d="M14 4h1" />
<path stroke="#9dd029" d="M15 4h1" />
<path stroke="#7cb22b" d="M16 4h1" />
<path stroke="#5a9730" d="M17 4h1" />
<path stroke="#2c672a" d="M18 4h1" />
<path stroke="#0a4928" d="M19 4h1" />
<path stroke="#1c6b2e" d="M20 4h1" />
<path stroke="#498923" d="M21 4h1" />
<path stroke="#91bd19" d="M22 4h1" />
<path stroke="#a2cc19" d="M23 4h1" />
<path stroke="#469128" d="M24 4h1" />
<path stroke="#449c2b" d="M25 4h1" />
<path stroke="#62b025" d="M26 4h1" />
<path stroke="#438335" d="M27 4h1" />
<path stroke="#0a3e2c" d="M28 4h1" />
<path stroke="#54a60e" d="M30 4h1" />
<path stroke="#57a21e" d="M31 4h1" />
<path stroke="#318a3a" d="M0 5h1" />
<path stroke="#02491e" d="M1 5h1" />
<path stroke="#2a7633" d="M2 5h1" />
<path stroke="#3d8e33" d="M3 5h1" />
<path stroke="#428632" d="M4 5h1" />
<path stroke="#154922" d="M5 5h1" />
<path stroke="#7bb442" d="M6 5h1" />
<path stroke="#528f31" d="M7 5h1" />
<path stroke="#063e21" d="M8 5h1" />
<path stroke="#23542a" d="M9 5h1" />
<path stroke="#4c8b2e" d="M10 5h1" />
<path stroke="#73b032" d="M11 5h1" />
<path stroke="#76b32a" d="M12 5h1" />
<path stroke="#74b134" d="M13 5h1" />
<path stroke="#72b034" d="M14 5h1" />
<path stroke="#6da930" d="M15 5h1" />
<path stroke="#4e8c31" d="M16 5h1" />
<path stroke="#29622d" d="M17 5h1" />
<path stroke="#063920" d="M18 5h1" />
<path stroke="#1a562b" d="M19 5h1" />
<path stroke="#1c5e29" d="M20 5h1" />
<path stroke="#3c802a" d="M21 5h1" />
<path stroke="#5a9727" d="M22 5h1" />
<path stroke="#6ca82c" d="M23 5h1" />
<path stroke="#367f29" d="M24 5h1" />
<path stroke="#3e9627" d="M25 5h1" />
<path stroke="#419127" d="M26 5h1" />
<path stroke="#144434" d="M27 5h1" />
<path stroke="#0a2e2d" d="M28 5h1" />
<path stroke="#255c2a" d="M29 5h1" />
<path stroke="#3a8321" d="M30 5h1" />
<path stroke="#3a7e2d" d="M31 5h1" />
<path stroke="#1c732e" d="M0 6h1" />
<path stroke="#002d18" d="M1 6h1" />
<path stroke="#2d6d3a" d="M2 6h1" />
<path stroke="#1e6036" d="M3 6h1" />
<path stroke="#032e23" d="M4 6h1" />
<path stroke="#123d28" d="M5 6h1" />
<path stroke="#32752e" d="M6 6h1" />
<path stroke="#154e23" d="M7 6h1" />
<path stroke="#0c3227" d="M8 6h1" />
<path stroke="#0b3224" d="M9 6h1" />
<path stroke="#135225" d="M10 6h1" />
<path stroke="#347830" d="M11 6h1" />
<path stroke="#3d852e" d="M12 6h1" />
<path stroke="#3e8731" d="M13 6h1" />
<path stroke="#3f8831" d="M14 6h1" />
<path stroke="#2b6e25" d="M15 6h1" />
<path stroke="#1e5d28" d="M16 6h1" />
<path stroke="#07311f" d="M17 6h1" />
<path stroke="#0b2e1c" d="M18 6h1" />
<path stroke="#4c8d42" d="M19 6h1" />
<path stroke="#103f23" d="M20 6h1" />
<path stroke="#0e4729" d="M21 6h1" />
<path stroke="#0d5025" d="M22 6h1" />
<path stroke="#0e5324" d="M23 6h1" />
<path stroke="#1a6028" d="M24 6h1" />
<path stroke="#1c6d20" d="M25 6h1" />
<path stroke="#276624" d="M26 6h1" />
<path stroke="#0d2729" d="M27 6h1" />
<path stroke="#0d252e" d="M28 6h1" />
<path stroke="#102d31" d="M29 6h1" />
<path stroke="#0a3031" d="M30 6h1" />
<path stroke="#073032" d="M31 6h1" />
<path stroke="#1b642d" d="M0 7h1" />
<path stroke="#04281c" d="M1 7h1" />
<path stroke="#142a24" d="M2 7h1" />
<path stroke="#122525" d="M3 7h1" />
<path stroke="#111924" d="M4 7h1" />
<path stroke="#152824" d="M5 7h1" />
<path stroke="#386b38" d="M6 7h1" />
<path stroke="#133529" d="M7 7h1" />
<path stroke="#0b1a25" d="M8 7h1" />
<path stroke="#0b1821" d="M9 7h1" />
<path stroke="#172c25" d="M10 7h1" />
<path stroke="#123223" d="M11 7h1" />
<path stroke="#0d3a24" d="M12 7h1" />
<path stroke="#104329" d="M13 7h1" />
<path stroke="#204e2e" d="M14 7h1" />
<path stroke="#1f3928" d="M15 7h1" />
<path stroke="#0e2322" d="M16 7h1" />
<path stroke="#122327" d="M17 7h1" />
<path stroke="#0d271c" d="M18 7h1" />
<path stroke="#376336" d="M19 7h1" />
<path stroke="#0b211f" d="M20 7h1" />
<path stroke="#0b1e23" d="M21 7h1" />
<path stroke="#0c2124" d="M22 7h1" />
<path stroke="#0d2327" d="M23 7h1" />
<path stroke="#14302e" d="M24 7h1" />
<path stroke="#0d2e2b" d="M25 7h1" />
<path stroke="#122829" d="M26 7h1" />
<path stroke="#191e2b" d="M27 7h1" />
<path stroke="#101523" d="M28 7h1" />
<path stroke="#101925" d="M29 7h1" />
<path stroke="#101b2b" d="M30 7h1" />
<path stroke="#0e1c2c" d="M31 7h1" />
<path stroke="#123625" d="M0 8h1" />
<path stroke="#191f21" d="M1 8h1" />
<path stroke="#211c25" d="M2 8h1" />
<path stroke="#1a1824" d="M3 8h1" />
<path stroke="#1e1a27" d="M4 8h1" />
<path stroke="#20222d" d="M5 8h1" />
<path stroke="#344e3c" d="M6 8h1" />
<path stroke="#213132" d="M7 8h1" />
<path stroke="#191b2c" d="M8 8h1" />
<path stroke="#0e0a1c" d="M9 8h1" />
<path stroke="#130c1b" d="M10 8h1" />
<path stroke="#120c1a" d="M11 8h1" />
<path stroke="#14121f" d="M12 8h1" />
<path stroke="#151a29" d="M13 8h1" />
<path stroke="#0e182c" d="M14 8h1" />
<path stroke="#221f32" d="M15 8h1" />
<path stroke="#222134" d="M16 8h1" />
<path stroke="#1a202e" d="M17 8h1" />
<path stroke="#22211f" d="M18 8h1" />
<path stroke="#382e22" d="M19 8h1" />
<path stroke="#211b20" d="M20 8h1" />
<path stroke="#1c1927" d="M21 8h1" />
<path stroke="#1f1e2d" d="M22 8h1" />
<path stroke="#1c1f32" d="M23 8h1" />
<path stroke="#1a2031" d="M24 8h1" />
<path stroke="#171e30" d="M25 8h1" />
<path stroke="#191827" d="M26 8h1" />
<path stroke="#351b25" d="M27 8h1" />
<path stroke="#5e3737" d="M28 8h1" />
<path stroke="#3f2225" d="M29 8h1" />
<path stroke="#2a1b2b" d="M30 8h1" />
<path stroke="#201e31" d="M31 8h1" />
<path stroke="#050b13" d="M0 9h1" />
<path stroke="#2c1b20" d="M1 9h1" />
<path stroke="#613834" d="M2 9h1" />
<path stroke="#633c35" d="M3 9h1" />
<path stroke="#4c3231" d="M4 9h1" />
<path stroke="#170e1b" d="M5 9h1" />
<path stroke="#231b25" d="M6 9h1" />
<path stroke="#1b1220" d="M7 9h1" />
<path stroke="#352027" d="M8 9h1" />
<path stroke="#552d25" d="M9 9h1" />
<path stroke="#64362b" d="M10 9h1" />
<path stroke="#68392c" d="M11 9h1" />
<path stroke="#6e4033" d="M12 9h1" />
<path stroke="#4f3436" d="M13 9h1" />
<path stroke="#110e25" d="M14 9h1" />
<path stroke="#22192c" d="M15 9h1" />
<path stroke="#1f142a" d="M16 9h1" />
<path stroke="#271924" d="M17 9h1" />
<path stroke="#613c29" d="M18 9h1" />
<path stroke="#8e5a34" d="M19 9h1" />
<path stroke="#7d4d34" d="M20 9h1" />
<path stroke="#6a3f32" d="M21 9h1" />
<path stroke="#41272d" d="M22 9h1" />
<path stroke="#171329" d="M23 9h1" />
<path stroke="#1e1e2e" d="M24 9h1" />
<path stroke="#1f1828" d="M25 9h1" />
<path stroke="#27131f" d="M26 9h1" />
<path stroke="#683833" d="M27 9h1" />
<path stroke="#7a4234" d="M28 9h1" />
<path stroke="#7a4333" d="M29 9h1" />
<path stroke="#502c2b" d="M30 9h1" />
<path stroke="#1c1322" d="M31 9h1M21 18h1" />
<path stroke="#231113" d="M0 10h1" />
<path stroke="#63372d" d="M1 10h1" />
<path stroke="#764333" d="M2 10h1" />
<path stroke="#784735" d="M3 10h1" />
<path stroke="#643e30" d="M4 10h1" />
<path stroke="#452c28" d="M5 10h1" />
<path stroke="#1a0a14" d="M6 10h1" />
<path stroke="#372028" d="M7 10h1" />
<path stroke="#623c33" d="M8 10h1M4 19h1" />
<path stroke="#75422d" d="M9 10h1" />
<path stroke="#784330" d="M10 10h1" />
<path stroke="#6e3e2c" d="M11 10h1" />
<path stroke="#673c31" d="M12 10h1" />
<path stroke="#5c372e" d="M13 10h1" />
<path stroke="#583831" d="M14 10h1" />
<path stroke="#3d2528" d="M15 10h1" />
<path stroke="#331f2d" d="M16 10h1" />
<path stroke="#65362e" d="M17 10h1" />
<path stroke="#8f4f2e" d="M18 10h1" />
<path stroke="#894d2a" d="M19 10h1" />
<path stroke="#7e4c32" d="M20 10h1" />
<path stroke="#7c4b36" d="M21 10h1" />
<path stroke="#6e4236" d="M22 10h1" />
<path stroke="#492a2d" d="M23 10h1" />
<path stroke="#221723" d="M24 10h1" />
<path stroke="#452927" d="M25 10h1" />
<path stroke="#764332" d="M26 10h1" />
<path stroke="#784332" d="M27 10h1" />
<path stroke="#713e2e" d="M28 10h1" />
<path stroke="#7c4533" d="M29 10h1" />
<path stroke="#65362a" d="M30 10h1" />
<path stroke="#462a28" d="M31 10h1" />
<path stroke="#4d2420" d="M0 11h1" />
<path stroke="#834636" d="M1 11h1" />
<path stroke="#623629" d="M2 11h1" />
<path stroke="#643d2e" d="M3 11h1" />
<path stroke="#794a31" d="M4 11h1" />
<path stroke="#673f2c" d="M5 11h1" />
<path stroke="#0d030a" d="M6 11h1" />
<path stroke="#41272b" d="M7 11h1" />
<path stroke="#6c4134" d="M8 11h1" />
<path stroke="#72412d" d="M9 11h1" />
<path stroke="#724130" d="M10 11h1" />
<path stroke="#5d342a" d="M11 11h1" />
<path stroke="#3f2223" d="M12 11h1" />
<path stroke="#502c25" d="M13 11h1" />
<path stroke="#7b4b35" d="M14 11h1" />
<path stroke="#3d231f" d="M15 11h1" />
<path stroke="#38212e" d="M16 11h1" />
<path stroke="#7d4438" d="M17 11h1" />
<path stroke="#8c492b" d="M18 11h1" />
<path stroke="#844c31" d="M19 11h1" />
<path stroke="#4e2d29" d="M20 11h1" />
<path stroke="#5e3931" d="M21 11h1" />
<path stroke="#824a34" d="M22 11h1" />
<path stroke="#734233" d="M23 11h1" />
<path stroke="#1f1015" d="M24 11h1" />
<path stroke="#4d2c23" d="M25 11h1" />
<path stroke="#864e32" d="M26 11h1" />
<path stroke="#71422d" d="M27 11h1" />
<path stroke="#4d322c" d="M28 11h1" />
<path stroke="#60382e" d="M29 11h1" />
<path stroke="#774031" d="M30 11h1" />
<path stroke="#693c32" d="M31 11h1" />
<path stroke="#603530" d="M0 12h1" />
<path stroke="#794033" d="M1 12h1" />
<path stroke="#4f2a23" d="M2 12h1" />
<path stroke="#4e2e27" d="M3 12h1" />
<path stroke="#7b4b32" d="M4 12h1" />
<path stroke="#653c2d" d="M5 12h1" />
<path stroke="#0a0209" d="M6 12h1" />
<path stroke="#3f252c" d="M7 12h1" />
<path stroke="#55312d" d="M8 12h1" />
<path stroke="#6d4132" d="M9 12h1" />
<path stroke="#724131" d="M10 12h1" />
<path stroke="#683d30" d="M11 12h1" />
<path stroke="#4b2825" d="M12 12h1" />
<path stroke="#572e27" d="M13 12h1" />
<path stroke="#754634" d="M14 12h1" />
<path stroke="#382220" d="M15 12h1" />
<path stroke="#39232d" d="M16 12h1" />
<path stroke="#7a493f" d="M17 12h1" />
<path stroke="#753e2c" d="M18 12h1" />
<path stroke="#603329" d="M19 12h1" />
<path stroke="#452828" d="M20 12h1" />
<path stroke="#54312b" d="M21 12h1" />
<path stroke="#6b3829" d="M22 12h1" />
<path stroke="#64382d" d="M23 12h1" />
<path stroke="#11060d" d="M24 12h1" />
<path stroke="#442922" d="M25 12h1" />
<path stroke="#7d4a33" d="M26 12h1" />
<path stroke="#744633" d="M27 12h1" />
<path stroke="#412a28" d="M28 12h1" />
<path stroke="#5c3932" d="M29 12h1" />
<path stroke="#724437" d="M30 12h1" />
<path stroke="#442421" d="M31 12h1" />
<path stroke="#11050c" d="M0 13h1" />
<path stroke="#552b2d" d="M1 13h1" />
<path stroke="#673831" d="M2 13h1" />
<path stroke="#734535" d="M3 13h1" />
<path stroke="#663c32" d="M4 13h1" />
<path stroke="#210a0e" d="M5 13h1" />
<path stroke="#000001" d="M6 13h1" />
<path stroke="#0d040c" d="M7 13h1" />
<path stroke="#2b151f" d="M8 13h1" />
<path stroke="#472729" d="M9 13h1" />
<path stroke="#6d423a" d="M10 13h1" />
<path stroke="#734438" d="M11 13h1" />
<path stroke="#6f4136" d="M12 13h1" />
<path stroke="#6d3f34" d="M13 13h1" />
<path stroke="#673f33" d="M14 13h1" />
<path stroke="#1b0e10" d="M15 13h1" />
<path stroke="#170c1a" d="M16 13h1" />
<path stroke="#47272d" d="M17 13h1" />
<path stroke="#76463e" d="M18 13h1" />
<path stroke="#754539" d="M19 13h1" />
<path stroke="#76473d" d="M20 13h1" />
<path stroke="#73463d" d="M21 13h1" />
<path stroke="#4e2927" d="M22 13h1" />
<path stroke="#442427" d="M23 13h1" />
<path stroke="#020003" d="M24 13h1" />
<path stroke="#221114" d="M25 13h1" />
<path stroke="#4f2b28" d="M26 13h1" />
<path stroke="#734136" d="M27 13h1" />
<path stroke="#6d3d35" d="M28 13h1" />
<path stroke="#5d3230" d="M29 13h1" />
<path stroke="#462529" d="M30 13h1" />
<path stroke="#120909" d="M31 13h1" />
<path stroke="#030206" d="M0 14h1" />
<path stroke="#311829" d="M1 14h1" />
<path stroke="#4d2a35" d="M2 14h1" />
<path stroke="#4f2b33" d="M3 14h1" />
<path stroke="#2e1321" d="M4 14h1" />
<path stroke="#0d0212" d="M5 14h1" />
<path stroke="#150918" d="M6 14h1" />
<path stroke="#0b030c" d="M7 14h1" />
<path stroke="#0d030d" d="M8 14h1" />
<path stroke="#200e17" d="M9 14h1" />
<path stroke="#412328" d="M10 14h1" />
<path stroke="#53312e" d="M11 14h1" />
<path stroke="#5d3632" d="M12 14h1" />
<path stroke="#52312d" d="M13 14h1" />
<path stroke="#29191a" d="M14 14h1" />
<path stroke="#10070d" d="M15 14h1" />
<path stroke="#100713" d="M16 14h1" />
<path stroke="#23121f" d="M17 14h1M18 16h1" />
<path stroke="#3f2228" d="M18 14h1" />
<path stroke="#5a3435" d="M19 14h1" />
<path stroke="#5f3838" d="M20 14h1" />
<path stroke="#502d31" d="M21 14h1" />
<path stroke="#361e28" d="M22 14h1" />
<path stroke="#23111e" d="M23 14h1" />
<path stroke="#110712" d="M24 14h1" />
<path stroke="#130a14" d="M25 14h1" />
<path stroke="#1e0b17" d="M26 14h1" />
<path stroke="#3d1c21" d="M27 14h1" />
<path stroke="#492127" d="M28 14h1" />
<path stroke="#35151e" d="M29 14h1" />
<path stroke="#200b17" d="M30 14h1" />
<path stroke="#030304" d="M31 14h1" />
<path stroke="#0c100b" d="M0 15h1" />
<path stroke="#07010b" d="M1 15h1M13 16h1" />
<path stroke="#120718" d="M2 15h1" />
<path stroke="#14091c" d="M3 15h1" />
<path stroke="#231222" d="M4 15h1" />
<path stroke="#3f242d" d="M5 15h1" />
<path stroke="#4c2d36" d="M6 15h1" />
<path stroke="#351f2c" d="M7 15h1" />
<path stroke="#0e0611" d="M8 15h1" />
<path stroke="#020103" d="M9 15h1" />
<path stroke="#100510" d="M10 15h1" />
<path stroke="#200d17" d="M11 15h1" />
<path stroke="#29131b" d="M12 15h1" />
<path stroke="#23121a" d="M13 15h1" />
<path stroke="#040206" d="M14 15h1" />
<path stroke="#281a20" d="M15 15h1" />
<path stroke="#331f28" d="M16 15h1" />
<path stroke="#1e0e1a" d="M17 15h1" />
<path stroke="#0e030e" d="M18 15h1" />
<path stroke="#1f101a" d="M19 15h1" />
<path stroke="#2c1822" d="M20 15h1" />
<path stroke="#301b27" d="M21 15h1" />
<path stroke="#1b0c1c" d="M22 15h1" />
<path stroke="#241222" d="M23 15h1" />
<path stroke="#180e1e" d="M26 15h1" />
<path stroke="#0d0b1c" d="M27 15h1" />
<path stroke="#0d0a1b" d="M28 15h1" />
<path stroke="#120b18" d="M29 15h1" />
<path stroke="#06050e" d="M30 15h1" />
<path stroke="#0b1009" d="M0 16h1" />
<path stroke="#090106" d="M1 16h1" />
<path stroke="#1b0c10" d="M2 16h1" />
<path stroke="#1b0e14" d="M3 16h1" />
<path stroke="#3a2328" d="M4 16h1" />
<path stroke="#663e36" d="M5 16h1" />
<path stroke="#653e37" d="M6 16h1" />
<path stroke="#432a31" d="M7 16h1" />
<path stroke="#3c2731" d="M8 16h1" />
<path stroke="#35222a" d="M9 16h1" />
<path stroke="#06020b" d="M10 16h1M0 23h1M0 24h1" />
<path stroke="#07020e" d="M11 16h1" />
<path stroke="#06010b" d="M12 16h1" />
<path stroke="#311b24" d="M14 16h1" />
<path stroke="#5d3e3f" d="M15 16h1" />
<path stroke="#644345" d="M16 16h1" />
<path stroke="#472c36" d="M17 16h1" />
<path stroke="#030105" d="M19 16h1" />
<path stroke="#0e0612" d="M20 16h1" />
<path stroke="#150b18" d="M21 16h1" />
<path stroke="#201527" d="M22 16h1" />
<path stroke="#060607" d="M0 17h1" />
<path stroke="#2a101f" d="M1 17h1" />
<path stroke="#5e3331" d="M2 17h1" />
<path stroke="#6d4133" d="M3 17h1" />
<path stroke="#6b4033" d="M4 17h1" />
<path stroke="#673c32" d="M5 17h1" />
<path stroke="#5b3330" d="M6 17h1" />
<path stroke="#412932" d="M7 17h1" />
<path stroke="#422d35" d="M8 17h1" />
<path stroke="#473235" d="M9 17h1" />
<path stroke="#33232e" d="M10 17h1" />
<path stroke="#1e1222" d="M11 17h1" />
<path stroke="#311b29" d="M12 17h1" />
<path stroke="#452b34" d="M13 17h1" />
<path stroke="#4a3036" d="M14 17h1" />
<path stroke="#583d3f" d="M15 17h1" />
<path stroke="#5e3e42" d="M16 17h1" />
<path stroke="#442a35" d="M17 17h1" />
<path stroke="#33202c" d="M18 17h1" />
<path stroke="#140613" d="M19 17h1" />
<path stroke="#281a28" d="M20 17h1" />
<path stroke="#322735" d="M21 17h1" />
<path stroke="#2c2031" d="M22 17h1" />
<path stroke="#030106" d="M0 18h1" />
<path stroke="#2d1528" d="M1 18h1" />
<path stroke="#4b292d" d="M2 18h1" />
<path stroke="#673c30" d="M3 18h1" />
<path stroke="#714032" d="M4 18h1" />
<path stroke="#6c3e33" d="M5 18h1" />
<path stroke="#603632" d="M6 18h1" />
<path stroke="#422933" d="M7 18h1" />
<path stroke="#3e2b35" d="M8 18h1" />
<path stroke="#432e36" d="M9 18h1" />
<path stroke="#2a1c2a" d="M10 18h1" />
<path stroke="#090418" d="M11 18h1" />
<path stroke="#291724" d="M12 18h1" />
<path stroke="#361e29" d="M13 18h1" />
<path stroke="#39242e" d="M14 18h1" />
<path stroke="#3d2731" d="M15 18h1" />
<path stroke="#3a242e" d="M16 18h1" />
<path stroke="#392331" d="M17 18h1" />
<path stroke="#301e2a" d="M18 18h1" />
<path stroke="#09030c" d="M19 18h1" />
<path stroke="#1a101c" d="M20 18h1" />
<path stroke="#14091a" d="M0 19h1" />
<path stroke="#2c182b" d="M1 19h1" />
<path stroke="#351e2b" d="M2 19h1" />
<path stroke="#503331" d="M3 19h1" />
<path stroke="#683e35" d="M5 19h1" />
<path stroke="#633a39" d="M6 19h1" />
<path stroke="#412a34" d="M7 19h1" />
<path stroke="#2b1b2a" d="M8 19h1" />
<path stroke="#281928" d="M9 19h1" />
<path stroke="#1a1023" d="M10 19h1" />
<path stroke="#01010b" d="M11 19h1" />
<path stroke="#120717" d="M12 19h1" />
<path stroke="#241424" d="M13 19h1" />
<path stroke="#221223" d="M14 19h1" />
<path stroke="#231527" d="M15 19h1" />
<path stroke="#241527" d="M16 19h1" />
<path stroke="#241425" d="M17 19h1" />
<path stroke="#231424" d="M18 19h1" />
<path stroke="#010004" d="M19 19h1M1 26h1" />
<path stroke="#0d0613" d="M20 19h1" />
<path stroke="#221124" d="M0 20h1" />
<path stroke="#2a152a" d="M1 20h1" />
<path stroke="#2d1b2b" d="M2 20h1" />
<path stroke="#422c31" d="M3 20h1" />
<path stroke="#543836" d="M4 20h1" />
<path stroke="#5e3e3f" d="M5 20h1" />
<path stroke="#3e2432" d="M6 20h1" />
<path stroke="#362333" d="M7 20h1" />
<path stroke="#301f30" d="M8 20h1" />
<path stroke="#251725" d="M9 20h1" />
<path stroke="#0e0514" d="M10 20h1" />
<path stroke="#221222" d="M11 20h1" />
<path stroke="#1b0b19" d="M12 20h1" />
<path stroke="#0a020e" d="M13 20h1" />
<path stroke="#060210" d="M14 20h1" />
<path stroke="#04010c" d="M15 20h1" />
<path stroke="#15091b" d="M16 20h1" />
<path stroke="#211024" d="M17 20h1" />
<path stroke="#06020d" d="M18 20h1M17 21h1" />
<path stroke="#190a17" d="M19 20h1" />
<path stroke="#1f0e22" d="M0 21h1" />
<path stroke="#1a0b20" d="M1 21h1" />
<path stroke="#281729" d="M2 21h1" />
<path stroke="#34222e" d="M3 21h1" />
<path stroke="#3d2a35" d="M4 21h1" />
<path stroke="#3c2935" d="M5 21h1" />
<path stroke="#311f32" d="M6 21h1" />
<path stroke="#190d1e" d="M7 21h1" />
<path stroke="#0c0515" d="M8 21h1" />
<path stroke="#150717" d="M9 21h2" />
<path stroke="#150a17" d="M14 21h1" />
<path stroke="#1f111e" d="M15 21h1" />
<path stroke="#07030c" d="M16 21h1" />
<path stroke="#1b0c1f" d="M0 22h1" />
<path stroke="#221224" d="M1 22h1" />
<path stroke="#1e1022" d="M2 22h1" />
<path stroke="#190e1f" d="M3 22h1" />
<path stroke="#130a1a" d="M4 22h1" />
<path stroke="#190e20" d="M5 22h1" />
<path stroke="#100614" d="M6 22h1" />
<path stroke="#110617" d="M7 22h1" />
<path stroke="#251723" d="M8 22h1" />
<path stroke="#3a1e2e" d="M1 23h1" />
<path stroke="#311823" d="M2 23h1" />
<path stroke="#220e18" d="M3 23h1" />
<path stroke="#200d15" d="M4 23h1" />
<path stroke="#190c18" d="M5 23h1" />
<path stroke="#020107" d="M6 23h1" />
<path stroke="#180d1f" d="M7 23h1" />
<path stroke="#422534" d="M1 24h1" />
<path stroke="#573237" d="M2 24h1" />
<path stroke="#603430" d="M3 24h1" />
<path stroke="#5e302b" d="M4 24h1" />
<path stroke="#38202b" d="M5 24h1" />
<path stroke="#241529" d="M6 24h1" />
<path stroke="#010105" d="M0 25h1" />
<path stroke="#1b1121" d="M1 25h1" />
<path stroke="#2b1c2b" d="M2 25h1" />
<path stroke="#55302d" d="M3 25h1" />
<path stroke="#64342b" d="M4 25h1" />
<path stroke="#170517" d="M5 25h1" />
<path stroke="#020005" d="M0 26h1M0 27h1" />
<path stroke="#110d20" d="M2 26h1" />
<path stroke="#2e1b24" d="M3 26h1" />
</svg>