<svg xmlns="http://www.w3.org/2000/svg" viewBox="0 -0.5 32 32" shape-rendering="crispEdges">
<metadata>Made with Pixels to Svg https://codepen.io/shshaw/pen/XbxvNj</metadata>
<path stroke="#a7a29a" d="M2 0h1" />
<path stroke="#a9a79d" d="M3 0h1" />
<path stroke="#a9a59b" d="M4 0h1" />
<path stroke="#bab5a9" d="M5 0h1" />
<path stroke="#c4c0b4" d="M6 0h1" />
<path stroke="#cec9ba" d="M8 0h1" />
<path stroke="#b1ad9f" d="M9 0h1" />
<path stroke="#b3b0a2" d="M10 0h1" />
<path stroke="#b9b3a6" d="M13 0h1" />
<path stroke="#a2998f" d="M14 0h1" />
<path stroke="#b4ada5" d="M15 0h1" />
<path stroke="#a49c9c" d="M16 0h1" />
<path stroke="#9a928d" d="M17 0h1" />
<path stroke="#aea593" d="M18 0h1" />
<path stroke="#a49b95" d="M19 0h1" />
<path stroke="#928c8e" d="M20 0h1" />
<path stroke="#c0bcab" d="M23 0h1" />
<path stroke="#c2bdac" d="M24 0h1" />
<path stroke="#bcb6a7" d="M25 0h1" />
<path stroke="#bbb5a6" d="M27 0h1" />
<path stroke="#cac4b5" d="M28 0h1" />
<path stroke="#a69f97" d="M29 0h1" />
<path stroke="#8d8784" d="M0 1h1" />
<path stroke="#797374" d="M1 1h1" />
<path stroke="#a6a29a" d="M2 1h1" />
<path stroke="#c5c3b6" d="M3 1h1" />
<path stroke="#b4b2a9" d="M4 1h1" />
<path stroke="#c1beb2" d="M5 1h1" />
<path stroke="#a9a9a1" d="M6 1h1M29 1h1" />
<path stroke="#989896" d="M7 1h1" />
<path stroke="#b7b5aa" d="M8 1h1" />
<path stroke="#bbb9ad" d="M9 1h1" />
<path stroke="#b4b4ab" d="M10 1h1" />
<path stroke="#8a898d" d="M11 1h1" />
<path stroke="#858488" d="M12 1h1" />
<path stroke="#acaaa2" d="M13 1h1" />
<path stroke="#c0bcb1" d="M14 1h1" />
<path stroke="#b1ada7" d="M15 1h1" />
<path stroke="#6f6b72" d="M16 1h1" />
<path stroke="#9f9b96" d="M17 1h1" />
<path stroke="#c4c2b9" d="M18 1h1" />
<path stroke="#bdbdb7" d="M19 1h1" />
<path stroke="#abada7" d="M20 1h1" />
<path stroke="#a7a99f" d="M21 1h1" />
<path stroke="#abad9f" d="M22 1h1" />
<path stroke="#aaac9e" d="M23 1h1" />
<path stroke="#abaca0" d="M24 1h1" />
<path stroke="#8f908b" d="M25 1h1" />
<path stroke="#95968f" d="M26 1h1" />
<path stroke="#c0bfb1" d="M27 1h1" />
<path stroke="#bbbaad" d="M28 1h1" />
<path stroke="#8e8e8e" d="M30 1h1" />
<path stroke="#8f8d8e" d="M31 1h1" />
<path stroke="#4b4e5a" d="M0 2h1" />
<path stroke="#aaa59d" d="M1 2h1" />
<path stroke="#b4b2a8" d="M2 2h1" />
<path stroke="#90908c" d="M3 2h1" />
<path stroke="#72767b" d="M4 2h1" />
<path stroke="#7d8084" d="M5 2h1" />
<path stroke="#6d727b" d="M6 2h1" />
<path stroke="#5d6374" d="M7 2h1" />
<path stroke="#6f7680" d="M8 2h1" />
<path stroke="#747b83" d="M9 2h1" />
<path stroke="#5a5f6d" d="M10 2h1" />
<path stroke="#42435a" d="M11 2h1" />
<path stroke="#555a6b" d="M12 2h1" />
<path stroke="#6c757f" d="M13 2h1" />
<path stroke="#6c7780" d="M14 2h1" />
<path stroke="#636b78" d="M15 2h1M7 9h1M5 10h1" />
<path stroke="#3f4351" d="M16 2h1" />
<path stroke="#8d8d8b" d="M17 2h1" />
<path stroke="#73787c" d="M18 2h1" />
<path stroke="#6b7279" d="M19 2h1" />
<path stroke="#6c747b" d="M20 2h1" />
<path stroke="#6e7780" d="M21 2h1M18 5h1" />
<path stroke="#6b767e" d="M22 2h1" />
<path stroke="#69757c" d="M23 2h1" />
<path stroke="#66737b" d="M24 2h1" />
<path stroke="#69757e" d="M25 2h1" />
<path stroke="#747d82" d="M26 2h1" />
<path stroke="#7e8688" d="M27 2h1" />
<path stroke="#727d83" d="M28 2h1" />
<path stroke="#6b777f" d="M29 2h1" />
<path stroke="#646e78" d="M30 2h1" />
<path stroke="#5d6572" d="M31 2h1M14 20h1" />
<path stroke="#747982" d="M0 3h1" />
<path stroke="#75787d" d="M1 3h1" />
<path stroke="#575c69" d="M2 3h1" />
<path stroke="#5e6472" d="M3 3h1" />
<path stroke="#5b5f70" d="M4 3h1" />
<path stroke="#5a6073" d="M5 3h1" />
<path stroke="#676c7d" d="M6 3h1" />
<path stroke="#545360" d="M7 3h1" />
<path stroke="#474552" d="M8 3h1" />
<path stroke="#5b5a62" d="M9 3h1" />
<path stroke="#43414e" d="M10 3h1" />
<path stroke="#2c283c" d="M11 3h1" />
<path stroke="#4f4e5d" d="M12 3h1" />
<path stroke="#6f7983" d="M13 3h1" />
<path stroke="#6a7580" d="M14 3h1" />
<path stroke="#5d6674" d="M15 3h1" />
<path stroke="#333849" d="M16 3h1" />
<path stroke="#818283" d="M17 3h1" />
<path stroke="#626872" d="M18 3h1" />
<path stroke="#5a606b" d="M19 3h1" />
<path stroke="#5c626d" d="M20 3h1" />
<path stroke="#606674" d="M21 3h1M19 8h1" />
<path stroke="#656d7a" d="M22 3h1" />
<path stroke="#68747c" d="M23 3h1" />
<path stroke="#68767d" d="M24 3h1" />
<path stroke="#6c787f" d="M25 3h1" />
<path stroke="#6c767d" d="M26 3h1" />
<path stroke="#6a747d" d="M27 3h1" />
<path stroke="#758189" d="M28 3h1" />
<path stroke="#65717b" d="M29 3h1" />
<path stroke="#4f5763" d="M30 3h1" />
<path stroke="#4a505f" d="M31 3h1M17 7h1" />
<path stroke="#374155" d="M0 4h1" />
<path stroke="#344056" d="M1 4h1" />
<path stroke="#272e46" d="M2 4h1" />
<path stroke="#2a2d43" d="M3 4h1" />
<path stroke="#505665" d="M4 4h1" />
<path stroke="#464d5e" d="M5 4h1" />
<path stroke="#5e636e" d="M6 4h1" />
<path stroke="#a1a19a" d="M7 4h1" />
<path stroke="#9e9d96" d="M8 4h1" />
<path stroke="#8b8a85" d="M9 4h1" />
<path stroke="#828282" d="M10 4h1" />
<path stroke="#303042" d="M11 4h1" />
<path stroke="#383547" d="M12 4h1" />
<path stroke="#5b6270" d="M13 4h1M15 21h1M5 22h1" />
<path stroke="#6e7b86" d="M14 4h1" />
<path stroke="#5d6977" d="M15 4h1" />
<path stroke="#313646" d="M16 4h1" />
<path stroke="#7e8185" d="M17 4h1" />
<path stroke="#666d76" d="M18 4h1" />
<path stroke="#606772" d="M19 4h1" />
<path stroke="#5f656e" d="M20 4h1" />
<path stroke="#565d69" d="M21 4h1" />
<path stroke="#565e6e" d="M22 4h1M26 16h1" />
<path stroke="#69757f" d="M23 4h1M24 6h1M11 8h1" />
<path stroke="#69777e" d="M24 4h1" />
<path stroke="#6a787f" d="M25 4h1" />
<path stroke="#636d79" d="M26 4h1" />
<path stroke="#57606d" d="M27 4h1" />
<path stroke="#717c85" d="M28 4h1" />
<path stroke="#6e7a81" d="M29 4h1M11 10h1" />
<path stroke="#515765" d="M30 4h1" />
<path stroke="#33354c" d="M31 4h1" />
<path stroke="#393d4e" d="M0 5h1" />
<path stroke="#343246" d="M1 5h1" />
<path stroke="#4b4651" d="M2 5h1" />
<path stroke="#676464" d="M3 5h1" />
<path stroke="#575c65" d="M4 5h1" />
<path stroke="#56606c" d="M5 5h1" />
<path stroke="#6d777e" d="M6 5h1" />
<path stroke="#6f7a7d" d="M7 5h1" />
<path stroke="#727c7f" d="M8 5h1" />
<path stroke="#6d787d" d="M9 5h1" />
<path stroke="#6e7880" d="M10 5h1" />
<path stroke="#454f62" d="M11 5h1" />
<path stroke="#35364b" d="M12 5h1" />
<path stroke="#4e505e" d="M13 5h1" />
<path stroke="#545f6d" d="M14 5h1" />
<path stroke="#5d6777" d="M15 5h1" />
<path stroke="#34394b" d="M16 5h1M16 10h1M17 24h1" />
<path stroke="#5b5f6a" d="M17 5h1" />
<path stroke="#646c77" d="M19 5h1M29 6h1" />
<path stroke="#6e777e" d="M20 5h1" />
<path stroke="#687177" d="M21 5h1" />
<path stroke="#3f4658" d="M22 5h1" />
<path stroke="#6d7983" d="M23 5h1" />
<path stroke="#6a777e" d="M24 5h1" />
<path stroke="#6e7a82" d="M25 5h1" />
<path stroke="#636d7c" d="M26 5h1" />
<path stroke="#495062" d="M27 5h1" />
<path stroke="#727d86" d="M28 5h1" />
<path stroke="#67717a" d="M29 5h1" />
<path stroke="#414657" d="M30 5h1M4 27h1" />
<path stroke="#404357" d="M31 5h1" />
<path stroke="#3a3644" d="M0 6h1" />
<path stroke="#5a454c" d="M1 6h1" />
<path stroke="#8d8785" d="M2 6h1" />
<path stroke="#8f9591" d="M3 6h1" />
<path stroke="#636a74" d="M4 6h1" />
<path stroke="#55606c" d="M5 6h1" />
<path stroke="#5b6470" d="M6 6h1" />
<path stroke="#5d6772" d="M7 6h1" />
<path stroke="#5f6a74" d="M8 6h1" />
<path stroke="#5c6673" d="M9 6h1" />
<path stroke="#444f63" d="M10 6h1" />
<path stroke="#444e63" d="M11 6h1" />
<path stroke="#767a82" d="M12 6h1" />
<path stroke="#878485" d="M13 6h1" />
<path stroke="#424350" d="M14 6h1" />
<path stroke="#272c3f" d="M15 6h1" />
<path stroke="#272a3c" d="M16 6h1" />
<path stroke="#515563" d="M17 6h1" />
<path stroke="#747b84" d="M18 6h1" />
<path stroke="#666d79" d="M19 6h1M19 7h1" />
<path stroke="#6c757e" d="M20 6h1" />
<path stroke="#5e676e" d="M21 6h1" />
<path stroke="#38404f" d="M22 6h1" />
<path stroke="#5f6875" d="M23 6h1" />
<path stroke="#6a7681" d="M25 6h1" />
<path stroke="#5a6378" d="M26 6h1" />
<path stroke="#43495e" d="M27 6h1" />
<path stroke="#879098" d="M28 6h1" />
<path stroke="#363d50" d="M30 6h1" />
<path stroke="#4d5266" d="M31 6h1" />
<path stroke="#353745" d="M0 7h1" />
<path stroke="#7d7777" d="M1 7h1" />
<path stroke="#747b7d" d="M2 7h1" />
<path stroke="#57646e" d="M3 7h1" />
<path stroke="#626b77" d="M4 7h1" />
<path stroke="#5e6773" d="M5 7h1" />
<path stroke="#5f6874" d="M6 7h1M8 8h1M13 11h1" />
<path stroke="#5f6873" d="M7 7h1" />
<path stroke="#626c75" d="M8 7h1" />
<path stroke="#616974" d="M9 7h1" />
<path stroke="#42495d" d="M10 7h1M7 24h1" />
<path stroke="#5b6475" d="M11 7h1" />
<path stroke="#727c85" d="M12 7h1" />
<path stroke="#81898e" d="M13 7h1" />
<path stroke="#7a828b" d="M14 7h1" />
<path stroke="#2d3346" d="M15 7h1" />
<path stroke="#171524" d="M16 7h1" />
<path stroke="#6a737e" d="M18 7h1" />
<path stroke="#5c636e" d="M20 7h1" />
<path stroke="#4b535e" d="M21 7h1" />
<path stroke="#4b515d" d="M22 7h1M18 10h1" />
<path stroke="#383e4c" d="M23 7h1" />
<path stroke="#4c5261" d="M24 7h1" />
<path stroke="#424758" d="M25 7h1M28 29h1" />
<path stroke="#303246" d="M26 7h1M27 30h1" />
<path stroke="#2b2b3d" d="M27 7h1" />
<path stroke="#434451" d="M28 7h1" />
<path stroke="#323542" d="M29 7h1" />
<path stroke="#222435" d="M30 7h1" />
<path stroke="#282b3c" d="M31 7h1" />
<path stroke="#232434" d="M0 8h1" />
<path stroke="#676971" d="M1 8h1" />
<path stroke="#5c6672" d="M2 8h1M12 11h1" />
<path stroke="#616b76" d="M3 8h1" />
<path stroke="#646d78" d="M4 8h1" />
<path stroke="#616976" d="M5 8h1M6 9h1M4 10h1" />
<path stroke="#606875" d="M6 8h1M5 9h1" />
<path stroke="#606975" d="M7 8h1M22 14h1" />
<path stroke="#57606c" d="M9 8h1" />
<path stroke="#565e6c" d="M10 8h1" />
<path stroke="#63717b" d="M12 8h1" />
<path stroke="#63707b" d="M13 8h1" />
<path stroke="#6d7b86" d="M14 8h1" />
<path stroke="#666a73" d="M15 8h1" />
<path stroke="#532b25" d="M16 8h1" />
<path stroke="#473c3e" d="M17 8h1" />
<path stroke="#414754" d="M18 8h1" />
<path stroke="#565d6a" d="M20 8h1" />
<path stroke="#525864" d="M21 8h1" />
<path stroke="#656b76" d="M22 8h1" />
<path stroke="#535866" d="M23 8h1" />
<path stroke="#5b5f6e" d="M24 8h1" />
<path stroke="#3a3e50" d="M25 8h1" />
<path stroke="#242231" d="M26 8h1" />
<path stroke="#433e49" d="M27 8h1" />
<path stroke="#433e4b" d="M28 8h1" />
<path stroke="#353341" d="M29 8h1" />
<path stroke="#362d39" d="M30 8h1" />
<path stroke="#4d3a43" d="M31 8h1" />
<path stroke="#3f353a" d="M0 9h1" />
<path stroke="#585b64" d="M1 9h1" />
<path stroke="#666e7a" d="M2 9h1" />
<path stroke="#65707a" d="M3 9h1" />
<path stroke="#616a76" d="M4 9h1" />
<path stroke="#5d6675" d="M8 9h1M10 12h1" />
<path stroke="#474f60" d="M9 9h1" />
<path stroke="#667078" d="M10 9h1" />
<path stroke="#657179" d="M11 9h1" />
<path stroke="#647078" d="M12 9h1" />
<path stroke="#646e79" d="M13 9h1" />
<path stroke="#6a7781" d="M14 9h1" />
<path stroke="#4e5561" d="M15 9h1" />
<path stroke="#503837" d="M16 9h1" />
<path stroke="#79716c" d="M17 9h1" />
<path stroke="#383d45" d="M18 9h1" />
<path stroke="#353846" d="M19 9h1" />
<path stroke="#626877" d="M20 9h1" />
<path stroke="#6f7783" d="M21 9h1" />
<path stroke="#6f7580" d="M22 9h1" />
<path stroke="#727783" d="M23 9h1" />
<path stroke="#555b6a" d="M24 9h1" />
<path stroke="#393a4c" d="M25 9h1" />
<path stroke="#494a53" d="M26 9h1" />
<path stroke="#697078" d="M27 9h1" />
<path stroke="#5f6774" d="M28 9h1M12 13h1" />
<path stroke="#4e5666" d="M29 9h1M6 23h1" />
<path stroke="#494956" d="M30 9h1" />
<path stroke="#60525b" d="M31 9h1" />
<path stroke="#6e7376" d="M0 10h1" />
<path stroke="#313343" d="M1 10h1" />
<path stroke="#303145" d="M2 10h1" />
<path stroke="#474d5d" d="M3 10h1" />
<path stroke="#616a77" d="M6 10h1" />
<path stroke="#656e7a" d="M7 10h1" />
<path stroke="#586172" d="M8 10h1" />
<path stroke="#394054" d="M9 10h1" />
<path stroke="#57606b" d="M10 10h1" />
<path stroke="#616d76" d="M12 10h1" />
<path stroke="#525e6b" d="M13 10h1" />
<path stroke="#6d7881" d="M14 10h1" />
<path stroke="#4b5362" d="M15 10h1M10 11h1M26 13h1" />
<path stroke="#6f7984" d="M17 10h1" />
<path stroke="#171928" d="M19 10h1" />
<path stroke="#343646" d="M20 10h1" />
<path stroke="#474d5a" d="M21 10h1" />
<path stroke="#4a4e5b" d="M22 10h1" />
<path stroke="#424653" d="M23 10h1" />
<path stroke="#2b2d3a" d="M24 10h1" />
<path stroke="#5e5e66" d="M25 10h1" />
<path stroke="#777d83" d="M26 10h1" />
<path stroke="#4a5461" d="M27 10h1" />
<path stroke="#4a5463" d="M28 10h1" />
<path stroke="#424a5a" d="M29 10h1" />
<path stroke="#34384b" d="M30 10h1M31 21h1M10 22h1" />
<path stroke="#4c4f5c" d="M31 10h1" />
<path stroke="#515d6a" d="M0 11h1" />
<path stroke="#4d5360" d="M1 11h1" />
<path stroke="#353543" d="M2 11h1" />
<path stroke="#464650" d="M3 11h1" />
<path stroke="#3d3f4b" d="M4 11h1" />
<path stroke="#4e5260" d="M5 11h1" />
<path stroke="#6a727f" d="M6 11h1" />
<path stroke="#66707c" d="M7 11h1" />
<path stroke="#4f5769" d="M8 11h1" />
<path stroke="#2b3147" d="M9 11h1" />
<path stroke="#606a77" d="M11 11h1" />
<path stroke="#626a78" d="M14 11h1" />
<path stroke="#394053" d="M15 11h1" />
<path stroke="#32384a" d="M16 11h1" />
<path stroke="#5e6877" d="M17 11h1" />
<path stroke="#576270" d="M18 11h1" />
<path stroke="#4f5766" d="M19 11h1M25 15h1" />
<path stroke="#1e2133" d="M20 11h1" />
<path stroke="#2b2d36" d="M21 11h1" />
<path stroke="#56565b" d="M22 11h1" />
<path stroke="#4b4b50" d="M23 11h1" />
<path stroke="#565a5f" d="M24 11h1" />
<path stroke="#767a80" d="M25 11h1" />
<path stroke="#666e78" d="M26 11h1" />
<path stroke="#495360" d="M27 11h1" />
<path stroke="#545e6a" d="M28 11h1" />
<path stroke="#474f5e" d="M29 11h1" />
<path stroke="#2e3144" d="M30 11h1" />
<path stroke="#393e4f" d="M31 11h1M0 14h1" />
<path stroke="#474f5f" d="M0 12h1" />
<path stroke="#5c646e" d="M1 12h1" />
<path stroke="#6c757c" d="M2 12h1" />
<path stroke="#6b7075" d="M3 12h1" />
<path stroke="#272532" d="M4 12h1" />
<path stroke="#222130" d="M5 12h1M24 18h1" />
<path stroke="#5e6473" d="M6 12h1" />
<path stroke="#6b7480" d="M7 12h1" />
<path stroke="#5e6674" d="M8 12h1" />
<path stroke="#515a6a" d="M9 12h1" />
<path stroke="#565f6e" d="M11 12h1M27 14h1" />
<path stroke="#666e7b" d="M12 12h1" />
<path stroke="#6d7781" d="M13 12h1" />
<path stroke="#3f495b" d="M14 12h1" />
<path stroke="#1f2134" d="M15 12h1" />
<path stroke="#2e3241" d="M16 12h1" />
<path stroke="#606c79" d="M17 12h1" />
<path stroke="#56606d" d="M18 12h1" />
<path stroke="#616a78" d="M19 12h1" />
<path stroke="#41495b" d="M20 12h1" />
<path stroke="#3d404e" d="M21 12h1" />
<path stroke="#7c8084" d="M22 12h1" />
<path stroke="#6f757a" d="M23 12h1" />
<path stroke="#676d75" d="M24 12h1" />
<path stroke="#565f69" d="M25 12h1" />
<path stroke="#4a5360" d="M26 12h1" />
<path stroke="#3d4452" d="M27 12h1" />
<path stroke="#555d6a" d="M28 12h1" />
<path stroke="#4d5363" d="M29 12h1" />
<path stroke="#34364b" d="M30 12h1" />
<path stroke="#2e3145" d="M31 12h1M4 31h1" />
<path stroke="#393f52" d="M0 13h1" />
<path stroke="#525a66" d="M1 13h1" />
<path stroke="#515764" d="M2 13h1" />
<path stroke="#5e636c" d="M3 13h1" />
<path stroke="#474c58" d="M4 13h1" />
<path stroke="#191728" d="M5 13h1" />
<path stroke="#383746" d="M6 13h1" />
<path stroke="#4f5562" d="M7 13h1" />
<path stroke="#545d69" d="M8 13h1M24 13h1" />
<path stroke="#586371" d="M9 13h1M10 17h1" />
<path stroke="#5c6774" d="M10 13h1M12 18h1" />
<path stroke="#606976" d="M11 13h1" />
<path stroke="#5b6370" d="M13 13h1" />
<path stroke="#454550" d="M14 13h1" />
<path stroke="#41252b" d="M15 13h1" />
<path stroke="#3c323a" d="M16 13h1" />
<path stroke="#566270" d="M17 13h1" />
<path stroke="#586270" d="M18 13h1" />
<path stroke="#535d6d" d="M19 13h1" />
<path stroke="#373e53" d="M20 13h1" />
<path stroke="#313647" d="M21 13h1" />
<path stroke="#606873" d="M22 13h1" />
<path stroke="#525b67" d="M23 13h1" />
<path stroke="#5a626e" d="M25 13h1" />
<path stroke="#383f4f" d="M27 13h1" />
<path stroke="#505664" d="M28 13h1" />
<path stroke="#424757" d="M29 13h1" />
<path stroke="#383c4f" d="M30 13h1" />
<path stroke="#404457" d="M31 13h1" />
<path stroke="#525866" d="M1 14h1" />
<path stroke="#4f5564" d="M2 14h1" />
<path stroke="#565b68" d="M3 14h1" />
<path stroke="#4a4e5e" d="M4 14h1M24 23h1" />
<path stroke="#211a25" d="M5 14h1" />
<path stroke="#392a2b" d="M6 14h1" />
<path stroke="#232932" d="M7 14h1" />
<path stroke="#27282e" d="M8 14h1" />
<path stroke="#29242a" d="M9 14h1" />
<path stroke="#292a35" d="M10 14h1" />
<path stroke="#2c2e3a" d="M11 14h1" />
<path stroke="#2d303d" d="M12 14h1" />
<path stroke="#2b2e39" d="M13 14h1" />
<path stroke="#5c5150" d="M14 14h1" />
<path stroke="#806863" d="M15 14h1" />
<path stroke="#423e4d" d="M16 14h1" />
<path stroke="#2a3144" d="M17 14h1" />
<path stroke="#363c4e" d="M18 14h1" />
<path stroke="#252941" d="M19 14h1" />
<path stroke="#1f2038" d="M20 14h1" />
<path stroke="#303747" d="M21 14h1" />
<path stroke="#525c68" d="M23 14h1" />
<path stroke="#515b68" d="M24 14h1M23 15h1" />
<path stroke="#505a67" d="M25 14h1" />
<path stroke="#515a68" d="M26 14h1M25 16h1M4 22h1" />
<path stroke="#464e5f" d="M28 14h1" />
<path stroke="#323647" d="M29 14h1" />
<path stroke="#2e3244" d="M30 14h1" />
<path stroke="#383d50" d="M31 14h1M29 28h1" />
<path stroke="#585b6b" d="M0 15h1" />
<path stroke="#545768" d="M1 15h1" />
<path stroke="#525768" d="M2 15h1M31 15h1M18 26h1" />
<path stroke="#474d60" d="M3 15h1" />
<path stroke="#242738" d="M4 15h1" />
<path stroke="#3d383c" d="M5 15h1" />
<path stroke="#7f7b74" d="M6 15h1" />
<path stroke="#6c777c" d="M7 15h1" />
<path stroke="#787671" d="M8 15h1" />
<path stroke="#7c6c61" d="M9 15h1" />
<path stroke="#7a7576" d="M10 15h1" />
<path stroke="#7a7a7f" d="M11 15h1" />
<path stroke="#797c81" d="M12 15h1" />
<path stroke="#808284" d="M13 15h1" />
<path stroke="#8a8a86" d="M14 15h1" />
<path stroke="#6c7179" d="M15 15h1" />
<path stroke="#4d5364" d="M16 15h1" />
<path stroke="#1e1e2c" d="M17 15h1" />
<path stroke="#120b17" d="M18 15h1" />
<path stroke="#39191c" d="M19 15h1" />
<path stroke="#452328" d="M20 15h1" />
<path stroke="#303645" d="M21 15h1" />
<path stroke="#5f6977" d="M22 15h1M5 17h1" />
<path stroke="#4e5765" d="M24 15h1" />
<path stroke="#515a69" d="M26 15h1" />
<path stroke="#525c6b" d="M27 15h1" />
<path stroke="#55606e" d="M28 15h1M28 16h1" />
<path stroke="#4a5162" d="M29 15h1" />
<path stroke="#515768" d="M30 15h1M7 19h1" />
<path stroke="#292a41" d="M0 16h1" />
<path stroke="#36394e" d="M1 16h1" />
<path stroke="#373a4d" d="M2 16h1" />
<path stroke="#292738" d="M3 16h1" />
<path stroke="#2e2a37" d="M4 16h1" />
<path stroke="#6e757c" d="M5 16h1" />
<path stroke="#555f6a" d="M6 16h1" />
<path stroke="#475464" d="M7 16h1" />
<path stroke="#44505f" d="M8 16h1" />
<path stroke="#4b5562" d="M9 16h1" />
<path stroke="#56626e" d="M10 16h2" />
<path stroke="#54606c" d="M12 16h1" />
<path stroke="#56626c" d="M13 16h1" />
<path stroke="#636d7a" d="M14 16h1" />
<path stroke="#525d6e" d="M15 16h1" />
<path stroke="#5c6473" d="M16 16h1" />
<path stroke="#616877" d="M17 16h1" />
<path stroke="#414958" d="M18 16h1" />
<path stroke="#67433d" d="M19 16h1" />
<path stroke="#62352d" d="M20 16h1" />
<path stroke="#232838" d="M21 16h1" />
<path stroke="#454c5b" d="M22 16h1" />
<path stroke="#474c5b" d="M23 16h1" />
<path stroke="#535a68" d="M24 16h1" />
<path stroke="#535c6c" d="M27 16h1" />
<path stroke="#454e60" d="M29 16h1" />
<path stroke="#394055" d="M30 16h1" />
<path stroke="#454a5f" d="M31 16h1" />
<path stroke="#150c14" d="M0 17h1" />
<path stroke="#17070b" d="M1 17h1" />
<path stroke="#0a0102" d="M2 17h1" />
<path stroke="#010000" d="M3 17h1" />
<path stroke="#3a3340" d="M4 17h1" />
<path stroke="#505a68" d="M6 17h1" />
<path stroke="#535e6c" d="M7 17h1" />
<path stroke="#465262" d="M8 17h2" />
<path stroke="#586370" d="M11 17h1" />
<path stroke="#5b6571" d="M12 17h1" />
<path stroke="#545f6c" d="M13 17h1" />
<path stroke="#444e60" d="M14 17h1" />
<path stroke="#545d70" d="M15 17h1" />
<path stroke="#535d6e" d="M16 17h2" />
<path stroke="#445367" d="M18 17h1" />
<path stroke="#3f3438" d="M19 17h1" />
<path stroke="#492e2d" d="M20 17h1" />
<path stroke="#201c29" d="M21 17h1" />
<path stroke="#1a1828" d="M22 17h1" />
<path stroke="#14142b" d="M23 17h1" />
<path stroke="#383e51" d="M24 17h1" />
<path stroke="#444c5f" d="M25 17h1" />
<path stroke="#374154" d="M26 17h1" />
<path stroke="#525a6b" d="M27 17h1" />
<path stroke="#5d6676" d="M28 17h1" />
<path stroke="#495164" d="M29 17h1" />
<path stroke="#353a51" d="M30 17h1" />
<path stroke="#25283a" d="M31 17h1M30 23h1" />
<path stroke="#432d2a" d="M0 18h1" />
<path stroke="#7a5d49" d="M1 18h1" />
<path stroke="#684b38" d="M2 18h1" />
<path stroke="#35211c" d="M3 18h1" />
<path stroke="#2a2734" d="M4 18h1" />
<path stroke="#535d6c" d="M5 18h1" />
<path stroke="#555d6c" d="M6 18h1" />
<path stroke="#586271" d="M7 18h1" />
<path stroke="#5b6575" d="M8 18h1" />
<path stroke="#475262" d="M9 18h1" />
<path stroke="#5b6572" d="M10 18h1" />
<path stroke="#5a6472" d="M11 18h1" />
<path stroke="#5a6371" d="M13 18h1" />
<path stroke="#394153" d="M14 18h1" />
<path stroke="#3d4457" d="M15 18h1" />
<path stroke="#495063" d="M16 18h1" />
<path stroke="#535b6d" d="M17 18h1" />
<path stroke="#3d475b" d="M18 18h1" />
<path stroke="#313033" d="M19 18h1" />
<path stroke="#584f45" d="M20 18h1" />
<path stroke="#6f665d" d="M21 18h1" />
<path stroke="#5a5251" d="M22 18h1" />
<path stroke="#292532" d="M23 18h1" />
<path stroke="#242837" d="M25 18h1" />
<path stroke="#181f30" d="M26 18h1" />
<path stroke="#444e5c" d="M27 18h1" />
<path stroke="#4d5564" d="M28 18h1M2 22h1M5 24h1" />
<path stroke="#414758" d="M29 18h1" />
<path stroke="#292a40" d="M30 18h1" />
<path stroke="#171321" d="M31 18h1" />
<path stroke="#574b46" d="M0 19h1" />
<path stroke="#8c8b85" d="M1 19h1" />
<path stroke="#92948f" d="M2 19h1" />
<path stroke="#80807f" d="M3 19h1" />
<path stroke="#222335" d="M4 19h1" />
<path stroke="#1e1f2e" d="M5 19h1" />
<path stroke="#424556" d="M6 19h1M11 26h1" />
<path stroke="#5f6677" d="M8 19h1" />
<path stroke="#4e5566" d="M9 19h1" />
<path stroke="#4f5867" d="M10 19h1" />
<path stroke="#5a6471" d="M11 19h1" />
<path stroke="#626c78" d="M12 19h1" />
<path stroke="#5c6572" d="M13 19h1" />
<path stroke="#495060" d="M14 19h1M1 24h1" />
<path stroke="#3c4356" d="M15 19h1" />
<path stroke="#535d70" d="M16 19h1" />
<path stroke="#4f566a" d="M17 19h1" />
<path stroke="#272d3e" d="M18 19h1" />
<path stroke="#636665" d="M19 19h1" />
<path stroke="#9b9e97" d="M20 19h1" />
<path stroke="#888986" d="M21 19h1" />
<path stroke="#838280" d="M22 19h1" />
<path stroke="#797778" d="M23 19h1" />
<path stroke="#4f4a4e" d="M24 19h1" />
<path stroke="#323038" d="M25 19h1" />
<path stroke="#282a32" d="M26 19h1" />
<path stroke="#2a2127" d="M27 19h1" />
<path stroke="#2c2a33" d="M28 19h1" />
<path stroke="#20222e" d="M29 19h1" />
<path stroke="#211e30" d="M30 19h1" />
<path stroke="#2d2b3f" d="M31 19h1" />
<path stroke="#9c9995" d="M0 20h1" />
<path stroke="#5c606b" d="M1 20h1" />
<path stroke="#414c5d" d="M2 20h1" />
<path stroke="#4b5364" d="M3 20h1" />
<path stroke="#494d5b" d="M4 20h1M9 26h1" />
<path stroke="#1a1524" d="M5 20h1" />
<path stroke="#19172a" d="M6 20h1" />
<path stroke="#212235" d="M7 20h1" />
<path stroke="#444b5e" d="M8 20h1" />
<path stroke="#4d5465" d="M9 20h1M2 24h1" />
<path stroke="#3c4254" d="M10 20h1" />
<path stroke="#58616e" d="M11 20h1" />
<path stroke="#69727c" d="M12 20h1" />
<path stroke="#5e6672" d="M13 20h1" />
<path stroke="#545e6e" d="M15 20h1" />
<path stroke="#5e6678" d="M16 20h1" />
<path stroke="#313346" d="M17 20h1M11 30h1M26 30h1" />
<path stroke="#31303a" d="M18 20h1" />
<path stroke="#7c7c7c" d="M19 20h1" />
<path stroke="#68717e" d="M20 20h1" />
<path stroke="#4b5163" d="M21 20h1" />
<path stroke="#4b5161" d="M22 20h2M24 21h2M19 25h1M21 26h1" />
<path stroke="#4e5463" d="M24 20h1" />
<path stroke="#5b6070" d="M25 20h1" />
<path stroke="#535663" d="M26 20h1" />
<path stroke="#4c333e" d="M27 20h1" />
<path stroke="#4d4349" d="M28 20h1" />
<path stroke="#474d54" d="M29 20h1" />
<path stroke="#4c4f61" d="M30 20h1" />
<path stroke="#373c4f" d="M31 20h1" />
<path stroke="#515869" d="M0 21h1" />
<path stroke="#4b5363" d="M1 21h1" />
<path stroke="#4d5565" d="M2 21h1M3 23h1M3 24h1M5 25h1" />
<path stroke="#505867" d="M3 21h1" />
<path stroke="#545b67" d="M4 21h1" />
<path stroke="#56515a" d="M5 21h1" />
<path stroke="#4f4650" d="M6 21h1" />
<path stroke="#322b39" d="M7 21h1" />
<path stroke="#191c2e" d="M8 21h1" />
<path stroke="#515c6b" d="M9 21h1" />
<path stroke="#4f5868" d="M10 21h1" />
<path stroke="#586171" d="M11 21h1" />
<path stroke="#5a6170" d="M12 21h1" />
<path stroke="#515767" d="M13 21h1" />
<path stroke="#606777" d="M14 21h1" />
<path stroke="#242534" d="M16 21h1" />
<path stroke="#2c252e" d="M17 21h1" />
<path stroke="#615c5e" d="M18 21h1" />
<path stroke="#737174" d="M19 21h1" />
<path stroke="#464c5d" d="M20 21h1" />
<path stroke="#494f5e" d="M21 21h1" />
<path stroke="#4d5261" d="M22 21h1" />
<path stroke="#4d5362" d="M23 21h1" />
<path stroke="#43495a" d="M26 21h1" />
<path stroke="#373344" d="M27 21h1" />
<path stroke="#4c4b51" d="M28 21h1" />
<path stroke="#4a4d52" d="M29 21h1" />
<path stroke="#363c4f" d="M30 21h1" />
<path stroke="#444b5c" d="M0 22h1" />
<path stroke="#4d5463" d="M1 22h1" />
<path stroke="#4e5665" d="M3 22h1M4 24h1" />
<path stroke="#606673" d="M6 22h1" />
<path stroke="#4b4e5d" d="M7 22h1" />
<path stroke="#212436" d="M8 22h1" />
<path stroke="#3e4051" d="M9 22h1" />
<path stroke="#2e3347" d="M11 22h1" />
<path stroke="#32364b" d="M12 22h1" />
<path stroke="#313447" d="M13 22h1" />
<path stroke="#323547" d="M14 22h1" />
<path stroke="#212332" d="M15 22h1" />
<path stroke="#22212a" d="M16 22h1" />
<path stroke="#6b6a6d" d="M17 22h1" />
<path stroke="#717074" d="M18 22h1" />
<path stroke="#4c4e5a" d="M19 22h1" />
<path stroke="#474c5c" d="M20 22h1M22 28h1M12 29h1" />
<path stroke="#454b5b" d="M21 22h1" />
<path stroke="#4b5160" d="M22 22h1" />
<path stroke="#4a5060" d="M23 22h1" />
<path stroke="#4b5060" d="M24 22h1" />
<path stroke="#4c5160" d="M25 22h1" />
<path stroke="#464c5c" d="M26 22h1" />
<path stroke="#333244" d="M27 22h1" />
<path stroke="#353643" d="M28 22h1" />
<path stroke="#404451" d="M29 22h1" />
<path stroke="#3f4354" d="M30 22h1" />
<path stroke="#333649" d="M31 22h1" />
<path stroke="#4d5262" d="M0 23h1" />
<path stroke="#4f5665" d="M1 23h1" />
<path stroke="#4d5464" d="M2 23h1" />
<path stroke="#4f5666" d="M4 23h1" />
<path stroke="#4c5564" d="M5 23h1" />
<path stroke="#434a5d" d="M7 23h1" />
<path stroke="#292a3d" d="M8 23h1" />
<path stroke="#15111e" d="M9 23h1" />
<path stroke="#100d1e" d="M10 23h1" />
<path stroke="#09091b" d="M11 23h1" />
<path stroke="#0b0b1c" d="M12 23h1" />
<path stroke="#0e0c1b" d="M13 23h1" />
<path stroke="#100b17" d="M14 23h1" />
<path stroke="#25242e" d="M15 23h1" />
<path stroke="#61646d" d="M16 23h1" />
<path stroke="#676b76" d="M17 23h1" />
<path stroke="#3d4150" d="M18 23h1" />
<path stroke="#36394b" d="M19 23h1" />
<path stroke="#2c3040" d="M20 23h1" />
<path stroke="#3c3f50" d="M21 23h1M0 24h1" />
<path stroke="#4a4f5f" d="M22 23h1" />
<path stroke="#474e5d" d="M23 23h1M25 23h1" />
<path stroke="#4a4e5f" d="M26 23h1M21 28h1" />
<path stroke="#242539" d="M27 23h1" />
<path stroke="#101125" d="M28 23h1" />
<path stroke="#282a3c" d="M29 23h1" />
<path stroke="#2d3042" d="M31 23h1" />
<path stroke="#525a6a" d="M6 24h1M20 27h1" />
<path stroke="#323241" d="M8 24h1" />
<path stroke="#625c5f" d="M9 24h1" />
<path stroke="#656065" d="M10 24h1" />
<path stroke="#67656b" d="M11 24h1" />
<path stroke="#505562" d="M12 24h1" />
<path stroke="#393238" d="M13 24h1" />
<path stroke="#5d3a32" d="M14 24h1" />
<path stroke="#363137" d="M15 24h1" />
<path stroke="#5c6272" d="M16 24h1" />
<path stroke="#444958" d="M18 24h1" />
<path stroke="#424555" d="M19 24h1" />
<path stroke="#2a2d3e" d="M20 24h1" />
<path stroke="#404454" d="M21 24h1" />
<path stroke="#494e5d" d="M22 24h2M22 25h1" />
<path stroke="#4a4f5e" d="M24 24h1M23 25h1M22 26h1" />
<path stroke="#4e5263" d="M25 24h1" />
<path stroke="#3f4254" d="M26 24h1" />
<path stroke="#171828" d="M27 24h1" />
<path stroke="#212130" d="M28 24h1" />
<path stroke="#1b1c2d" d="M29 24h1" />
<path stroke="#111329" d="M30 24h1M5 30h1" />
<path stroke="#23273a" d="M31 24h1" />
<path stroke="#45475b" d="M0 25h1" />
<path stroke="#4c5164" d="M1 25h1" />
<path stroke="#4c5466" d="M2 25h1" />
<path stroke="#4c5465" d="M3 25h1" />
<path stroke="#4c5464" d="M4 25h1" />
<path stroke="#3a4154" d="M6 25h1" />
<path stroke="#212539" d="M7 25h1" />
<path stroke="#434452" d="M8 25h1" />
<path stroke="#5f6068" d="M9 25h1" />
<path stroke="#4c4f5e" d="M10 25h1" />
<path stroke="#4d505f" d="M11 25h1" />
<path stroke="#414a5c" d="M12 25h1" />
<path stroke="#373642" d="M13 25h1" />
<path stroke="#55393a" d="M14 25h1" />
<path stroke="#2e2a35" d="M15 25h1" />
<path stroke="#565b6b" d="M16 25h1" />
<path stroke="#4e5262" d="M17 25h1" />
<path stroke="#505465" d="M18 25h1" />
<path stroke="#474e5e" d="M20 25h1" />
<path stroke="#4b505f" d="M21 25h1" />
<path stroke="#525665" d="M24 25h1" />
<path stroke="#565a6b" d="M25 25h1" />
<path stroke="#2d3044" d="M26 25h1" />
<path stroke="#343241" d="M27 25h1" />
<path stroke="#666572" d="M28 25h1" />
<path stroke="#454656" d="M29 25h1" />
<path stroke="#1e2035" d="M30 25h1" />
<path stroke="#15172d" d="M31 25h1" />
<path stroke="#292a38" d="M0 26h1" />
<path stroke="#2d3142" d="M1 26h1" />
<path stroke="#4e5668" d="M2 26h1M4 26h1" />
<path stroke="#4e5768" d="M3 26h1" />
<path stroke="#434c5e" d="M5 26h1" />
<path stroke="#212537" d="M6 26h1" />
<path stroke="#3a3d4c" d="M7 26h1" />
<path stroke="#5b5e6a" d="M8 26h1" />
<path stroke="#434757" d="M10 26h1" />
<path stroke="#474b5b" d="M12 26h1M12 28h1" />
<path stroke="#535461" d="M13 26h1" />
<path stroke="#221e2a" d="M14 26h1" />
<path stroke="#201f2d" d="M15 26h1" />
<path stroke="#434454" d="M16 26h1" />
<path stroke="#464a5a" d="M17 26h1M11 28h1" />
<path stroke="#4e5465" d="M19 26h1" />
<path stroke="#4c5364" d="M20 26h1" />
<path stroke="#4d5160" d="M23 26h1" />
<path stroke="#5e6171" d="M24 26h1" />
<path stroke="#505263" d="M25 26h1" />
<path stroke="#313243" d="M26 26h1" />
<path stroke="#4d4d5c" d="M27 26h1" />
<path stroke="#494b5a" d="M28 26h1" />
<path stroke="#37394c" d="M29 26h1M25 30h1" />
<path stroke="#1e1f36" d="M30 26h1" />
<path stroke="#151730" d="M31 26h1" />
<path stroke="#1f1f2b" d="M0 27h1" />
<path stroke="#2e303f" d="M1 27h1" />
<path stroke="#404657" d="M2 27h1" />
<path stroke="#434b5d" d="M3 27h1" />
<path stroke="#2a2d3d" d="M5 27h1" />
<path stroke="#323443" d="M6 27h1" />
<path stroke="#606472" d="M7 27h1" />
<path stroke="#474e5c" d="M8 27h1" />
<path stroke="#434957" d="M9 27h1" />
<path stroke="#454a58" d="M10 27h1" />
<path stroke="#444757" d="M11 27h1" />
<path stroke="#4c505f" d="M12 27h1" />
<path stroke="#585c67" d="M13 27h1" />
<path stroke="#23222e" d="M14 27h1" />
<path stroke="#090915" d="M15 27h1" />
<path stroke="#0d101e" d="M16 27h1" />
<path stroke="#131928" d="M17 27h1" />
<path stroke="#3c414f" d="M18 27h1" />
<path stroke="#535a6a" d="M19 27h1" />
<path stroke="#505667" d="M21 27h1" />
<path stroke="#4f5363" d="M22 27h1" />
<path stroke="#4f5362" d="M23 27h1" />
<path stroke="#474a5a" d="M24 27h1" />
<path stroke="#373849" d="M25 27h1" />
<path stroke="#424453" d="M26 27h1" />
<path stroke="#4f5463" d="M27 27h1" />
<path stroke="#41495a" d="M28 27h1" />
<path stroke="#3a3f52" d="M29 27h1" />
<path stroke="#202138" d="M30 27h1" />
<path stroke="#181732" d="M31 27h1" />
<path stroke="#5d5f6e" d="M0 28h1" />
<path stroke="#656673" d="M1 28h1" />
<path stroke="#151828" d="M2 28h1" />
<path stroke="#222535" d="M3 28h1" />
<path stroke="#2a2531" d="M4 28h1" />
<path stroke="#3e2c33" d="M5 28h1" />
<path stroke="#58545f" d="M6 28h1" />
<path stroke="#454b5a" d="M7 28h1" />
<path stroke="#434958" d="M8 28h2" />
<path stroke="#454a5a" d="M10 28h1" />
<path stroke="#4d505e" d="M13 28h1" />
<path stroke="#62626c" d="M14 28h1" />
<path stroke="#3a3a45" d="M15 28h1" />
<path stroke="#1c0b0b" d="M16 28h1" />
<path stroke="#38190c" d="M17 28h1" />
<path stroke="#170e11" d="M18 28h1" />
<path stroke="#494c5a" d="M19 28h1" />
<path stroke="#4e5364" d="M20 28h1" />
<path stroke="#393e4d" d="M23 28h1" />
<path stroke="#121321" d="M24 28h1" />
<path stroke="#363744" d="M25 28h1" />
<path stroke="#515663" d="M26 28h1" />
<path stroke="#3d4453" d="M27 28h1" />
<path stroke="#434a5a" d="M28 28h1M27 29h1" />
<path stroke="#22243c" d="M30 28h1" />
<path stroke="#171730" d="M31 28h1" />
<path stroke="#393d51" d="M0 29h1" />
<path stroke="#565a69" d="M1 29h1" />
<path stroke="#515565" d="M2 29h1" />
<path stroke="#555a69" d="M3 29h1" />
<path stroke="#4f4f5e" d="M4 29h1" />
<path stroke="#2d2735" d="M5 29h1" />
<path stroke="#4c4d5e" d="M6 29h1" />
<path stroke="#44495b" d="M7 29h1" />
<path stroke="#464b5c" d="M8 29h1" />
<path stroke="#424657" d="M9 29h1M13 31h1" />
<path stroke="#3d4052" d="M10 29h1" />
<path stroke="#414456" d="M11 29h1" />
<path stroke="#494d5c" d="M13 29h1" />
<path stroke="#494f5d" d="M14 29h1" />
<path stroke="#4b5261" d="M15 29h1" />
<path stroke="#695253" d="M16 29h1" />
<path stroke="#6c4033" d="M17 29h1" />
<path stroke="#180a13" d="M18 29h1" />
<path stroke="#0b040e" d="M19 29h1" />
<path stroke="#0b050c" d="M20 29h1" />
<path stroke="#181521" d="M21 29h1" />
<path stroke="#313241" d="M22 29h1" />
<path stroke="#222333" d="M23 29h1" />
<path stroke="#3d3e4b" d="M24 29h1" />
<path stroke="#5c5f6a" d="M25 29h1" />
<path stroke="#404554" d="M26 29h1" />
<path stroke="#383d51" d="M29 29h1" />
<path stroke="#23253e" d="M30 29h1" />
<path stroke="#1f2139" d="M31 29h1" />
<path stroke="#3f4356" d="M0 30h1" />
<path stroke="#464b5d" d="M1 30h1" />
<path stroke="#2e3245" d="M2 30h1" />
<path stroke="#303347" d="M3 30h1" />
<path stroke="#2b2d41" d="M4 30h1" />
<path stroke="#32354a" d="M6 30h1" />
<path stroke="#4a4d60" d="M7 30h1" />
<path stroke="#464a5c" d="M8 30h1" />
<path stroke="#373a4e" d="M9 30h1" />
<path stroke="#212438" d="M10 30h1" />
<path stroke="#494d5e" d="M12 30h1" />
<path stroke="#414555" d="M13 30h1" />
<path stroke="#444a57" d="M14 30h1" />
<path stroke="#373d4e" d="M15 30h1" />
<path stroke="#131831" d="M16 30h1" />
<path stroke="#0e1229" d="M17 30h1" />
<path stroke="#090d28" d="M18 30h1" />
<path stroke="#3d2a33" d="M19 30h1" />
<path stroke="#512d1e" d="M20 30h1" />
<path stroke="#2b272d" d="M21 30h1" />
<path stroke="#606070" d="M22 30h1" />
<path stroke="#646472" d="M23 30h1" />
<path stroke="#5a5a67" d="M24 30h1" />
<path stroke="#393c50" d="M28 30h1" />
<path stroke="#303349" d="M29 30h1" />
<path stroke="#2b2d45" d="M30 30h1" />
<path stroke="#2a2c44" d="M31 30h1" />
<path stroke="#3d4255" d="M0 31h1" />
<path stroke="#3a3f53" d="M1 31h1" />
<path stroke="#2c3144" d="M2 31h1" />
<path stroke="#2c3043" d="M3 31h1" />
<path stroke="#1a1a2e" d="M5 31h1" />
<path stroke="#1b1e31" d="M6 31h1" />
<path stroke="#4d5063" d="M7 31h1" />
<path stroke="#414457" d="M8 31h1" />
<path stroke="#282a3f" d="M9 31h1" />
<path stroke="#292b3f" d="M10 31h1" />
<path stroke="#35374c" d="M11 31h1" />
<path stroke="#404355" d="M12 31h1" />
<path stroke="#3e4252" d="M14 31h1" />
<path stroke="#1b1b27" d="M15 31h1" />
<path stroke="#010102" d="M16 31h1" />
<path stroke="#020105" d="M17 31h1" />
<path stroke="#06071b" d="M18 31h1" />
<path stroke="#393240" d="M19 31h1" />
<path stroke="#3d302b" d="M20 31h1" />
<path stroke="#0c1220" d="M21 31h1" />
<path stroke="#3d3f52" d="M22 31h1" />
<path stroke="#444557" d="M23 31h1" />
<path stroke="#383a4e" d="M24 31h1" />
<path stroke="#272a40" d="M25 31h1" />
<path stroke="#27283f" d="M26 31h1" />
<path stroke="#1e1f35" d="M27 31h1" />
<path stroke="#3e4055" d="M28 31h1" />
<path stroke="#3c3e53" d="M29 31h1" />
<path stroke="#22233c" d="M30 31h1" />
<path stroke="#1c1c33" d="M31 31h1" />
</svg>