<svg xmlns="http://www.w3.org/2000/svg" viewBox="0 -0.5 32 32" shape-rendering="crispEdges">
<metadata>Made with Pixels to Svg https://codepen.io/shshaw/pen/XbxvNj</metadata>
<path stroke="#000000" d="M12 3h7M11 4h1M19 4h1M9 5h2M20 5h2M8 6h1M22 6h1M7 7h1M23 7h1M6 8h1M24 8h1M6 9h1M24 9h1M6 10h1M24 10h1M6 11h1M24 11h1M6 12h1M24 12h1M6 13h1M24 13h1M6 14h1M24 14h1M6 15h1M24 15h1M6 16h1M24 16h1M6 17h1M24 17h1M6 18h1M24 18h1M6 19h1M24 19h1M6 20h1M24 20h1M7 21h1M23 21h1M8 22h1M22 22h1M9 23h2M20 23h2M11 24h1M19 24h1M12 25h7" />
<path stroke="#977931" d="M12 4h1" />
<path stroke="#e8e0ab" d="M13 4h1" />
<path stroke="#e5d99c" d="M14 4h1" />
<path stroke="#e4d089" d="M15 4h1" />
<path stroke="#e3c976" d="M16 4h1" />
<path stroke="#e2a32e" d="M17 4h1" />
<path stroke="#8a5d0e" d="M18 4h1" />
<path stroke="#9b6e20" d="M11 5h1" />
<path stroke="#d9c98e" d="M12 5h1" />
<path stroke="#ffffe0" d="M13 5h1" />
<path stroke="#ffffd7" d="M14 5h1" />
<path stroke="#ffffd0" d="M15 5h1" />
<path stroke="#fffcb5" d="M16 5h1" />
<path stroke="#ffe667" d="M17 5h1" />
<path stroke="#d89927" d="M18 5h1" />
<path stroke="#895a06" d="M19 5h1" />
<path stroke="#a5731b" d="M9 6h1" />
<path stroke="#e8b850" d="M10 6h1" />
<path stroke="#fbd979" d="M11 6h1" />
<path stroke="#fff0af" d="M12 6h1" />
<path stroke="#f7eab3" d="M13 6h1" />
<path stroke="#f7ecb6" d="M14 6h1" />
<path stroke="#f7ebb1" d="M15 6h1" />
<path stroke="#f8e79c" d="M16 6h1" />
<path stroke="#f7d96e" d="M17 6h1" />
<path stroke="#fed865" d="M18 6h1" />
<path stroke="#f2c052" d="M19 6h1" />
<path stroke="#e7a22e" d="M20 6h1" />
<path stroke="#834f0e" d="M21 6h1" />
<path stroke="#804b03" d="M8 7h1" />
<path stroke="#eac155" d="M9 7h1" />
<path stroke="#ffffcc" d="M10 7h1" />
<path stroke="#faed9a" d="M11 7h1" />
<path stroke="#f4b52b" d="M12 7h1" />
<path stroke="#efb137" d="M13 7h1" />
<path stroke="#eeb037" d="M14 7h1" />
<path stroke="#efb131" d="M15 7h1" />
<path stroke="#f0b12d" d="M16 7h1" />
<path stroke="#ef9f0c" d="M17 7h1" />
<path stroke="#f5d47c" d="M18 7h1" />
<path stroke="#faeba2" d="M19 7h1" />
<path stroke="#e1ab3e" d="M20 7h1" />
<path stroke="#f5af32" d="M21 7h1" />
<path stroke="#824f0c" d="M22 7h1" />
<path stroke="#4d2700" d="M7 8h1" />
<path stroke="#ebbb50" d="M8 8h1" />
<path stroke="#fff8a2" d="M9 8h1" />
<path stroke="#f5d77b" d="M10 8h1" />
<path stroke="#f3ac21" d="M11 8h1M13 19h1" />
<path stroke="#f2b33d" d="M12 8h1" />
<path stroke="#fcedbd" d="M13 8h1" />
<path stroke="#faebc1" d="M14 8h1" />
<path stroke="#faeabb" d="M15 8h1" />
<path stroke="#fcf0bc" d="M16 8h1" />
<path stroke="#efb641" d="M17 8h1" />
<path stroke="#e49009" d="M18 8h1" />
<path stroke="#eeb645" d="M19 8h1" />
<path stroke="#ffeb83" d="M20 8h1" />
<path stroke="#dc9728" d="M21 8h1" />
<path stroke="#c16403" d="M22 8h1" />
<path stroke="#7d450c" d="M23 8h1" />
<path stroke="#a87a30" d="M7 9h1" />
<path stroke="#f7d870" d="M8 9h1" />
<path stroke="#fff08a" d="M9 9h1" />
<path stroke="#f4b53c" d="M10 9h1" />
<path stroke="#f0ab33" d="M11 9h1" />
<path stroke="#fae8ae" d="M12 9h1" />
<path stroke="#f7e7b4" d="M13 9h1" />
<path stroke="#f9e9b7" d="M14 9h1" />
<path stroke="#faeab4" d="M15 9h1" />
<path stroke="#f8e59d" d="M16 9h1" />
<path stroke="#f9dc71" d="M17 9h1" />
<path stroke="#ecae2e" d="M18 9h1" />
<path stroke="#e19114" d="M19 9h1" />
<path stroke="#ffd765" d="M20 9h1" />
<path stroke="#ecc45e" d="M21 9h1" />
<path stroke="#f0ac31" d="M22 9h1" />
<path stroke="#cc7913" d="M23 9h1" />
<path stroke="#f6bc49" d="M7 10h1" />
<path stroke="#ffd55c" d="M8 10h1" />
<path stroke="#ec971f" d="M9 10h1" />
<path stroke="#f2b540" d="M10 10h1" />
<path stroke="#f5d570" d="M11 10h1" />
<path stroke="#f7e391" d="M12 10h1" />
<path stroke="#f4d674" d="M13 10h1" />
<path stroke="#f5d465" d="M14 10h1" />
<path stroke="#f8d867" d="M15 10h1" />
<path stroke="#f7d45b" d="M16 10h1" />
<path stroke="#f9db63" d="M17 10h1" />
<path stroke="#f7d04e" d="M18 10h1" />
<path stroke="#f0b535" d="M19 10h1" />
<path stroke="#dd810a" d="M20 10h1" />
<path stroke="#fcdb63" d="M21 10h1" />
<path stroke="#f6bc38" d="M22 10h1" />
<path stroke="#fc9407" d="M23 10h1" />
<path stroke="#e99517" d="M7 11h1" />
<path stroke="#ffbd38" d="M8 11h1" />
<path stroke="#e97c02" d="M9 11h1" />
<path stroke="#efb03c" d="M10 11h1" />
<path stroke="#fadf6e" d="M11 11h1" />
<path stroke="#f3cd50" d="M12 11h1" />
<path stroke="#f6d354" d="M13 11h1M13 16h1" />
<path stroke="#f8d455" d="M14 11h1" />
<path stroke="#f9d559" d="M15 11h1" />
<path stroke="#f9d657" d="M16 11h1" />
<path stroke="#f8d551" d="M17 11h1" />
<path stroke="#fad245" d="M18 11h1" />
<path stroke="#f4b530" d="M19 11h1" />
<path stroke="#d56901" d="M20 11h1" />
<path stroke="#f7c03d" d="M21 11h1" />
<path stroke="#f09f19" d="M22 11h1" />
<path stroke="#cf5d00" d="M23 11h1" />
<path stroke="#ed951a" d="M7 12h1" />
<path stroke="#feb32e" d="M8 12h1" />
<path stroke="#e97c05" d="M9 12h1" />
<path stroke="#f0a227" d="M10 12h1" />
<path stroke="#f8d557" d="M11 12h1M15 13h2" />
<path stroke="#f6d357" d="M12 12h1" />
<path stroke="#f7d557" d="M13 12h2M16 12h1M14 13h1M13 14h1" />
<path stroke="#f8d659" d="M15 12h1" />
<path stroke="#f9d859" d="M17 12h1" />
<path stroke="#f9d145" d="M18 12h1" />
<path stroke="#f1aa21" d="M19 12h1" />
<path stroke="#d16301" d="M20 12h1" />
<path stroke="#f6b733" d="M21 12h1" />
<path stroke="#f0991b" d="M22 12h1" />
<path stroke="#b54900" d="M23 12h1" />
<path stroke="#ee951b" d="M7 13h1" />
<path stroke="#feb02b" d="M8 13h1" />
<path stroke="#e97803" d="M9 13h1" />
<path stroke="#f2a82b" d="M10 13h1" />
<path stroke="#fad85a" d="M11 13h1" />
<path stroke="#f6d256" d="M12 13h1" />
<path stroke="#f7d559" d="M13 13h1" />
<path stroke="#f9d857" d="M17 13h1M17 14h1" />
<path stroke="#fad043" d="M18 13h1" />
<path stroke="#f3ab23" d="M19 13h1" />
<path stroke="#d06300" d="M20 13h1M20 14h1" />
<path stroke="#f8b536" d="M21 13h1" />
<path stroke="#ee9620" d="M22 13h1" />
<path stroke="#af4901" d="M23 13h1" />
<path stroke="#ee941b" d="M7 14h1" />
<path stroke="#ffb431" d="M8 14h1" />
<path stroke="#e67805" d="M9 14h1" />
<path stroke="#f0a628" d="M10 14h1" />
<path stroke="#f9d450" d="M11 14h1" />
<path stroke="#f7d357" d="M12 14h1" />
<path stroke="#f7d556" d="M14 14h1M13 15h1" />
<path stroke="#f7d457" d="M15 14h1" />
<path stroke="#f8d556" d="M16 14h1" />
<path stroke="#facd40" d="M18 14h1" />
<path stroke="#f2a920" d="M19 14h1" />
<path stroke="#f8b436" d="M21 14h1" />
<path stroke="#ee9422" d="M22 14h1" />
<path stroke="#ac4a02" d="M23 14h1" />
<path stroke="#e7901b" d="M7 15h1" />
<path stroke="#ffb535" d="M8 15h1" />
<path stroke="#df7205" d="M9 15h1" />
<path stroke="#ed981e" d="M10 15h1" />
<path stroke="#f7c840" d="M11 15h1" />
<path stroke="#f7d153" d="M12 15h1" />
<path stroke="#f6d455" d="M14 15h1" />
<path stroke="#f7d456" d="M15 15h1" />
<path stroke="#f7d354" d="M16 15h1" />
<path stroke="#fad756" d="M17 15h1" />
<path stroke="#fccd42" d="M18 15h1" />
<path stroke="#f4a920" d="M19 15h1" />
<path stroke="#d26200" d="M20 15h1" />
<path stroke="#f8b236" d="M21 15h1" />
<path stroke="#ee9424" d="M22 15h1" />
<path stroke="#ac4d03" d="M23 15h1" />
<path stroke="#e58d1c" d="M7 16h1" />
<path stroke="#ffb637" d="M8 16h1" />
<path stroke="#e07309" d="M9 16h1" />
<path stroke="#ec9019" d="M10 16h1" />
<path stroke="#f7bd32" d="M11 16h1" />
<path stroke="#efbf3b" d="M12 16h1" />
<path stroke="#f6d559" d="M14 16h2" />
<path stroke="#f9d656" d="M16 16h1" />
<path stroke="#f7ce46" d="M17 16h1" />
<path stroke="#f9c12c" d="M18 16h1" />
<path stroke="#f5a91c" d="M19 16h1" />
<path stroke="#d36300" d="M20 16h1" />
<path stroke="#f8b036" d="M21 16h1" />
<path stroke="#ed9324" d="M22 16h1" />
<path stroke="#af540c" d="M23 16h1" />
<path stroke="#e79521" d="M7 17h1" />
<path stroke="#ffbb3c" d="M8 17h1" />
<path stroke="#d96803" d="M9 17h1" />
<path stroke="#ed8c18" d="M10 17h1" />
<path stroke="#fcbc31" d="M11 17h1" />
<path stroke="#edb326" d="M12 17h1" />
<path stroke="#efc33c" d="M13 17h1" />
<path stroke="#f5d050" d="M14 17h1" />
<path stroke="#f5cf4c" d="M15 17h1" />
<path stroke="#f6cb42" d="M16 17h1" />
<path stroke="#f2bb26" d="M17 17h1" />
<path stroke="#faba19" d="M18 17h1" />
<path stroke="#f9ad1c" d="M19 17h1" />
<path stroke="#d15900" d="M20 17h1" />
<path stroke="#fbb33c" d="M21 17h1" />
<path stroke="#eb9428" d="M22 17h1" />
<path stroke="#b35c14" d="M23 17h1" />
<path stroke="#c77818" d="M7 18h1" />
<path stroke="#f5ac37" d="M8 18h1" />
<path stroke="#e89632" d="M9 18h1" />
<path stroke="#e58416" d="M10 18h1" />
<path stroke="#f2a122" d="M11 18h1" />
<path stroke="#f4b527" d="M12 18h1" />
<path stroke="#eeb321" d="M13 18h1" />
<path stroke="#efb526" d="M14 18h1" />
<path stroke="#f2b523" d="M15 18h1" />
<path stroke="#f3b31e" d="M16 18h1" />
<path stroke="#f5b013" d="M17 18h1" />
<path stroke="#f5a714" d="M18 18h1" />
<path stroke="#ee9313" d="M19 18h1" />
<path stroke="#dc8722" d="M20 18h1" />
<path stroke="#f8b546" d="M21 18h1" />
<path stroke="#e58521" d="M22 18h1" />
<path stroke="#a14f10" d="M23 18h1" />
<path stroke="#733001" d="M7 19h1" />
<path stroke="#de8726" d="M8 19h1" />
<path stroke="#fdc85e" d="M9 19h1" />
<path stroke="#e28d2c" d="M10 19h1" />
<path stroke="#dc7207" d="M11 19h1" />
<path stroke="#f6a826" d="M12 19h1" />
<path stroke="#f3ad20" d="M14 19h1" />
<path stroke="#f5ae21" d="M15 19h1" />
<path stroke="#f6ac21" d="M16 19h1" />
<path stroke="#f8a51c" d="M17 19h1" />
<path stroke="#e47203" d="M18 19h1" />
<path stroke="#dd6e06" d="M19 19h1" />
<path stroke="#ffd066" d="M20 19h1" />
<path stroke="#f09830" d="M21 19h1" />
<path stroke="#c25204" d="M22 19h1" />
<path stroke="#6a2701" d="M23 19h1" />
<path stroke="#2e2103" d="M7 20h1" />
<path stroke="#c37522" d="M8 20h1" />
<path stroke="#e88c21" d="M9 20h1" />
<path stroke="#fac254" d="M10 20h1" />
<path stroke="#ea9127" d="M11 20h1" />
<path stroke="#d26204" d="M12 20h1" />
<path stroke="#ed8f1c" d="M13 20h1" />
<path stroke="#e98c19" d="M14 20h1" />
<path stroke="#eb8f1b" d="M15 20h1" />
<path stroke="#f49d24" d="M16 20h1" />
<path stroke="#d66106" d="M17 20h1" />
<path stroke="#e07414" d="M18 20h1" />
<path stroke="#f8a835" d="M19 20h1" />
<path stroke="#f0972b" d="M20 20h1" />
<path stroke="#ef861f" d="M21 20h1" />
<path stroke="#943904" d="M22 20h1" />
<path stroke="#280c00" d="M23 20h1" />
<path stroke="#432a06" d="M8 21h1" />
<path stroke="#b86113" d="M9 21h1" />
<path stroke="#dd8120" d="M10 21h1" />
<path stroke="#fab041" d="M11 21h1" />
<path stroke="#e8871e" d="M12 21h1" />
<path stroke="#e28c23" d="M13 21h1" />
<path stroke="#df8624" d="M14 21h1" />
<path stroke="#dd8021" d="M15 21h1" />
<path stroke="#e1811e" d="M16 21h1" />
<path stroke="#e3801c" d="M17 21h1" />
<path stroke="#ed9022" d="M18 21h1" />
<path stroke="#f89a26" d="M19 21h1" />
<path stroke="#eb7f13" d="M20 21h1" />
<path stroke="#923502" d="M21 21h1" />
<path stroke="#490d00" d="M22 21h1" />
<path stroke="#522e05" d="M9 22h1" />
<path stroke="#9a3802" d="M10 22h1" />
<path stroke="#d17422" d="M11 22h1" />
<path stroke="#f9b03d" d="M12 22h1" />
<path stroke="#ffcc53" d="M13 22h1" />
<path stroke="#ffc952" d="M14 22h1" />
<path stroke="#ffc851" d="M15 22h1" />
<path stroke="#ffc04b" d="M16 22h1" />
<path stroke="#ffc64b" d="M17 22h1" />
<path stroke="#ec9829" d="M18 22h1" />
<path stroke="#bd5602" d="M19 22h1" />
<path stroke="#9c4706" d="M20 22h1" />
<path stroke="#501800" d="M21 22h1" />
<path stroke="#672004" d="M11 23h1" />
<path stroke="#c86313" d="M12 23h1" />
<path stroke="#d17611" d="M13 23h1" />
<path stroke="#d17614" d="M14 23h1" />
<path stroke="#d47817" d="M15 23h1" />
<path stroke="#d47814" d="M16 23h1" />
<path stroke="#d47a13" d="M17 23h1" />
<path stroke="#b05a0a" d="M18 23h1" />
<path stroke="#632700" d="M19 23h1" />
<path stroke="#5b1e01" d="M12 24h1" />
<path stroke="#5e2401" d="M13 24h1" />
<path stroke="#5a2301" d="M14 24h1" />
<path stroke="#5c2402" d="M15 24h1" />
<path stroke="#5a2202" d="M16 24h1" />
<path stroke="#562203" d="M17 24h1" />
<path stroke="#4a1a01" d="M18 24h1" />
</svg>