<svg xmlns="http://www.w3.org/2000/svg" viewBox="0 -0.5 32 48" shape-rendering="crispEdges">
<metadata>Made with Pixels to Svg https://codepen.io/shshaw/pen/XbxvNj</metadata>
<path stroke="#000000" d="M14 1h5M12 2h2M19 2h3M10 3h2M22 3h2M9 4h1M24 4h1M8 5h1M23 5h1M8 6h1M23 6h1M8 7h1M24 7h1M8 8h1M23 8h2M9 9h1M22 9h1M22 10h1M10 11h1M22 11h1M10 12h1M22 12h1M9 13h1M21 13h1M7 14h2M20 14h1M24 14h4M6 15h1M13 15h3M21 15h3M28 15h1M5 16h1M12 16h1M16 16h1M22 16h1M29 16h1M4 17h1M11 17h1M17 17h1M29 17h1M4 18h1M11 18h1M17 18h1M29 18h1M4 19h1M10 19h3M17 19h1M29 19h1M4 20h1M11 20h3M16 20h1M4 21h1M12 21h3M4 22h1M27 22h1M4 23h1M20 23h1M27 23h1M4 24h1M21 24h1M26 24h1M5 25h1M22 25h4M6 26h1M19 27h1M8 28h1M20 28h1M7 29h1M21 29h1M6 30h1M22 30h1M6 31h1M23 31h1M6 32h1M23 32h1M5 33h1M14 33h1M24 33h1M5 34h1M14 34h2M24 34h1M5 35h1M13 35h1M16 35h1M25 35h1M5 36h1M12 36h1M17 36h1M25 36h1M4 37h1M12 37h1M18 37h1M25 37h1M3 38h1M11 38h1M18 38h1M25 38h1M3 39h1M10 39h1M18 39h1M25 39h1M2 40h1M10 40h1M18 40h1M26 40h1M1 41h1M9 41h1M18 41h1M26 41h1M9 42h1M18 42h1M26 42h1M8 43h1M18 43h1M27 43h1M9 44h1M18 44h1M28 44h2M1 45h1M10 45h1M1 46h1M10 46h1M2 47h1M10 47h1M20 47h1M30 47h1" />
<path stroke="#23223c" d="M14 2h1" />
<path stroke="#2b2844" d="M15 2h1" />
<path stroke="#2b2843" d="M16 2h1" />
<path stroke="#2c2943" d="M17 2h1" />
<path stroke="#1c1c2e" d="M18 2h1" />
<path stroke="#1e1c34" d="M12 3h1" />
<path stroke="#212139" d="M13 3h1" />
<path stroke="#1a1a30" d="M14 3h1" />
<path stroke="#111127" d="M15 3h1" />
<path stroke="#15172d" d="M16 3h1" />
<path stroke="#141428" d="M17 3h1" />
<path stroke="#0f0f1f" d="M18 3h1" />
<path stroke="#26253e" d="M19 3h1" />
<path stroke="#3c3958" d="M20 3h1" />
<path stroke="#0d0d1d" d="M21 3h1" />
<path stroke="#000005" d="M10 4h1M25 43h1" />
<path stroke="#01020e" d="M11 4h1" />
<path stroke="#1b182f" d="M12 4h1" />
<path stroke="#201e36" d="M13 4h1" />
<path stroke="#161727" d="M14 4h1" />
<path stroke="#01030d" d="M15 4h1" />
<path stroke="#03061b" d="M16 4h1" />
<path stroke="#040412" d="M17 4h1" />
<path stroke="#121226" d="M18 4h1" />
<path stroke="#171830" d="M19 4h1" />
<path stroke="#14152f" d="M20 4h1" />
<path stroke="#1e1e3a" d="M21 4h1" />
<path stroke="#231e3a" d="M22 4h1" />
<path stroke="#1d1a29" d="M23 4h1" />
<path stroke="#000004" d="M9 5h1M7 44h1M24 44h1M6 45h1" />
<path stroke="#000003" d="M10 5h1M9 6h2M9 7h1M11 7h1M26 43h1M19 44h1M22 44h2M25 44h2M3 45h3M7 45h1M19 45h1" />
<path stroke="#000103" d="M11 5h1M11 6h2M12 7h1" />
<path stroke="#03030a" d="M12 5h1" />
<path stroke="#141427" d="M13 5h1" />
<path stroke="#1a192b" d="M14 5h1" />
<path stroke="#01020c" d="M15 5h1M7 43h1" />
<path stroke="#04081c" d="M16 5h1" />
<path stroke="#080c1c" d="M17 5h1" />
<path stroke="#2b2943" d="M18 5h1" />
<path stroke="#1d1d37" d="M19 5h1" />
<path stroke="#020415" d="M20 5h1" />
<path stroke="#13152e" d="M21 5h1" />
<path stroke="#16152d" d="M22 5h1" />
<path stroke="#02030c" d="M13 6h1" />
<path stroke="#050611" d="M14 6h1" />
<path stroke="#040205" d="M15 6h1" />
<path stroke="#2d1512" d="M16 6h1" />
<path stroke="#140a0f" d="M17 6h1" />
<path stroke="#1a182a" d="M18 6h1" />
<path stroke="#1a1d33" d="M19 6h1" />
<path stroke="#040617" d="M20 6h1" />
<path stroke="#090d21" d="M21 6h1" />
<path stroke="#07091c" d="M22 6h1" />
<path stroke="#000002" d="M10 7h1M10 8h1M10 9h1M20 44h2M27 44h1M20 45h1" />
<path stroke="#000104" d="M13 7h1M19 24h1M19 25h1M2 43h1" />
<path stroke="#000105" d="M14 7h1" />
<path stroke="#170909" d="M15 7h1" />
<path stroke="#b05734" d="M16 7h1" />
<path stroke="#4d1e15" d="M17 7h1" />
<path stroke="#4b2822" d="M18 7h1" />
<path stroke="#170b12" d="M19 7h1" />
<path stroke="#02030e" d="M20 7h2" />
<path stroke="#05081b" d="M22 7h1" />
<path stroke="#02060d" d="M23 7h1" />
<path stroke="#000102" d="M9 8h1" />
<path stroke="#010003" d="M11 8h1M23 18h1" />
<path stroke="#1f0d0c" d="M12 8h1" />
<path stroke="#1c0c0c" d="M13 8h1" />
<path stroke="#020105" d="M14 8h1" />
<path stroke="#14090a" d="M15 8h1" />
<path stroke="#6f3b2d" d="M16 8h1" />
<path stroke="#925848" d="M17 8h1" />
<path stroke="#2b1715" d="M18 8h1" />
<path stroke="#543127" d="M19 8h1" />
<path stroke="#8a533c" d="M20 8h1" />
<path stroke="#26120e" d="M21 8h1" />
<path stroke="#020804" d="M22 8h1" />
<path stroke="#2d1915" d="M11 9h1" />
<path stroke="#dd9672" d="M12 9h1" />
<path stroke="#c08a6f" d="M13 9h1" />
<path stroke="#130609" d="M14 9h1" />
<path stroke="#713f30" d="M15 9h1" />
<path stroke="#e3916f" d="M16 9h1" />
<path stroke="#cb8668" d="M17 9h1" />
<path stroke="#080505" d="M18 9h1" />
<path stroke="#784e3b" d="M19 9h1" />
<path stroke="#f9a271" d="M20 9h1" />
<path stroke="#4d291c" d="M21 9h1" />
<path stroke="#010201" d="M10 10h1" />
<path stroke="#483027" d="M11 10h1" />
<path stroke="#fbaf83" d="M12 10h1" />
<path stroke="#d59d80" d="M13 10h1" />
<path stroke="#341916" d="M14 10h1" />
<path stroke="#ca7756" d="M15 10h1" />
<path stroke="#fa9e75" d="M16 10h1" />
<path stroke="#d58a6b" d="M17 10h1" />
<path stroke="#0b0706" d="M18 10h1" />
<path stroke="#76503d" d="M19 10h1" />
<path stroke="#faa579" d="M20 10h1" />
<path stroke="#533124" d="M21 10h1" />
<path stroke="#2a1916" d="M11 11h1" />
<path stroke="#c48264" d="M12 11h1" />
<path stroke="#db9e7e" d="M13 11h1" />
<path stroke="#603a2f" d="M14 11h1" />
<path stroke="#fa9d75" d="M15 11h1" />
<path stroke="#fc9d75" d="M16 11h1" />
<path stroke="#ec9572" d="M17 11h1" />
<path stroke="#986351" d="M18 11h1" />
<path stroke="#c68468" d="M19 11h1" />
<path stroke="#fba37b" d="M20 11h1" />
<path stroke="#593629" d="M21 11h1" />
<path stroke="#260f0f" d="M11 12h1" />
<path stroke="#5d2721" d="M12 12h1" />
<path stroke="#70433a" d="M13 12h1" />
<path stroke="#663c30" d="M14 12h1" />
<path stroke="#ff9f76" d="M15 12h1" />
<path stroke="#fd9d76" d="M16 12h1" />
<path stroke="#fe9d76" d="M17 12h1" />
<path stroke="#ff9f79" d="M18 12h1" />
<path stroke="#ffa37c" d="M19 12h1" />
<path stroke="#e59270" d="M20 12h1" />
<path stroke="#482920" d="M21 12h1" />
<path stroke="#060818" d="M10 13h1" />
<path stroke="#3e1e22" d="M11 13h1" />
<path stroke="#993d2e" d="M12 13h1" />
<path stroke="#7b352a" d="M13 13h1" />
<path stroke="#693727" d="M14 13h1" />
<path stroke="#ee8d60" d="M15 13h1" />
<path stroke="#fb9c73" d="M16 13h1" />
<path stroke="#fd9d75" d="M17 13h1" />
<path stroke="#fda17a" d="M18 13h1" />
<path stroke="#f9a67f" d="M19 13h1" />
<path stroke="#7a523e" d="M20 13h1" />
<path stroke="#05071a" d="M9 14h1" />
<path stroke="#0c0e28" d="M10 14h1" />
<path stroke="#08091d" d="M11 14h1" />
<path stroke="#351415" d="M12 14h1" />
<path stroke="#6c2c25" d="M13 14h1" />
<path stroke="#331514" d="M14 14h1" />
<path stroke="#5f2412" d="M15 14h1" />
<path stroke="#ab5436" d="M16 14h1" />
<path stroke="#af5c3f" d="M17 14h1" />
<path stroke="#8c4f3a" d="M18 14h1" />
<path stroke="#482c23" d="M19 14h1" />
<path stroke="#1b172e" d="M7 15h1" />
<path stroke="#1a182c" d="M8 15h1" />
<path stroke="#0c0c1d" d="M9 15h1" />
<path stroke="#040515" d="M10 15h1" />
<path stroke="#0c0e27" d="M11 15h1" />
<path stroke="#0d122c" d="M12 15h1" />
<path stroke="#1d0c0b" d="M16 15h1" />
<path stroke="#0e0606" d="M17 15h1" />
<path stroke="#020103" d="M18 15h1" />
<path stroke="#04050c" d="M19 15h1M3 42h1" />
<path stroke="#040a0c" d="M20 15h1" />
<path stroke="#c87158" d="M24 15h1" />
<path stroke="#f6a183" d="M25 15h1" />
<path stroke="#feab89" d="M26 15h1" />
<path stroke="#c78a6d" d="M27 15h1" />
<path stroke="#1c1832" d="M6 16h1" />
<path stroke="#28253d" d="M7 16h1" />
<path stroke="#2a293e" d="M8 16h1" />
<path stroke="#19192d" d="M9 16h1" />
<path stroke="#010208" d="M10 16h1" />
<path stroke="#040516" d="M11 16h1" />
<path stroke="#855e50" d="M13 16h1" />
<path stroke="#f8ae8b" d="M14 16h1" />
<path stroke="#fbb08d" d="M15 16h1" />
<path stroke="#13101d" d="M17 16h1" />
<path stroke="#040619" d="M18 16h1" />
<path stroke="#050b20" d="M19 16h1" />
<path stroke="#070e23" d="M20 16h1" />
<path stroke="#070b1a" d="M21 16h1M16 22h1" />
<path stroke="#2e170e" d="M23 16h1" />
<path stroke="#9e5339" d="M24 16h1" />
<path stroke="#a9604a" d="M25 16h1" />
<path stroke="#feae81" d="M26 16h1" />
<path stroke="#ffb180" d="M27 16h1" />
<path stroke="#e7a67a" d="M28 16h1" />
<path stroke="#100e22" d="M5 17h1" />
<path stroke="#302c47" d="M6 17h1" />
<path stroke="#333147" d="M7 17h1" />
<path stroke="#323044" d="M8 17h1" />
<path stroke="#1f1f34" d="M9 17h1" />
<path stroke="#03030c" d="M10 17h1" />
<path stroke="#a76c53" d="M12 17h1" />
<path stroke="#f8a37b" d="M13 17h1" />
<path stroke="#feaa80" d="M14 17h1" />
<path stroke="#ffb088" d="M15 17h1" />
<path stroke="#916758" d="M16 17h1" />
<path stroke="#0a0d24" d="M18 17h1" />
<path stroke="#030517" d="M19 17h1" />
<path stroke="#040717" d="M20 17h1" />
<path stroke="#0a0d25" d="M21 17h1" />
<path stroke="#050617" d="M22 17h1" />
<path stroke="#1f0f0a" d="M23 17h1" />
<path stroke="#5c3726" d="M24 17h1" />
<path stroke="#915746" d="M25 17h1" />
<path stroke="#d48663" d="M26 17h1" />
<path stroke="#f8aa7a" d="M27 17h1" />
<path stroke="#f9b482" d="M28 17h1" />
<path stroke="#0a0a1e" d="M5 18h1" />
<path stroke="#2c2a46" d="M6 18h1" />
<path stroke="#3d384f" d="M7 18h1" />
<path stroke="#3f3a4e" d="M8 18h1" />
<path stroke="#232034" d="M9 18h1" />
<path stroke="#100e25" d="M10 18h1" />
<path stroke="#fea279" d="M12 18h1" />
<path stroke="#fea57b" d="M13 18h1" />
<path stroke="#fea97f" d="M14 18h1M7 23h1" />
<path stroke="#ffb189" d="M15 18h1" />
<path stroke="#b37d62" d="M16 18h1" />
<path stroke="#0b0f24" d="M18 18h1" />
<path stroke="#050717" d="M19 18h1" />
<path stroke="#030410" d="M20 18h1" />
<path stroke="#0e0e24" d="M21 18h1" />
<path stroke="#130d1b" d="M22 18h1" />
<path stroke="#010001" d="M24 18h1" />
<path stroke="#4f221c" d="M25 18h1" />
<path stroke="#722d21" d="M26 18h1" />
<path stroke="#da8159" d="M27 18h1" />
<path stroke="#d9966d" d="M28 18h1" />
<path stroke="#02020c" d="M5 19h1" />
<path stroke="#221a22" d="M6 19h1" />
<path stroke="#2d2426" d="M7 19h1" />
<path stroke="#17121b" d="M8 19h1" />
<path stroke="#0d0811" d="M9 19h1" />
<path stroke="#fea37c" d="M13 19h1" />
<path stroke="#fda47b" d="M14 19h1" />
<path stroke="#f09d79" d="M15 19h1" />
<path stroke="#c17c5e" d="M16 19h1" />
<path stroke="#0d1026" d="M18 19h1" />
<path stroke="#070918" d="M19 19h1" />
<path stroke="#020209" d="M20 19h1" />
<path stroke="#462a26" d="M21 19h1" />
<path stroke="#af6a4b" d="M22 19h1" />
<path stroke="#0a0203" d="M23 19h1" />
<path stroke="#020002" d="M24 19h1" />
<path stroke="#73382d" d="M25 19h1" />
<path stroke="#964735" d="M26 19h1" />
<path stroke="#9a4a31" d="M27 19h1" />
<path stroke="#55271b" d="M28 19h1" />
<path stroke="#64342a" d="M5 20h1" />
<path stroke="#e7a37d" d="M6 20h1" />
<path stroke="#d1a07f" d="M7 20h2" />
<path stroke="#744e42" d="M9 20h2" />
<path stroke="#cd6546" d="M14 20h1" />
<path stroke="#79382a" d="M15 20h1" />
<path stroke="#080711" d="M17 20h1" />
<path stroke="#0f1027" d="M18 20h1" />
<path stroke="#070916" d="M19 20h1" />
<path stroke="#481f1b" d="M20 20h1" />
<path stroke="#c66646" d="M21 20h1" />
<path stroke="#cf6f48" d="M22 20h1" />
<path stroke="#7e4133" d="M23 20h1" />
<path stroke="#20100e" d="M24 20h1" />
<path stroke="#020003" d="M25 20h1" />
<path stroke="#030004" d="M26 20h1" />
<path stroke="#010002" d="M27 20h1M13 22h1" />
<path stroke="#030803" d="M28 20h1" />
<path stroke="#7a3f33" d="M5 21h1" />
<path stroke="#fea980" d="M6 21h1" />
<path stroke="#fcad82" d="M7 21h1" />
<path stroke="#f4a783" d="M8 21h1" />
<path stroke="#fda981" d="M9 21h1M8 22h1" />
<path stroke="#f7a27c" d="M10 21h1" />
<path stroke="#a6644a" d="M11 21h1" />
<path stroke="#030105" d="M15 21h1" />
<path stroke="#010209" d="M16 21h1" />
<path stroke="#03040f" d="M17 21h1" />
<path stroke="#06071a" d="M18 21h1" />
<path stroke="#03040e" d="M19 21h1" />
<path stroke="#6b2d23" d="M20 21h1" />
<path stroke="#b15238" d="M21 21h1" />
<path stroke="#a64f36" d="M22 21h1" />
<path stroke="#dc704f" d="M23 21h1" />
<path stroke="#9d543e" d="M24 21h1" />
<path stroke="#391915" d="M25 21h1" />
<path stroke="#120808" d="M26 21h1" />
<path stroke="#050203" d="M27 21h1" />
<path stroke="#050f05" d="M28 21h1" />
<path stroke="#592d22" d="M5 22h1" />
<path stroke="#fca47d" d="M6 22h1" />
<path stroke="#feaa81" d="M7 22h1" />
<path stroke="#fda980" d="M9 22h1" />
<path stroke="#f69d74" d="M10 22h1" />
<path stroke="#e47d51" d="M11 22h1" />
<path stroke="#7d4632" d="M12 22h1" />
<path stroke="#020309" d="M14 22h1" />
<path stroke="#050813" d="M15 22h1" />
<path stroke="#060b19" d="M17 22h1M14 24h1M15 25h1" />
<path stroke="#060a1d" d="M18 22h1" />
<path stroke="#020208" d="M19 22h1" />
<path stroke="#7c3529" d="M20 22h1" />
<path stroke="#853b29" d="M21 22h1" />
<path stroke="#843c2b" d="M22 22h1" />
<path stroke="#d56a49" d="M23 22h1" />
<path stroke="#d36947" d="M24 22h1" />
<path stroke="#cd6244" d="M25 22h1" />
<path stroke="#c45e43" d="M26 22h1" />
<path stroke="#4b241a" d="M5 23h1" />
<path stroke="#f89e77" d="M6 23h1" />
<path stroke="#faa47d" d="M8 23h1" />
<path stroke="#ef9168" d="M9 23h1" />
<path stroke="#df764f" d="M10 23h1" />
<path stroke="#944c33" d="M11 23h1" />
<path stroke="#301b18" d="M12 23h1" />
<path stroke="#040813" d="M13 23h1" />
<path stroke="#050a18" d="M14 23h1M14 25h1" />
<path stroke="#060c1a" d="M15 23h3M15 24h3" />
<path stroke="#060b1b" d="M18 23h1M18 24h1" />
<path stroke="#010106" d="M19 23h1M2 42h1" />
<path stroke="#4e2b20" d="M21 23h1" />
<path stroke="#803c2d" d="M22 23h1" />
<path stroke="#d66849" d="M23 23h1" />
<path stroke="#d46646" d="M24 23h1" />
<path stroke="#d56445" d="M25 23h1" />
<path stroke="#b2533c" d="M26 23h1" />
<path stroke="#412017" d="M5 24h1" />
<path stroke="#ec8561" d="M6 24h1" />
<path stroke="#f08c65" d="M7 24h1" />
<path stroke="#d9704e" d="M8 24h1" />
<path stroke="#b75a3f" d="M9 24h1" />
<path stroke="#7b4334" d="M10 24h1" />
<path stroke="#12090a" d="M11 24h1" />
<path stroke="#070b19" d="M12 24h1" />
<path stroke="#060b18" d="M13 24h1" />
<path stroke="#43271b" d="M22 24h1" />
<path stroke="#bd5d44" d="M23 24h1" />
<path stroke="#cd6243" d="M24 24h1" />
<path stroke="#ba5c40" d="M25 24h1" />
<path stroke="#b96147" d="M6 25h1" />
<path stroke="#bc5a39" d="M7 25h1" />
<path stroke="#692e1d" d="M8 25h1" />
<path stroke="#11080a" d="M9 25h1" />
<path stroke="#02020a" d="M10 25h1" />
<path stroke="#040613" d="M11 25h1" />
<path stroke="#050a17" d="M12 25h1" />
<path stroke="#050a15" d="M13 25h1" />
<path stroke="#060b1a" d="M16 25h2" />
<path stroke="#060a19" d="M18 25h1" />
<path stroke="#100e05" d="M7 26h1" />
<path stroke="#040103" d="M8 26h1" />
<path stroke="#010109" d="M9 26h1M6 43h1" />
<path stroke="#01020d" d="M10 26h1" />
<path stroke="#01030f" d="M11 26h1" />
<path stroke="#030611" d="M12 26h1" />
<path stroke="#040712" d="M13 26h1" />
<path stroke="#040713" d="M14 26h1" />
<path stroke="#040815" d="M15 26h1" />
<path stroke="#050815" d="M16 26h1" />
<path stroke="#040611" d="M17 26h1" />
<path stroke="#02010a" d="M18 26h1" />
<path stroke="#010105" d="M19 26h1" />
<path stroke="#070813" d="M8 27h1" />
<path stroke="#111420" d="M9 27h1" />
<path stroke="#181b25" d="M10 27h1" />
<path stroke="#161723" d="M11 27h1" />
<path stroke="#0c0d1d" d="M12 27h1" />
<path stroke="#0d0f20" d="M13 27h1" />
<path stroke="#0e1021" d="M14 27h1" />
<path stroke="#0e101f" d="M15 27h1" />
<path stroke="#0b0c18" d="M16 27h1" />
<path stroke="#070715" d="M17 27h1" />
<path stroke="#0c0c1f" d="M18 27h1" />
<path stroke="#6d7586" d="M9 28h1" />
<path stroke="#727a89" d="M10 28h1" />
<path stroke="#6d7485" d="M11 28h1" />
<path stroke="#4f5470" d="M12 28h1" />
<path stroke="#404867" d="M13 28h1" />
<path stroke="#434967" d="M14 28h1" />
<path stroke="#4d556f" d="M15 28h1" />
<path stroke="#474e69" d="M16 28h1" />
<path stroke="#333859" d="M17 28h1" />
<path stroke="#5f647b" d="M18 28h1" />
<path stroke="#74798b" d="M19 28h1" />
<path stroke="#757e8b" d="M8 29h1" />
<path stroke="#767e8c" d="M9 29h1" />
<path stroke="#79808d" d="M10 29h1M20 31h1" />
<path stroke="#7a808d" d="M11 29h1M17 31h1" />
<path stroke="#747b89" d="M12 29h1" />
<path stroke="#7b8390" d="M13 29h1M10 32h1M9 34h1" />
<path stroke="#808794" d="M14 29h1" />
<path stroke="#7b808d" d="M15 29h1" />
<path stroke="#737785" d="M16 29h1" />
<path stroke="#797e8b" d="M17 29h1" />
<path stroke="#797e8c" d="M18 29h1" />
<path stroke="#787f8b" d="M19 29h1" />
<path stroke="#777d8b" d="M20 29h1M20 30h2M22 31h1" />
<path stroke="#6a7085" d="M7 30h1" />
<path stroke="#767f8c" d="M8 30h1" />
<path stroke="#777f8d" d="M9 30h1M19 31h1" />
<path stroke="#79818d" d="M10 30h1" />
<path stroke="#7b828d" d="M11 30h2M17 32h1" />
<path stroke="#7f8691" d="M13 30h1" />
<path stroke="#7a808c" d="M14 30h1" />
<path stroke="#7a7f8d" d="M15 30h3M12 31h1M15 31h2" />
<path stroke="#777f8c" d="M18 30h1" />
<path stroke="#767e8b" d="M19 30h1" />
<path stroke="#78808e" d="M7 31h1M18 32h1" />
<path stroke="#78818e" d="M8 31h1" />
<path stroke="#79818e" d="M9 31h1" />
<path stroke="#7a818f" d="M10 31h1M9 32h1M7 34h1M8 36h1" />
<path stroke="#7c838f" d="M11 31h1" />
<path stroke="#535777" d="M13 31h1" />
<path stroke="#464869" d="M14 31h1" />
<path stroke="#787f8d" d="M18 31h1M20 33h1M20 34h1" />
<path stroke="#6a717a" d="M21 31h1" />
<path stroke="#79818f" d="M7 32h2" />
<path stroke="#7e8591" d="M11 32h1" />
<path stroke="#808693" d="M12 32h1M12 33h1M11 34h1" />
<path stroke="#585c73" d="M13 32h1M13 33h1M12 34h2M11 35h2" />
<path stroke="#505477" d="M14 32h2M15 33h1" />
<path stroke="#7d8190" d="M16 32h1" />
<path stroke="#787f8e" d="M19 32h1" />
<path stroke="#797f8e" d="M20 32h1M21 33h1M19 34h1" />
<path stroke="#7b808e" d="M21 32h1" />
<path stroke="#777b87" d="M22 32h1" />
<path stroke="#6c7387" d="M6 33h1" />
<path stroke="#798190" d="M7 33h1" />
<path stroke="#79828f" d="M8 33h1" />
<path stroke="#7b8290" d="M9 33h1M7 35h1" />
<path stroke="#7d8492" d="M10 33h1" />
<path stroke="#7f8793" d="M11 33h1" />
<path stroke="#595c77" d="M16 33h1" />
<path stroke="#7b8190" d="M17 33h1M21 36h1" />
<path stroke="#79808f" d="M18 33h1" />
<path stroke="#787f8f" d="M19 33h1M6 35h1" />
<path stroke="#7d8391" d="M22 33h2M24 35h1" />
<path stroke="#797f90" d="M6 34h1" />
<path stroke="#7a828f" d="M8 34h1M8 35h2" />
<path stroke="#7d8592" d="M10 34h1" />
<path stroke="#43476c" d="M16 34h1" />
<path stroke="#585d78" d="M17 34h1" />
<path stroke="#757c8b" d="M18 34h1" />
<path stroke="#797f8d" d="M21 34h1M20 35h1" />
<path stroke="#7b818e" d="M22 34h1M22 35h1" />
<path stroke="#7f8490" d="M23 34h1" />
<path stroke="#7d8490" d="M10 35h1" />
<path stroke="#484d75" d="M17 35h1" />
<path stroke="#555c77" d="M18 35h1" />
<path stroke="#74798a" d="M19 35h1" />
<path stroke="#7a808e" d="M21 35h1M9 36h1" />
<path stroke="#7d848f" d="M23 35h1" />
<path stroke="#4e5571" d="M6 36h1" />
<path stroke="#71798c" d="M7 36h1" />
<path stroke="#7e8492" d="M10 36h1" />
<path stroke="#6b6e82" d="M11 36h1" />
<path stroke="#3f476d" d="M18 36h1" />
<path stroke="#4c5571" d="M19 36h1" />
<path stroke="#6d7585" d="M20 36h1" />
<path stroke="#7c8390" d="M22 36h1" />
<path stroke="#7d8291" d="M23 36h1" />
<path stroke="#484c59" d="M24 36h1" />
<path stroke="#3e4160" d="M5 37h1" />
<path stroke="#464d6d" d="M6 37h1" />
<path stroke="#4b5272" d="M7 37h1" />
<path stroke="#4c5170" d="M8 37h1" />
<path stroke="#4d5070" d="M9 37h1" />
<path stroke="#4a4b6d" d="M10 37h1" />
<path stroke="#36374f" d="M11 37h1" />
<path stroke="#363d62" d="M19 37h1" />
<path stroke="#353d5c" d="M20 37h1" />
<path stroke="#60667f" d="M21 37h1" />
<path stroke="#62697f" d="M22 37h1" />
<path stroke="#494e6b" d="M23 37h1" />
<path stroke="#353855" d="M24 37h1" />
<path stroke="#3e4461" d="M4 38h1" />
<path stroke="#464d6b" d="M5 38h1M4 40h1" />
<path stroke="#474f6b" d="M6 38h1M6 40h1" />
<path stroke="#4a5170" d="M7 38h1" />
<path stroke="#3f4665" d="M8 38h1" />
<path stroke="#383d5c" d="M9 38h1" />
<path stroke="#242743" d="M10 38h1" />
<path stroke="#2b2f50" d="M19 38h1" />
<path stroke="#232a4a" d="M20 38h1" />
<path stroke="#24294a" d="M21 38h1" />
<path stroke="#343a5d" d="M22 38h1" />
<path stroke="#393f61" d="M23 38h1" />
<path stroke="#43496a" d="M24 38h1" />
<path stroke="#454b68" d="M4 39h1" />
<path stroke="#444c69" d="M5 39h1" />
<path stroke="#464f6b" d="M6 39h1" />
<path stroke="#4a516e" d="M7 39h1" />
<path stroke="#4b5370" d="M8 39h1" />
<path stroke="#4c536f" d="M9 39h1" />
<path stroke="#22243a" d="M19 39h2" />
<path stroke="#2d3046" d="M21 39h1" />
<path stroke="#414663" d="M22 39h1" />
<path stroke="#414665" d="M23 39h1" />
<path stroke="#414765" d="M24 39h1" />
<path stroke="#474a62" d="M3 40h1" />
<path stroke="#454c6a" d="M5 40h1" />
<path stroke="#4a516d" d="M7 40h1" />
<path stroke="#4b526d" d="M8 40h1" />
<path stroke="#424962" d="M9 40h1" />
<path stroke="#2a2b48" d="M19 40h1" />
<path stroke="#3d415f" d="M20 40h1" />
<path stroke="#3e435f" d="M21 40h1" />
<path stroke="#3e4360" d="M22 40h1" />
<path stroke="#3f4461" d="M23 40h1" />
<path stroke="#3f4562" d="M24 40h1" />
<path stroke="#2a2f45" d="M25 40h1" />
<path stroke="#101321" d="M2 41h1" />
<path stroke="#3e415a" d="M3 41h1" />
<path stroke="#3f435d" d="M4 41h1" />
<path stroke="#3f445c" d="M5 41h1" />
<path stroke="#474b64" d="M6 41h1" />
<path stroke="#4b4f6b" d="M7 41h1" />
<path stroke="#484c66" d="M8 41h1" />
<path stroke="#353554" d="M19 41h1" />
<path stroke="#3a405e" d="M20 41h1" />
<path stroke="#39405d" d="M21 41h1" />
<path stroke="#3a415e" d="M22 41h1" />
<path stroke="#3c425f" d="M23 41h1" />
<path stroke="#3d435f" d="M24 41h1" />
<path stroke="#2a2e43" d="M25 41h1" />
<path stroke="#030705" d="M1 42h1" />
<path stroke="#05060c" d="M4 42h1" />
<path stroke="#05060d" d="M5 42h1" />
<path stroke="#23263a" d="M6 42h1" />
<path stroke="#3a3b57" d="M7 42h1" />
<path stroke="#222439" d="M8 42h1" />
<path stroke="#343550" d="M19 42h1" />
<path stroke="#3a3f5b" d="M20 42h1" />
<path stroke="#393f5b" d="M21 42h1" />
<path stroke="#3c405b" d="M22 42h1" />
<path stroke="#3d415c" d="M23 42h1" />
<path stroke="#2c3147" d="M24 42h1" />
<path stroke="#080a14" d="M25 42h1" />
<path stroke="#030905" d="M1 43h1" />
<path stroke="#000106" d="M3 43h1M3 44h4" />
<path stroke="#000107" d="M4 43h2" />
<path stroke="#0c0c17" d="M19 43h1" />
<path stroke="#0d0f19" d="M20 43h1" />
<path stroke="#0d0f1a" d="M21 43h1" />
<path stroke="#0e0f1b" d="M22 43h2" />
<path stroke="#070913" d="M24 43h1" />
<path stroke="#050b06" d="M1 44h1" />
<path stroke="#010104" d="M2 44h1" />
<path stroke="#0b0e14" d="M8 44h1" />
<path stroke="#25252d" d="M2 45h1" />
<path stroke="#08070e" d="M8 45h1" />
<path stroke="#11121b" d="M9 45h1" />
<path stroke="#121219" d="M21 45h4M21 46h1" />
<path stroke="#121218" d="M25 45h1" />
<path stroke="#101016" d="M26 45h1" />
<path stroke="#101015" d="M27 45h1" />
<path stroke="#17171b" d="M28 45h1" />
<path stroke="#343944" d="M29 45h1" />
<path stroke="#040d03" d="M30 45h1" />
<path stroke="#36383f" d="M2 46h1" />
<path stroke="#74757f" d="M3 46h1" />
<path stroke="#787a85" d="M4 46h1" />
<path stroke="#7a7c86" d="M5 46h1" />
<path stroke="#7e818a" d="M6 46h1" />
<path stroke="#82858f" d="M7 46h1M9 46h1" />
<path stroke="#85868f" d="M8 46h1" />
<path stroke="#000303" d="M19 46h1" />
<path stroke="#000302" d="M20 46h1" />
<path stroke="#858594" d="M22 46h2" />
<path stroke="#898b98" d="M24 46h1" />
<path stroke="#8b8e98" d="M25 46h1" />
<path stroke="#8a8c98" d="M26 46h1" />
<path stroke="#8c8e99" d="M27 46h1" />
<path stroke="#91949f" d="M28 46h1" />
<path stroke="#7b7e89" d="M29 46h1" />
<path stroke="#020602" d="M30 46h1" />
<path stroke="#4c5055" d="M3 47h1" />
<path stroke="#43464c" d="M4 47h1" />
<path stroke="#404148" d="M5 47h1M21 47h9" />
<path stroke="#404248" d="M6 47h1" />
<path stroke="#424449" d="M7 47h1M9 47h1" />
<path stroke="#414347" d="M8 47h1" />
</svg>