<svg xmlns="http://www.w3.org/2000/svg" viewBox="0 -0.5 32 32" shape-rendering="crispEdges">
<metadata>Made with Pixels to Svg https://codepen.io/shshaw/pen/XbxvNj</metadata>
<path stroke="#5d4121" d="M8 0h1" />
<path stroke="#6e4729" d="M9 0h1" />
<path stroke="#a3663f" d="M10 0h1" />
<path stroke="#7f4f30" d="M14 0h1" />
<path stroke="#7a4b30" d="M15 0h1" />
<path stroke="#7f4e33" d="M16 0h1" />
<path stroke="#7e4c30" d="M17 0h1" />
<path stroke="#7a492c" d="M18 0h1" />
<path stroke="#815432" d="M23 0h1" />
<path stroke="#856237" d="M24 0h1" />
<path stroke="#6a502a" d="M25 0h1" />
<path stroke="#744f32" d="M6 1h1" />
<path stroke="#a97544" d="M7 1h1" />
<path stroke="#d29a5b" d="M8 1h1" />
<path stroke="#b87e4a" d="M9 1h1" />
<path stroke="#875431" d="M10 1h1" />
<path stroke="#764924" d="M11 1h1" />
<path stroke="#b88049" d="M13 1h1" />
<path stroke="#c39057" d="M14 1h1" />
<path stroke="#d7a764" d="M15 1h1" />
<path stroke="#d2a261" d="M16 1h1" />
<path stroke="#d8aa64" d="M17 1h1" />
<path stroke="#b58751" d="M18 1h1" />
<path stroke="#724729" d="M19 1h1" />
<path stroke="#c2925d" d="M21 1h1" />
<path stroke="#ba8a53" d="M22 1h1" />
<path stroke="#d19956" d="M23 1h1" />
<path stroke="#a77241" d="M24 1h1" />
<path stroke="#845231" d="M25 1h1" />
<path stroke="#090101" d="M26 1h1" />
<path stroke="#67472e" d="M5 2h1" />
<path stroke="#b97d4d" d="M6 2h1" />
<path stroke="#935a36" d="M7 2h1" />
<path stroke="#8d573c" d="M8 2h1" />
<path stroke="#351c1c" d="M9 2h1" />
<path stroke="#674b36" d="M10 2h1" />
<path stroke="#b78651" d="M11 2h1" />
<path stroke="#bf8c54" d="M12 2h1" />
<path stroke="#76472e" d="M13 2h1" />
<path stroke="#856041" d="M14 2h1" />
<path stroke="#bb8c52" d="M15 2h1" />
<path stroke="#936538" d="M16 2h1" />
<path stroke="#93683e" d="M17 2h1" />
<path stroke="#98683e" d="M18 2h1" />
<path stroke="#986845" d="M19 2h1" />
<path stroke="#3f2924" d="M20 2h1" />
<path stroke="#71432b" d="M21 2h1" />
<path stroke="#7d4a2b" d="M22 2h1" />
<path stroke="#74432d" d="M23 2h1" />
<path stroke="#3c1f27" d="M24 2h1" />
<path stroke="#2d1721" d="M25 2h2" />
<path stroke="#1b0406" d="M5 3h1" />
<path stroke="#4b2520" d="M6 3h1" />
<path stroke="#66332c" d="M7 3h1" />
<path stroke="#5f3133" d="M8 3h1" />
<path stroke="#1e0d1b" d="M9 3h1" />
<path stroke="#180712" d="M10 3h1" />
<path stroke="#542e2a" d="M11 3h1" />
<path stroke="#5e362c" d="M12 3h1" />
<path stroke="#3c1e23" d="M13 3h1" />
<path stroke="#43292a" d="M14 3h1" />
<path stroke="#583933" d="M15 3h1" />
<path stroke="#492d31" d="M16 3h1" />
<path stroke="#2e1f28" d="M17 3h1" />
<path stroke="#422a30" d="M18 3h1" />
<path stroke="#40272d" d="M19 3h1" />
<path stroke="#0e0411" d="M20 3h1" />
<path stroke="#331821" d="M21 3h1" />
<path stroke="#3a1b24" d="M22 3h1" />
<path stroke="#381e2b" d="M23 3h1" />
<path stroke="#201024" d="M24 3h1" />
<path stroke="#010003" d="M25 3h1M15 15h1" />
<path stroke="#040905" d="M6 4h1" />
<path stroke="#1e0c10" d="M7 4h1" />
<path stroke="#4e3138" d="M8 4h1" />
<path stroke="#1c0e1e" d="M9 4h1" />
<path stroke="#0e0617" d="M10 4h1" />
<path stroke="#5b3739" d="M11 4h1" />
<path stroke="#5c3532" d="M12 4h1" />
<path stroke="#1c0b20" d="M13 4h1" />
<path stroke="#2c172a" d="M14 4h1" />
<path stroke="#392333" d="M15 4h1" />
<path stroke="#291829" d="M16 4h1" />
<path stroke="#140a1e" d="M17 4h1" />
<path stroke="#382332" d="M18 4h1" />
<path stroke="#0e011b" d="M19 4h2M8 5h1M18 5h1M21 5h1M8 6h1M13 6h1M17 6h1M21 6h1M8 7h1M14 7h1M18 7h1M20 7h1M8 8h1M11 8h1M15 8h1M19 8h1M21 8h1M11 9h1M16 9h1M19 9h2M22 9h1M11 10h1M17 10h1M19 10h1M23 10h1M11 11h1M15 11h1M18 11h1M23 11h1M12 12h3M18 12h1M19 13h1M9 16h1M21 16h1M10 17h2M19 17h2M12 18h2M17 18h2M14 19h3" />
<path stroke="#1c1020" d="M21 4h1" />
<path stroke="#251729" d="M22 4h1" />
<path stroke="#241424" d="M23 4h1" />
<path stroke="#140615" d="M24 4h2" />
<path stroke="#000101" d="M7 5h1" />
<path stroke="#150b19" d="M9 5h1" />
<path stroke="#0c0615" d="M10 5h1" />
<path stroke="#22111a" d="M11 5h1" />
<path stroke="#30171b" d="M12 5h1" />
<path stroke="#0a030d" d="M13 5h1" />
<path stroke="#0b0310" d="M14 5h1" />
<path stroke="#241421" d="M15 5h1" />
<path stroke="#1f1122" d="M16 5h1" />
<path stroke="#1a0d21" d="M17 5h1" />
<path stroke="#9271b4" d="M19 5h1M18 6h3M13 7h1M19 7h1M12 8h1M14 8h1M15 9h1M21 9h1M16 10h1M20 10h1M22 10h1M19 11h1" />
<path stroke="#69399b" d="M20 5h1M7 6h1M7 7h1M7 8h1M14 9h1M15 10h1M21 11h1M19 12h2" />
<path stroke="#07030b" d="M22 5h1" />
<path stroke="#0c050c" d="M23 5h1" />
<path stroke="#000001" d="M24 5h1" />
<path stroke="#000000" d="M6 6h1M5 7h1M12 7h1M6 8h1M7 9h1M9 11h1M23 12h1M23 13h1M20 14h3" />
<path stroke="#2d192a" d="M9 6h1" />
<path stroke="#2c182b" d="M10 6h1" />
<path stroke="#0e0515" d="M11 6h1" />
<path stroke="#0a0312" d="M12 6h1" />
<path stroke="#150717" d="M14 6h1" />
<path stroke="#130719" d="M15 6h1" />
<path stroke="#090313" d="M16 6h1" />
<path stroke="#170b1b" d="M22 6h1" />
<path stroke="#190c1c" d="M23 6h1" />
<path stroke="#120515" d="M24 6h1" />
<path stroke="#330760" d="M6 7h1M12 9h1M13 10h1M13 11h2M22 12h1M21 13h1" />
<path stroke="#61383c" d="M9 7h1" />
<path stroke="#3f2537" d="M10 7h1" />
<path stroke="#170b1c" d="M11 7h1" />
<path stroke="#321e2b" d="M15 7h1" />
<path stroke="#271828" d="M16 7h1" />
<path stroke="#211325" d="M17 7h1" />
<path stroke="#472a34" d="M21 7h1" />
<path stroke="#2b182c" d="M22 7h1" />
<path stroke="#2e1a30" d="M23 7h1" />
<path stroke="#502e34" d="M9 8h1" />
<path stroke="#342231" d="M10 8h1" />
<path stroke="#7e59a5" d="M13 8h1M21 10h1M20 11h1" />
<path stroke="#44292e" d="M16 8h1" />
<path stroke="#2a1a2b" d="M17 8h1" />
<path stroke="#150b1b" d="M18 8h1" />
<path stroke="#130714" d="M20 8h1" />
<path stroke="#0c040e" d="M22 8h1" />
<path stroke="#1b0c19" d="M23 8h1" />
<path stroke="#030104" d="M8 9h1" />
<path stroke="#130b15" d="M9 9h1" />
<path stroke="#2a1c28" d="M10 9h1" />
<path stroke="#4c1a80" d="M13 9h1M14 10h1M22 11h1M21 12h1M20 13h1M4 20h1M26 20h1M5 21h1M25 21h1M6 22h2M23 22h2M8 23h2M21 23h2M10 24h2M19 24h2M12 25h7" />
<path stroke="#1e1123" d="M17 9h1" />
<path stroke="#2e1f2e" d="M18 9h1" />
<path stroke="#100610" d="M23 9h1" />
<path stroke="#020103" d="M8 10h1" />
<path stroke="#4f3332" d="M9 10h1" />
<path stroke="#6c423a" d="M10 10h1" />
<path stroke="#2b0553" d="M12 10h1" />
<path stroke="#362236" d="M18 10h1" />
<path stroke="#653e39" d="M10 11h1" />
<path stroke="#250149" d="M12 11h1M22 13h1" />
<path stroke="#060210" d="M16 11h1" />
<path stroke="#1a0c22" d="M17 11h1" />
<path stroke="#130613" d="M10 12h1" />
<path stroke="#170c19" d="M11 12h1" />
<path stroke="#472a2a" d="M15 12h1" />
<path stroke="#492b2e" d="M16 12h1" />
<path stroke="#361c2b" d="M17 12h1" />
<path stroke="#110403" d="M13 13h1" />
<path stroke="#6c3828" d="M14 13h1" />
<path stroke="#8a5139" d="M15 13h1" />
<path stroke="#684137" d="M16 13h1" />
<path stroke="#432834" d="M17 13h1" />
<path stroke="#1a0514" d="M18 13h1" />
<path stroke="#0b0104" d="M14 14h1" />
<path stroke="#442827" d="M15 14h1" />
<path stroke="#2d1a22" d="M16 14h1" />
<path stroke="#100312" d="M17 14h1" />
<path stroke="#060206" d="M16 15h1" />
<path stroke="#1b0235" d="M7 18h1M23 18h1M8 19h1M22 19h1M9 20h2M20 20h2M11 21h2M18 21h2M13 22h5" />
</svg>