<svg xmlns="http://www.w3.org/2000/svg" viewBox="0 -0.5 48 48" shape-rendering="crispEdges">
<metadata>Made with Pixels to Svg https://codepen.io/shshaw/pen/XbxvNj</metadata>
<path stroke="#000000" d="M18 8h5M17 9h1M23 9h2M15 10h2M25 10h1M14 11h1M26 11h1M13 12h1M27 12h1M6 13h7M28 13h3M5 14h1M31 14h1M6 15h1M31 15h1M7 16h1M30 16h1M8 17h1M27 17h1M29 17h1M9 18h1M23 18h1M28 18h1M10 19h2M29 19h1M10 20h2M30 20h1M9 21h1M14 21h1M28 21h2M8 22h1M27 22h1M8 23h1M26 23h1M39 23h3M10 24h1M21 24h1M25 24h1M37 24h2M42 24h1M9 25h2M23 25h2M35 25h2M42 25h1M10 26h1M24 26h1M29 26h1M33 26h2M41 26h1M9 27h1M15 27h1M24 27h2M28 27h1M30 27h3M40 27h1M9 28h1M26 28h2M38 28h2M8 29h2M14 29h1M37 29h1M8 30h1M35 30h2M8 31h1M33 31h2M7 32h2M23 32h1M32 32h1M7 33h1M24 33h2M29 33h1M32 33h1M7 34h1M24 34h5M30 34h2M7 35h2M8 36h1M14 36h1M8 37h2M13 37h3M25 37h1M10 38h5M16 38h1M23 38h2M13 39h1M17 39h1M23 39h1M12 40h1M17 40h2M23 40h1M12 41h1M17 41h1M23 41h1M13 42h1M17 42h1M22 42h1M14 43h1M17 43h1M22 43h1M17 44h1M23 44h1M16 45h2M24 45h2M17 46h2M26 46h2M18 47h2M27 47h1" />
<path stroke="#360d0c" d="M18 9h1" />
<path stroke="#370e0c" d="M19 9h1" />
<path stroke="#3c0601" d="M20 9h1" />
<path stroke="#450600" d="M21 9h1" />
<path stroke="#370906" d="M22 9h1" />
<path stroke="#631a05" d="M17 10h1" />
<path stroke="#9e2c07" d="M18 10h1" />
<path stroke="#9e3010" d="M19 10h1" />
<path stroke="#b63f1b" d="M20 10h1" />
<path stroke="#bb421f" d="M21 10h1" />
<path stroke="#b8411f" d="M22 10h1" />
<path stroke="#882200" d="M23 10h1" />
<path stroke="#501002" d="M24 10h1" />
<path stroke="#510900" d="M15 11h1" />
<path stroke="#7a1b02" d="M16 11h1" />
<path stroke="#9f340e" d="M17 11h1" />
<path stroke="#ba491a" d="M18 11h1" />
<path stroke="#c65328" d="M19 11h1" />
<path stroke="#c85227" d="M20 11h1" />
<path stroke="#b44520" d="M21 11h1" />
<path stroke="#b54722" d="M22 11h1" />
<path stroke="#c04e24" d="M23 11h1" />
<path stroke="#a83911" d="M24 11h1" />
<path stroke="#510b00" d="M25 11h1" />
<path stroke="#621301" d="M14 12h1" />
<path stroke="#6e1c0b" d="M15 12h1M16 13h1" />
<path stroke="#62180a" d="M16 12h1" />
<path stroke="#6c1c0b" d="M17 12h1" />
<path stroke="#912d0d" d="M18 12h1" />
<path stroke="#b4451b" d="M19 12h1" />
<path stroke="#a53d17" d="M20 12h1" />
<path stroke="#963210" d="M21 12h1" />
<path stroke="#a03813" d="M22 12h1" />
<path stroke="#ac4018" d="M23 12h1" />
<path stroke="#d05525" d="M24 12h1" />
<path stroke="#cb4b20" d="M25 12h1" />
<path stroke="#530b00" d="M26 12h1" />
<path stroke="#250e01" d="M13 13h1" />
<path stroke="#390b07" d="M14 13h1" />
<path stroke="#551006" d="M15 13h1" />
<path stroke="#63180a" d="M17 13h1" />
<path stroke="#671a0b" d="M18 13h1" />
<path stroke="#88270c" d="M19 13h1" />
<path stroke="#9b2d0e" d="M20 13h1" />
<path stroke="#993010" d="M21 13h1" />
<path stroke="#77200b" d="M22 13h1" />
<path stroke="#691409" d="M23 13h1" />
<path stroke="#711606" d="M24 13h1" />
<path stroke="#9f2c10" d="M25 13h1" />
<path stroke="#791b0a" d="M26 13h1" />
<path stroke="#350000" d="M27 13h1" />
<path stroke="#737a00" d="M6 14h1" />
<path stroke="#97b825" d="M7 14h1" />
<path stroke="#90ad1f" d="M8 14h1" />
<path stroke="#798809" d="M9 14h1" />
<path stroke="#727a03" d="M10 14h1" />
<path stroke="#839516" d="M11 14h1" />
<path stroke="#6ea929" d="M12 14h1" />
<path stroke="#4a9020" d="M13 14h1" />
<path stroke="#214e19" d="M14 14h1" />
<path stroke="#050903" d="M15 14h1" />
<path stroke="#470c04" d="M16 14h1" />
<path stroke="#6d1b0b" d="M17 14h1" />
<path stroke="#6d1b0a" d="M18 14h1" />
<path stroke="#570d04" d="M19 14h1" />
<path stroke="#421709" d="M20 14h1" />
<path stroke="#220905" d="M21 14h1" />
<path stroke="#143815" d="M22 14h1" />
<path stroke="#2f5b1f" d="M23 14h1" />
<path stroke="#284e20" d="M24 14h1" />
<path stroke="#23200c" d="M25 14h1" />
<path stroke="#140d05" d="M26 14h1" />
<path stroke="#252007" d="M27 14h1" />
<path stroke="#060e0c" d="M28 14h1" />
<path stroke="#152d18" d="M29 14h1" />
<path stroke="#39490d" d="M30 14h1" />
<path stroke="#3d6b12" d="M7 15h1" />
<path stroke="#619f3a" d="M8 15h1" />
<path stroke="#010d0a" d="M9 15h1" />
<path stroke="#15321c" d="M10 15h1" />
<path stroke="#28401c" d="M11 15h1" />
<path stroke="#404e0e" d="M12 15h1" />
<path stroke="#a3c028" d="M13 15h1" />
<path stroke="#9fc638" d="M14 15h1" />
<path stroke="#3c7a30" d="M15 15h1" />
<path stroke="#092c12" d="M16 15h1" />
<path stroke="#521003" d="M17 15h1" />
<path stroke="#851a04" d="M18 15h1" />
<path stroke="#171f06" d="M19 15h1" />
<path stroke="#2a7933" d="M20 15h1" />
<path stroke="#4d8e32" d="M21 15h1" />
<path stroke="#7fb635" d="M22 15h1" />
<path stroke="#92c835" d="M23 15h1" />
<path stroke="#78b238" d="M24 15h1" />
<path stroke="#478a39" d="M25 15h1" />
<path stroke="#4b9341" d="M26 15h1" />
<path stroke="#6aa03c" d="M27 15h1" />
<path stroke="#1e2704" d="M28 15h1" />
<path stroke="#436901" d="M29 15h1" />
<path stroke="#607300" d="M30 15h1" />
<path stroke="#446503" d="M8 16h1" />
<path stroke="#557e1f" d="M9 16h1" />
<path stroke="#42732d" d="M10 16h1" />
<path stroke="#38692d" d="M11 16h1" />
<path stroke="#183414" d="M12 16h1" />
<path stroke="#24300d" d="M13 16h1" />
<path stroke="#27360e" d="M14 16h1" />
<path stroke="#8ab733" d="M15 16h1" />
<path stroke="#387321" d="M16 16h1" />
<path stroke="#060000" d="M17 16h1" />
<path stroke="#280c03" d="M18 16h1M17 35h1" />
<path stroke="#3d8234" d="M19 16h1" />
<path stroke="#31602e" d="M20 16h1" />
<path stroke="#28340a" d="M21 16h1" />
<path stroke="#778b17" d="M22 16h1" />
<path stroke="#afd02d" d="M23 16h1" />
<path stroke="#acd12d" d="M24 16h1" />
<path stroke="#72ab38" d="M25 16h1" />
<path stroke="#417834" d="M26 16h1" />
<path stroke="#07170c" d="M27 16h1" />
<path stroke="#152a01" d="M28 16h1M28 17h1" />
<path stroke="#2d4901" d="M29 16h1" />
<path stroke="#81960b" d="M9 17h1" />
<path stroke="#8cb32a" d="M10 17h1" />
<path stroke="#4e7f2a" d="M11 17h1" />
<path stroke="#366223" d="M12 17h1" />
<path stroke="#3c672a" d="M13 17h1" />
<path stroke="#10230d" d="M14 17h1" />
<path stroke="#7aa024" d="M15 17h1" />
<path stroke="#6d9722" d="M16 17h1" />
<path stroke="#193d17" d="M17 17h1" />
<path stroke="#408234" d="M18 17h1" />
<path stroke="#5c7c33" d="M19 17h1" />
<path stroke="#814103" d="M20 17h1" />
<path stroke="#a7752c" d="M21 17h1" />
<path stroke="#42392c" d="M22 17h1" />
<path stroke="#28360a" d="M23 17h1" />
<path stroke="#78871a" d="M24 17h1" />
<path stroke="#5c892a" d="M25 17h1" />
<path stroke="#376b24" d="M26 17h1" />
<path stroke="#455411" d="M10 18h1" />
<path stroke="#7f9a11" d="M11 18h1" />
<path stroke="#6c9d32" d="M12 18h1" />
<path stroke="#406c2b" d="M13 18h1" />
<path stroke="#112711" d="M14 18h1" />
<path stroke="#051205" d="M15 18h1" />
<path stroke="#12250a" d="M16 18h1" />
<path stroke="#538730" d="M17 18h1" />
<path stroke="#5da83d" d="M18 18h1" />
<path stroke="#636e30" d="M19 18h1" />
<path stroke="#ce8800" d="M20 18h1" />
<path stroke="#ffff74" d="M21 18h1" />
<path stroke="#767985" d="M22 18h1" />
<path stroke="#010307" d="M24 18h1" />
<path stroke="#447f38" d="M25 18h1" />
<path stroke="#9fc938" d="M26 18h1" />
<path stroke="#848b16" d="M27 18h1" />
<path stroke="#4c731a" d="M12 19h1" />
<path stroke="#86af27" d="M13 19h1" />
<path stroke="#7ca328" d="M14 19h1" />
<path stroke="#477223" d="M15 19h1" />
<path stroke="#000304" d="M16 19h1" />
<path stroke="#4f822e" d="M17 19h1" />
<path stroke="#5ca63d" d="M18 19h1" />
<path stroke="#697230" d="M19 19h1" />
<path stroke="#ca7400" d="M20 19h1" />
<path stroke="#fff845" d="M21 19h1" />
<path stroke="#b8a857" d="M22 19h1" />
<path stroke="#232402" d="M23 19h1" />
<path stroke="#2f5c2b" d="M24 19h1" />
<path stroke="#5c9a3e" d="M25 19h1" />
<path stroke="#619b3c" d="M26 19h1" />
<path stroke="#b0cf32" d="M27 19h1" />
<path stroke="#717404" d="M28 19h1" />
<path stroke="#000002" d="M12 20h1M22 25h1M17 32h1" />
<path stroke="#282d06" d="M13 20h1" />
<path stroke="#323809" d="M14 20h1" />
<path stroke="#1a2b0c" d="M15 20h1" />
<path stroke="#1e4a14" d="M16 20h1" />
<path stroke="#548933" d="M17 20h1" />
<path stroke="#69aa3f" d="M18 20h1" />
<path stroke="#629135" d="M19 20h1" />
<path stroke="#947017" d="M20 20h1" />
<path stroke="#b98204" d="M21 20h1" />
<path stroke="#cb8902" d="M22 20h1" />
<path stroke="#778f2a" d="M23 20h1" />
<path stroke="#39792e" d="M24 20h1" />
<path stroke="#6ea331" d="M25 20h1" />
<path stroke="#5ea13c" d="M26 20h1" />
<path stroke="#64a83f" d="M27 20h1" />
<path stroke="#9dc51a" d="M28 20h1" />
<path stroke="#203318" d="M29 20h1" />
<path stroke="#4a1703" d="M10 21h1" />
<path stroke="#5a1100" d="M11 21h1" />
<path stroke="#100e02" d="M12 21h1" />
<path stroke="#000001" d="M13 21h1M14 30h1M24 31h1M24 32h1" />
<path stroke="#010303" d="M15 21h1" />
<path stroke="#234211" d="M16 21h1" />
<path stroke="#142313" d="M17 21h1" />
<path stroke="#538138" d="M18 21h1" />
<path stroke="#67af43" d="M19 21h1" />
<path stroke="#5c9941" d="M20 21h1" />
<path stroke="#5f853e" d="M21 21h1" />
<path stroke="#5b853e" d="M22 21h1" />
<path stroke="#5b9840" d="M23 21h1" />
<path stroke="#244318" d="M24 21h1" />
<path stroke="#283a0c" d="M25 21h1" />
<path stroke="#234010" d="M26 21h1" />
<path stroke="#14301a" d="M27 21h1" />
<path stroke="#2a0a06" d="M9 22h1" />
<path stroke="#460d02" d="M10 22h1" />
<path stroke="#020605" d="M11 22h1" />
<path stroke="#001501" d="M12 22h1" />
<path stroke="#321906" d="M13 22h1" />
<path stroke="#350c05" d="M14 22h1" />
<path stroke="#280401" d="M15 22h1" />
<path stroke="#312a03" d="M16 22h1" />
<path stroke="#032402" d="M17 22h1" />
<path stroke="#020a06" d="M18 22h1" />
<path stroke="#3f602d" d="M19 22h1" />
<path stroke="#6aa946" d="M20 22h1" />
<path stroke="#68ad45" d="M21 22h1" />
<path stroke="#67ab42" d="M22 22h1" />
<path stroke="#5c9839" d="M23 22h1" />
<path stroke="#3c722b" d="M24 22h1" />
<path stroke="#396c2b" d="M25 22h1" />
<path stroke="#335a06" d="M26 22h1" />
<path stroke="#390903" d="M9 23h1" />
<path stroke="#010002" d="M10 23h1" />
<path stroke="#020100" d="M11 23h1" />
<path stroke="#62220c" d="M12 23h1" />
<path stroke="#c5522b" d="M13 23h1" />
<path stroke="#b94d25" d="M14 23h1" />
<path stroke="#4f1505" d="M15 23h1" />
<path stroke="#752c0b" d="M16 23h1" />
<path stroke="#383e05" d="M17 23h1" />
<path stroke="#13400c" d="M18 23h1" />
<path stroke="#000204" d="M19 23h1" />
<path stroke="#253c22" d="M20 23h1" />
<path stroke="#456e2e" d="M21 23h1" />
<path stroke="#528131" d="M22 23h1" />
<path stroke="#81bc3f" d="M23 23h1" />
<path stroke="#83be3f" d="M24 23h1" />
<path stroke="#588620" d="M25 23h1" />
<path stroke="#15050b" d="M8 24h1" />
<path stroke="#2e0100" d="M9 24h1" />
<path stroke="#140000" d="M11 24h1" />
<path stroke="#73200c" d="M12 24h1" />
<path stroke="#dd5f30" d="M13 24h1" />
<path stroke="#e46532" d="M14 24h1" />
<path stroke="#c85223" d="M15 24h1" />
<path stroke="#bd4a18" d="M16 24h1" />
<path stroke="#471002" d="M17 24h1" />
<path stroke="#1c2806" d="M18 24h1" />
<path stroke="#315d1e" d="M19 24h1" />
<path stroke="#102b0b" d="M20 24h1" />
<path stroke="#040705" d="M22 24h1" />
<path stroke="#3c571e" d="M23 24h1" />
<path stroke="#3f5818" d="M24 24h1" />
<path stroke="#757f8d" d="M39 24h1" />
<path stroke="#b1b5ba" d="M40 24h1" />
<path stroke="#e5ddd3" d="M41 24h1M40 25h2M37 28h1" />
<path stroke="#011913" d="M11 25h1" />
<path stroke="#104c0d" d="M12 25h1" />
<path stroke="#54210d" d="M13 25h1" />
<path stroke="#c64920" d="M14 25h1" />
<path stroke="#cd5020" d="M15 25h1" />
<path stroke="#711f0b" d="M16 25h1" />
<path stroke="#0c0200" d="M17 25h1" />
<path stroke="#682907" d="M18 25h1" />
<path stroke="#221c06" d="M19 25h1" />
<path stroke="#3c7325" d="M20 25h1" />
<path stroke="#193d0e" d="M21 25h1" />
<path stroke="#a19a92" d="M37 25h1" />
<path stroke="#d0c9bf" d="M38 25h1" />
<path stroke="#d2d0ce" d="M39 25h1" />
<path stroke="#3c6014" d="M11 26h1" />
<path stroke="#8cc82c" d="M12 26h1" />
<path stroke="#407923" d="M13 26h1" />
<path stroke="#241709" d="M14 26h1" />
<path stroke="#721b0b" d="M15 26h1" />
<path stroke="#3e0b06" d="M16 26h1" />
<path stroke="#311102" d="M17 26h1" />
<path stroke="#a1621e" d="M18 26h1" />
<path stroke="#773f11" d="M19 26h1" />
<path stroke="#130a03" d="M20 26h1" />
<path stroke="#120702" d="M21 26h1" />
<path stroke="#521909" d="M22 26h1" />
<path stroke="#541809" d="M23 26h1" />
<path stroke="#c5c4c7" d="M35 26h1" />
<path stroke="#eae0d7" d="M36 26h1" />
<path stroke="#bebcbc" d="M37 26h1" />
<path stroke="#868687" d="M38 26h1" />
<path stroke="#d9d2ca" d="M39 26h1" />
<path stroke="#3e4a5c" d="M40 26h1" />
<path stroke="#274015" d="M10 27h1" />
<path stroke="#9ac11f" d="M11 27h1" />
<path stroke="#99c12a" d="M12 27h1" />
<path stroke="#71b33a" d="M13 27h1" />
<path stroke="#225f24" d="M14 27h1" />
<path stroke="#110402" d="M16 27h1" />
<path stroke="#7c430e" d="M17 27h1" />
<path stroke="#aa6e20" d="M18 27h1" />
<path stroke="#a76d23" d="M19 27h1" />
<path stroke="#723e0e" d="M20 27h1" />
<path stroke="#421a02" d="M21 27h1" />
<path stroke="#6d3609" d="M22 27h1" />
<path stroke="#3d0e06" d="M23 27h1" />
<path stroke="#461b00" d="M29 27h1" />
<path stroke="#bab1a7" d="M33 27h1" />
<path stroke="#aba8a5" d="M34 27h1" />
<path stroke="#8f8e8b" d="M35 27h1" />
<path stroke="#9a9c9e" d="M36 27h1" />
<path stroke="#afafb1" d="M37 27h1" />
<path stroke="#8f8980" d="M38 27h2M36 28h1M34 29h3M34 30h1" />
<path stroke="#375a09" d="M10 28h1" />
<path stroke="#97ca2d" d="M11 28h1" />
<path stroke="#5c9631" d="M12 28h1" />
<path stroke="#498939" d="M13 28h1" />
<path stroke="#11250d" d="M14 28h1" />
<path stroke="#140201" d="M15 28h1" />
<path stroke="#532409" d="M16 28h1" />
<path stroke="#4a2305" d="M17 28h1" />
<path stroke="#683d10" d="M18 28h1" />
<path stroke="#ad7023" d="M19 28h1" />
<path stroke="#ae7424" d="M20 28h1" />
<path stroke="#b06e1f" d="M21 28h1" />
<path stroke="#7b3d0d" d="M22 28h1" />
<path stroke="#1f0303" d="M23 28h1" />
<path stroke="#1c4303" d="M24 28h1" />
<path stroke="#243c00" d="M25 28h1" />
<path stroke="#491b01" d="M28 28h1" />
<path stroke="#dd7803" d="M29 28h1" />
<path stroke="#423829" d="M30 28h1" />
<path stroke="#b6b4b3" d="M31 28h1M31 29h1" />
<path stroke="#a89f96" d="M32 28h1" />
<path stroke="#969596" d="M33 28h1" />
<path stroke="#838281" d="M34 28h1" />
<path stroke="#7c7d79" d="M35 28h1" />
<path stroke="#244e19" d="M10 29h1" />
<path stroke="#9ed235" d="M11 29h1" />
<path stroke="#6fac3d" d="M12 29h1" />
<path stroke="#346125" d="M13 29h1" />
<path stroke="#390d04" d="M15 29h1" />
<path stroke="#632903" d="M16 29h1" />
<path stroke="#8a410b" d="M17 29h1" />
<path stroke="#9b5211" d="M18 29h1" />
<path stroke="#925a17" d="M19 29h1" />
<path stroke="#855219" d="M20 29h1" />
<path stroke="#794d17" d="M21 29h1" />
<path stroke="#4e2b07" d="M22 29h1" />
<path stroke="#100201" d="M23 29h1" />
<path stroke="#1e420a" d="M24 29h1" />
<path stroke="#365e0d" d="M25 29h1" />
<path stroke="#010000" d="M26 29h1" />
<path stroke="#182e05" d="M27 29h1" />
<path stroke="#140600" d="M28 29h1" />
<path stroke="#bb6513" d="M29 29h1" />
<path stroke="#644a28" d="M30 29h1" />
<path stroke="#6f7172" d="M32 29h1" />
<path stroke="#a6a7a7" d="M33 29h1" />
<path stroke="#391100" d="M9 30h1" />
<path stroke="#3d4e13" d="M10 30h1" />
<path stroke="#5b8f22" d="M11 30h1" />
<path stroke="#719c23" d="M12 30h1" />
<path stroke="#32520c" d="M13 30h1" />
<path stroke="#3a2a0b" d="M15 30h1" />
<path stroke="#2d1203" d="M16 30h1" />
<path stroke="#84441c" d="M17 30h1" />
<path stroke="#66371c" d="M18 30h1" />
<path stroke="#070710" d="M19 30h1" />
<path stroke="#695503" d="M20 30h1" />
<path stroke="#c69f03" d="M21 30h1" />
<path stroke="#c19d03" d="M22 30h1" />
<path stroke="#a49510" d="M23 30h1" />
<path stroke="#010d05" d="M24 30h1" />
<path stroke="#000102" d="M25 30h1" />
<path stroke="#667711" d="M26 30h1" />
<path stroke="#88c63f" d="M27 30h1" />
<path stroke="#000b06" d="M28 30h1" />
<path stroke="#642303" d="M29 30h1" />
<path stroke="#3e1f06" d="M30 30h1" />
<path stroke="#3a434d" d="M31 30h1" />
<path stroke="#7a7979" d="M32 30h1" />
<path stroke="#79746c" d="M33 30h1" />
<path stroke="#492503" d="M9 31h1" />
<path stroke="#aa5f16" d="M10 31h1" />
<path stroke="#6a310e" d="M11 31h1" />
<path stroke="#73350d" d="M12 31h1" />
<path stroke="#4f2004" d="M13 31h1" />
<path stroke="#070205" d="M14 31h1" />
<path stroke="#462b0d" d="M15 31h1" />
<path stroke="#010206" d="M16 31h1" />
<path stroke="#292830" d="M17 31h1" />
<path stroke="#4e4749" d="M18 31h1" />
<path stroke="#504b4c" d="M19 31h1" />
<path stroke="#252217" d="M20 31h1" />
<path stroke="#cb8906" d="M21 31h1" />
<path stroke="#6d3f02" d="M22 31h1" />
<path stroke="#7b7718" d="M23 31h1" />
<path stroke="#040e03" d="M25 31h1" />
<path stroke="#506d14" d="M26 31h1" />
<path stroke="#213910" d="M27 31h1" />
<path stroke="#042305" d="M28 31h1" />
<path stroke="#4c4f13" d="M29 31h1" />
<path stroke="#ae6c19" d="M30 31h1" />
<path stroke="#151114" d="M31 31h1" />
<path stroke="#1f212a" d="M32 31h1" />
<path stroke="#46300b" d="M9 32h1M9 33h2" />
<path stroke="#8d2e0a" d="M10 32h1" />
<path stroke="#c55b1b" d="M11 32h1" />
<path stroke="#e46c22" d="M12 32h1" />
<path stroke="#89360c" d="M13 32h1" />
<path stroke="#110000" d="M14 32h1M23 37h1" />
<path stroke="#170001" d="M15 32h1" />
<path stroke="#010001" d="M16 32h1" />
<path stroke="#181920" d="M18 32h1" />
<path stroke="#39393a" d="M19 32h1" />
<path stroke="#000118" d="M20 32h1" />
<path stroke="#876c03" d="M21 32h1" />
<path stroke="#8f8009" d="M22 32h1" />
<path stroke="#111f00" d="M25 32h1" />
<path stroke="#4b7716" d="M26 32h1" />
<path stroke="#455b18" d="M27 32h1" />
<path stroke="#5f9424" d="M28 32h1" />
<path stroke="#20280a" d="M29 32h1" />
<path stroke="#a95b14" d="M30 32h1" />
<path stroke="#6c4600" d="M31 32h1" />
<path stroke="#376a1c" d="M8 33h1M8 34h1" />
<path stroke="#3e0702" d="M11 33h1" />
<path stroke="#531506" d="M12 33h1" />
<path stroke="#1a0100" d="M13 33h1" />
<path stroke="#1a0401" d="M14 33h1" />
<path stroke="#6d2e0a" d="M15 33h1" />
<path stroke="#5e2807" d="M16 33h1" />
<path stroke="#210302" d="M17 33h1" />
<path stroke="#140301" d="M18 33h1" />
<path stroke="#3d1c06" d="M19 33h1" />
<path stroke="#502b09" d="M20 33h1" />
<path stroke="#563506" d="M21 33h1" />
<path stroke="#4e3203" d="M22 33h1" />
<path stroke="#1a0300" d="M23 33h1" />
<path stroke="#0e2a0a" d="M26 33h1" />
<path stroke="#4a7306" d="M27 33h1" />
<path stroke="#2a4e12" d="M28 33h1" />
<path stroke="#883600" d="M30 33h1" />
<path stroke="#b57c00" d="M31 33h1" />
<path stroke="#5e9430" d="M9 34h1M9 35h1" />
<path stroke="#72aa2e" d="M10 34h1" />
<path stroke="#60831a" d="M11 34h1" />
<path stroke="#578424" d="M12 34h1" />
<path stroke="#153613" d="M13 34h1" />
<path stroke="#0a0000" d="M14 34h1" />
<path stroke="#85430d" d="M15 34h1" />
<path stroke="#81420b" d="M16 34h1" />
<path stroke="#250502" d="M17 34h1" />
<path stroke="#68330b" d="M18 34h1" />
<path stroke="#9f611c" d="M19 34h1M21 34h1" />
<path stroke="#a2611f" d="M20 34h1" />
<path stroke="#995b17" d="M22 34h1" />
<path stroke="#894910" d="M23 34h1" />
<path stroke="#69a838" d="M10 35h1" />
<path stroke="#90bd31" d="M11 35h1" />
<path stroke="#90c038" d="M12 35h1" />
<path stroke="#5d9b38" d="M13 35h1" />
<path stroke="#03280a" d="M14 35h1" />
<path stroke="#521f04" d="M15 35h1" />
<path stroke="#381a05" d="M16 35h1" />
<path stroke="#8b5216" d="M18 35h1" />
<path stroke="#ab6d20" d="M19 35h1" />
<path stroke="#7a4413" d="M20 35h1" />
<path stroke="#7e4a14" d="M21 35h1" />
<path stroke="#ae6b1e" d="M22 35h1" />
<path stroke="#a0611b" d="M23 35h1" />
<path stroke="#663009" d="M24 35h1" />
<path stroke="#0d060b" d="M25 35h1" />
<path stroke="#3c5c12" d="M9 36h1" />
<path stroke="#5f9d3a" d="M10 36h1" />
<path stroke="#82b334" d="M11 36h1" />
<path stroke="#91bf38" d="M12 36h1" />
<path stroke="#548825" d="M13 36h1" />
<path stroke="#0c0000" d="M15 36h1" />
<path stroke="#2d0b02" d="M16 36h1" />
<path stroke="#7d3f0d" d="M17 36h1" />
<path stroke="#a35e1a" d="M18 36h1" />
<path stroke="#834b17" d="M19 36h1" />
<path stroke="#211002" d="M20 36h1" />
<path stroke="#211203" d="M21 36h1" />
<path stroke="#2c1c04" d="M22 36h1" />
<path stroke="#3e1f0a" d="M23 36h1" />
<path stroke="#753910" d="M24 36h1" />
<path stroke="#1c0a02" d="M25 36h1" />
<path stroke="#1a2c00" d="M10 37h1" />
<path stroke="#496e13" d="M11 37h1" />
<path stroke="#4c6b10" d="M12 37h1" />
<path stroke="#4e1b04" d="M16 37h1" />
<path stroke="#5e3106" d="M17 37h1" />
<path stroke="#191804" d="M18 37h1" />
<path stroke="#202b0c" d="M19 37h1" />
<path stroke="#2d6025" d="M20 37h1" />
<path stroke="#316525" d="M21 37h1" />
<path stroke="#144b13" d="M22 37h1" />
<path stroke="#390c00" d="M24 37h1" />
<path stroke="#0c0100" d="M15 38h1" />
<path stroke="#1c4217" d="M17 38h1" />
<path stroke="#4a9538" d="M18 38h1" />
<path stroke="#519532" d="M19 38h1" />
<path stroke="#71a931" d="M20 38h1" />
<path stroke="#629d30" d="M21 38h1M21 41h1M19 42h1" />
<path stroke="#1c3d12" d="M22 38h1M22 40h1M22 41h1" />
<path stroke="#3e0e03" d="M14 39h1M18 43h1" />
<path stroke="#692e13" d="M15 39h1" />
<path stroke="#98bd21" d="M16 39h1M20 39h1" />
<path stroke="#5fa73f" d="M18 39h1" />
<path stroke="#74a92e" d="M19 39h1" />
<path stroke="#83b930" d="M21 39h1" />
<path stroke="#4a8330" d="M22 39h1M18 41h2" />
<path stroke="#270200" d="M13 40h1" />
<path stroke="#411411" d="M14 40h1M18 44h1M20 45h1" />
<path stroke="#240903" d="M15 40h1" />
<path stroke="#2b0d04" d="M16 40h1M19 43h2" />
<path stroke="#76ad32" d="M19 40h1" />
<path stroke="#9dc62b" d="M20 40h1" />
<path stroke="#537c1c" d="M21 40h1M20 41h1M21 42h1" />
<path stroke="#0e0000" d="M13 41h1" />
<path stroke="#330e0d" d="M14 41h1M19 44h1M18 45h2M22 45h1M20 46h1M22 47h1" />
<path stroke="#3d170a" d="M15 41h1M18 42h1M20 42h1M21 43h1M20 44h3M20 47h2" />
<path stroke="#401902" d="M16 41h1" />
<path stroke="#200300" d="M14 42h1M21 45h1M19 46h1M21 46h2M23 47h1" />
<path stroke="#431710" d="M15 42h1" />
<path stroke="#7c3a0d" d="M16 42h1M24 47h1" />
<path stroke="#39120d" d="M15 43h1" />
<path stroke="#6d3916" d="M16 43h1M23 45h1M23 46h1" />
<path stroke="#180503" d="M15 44h1" />
<path stroke="#4b1806" d="M16 44h1" />
<path stroke="#b16913" d="M24 46h2M25 47h2" />
</svg>