<svg xmlns="http://www.w3.org/2000/svg" viewBox="0 -0.5 48 48" shape-rendering="crispEdges">
<metadata>Made with Pixels to Svg https://codepen.io/shshaw/pen/XbxvNj</metadata>
<path stroke="#000000" d="M22 9h6M20 10h2M28 10h2M18 11h2M30 11h1M11 12h7M31 12h1M10 13h1M32 13h1M10 14h1M33 14h3M11 15h1M36 15h1M12 16h1M35 16h1M13 17h1M34 17h1M14 18h1M27 18h1M32 18h2M15 19h1M33 19h1M15 20h1M34 20h1M14 21h1M34 21h1M13 22h1M32 22h2M12 23h1M31 23h1M12 24h2M30 24h1M11 25h2M26 25h1M28 25h2M10 26h1M27 26h1M38 26h4M8 27h3M17 27h1M27 27h1M36 27h2M42 27h1M7 28h1M27 28h1M29 28h2M34 28h2M42 28h1M7 29h1M14 29h2M28 29h1M31 29h3M41 29h1M6 30h1M13 30h1M16 30h1M31 30h1M39 30h2M5 31h1M15 31h1M38 31h1M5 32h1M12 32h1M15 32h1M17 32h2M36 32h2M6 33h1M12 33h1M14 33h1M32 33h4M7 34h1M11 34h1M13 34h1M32 34h1M8 35h3M13 35h1M28 35h2M32 35h1M13 36h1M27 36h1M30 36h2M14 37h1M27 37h1M13 38h1M26 38h1M12 39h1M19 39h2M27 39h1M11 40h1M18 40h1M21 40h1M27 40h1M9 41h2M17 41h1M22 41h1M27 41h1M8 42h1M16 42h1M22 42h1M27 42h1M30 42h2M8 43h1M15 43h1M21 43h1M28 43h2M32 43h1M8 44h1M14 44h1M21 44h1M32 44h1M9 45h1M14 45h1M22 45h2M31 45h1M10 46h1M15 46h1M23 46h1M29 46h1M11 47h1M16 47h1M24 47h1M28 47h1" />
<path stroke="#6a1702" d="M22 10h1" />
<path stroke="#8c1f01" d="M23 10h1" />
<path stroke="#912705" d="M24 10h1" />
<path stroke="#962a06" d="M25 10h1" />
<path stroke="#9d2803" d="M26 10h1" />
<path stroke="#5d1a0d" d="M27 10h1" />
<path stroke="#550900" d="M20 11h1" />
<path stroke="#771e01" d="M21 11h1" />
<path stroke="#b24419" d="M22 11h1" />
<path stroke="#b3431a" d="M23 11h1" />
<path stroke="#c5512a" d="M24 11h1" />
<path stroke="#d0562e" d="M25 11h1" />
<path stroke="#c9512b" d="M26 11h1" />
<path stroke="#c14c23" d="M27 11h1" />
<path stroke="#a93407" d="M28 11h1" />
<path stroke="#501000" d="M29 11h1" />
<path stroke="#340100" d="M18 12h1" />
<path stroke="#6b1403" d="M19 12h1" />
<path stroke="#641a0c" d="M20 12h1" />
<path stroke="#621a0c" d="M21 12h1" />
<path stroke="#7f280d" d="M22 12h1" />
<path stroke="#a83d16" d="M23 12h1" />
<path stroke="#c95224" d="M24 12h1" />
<path stroke="#ac401c" d="M25 12h1" />
<path stroke="#9e3718" d="M26 12h1" />
<path stroke="#a73f1a" d="M27 12h1" />
<path stroke="#c55228" d="M28 12h1" />
<path stroke="#b44016" d="M29 12h1" />
<path stroke="#4f0d00" d="M30 12h1" />
<path stroke="#697906" d="M11 13h1" />
<path stroke="#5d6c0e" d="M12 13h1" />
<path stroke="#637410" d="M13 13h1" />
<path stroke="#637311" d="M14 13h1" />
<path stroke="#667310" d="M15 13h1" />
<path stroke="#39570e" d="M16 13h1" />
<path stroke="#092702" d="M17 13h1" />
<path stroke="#311a09" d="M18 13h1" />
<path stroke="#370302" d="M19 13h1" />
<path stroke="#691a0b" d="M20 13h1" />
<path stroke="#671b0c" d="M21 13h1" />
<path stroke="#63180a" d="M22 13h1" />
<path stroke="#80270d" d="M23 13h1" />
<path stroke="#a23813" d="M24 13h1" />
<path stroke="#a33714" d="M25 13h1" />
<path stroke="#a33716" d="M26 13h1" />
<path stroke="#9b3112" d="M27 13h1" />
<path stroke="#a03514" d="M28 13h1" />
<path stroke="#c94e24" d="M29 13h1" />
<path stroke="#aa3611" d="M30 13h1" />
<path stroke="#1b0100" d="M31 13h1" />
<path stroke="#52710a" d="M11 14h1" />
<path stroke="#84c343" d="M12 14h1" />
<path stroke="#4e7022" d="M13 14h1" />
<path stroke="#2c3a0e" d="M14 14h1" />
<path stroke="#374714" d="M15 14h1" />
<path stroke="#789830" d="M16 14h1" />
<path stroke="#83b733" d="M17 14h1" />
<path stroke="#6caa2c" d="M18 14h1" />
<path stroke="#0a290c" d="M19 14h1" />
<path stroke="#220303" d="M20 14h1" />
<path stroke="#681909" d="M21 14h1" />
<path stroke="#6c1b0c" d="M22 14h1" />
<path stroke="#761f0d" d="M23 14h1" />
<path stroke="#771a0a" d="M24 14h1" />
<path stroke="#761609" d="M25 14h1" />
<path stroke="#3f0e06" d="M26 14h1" />
<path stroke="#2a2006" d="M27 14h1" />
<path stroke="#291a06" d="M28 14h1" />
<path stroke="#62210d" d="M29 14h1" />
<path stroke="#781b0c" d="M30 14h1" />
<path stroke="#5a0600" d="M31 14h1" />
<path stroke="#170004" d="M32 14h1" />
<path stroke="#3f6507" d="M12 15h1" />
<path stroke="#375e1a" d="M13 15h1" />
<path stroke="#183e21" d="M14 15h1" />
<path stroke="#2f5a29" d="M15 15h1" />
<path stroke="#132813" d="M16 15h1" />
<path stroke="#535d0e" d="M17 15h1" />
<path stroke="#97af1e" d="M18 15h1" />
<path stroke="#5a932e" d="M19 15h1" />
<path stroke="#154c27" d="M20 15h1" />
<path stroke="#170403" d="M21 15h1" />
<path stroke="#88210c" d="M22 15h1" />
<path stroke="#4f0b03" d="M23 15h1" />
<path stroke="#1b3918" d="M24 15h1" />
<path stroke="#2d5f29" d="M25 15h1" />
<path stroke="#3d7022" d="M26 15h1" />
<path stroke="#6aaa25" d="M27 15h1" />
<path stroke="#61a229" d="M28 15h1" />
<path stroke="#2f6020" d="M29 15h1" />
<path stroke="#12240c" d="M30 15h1" />
<path stroke="#2d3913" d="M31 15h1" />
<path stroke="#272506" d="M32 15h1" />
<path stroke="#75971b" d="M33 15h1M33 20h1M32 21h1" />
<path stroke="#3f551e" d="M34 15h1" />
<path stroke="#1b2407" d="M35 15h1" />
<path stroke="#60720b" d="M13 16h1" />
<path stroke="#84a823" d="M14 16h1" />
<path stroke="#467530" d="M15 16h1" />
<path stroke="#396430" d="M16 16h1" />
<path stroke="#25421f" d="M17 16h1" />
<path stroke="#05140e" d="M18 16h1" />
<path stroke="#607e1e" d="M19 16h1" />
<path stroke="#80b839" d="M20 16h1" />
<path stroke="#010604" d="M21 16h1" />
<path stroke="#310000" d="M22 16h1" />
<path stroke="#1e3a19" d="M23 16h1" />
<path stroke="#419342" d="M24 16h1" />
<path stroke="#3a732d" d="M25 16h1" />
<path stroke="#7ea122" d="M26 16h1" />
<path stroke="#aad224" d="M27 16h1" />
<path stroke="#9fc522" d="M28 16h1" />
<path stroke="#73af2e" d="M29 16h1" />
<path stroke="#56a23d" d="M30 16h1" />
<path stroke="#63ad41" d="M31 16h1" />
<path stroke="#2d490d" d="M32 16h1" />
<path stroke="#253f03" d="M33 16h1" />
<path stroke="#607400" d="M34 16h1" />
<path stroke="#658012" d="M14 17h1" />
<path stroke="#749911" d="M15 17h1" />
<path stroke="#5a8b30" d="M16 17h1" />
<path stroke="#427536" d="M17 17h1" />
<path stroke="#203d21" d="M18 17h1" />
<path stroke="#465e17" d="M19 17h1" />
<path stroke="#82ae28" d="M20 17h1" />
<path stroke="#1e3c14" d="M21 17h1" />
<path stroke="#225527" d="M22 17h1" />
<path stroke="#4c883f" d="M23 17h1" />
<path stroke="#645220" d="M24 17h1" />
<path stroke="#5c2303" d="M25 17h1" />
<path stroke="#412e0a" d="M26 17h1" />
<path stroke="#4e6213" d="M27 17h1" />
<path stroke="#adc628" d="M28 17h1" />
<path stroke="#93b52b" d="M29 17h1" />
<path stroke="#448130" d="M30 17h1" />
<path stroke="#092010" d="M31 17h1" />
<path stroke="#020c00" d="M32 17h1" />
<path stroke="#344a00" d="M33 17h1" />
<path stroke="#1c3627" d="M15 18h1" />
<path stroke="#779e1e" d="M16 18h1" />
<path stroke="#578b32" d="M17 18h1" />
<path stroke="#345724" d="M18 18h1" />
<path stroke="#182a0d" d="M19 18h1" />
<path stroke="#07120b" d="M20 18h1" />
<path stroke="#4b782e" d="M21 18h1" />
<path stroke="#67b242" d="M22 18h1" />
<path stroke="#558742" d="M23 18h1" />
<path stroke="#b36001" d="M24 18h1" />
<path stroke="#ffec37" d="M25 18h1" />
<path stroke="#b0a97b" d="M26 18h1" />
<path stroke="#131405" d="M28 18h1" />
<path stroke="#2f4f1e" d="M29 18h1" />
<path stroke="#669a36" d="M30 18h1" />
<path stroke="#444503" d="M31 18h1" />
<path stroke="#000b22" d="M16 19h1" />
<path stroke="#6a8016" d="M17 19h1" />
<path stroke="#81a72b" d="M18 19h1" />
<path stroke="#5d8329" d="M19 19h1" />
<path stroke="#010309" d="M20 19h1" />
<path stroke="#4c7327" d="M21 19h1" />
<path stroke="#68ab38" d="M22 19h1" />
<path stroke="#568442" d="M23 19h1" />
<path stroke="#bd6c01" d="M24 19h1" />
<path stroke="#fffa44" d="M25 19h1" />
<path stroke="#c3c18c" d="M26 19h1" />
<path stroke="#030100" d="M27 19h1" />
<path stroke="#030b0b" d="M28 19h1" />
<path stroke="#47873c" d="M29 19h1" />
<path stroke="#87b839" d="M30 19h1" />
<path stroke="#ccd622" d="M31 19h1" />
<path stroke="#405329" d="M32 19h1" />
<path stroke="#0d1e12" d="M16 20h1" />
<path stroke="#000200" d="M17 20h1" />
<path stroke="#000003" d="M18 20h1" />
<path stroke="#010606" d="M19 20h1" />
<path stroke="#1c431f" d="M20 20h1" />
<path stroke="#528430" d="M21 20h1" />
<path stroke="#6ca939" d="M22 20h1" />
<path stroke="#5a8e3c" d="M23 20h1" />
<path stroke="#9b6e16" d="M24 20h1" />
<path stroke="#d39906" d="M25 20h1" />
<path stroke="#eba60c" d="M26 20h1" />
<path stroke="#948117" d="M27 20h1" />
<path stroke="#3a813d" d="M28 20h1" />
<path stroke="#6ba735" d="M29 20h1" />
<path stroke="#63a038" d="M30 20h1" />
<path stroke="#83b73d" d="M31 20h1" />
<path stroke="#9aae14" d="M32 20h1" />
<path stroke="#4a1400" d="M15 21h1" />
<path stroke="#0e2702" d="M16 21h1" />
<path stroke="#060401" d="M17 21h1" />
<path stroke="#010001" d="M18 21h1" />
<path stroke="#11120a" d="M19 21h1" />
<path stroke="#204617" d="M20 21h1" />
<path stroke="#102710" d="M21 21h1" />
<path stroke="#578b37" d="M22 21h1" />
<path stroke="#63a340" d="M23 21h1" />
<path stroke="#5a943c" d="M24 21h1" />
<path stroke="#6e7730" d="M25 21h1" />
<path stroke="#717a2b" d="M26 21h1" />
<path stroke="#60913d" d="M27 21h1" />
<path stroke="#20441c" d="M28 21h1" />
<path stroke="#5a7920" d="M29 21h1" />
<path stroke="#578831" d="M30 21h1" />
<path stroke="#4c7e2d" d="M31 21h1" />
<path stroke="#3a4502" d="M33 21h1" />
<path stroke="#4f1100" d="M14 22h1" />
<path stroke="#341206" d="M15 22h1" />
<path stroke="#5f1809" d="M16 22h1" />
<path stroke="#912a11" d="M17 22h1" />
<path stroke="#380702" d="M18 22h1" />
<path stroke="#4e1902" d="M19 22h1" />
<path stroke="#273402" d="M20 22h1" />
<path stroke="#0a1a03" d="M21 22h1" />
<path stroke="#040d0d" d="M22 22h1" />
<path stroke="#477234" d="M23 22h1" />
<path stroke="#66a643" d="M24 22h1" />
<path stroke="#5da341" d="M25 22h1" />
<path stroke="#5fa641" d="M26 22h1" />
<path stroke="#63a242" d="M27 22h1" />
<path stroke="#32582a" d="M28 22h1" />
<path stroke="#21431e" d="M29 22h1" />
<path stroke="#1e3807" d="M30 22h1" />
<path stroke="#000a1f" d="M31 22h1" />
<path stroke="#370200" d="M13 23h1" />
<path stroke="#070000" d="M14 23h1" />
<path stroke="#73220a" d="M15 23h1" />
<path stroke="#df592a" d="M16 23h1" />
<path stroke="#d8572c" d="M17 23h1" />
<path stroke="#a53a1b" d="M18 23h1" />
<path stroke="#9f4317" d="M19 23h1" />
<path stroke="#7a3a11" d="M20 23h1" />
<path stroke="#2c5212" d="M21 23h1" />
<path stroke="#152e11" d="M22 23h1" />
<path stroke="#000006" d="M23 23h1" />
<path stroke="#3f622e" d="M24 23h1" />
<path stroke="#5e9540" d="M25 23h1" />
<path stroke="#6aa23a" d="M26 23h1" />
<path stroke="#6faa39" d="M27 23h1" />
<path stroke="#5e9d3e" d="M28 23h1" />
<path stroke="#51892c" d="M29 23h1" />
<path stroke="#112e20" d="M30 23h1" />
<path stroke="#274e13" d="M14 24h1" />
<path stroke="#3a6b1f" d="M15 24h1" />
<path stroke="#722b13" d="M16 24h1" />
<path stroke="#e25a2a" d="M17 24h1" />
<path stroke="#d75a2a" d="M18 24h1" />
<path stroke="#b94c20" d="M19 24h1" />
<path stroke="#6b1e0b" d="M20 24h1" />
<path stroke="#1c0c02" d="M21 24h1" />
<path stroke="#4e7f22" d="M22 24h1" />
<path stroke="#1b3c14" d="M23 24h1" />
<path stroke="#000102" d="M24 24h1" />
<path stroke="#010206" d="M25 24h1" />
<path stroke="#375620" d="M26 24h1" />
<path stroke="#608d23" d="M27 24h1" />
<path stroke="#638a11" d="M28 24h1" />
<path stroke="#1f2e03" d="M29 24h1" />
<path stroke="#46650d" d="M13 25h1" />
<path stroke="#7cb32d" d="M14 25h1" />
<path stroke="#83c136" d="M15 25h1" />
<path stroke="#29571c" d="M16 25h1" />
<path stroke="#7b290d" d="M17 25h1" />
<path stroke="#a93a16" d="M18 25h1" />
<path stroke="#4c1206" d="M19 25h1" />
<path stroke="#270b02" d="M20 25h1" />
<path stroke="#773c10" d="M21 25h1" />
<path stroke="#2c2c09" d="M22 25h1" />
<path stroke="#477f1b" d="M23 25h1" />
<path stroke="#0c2c06" d="M24 25h1" />
<path stroke="#000001" d="M25 25h1M15 28h1M25 33h1" />
<path stroke="#000010" d="M27 25h1" />
<path stroke="#1a3319" d="M11 26h1" />
<path stroke="#85a717" d="M12 26h1" />
<path stroke="#98c835" d="M13 26h1" />
<path stroke="#80b534" d="M14 26h1" />
<path stroke="#76b235" d="M15 26h1" />
<path stroke="#39772c" d="M16 26h1" />
<path stroke="#041a09" d="M17 26h1" />
<path stroke="#140001" d="M18 26h1" />
<path stroke="#1e0602" d="M19 26h1" />
<path stroke="#582c0b" d="M20 26h1" />
<path stroke="#9e631f" d="M21 26h1" />
<path stroke="#562506" d="M22 26h1" />
<path stroke="#0e1004" d="M23 26h1" />
<path stroke="#1e1006" d="M24 26h1" />
<path stroke="#3a0d09" d="M25 26h1" />
<path stroke="#290200" d="M26 26h1" />
<path stroke="#518318" d="M11 27h1" />
<path stroke="#8cbe37" d="M12 27h1" />
<path stroke="#498334" d="M13 27h1" />
<path stroke="#528c36" d="M14 27h1" />
<path stroke="#2d5724" d="M15 27h1" />
<path stroke="#000205" d="M16 27h1" />
<path stroke="#220a02" d="M18 27h1" />
<path stroke="#623109" d="M19 27h1" />
<path stroke="#965a1a" d="M20 27h1" />
<path stroke="#a06420" d="M21 27h1" />
<path stroke="#975d1b" d="M22 27h1" />
<path stroke="#502306" d="M23 27h1M25 44h1" />
<path stroke="#66340a" d="M24 27h1" />
<path stroke="#642c12" d="M25 27h1" />
<path stroke="#3a0600" d="M26 27h1" />
<path stroke="#aea79c" d="M38 27h1" />
<path stroke="#c3bbb4" d="M39 27h1" />
<path stroke="#cbc6c2" d="M40 27h1" />
<path stroke="#ebdbca" d="M41 27h1" />
<path stroke="#270100" d="M8 28h1" />
<path stroke="#662109" d="M9 28h1" />
<path stroke="#230e01" d="M10 28h1" />
<path stroke="#497c24" d="M11 28h1" />
<path stroke="#98c932" d="M12 28h1" />
<path stroke="#73a931" d="M13 28h1" />
<path stroke="#143013" d="M14 28h1" />
<path stroke="#090003" d="M16 28h1" />
<path stroke="#4f1f09" d="M17 28h1" />
<path stroke="#693209" d="M18 28h1" />
<path stroke="#6d390b" d="M19 28h1" />
<path stroke="#734112" d="M20 28h1" />
<path stroke="#915a1b" d="M21 28h1" />
<path stroke="#9d6420" d="M22 28h1" />
<path stroke="#945c19" d="M23 28h1" />
<path stroke="#7c460c" d="M24 28h1" />
<path stroke="#582b10" d="M25 28h1" />
<path stroke="#1e0000" d="M26 28h1" />
<path stroke="#b3b4b7" d="M36 28h1" />
<path stroke="#c7bcb3" d="M37 28h1" />
<path stroke="#a09e9f" d="M38 28h1" />
<path stroke="#97979a" d="M39 28h1" />
<path stroke="#d8d3ce" d="M40 28h1" />
<path stroke="#67676a" d="M41 28h1M40 29h1" />
<path stroke="#3f1000" d="M8 29h1" />
<path stroke="#953213" d="M9 29h1" />
<path stroke="#b34d19" d="M10 29h1" />
<path stroke="#6c3c12" d="M11 29h1" />
<path stroke="#6a5d19" d="M12 29h1" />
<path stroke="#435310" d="M13 29h1" />
<path stroke="#070101" d="M16 29h1" />
<path stroke="#351403" d="M17 29h1" />
<path stroke="#653307" d="M18 29h1" />
<path stroke="#7d440e" d="M19 29h1" />
<path stroke="#884f14" d="M20 29h1" />
<path stroke="#9b601b" d="M21 29h1" />
<path stroke="#9e611f" d="M22 29h1" />
<path stroke="#975c1e" d="M23 29h1" />
<path stroke="#7d400e" d="M24 29h1" />
<path stroke="#390b06" d="M25 29h1" />
<path stroke="#091b01" d="M26 29h1" />
<path stroke="#0b2e24" d="M27 29h1" />
<path stroke="#843c02" d="M29 29h1" />
<path stroke="#753100" d="M30 29h1" />
<path stroke="#ada59f" d="M34 29h1" />
<path stroke="#8d857f" d="M35 29h1" />
<path stroke="#9e9a99" d="M36 29h1" />
<path stroke="#ccccce" d="M37 29h1" />
<path stroke="#a6a6a6" d="M38 29h1" />
<path stroke="#aca69b" d="M39 29h1" />
<path stroke="#1c3f04" d="M7 30h1" />
<path stroke="#649230" d="M8 30h1" />
<path stroke="#343310" d="M9 30h1" />
<path stroke="#641603" d="M10 30h1" />
<path stroke="#a74313" d="M11 30h1" />
<path stroke="#7f3416" d="M12 30h1" />
<path stroke="#4e4329" d="M17 30h1" />
<path stroke="#321705" d="M18 30h1" />
<path stroke="#844014" d="M19 30h1" />
<path stroke="#794019" d="M20 30h1" />
<path stroke="#2e1b0d" d="M21 30h1" />
<path stroke="#412c04" d="M22 30h1" />
<path stroke="#665207" d="M23 30h1" />
<path stroke="#5d4b05" d="M24 30h1" />
<path stroke="#3a2802" d="M25 30h1" />
<path stroke="#010900" d="M26 30h1" />
<path stroke="#103603" d="M27 30h1" />
<path stroke="#020000" d="M28 30h1" />
<path stroke="#a85013" d="M29 30h1" />
<path stroke="#864706" d="M30 30h1" />
<path stroke="#b2adab" d="M32 30h1" />
<path stroke="#88817c" d="M33 30h1" />
<path stroke="#838383" d="M34 30h1" />
<path stroke="#6e6c6a" d="M35 30h1" />
<path stroke="#7f7f7f" d="M36 30h1" />
<path stroke="#817b77" d="M37 30h1" />
<path stroke="#4c4a47" d="M38 30h1" />
<path stroke="#203c0b" d="M6 31h1" />
<path stroke="#649d35" d="M7 31h1" />
<path stroke="#65a336" d="M8 31h1" />
<path stroke="#79a931" d="M9 31h1" />
<path stroke="#556918" d="M10 31h1" />
<path stroke="#1e1c06" d="M11 31h1" />
<path stroke="#050000" d="M12 31h1" />
<path stroke="#2a0c05" d="M16 31h1" />
<path stroke="#3e2518" d="M17 31h1" />
<path stroke="#010209" d="M18 31h1" />
<path stroke="#29272a" d="M19 31h1" />
<path stroke="#474442" d="M20 31h1" />
<path stroke="#333641" d="M21 31h1" />
<path stroke="#313511" d="M22 31h1" />
<path stroke="#ceaf08" d="M23 31h1" />
<path stroke="#d69804" d="M24 31h1" />
<path stroke="#cbb513" d="M25 31h1" />
<path stroke="#2c3005" d="M26 31h1" />
<path stroke="#a1c432" d="M27 31h1" />
<path stroke="#2b5f21" d="M28 31h1" />
<path stroke="#551906" d="M29 31h1" />
<path stroke="#713001" d="M30 31h1" />
<path stroke="#5f6265" d="M31 31h1" />
<path stroke="#aba8a6" d="M32 31h1" />
<path stroke="#919193" d="M33 31h1" />
<path stroke="#dedbd9" d="M34 31h1" />
<path stroke="#626363" d="M35 31h1" />
<path stroke="#5e5347" d="M36 31h1" />
<path stroke="#503f30" d="M37 31h1" />
<path stroke="#183722" d="M6 32h1" />
<path stroke="#7cab36" d="M7 32h1" />
<path stroke="#629a31" d="M8 32h1" />
<path stroke="#86ae28" d="M9 32h1" />
<path stroke="#abd538" d="M10 32h1" />
<path stroke="#4a6d19" d="M11 32h1" />
<path stroke="#320602" d="M16 32h1" />
<path stroke="#03060e" d="M19 32h1" />
<path stroke="#2d3031" d="M20 32h1" />
<path stroke="#4b4a45" d="M21 32h1" />
<path stroke="#07112a" d="M22 32h1" />
<path stroke="#8c6603" d="M23 32h1" />
<path stroke="#925a03" d="M24 32h1" />
<path stroke="#3f4413" d="M25 32h1" />
<path stroke="#53651b" d="M26 32h1" />
<path stroke="#5f7020" d="M27 32h1" />
<path stroke="#02180a" d="M28 32h1" />
<path stroke="#231c07" d="M29 32h1" />
<path stroke="#8b4a0c" d="M30 32h1" />
<path stroke="#29241c" d="M31 32h1" />
<path stroke="#363636" d="M32 32h1" />
<path stroke="#403933" d="M33 32h1" />
<path stroke="#645749" d="M34 32h2" />
<path stroke="#385412" d="M7 33h1" />
<path stroke="#5a8f33" d="M8 33h1" />
<path stroke="#90b429" d="M9 33h1" />
<path stroke="#99c635" d="M10 33h1" />
<path stroke="#4f7916" d="M11 33h1" />
<path stroke="#350c04" d="M15 33h1" />
<path stroke="#371105" d="M16 33h1" />
<path stroke="#431b05" d="M17 33h1" />
<path stroke="#471a04" d="M18 33h1" />
<path stroke="#100101" d="M19 33h1" />
<path stroke="#070305" d="M20 33h1" />
<path stroke="#1c1311" d="M21 33h1" />
<path stroke="#0c050a" d="M22 33h1" />
<path stroke="#5b4f03" d="M23 33h1" />
<path stroke="#857d0c" d="M24 33h1" />
<path stroke="#527d24" d="M26 33h1" />
<path stroke="#324b10" d="M27 33h1" />
<path stroke="#3f6623" d="M28 33h1" />
<path stroke="#25471c" d="M29 33h1" />
<path stroke="#c6731b" d="M30 33h1" />
<path stroke="#431f01" d="M31 33h1" />
<path stroke="#477e24" d="M8 34h1" />
<path stroke="#6fa736" d="M9 34h1" />
<path stroke="#517f19" d="M10 34h1" />
<path stroke="#340900" d="M14 34h1" />
<path stroke="#5e280d" d="M15 34h1" />
<path stroke="#532006" d="M16 34h1" />
<path stroke="#8f5210" d="M17 34h1" />
<path stroke="#603310" d="M18 34h1" />
<path stroke="#3e1206" d="M19 34h1" />
<path stroke="#6a3207" d="M20 34h1" />
<path stroke="#8a4f11" d="M21 34h1" />
<path stroke="#7e4506" d="M22 34h1" />
<path stroke="#562b06" d="M23 34h1" />
<path stroke="#532409" d="M24 34h1" />
<path stroke="#3c1705" d="M25 34h1" />
<path stroke="#0e250a" d="M26 34h1" />
<path stroke="#457713" d="M27 34h1" />
<path stroke="#51770e" d="M28 34h1" />
<path stroke="#020300" d="M29 34h1" />
<path stroke="#72320a" d="M30 34h1" />
<path stroke="#bc7904" d="M31 34h1" />
<path stroke="#5f2102" d="M14 35h1" />
<path stroke="#5b2a0c" d="M15 35h1" />
<path stroke="#83470e" d="M16 35h1" />
<path stroke="#5e3407" d="M17 35h1" />
<path stroke="#200c06" d="M18 35h1" />
<path stroke="#67340c" d="M19 35h1" />
<path stroke="#995e19" d="M20 35h1" />
<path stroke="#9e6420" d="M21 35h1" />
<path stroke="#723e07" d="M22 35h1" />
<path stroke="#a46016" d="M23 35h1" />
<path stroke="#c37621" d="M24 35h1" />
<path stroke="#975116" d="M25 35h1" />
<path stroke="#310400" d="M26 35h1" />
<path stroke="#000322" d="M27 35h1" />
<path stroke="#4d1800" d="M30 35h1" />
<path stroke="#814b00" d="M31 35h1" />
<path stroke="#3d1100" d="M14 36h1" />
<path stroke="#763910" d="M15 36h1" />
<path stroke="#754410" d="M16 36h1" />
<path stroke="#1f0902" d="M17 36h1" />
<path stroke="#4b2307" d="M18 36h1" />
<path stroke="#874e11" d="M19 36h1" />
<path stroke="#a5661c" d="M20 36h1" />
<path stroke="#a1631e" d="M21 36h1" />
<path stroke="#341202" d="M22 36h1" />
<path stroke="#523f11" d="M23 36h1" />
<path stroke="#3f350d" d="M24 36h1" />
<path stroke="#784714" d="M25 36h1" />
<path stroke="#964301" d="M26 36h1" />
<path stroke="#361104" d="M15 37h1" />
<path stroke="#0b0000" d="M16 37h1" />
<path stroke="#531c03" d="M17 37h1" />
<path stroke="#7d400b" d="M18 37h1" />
<path stroke="#a16118" d="M19 37h1" />
<path stroke="#7d4c14" d="M20 37h1" />
<path stroke="#39270a" d="M21 37h1" />
<path stroke="#213c14" d="M22 37h1" />
<path stroke="#2b712c" d="M23 37h1" />
<path stroke="#3e8530" d="M24 37h1" />
<path stroke="#271f06" d="M25 37h1" />
<path stroke="#4a0700" d="M26 37h1" />
<path stroke="#223d04" d="M14 38h1" />
<path stroke="#1e4b15" d="M15 38h1" />
<path stroke="#061403" d="M16 38h1" />
<path stroke="#1e1102" d="M17 38h1" />
<path stroke="#2b1e05" d="M18 38h1" />
<path stroke="#200c00" d="M19 38h1" />
<path stroke="#090601" d="M20 38h1" />
<path stroke="#285c20" d="M21 38h1" />
<path stroke="#569c38" d="M22 38h1" />
<path stroke="#6aa537" d="M23 38h1" />
<path stroke="#a8cf3b" d="M24 38h1" />
<path stroke="#454704" d="M25 38h1" />
<path stroke="#060101" d="M13 39h1" />
<path stroke="#091c02" d="M14 39h1" />
<path stroke="#38671a" d="M15 39h1" />
<path stroke="#2d5e19" d="M16 39h1" />
<path stroke="#32631f" d="M17 39h1" />
<path stroke="#224302" d="M18 39h1" />
<path stroke="#192d02" d="M21 39h1" />
<path stroke="#497e30" d="M22 39h1" />
<path stroke="#568f32" d="M23 39h1" />
<path stroke="#7cac38" d="M24 39h1" />
<path stroke="#8cb320" d="M25 39h1" />
<path stroke="#244530" d="M26 39h1" />
<path stroke="#521a00" d="M12 40h1" />
<path stroke="#8d490e" d="M13 40h1" />
<path stroke="#250d02" d="M14 40h1" />
<path stroke="#001001" d="M15 40h1" />
<path stroke="#1f460d" d="M16 40h1" />
<path stroke="#0e2102" d="M17 40h1" />
<path stroke="#010100" d="M22 40h1" />
<path stroke="#356129" d="M23 40h1" />
<path stroke="#69a138" d="M24 40h1" />
<path stroke="#a1d72b" d="M25 40h1" />
<path stroke="#3e5601" d="M26 40h1" />
<path stroke="#4a1402" d="M11 41h1" />
<path stroke="#562814" d="M12 41h1" />
<path stroke="#693913" d="M13 41h1" />
<path stroke="#72370c" d="M14 41h1" />
<path stroke="#2e0904" d="M15 41h1" />
<path stroke="#241e00" d="M16 41h1" />
<path stroke="#568a2e" d="M23 41h1" />
<path stroke="#739829" d="M24 41h1" />
<path stroke="#434f0d" d="M25 41h1" />
<path stroke="#3a2101" d="M26 41h1" />
<path stroke="#240300" d="M9 42h1" />
<path stroke="#4a1506" d="M10 42h1" />
<path stroke="#40170b" d="M11 42h1" />
<path stroke="#3d1807" d="M12 42h1" />
<path stroke="#51220c" d="M13 42h1" />
<path stroke="#58240b" d="M14 42h1" />
<path stroke="#3c0c00" d="M15 42h1" />
<path stroke="#182809" d="M23 42h1" />
<path stroke="#3c2a0c" d="M24 42h1" />
<path stroke="#8f4711" d="M25 42h1" />
<path stroke="#9a4c12" d="M26 42h1" />
<path stroke="#430c00" d="M9 43h1" />
<path stroke="#471b12" d="M10 43h1" />
<path stroke="#311207" d="M11 43h1" />
<path stroke="#140503" d="M12 43h1" />
<path stroke="#100301" d="M13 43h1" />
<path stroke="#0a0100" d="M14 43h1" />
<path stroke="#220100" d="M22 43h1" />
<path stroke="#542110" d="M23 43h1" />
<path stroke="#9b5514" d="M24 43h1" />
<path stroke="#a45d16" d="M25 43h1" />
<path stroke="#552509" d="M26 43h1" />
<path stroke="#1c0603" d="M27 43h1" />
<path stroke="#6b3703" d="M30 43h1" />
<path stroke="#502201" d="M31 43h1" />
<path stroke="#060000" d="M9 44h1" />
<path stroke="#37100d" d="M10 44h1" />
<path stroke="#6c3511" d="M11 44h1" />
<path stroke="#834516" d="M12 44h1" />
<path stroke="#2c0500" d="M13 44h1" />
<path stroke="#230200" d="M22 44h1" />
<path stroke="#5a210b" d="M23 44h1" />
<path stroke="#74390e" d="M24 44h1" />
<path stroke="#2c0c03" d="M26 44h1" />
<path stroke="#612d0c" d="M27 44h1" />
<path stroke="#804409" d="M28 44h1" />
<path stroke="#a05f14" d="M29 44h1" />
<path stroke="#8e5321" d="M30 44h1" />
<path stroke="#501e01" d="M31 44h1" />
<path stroke="#250a05" d="M10 45h1" />
<path stroke="#491e0e" d="M11 45h1" />
<path stroke="#93561a" d="M12 45h1" />
<path stroke="#713704" d="M13 45h1" />
<path stroke="#100102" d="M24 45h1" />
<path stroke="#250904" d="M25 45h1" />
<path stroke="#502206" d="M26 45h1" />
<path stroke="#7b4310" d="M27 45h1" />
<path stroke="#b36c24" d="M28 45h1" />
<path stroke="#7f471c" d="M29 45h1" />
<path stroke="#200600" d="M30 45h1" />
<path stroke="#340c05" d="M11 46h1" />
<path stroke="#622d12" d="M12 46h1" />
<path stroke="#9a5a14" d="M13 46h1" />
<path stroke="#733a01" d="M14 46h1" />
<path stroke="#270300" d="M24 46h1" />
<path stroke="#5c2710" d="M25 46h1" />
<path stroke="#73380d" d="M26 46h1" />
<path stroke="#985718" d="M27 46h1" />
<path stroke="#602e06" d="M28 46h1" />
<path stroke="#000214" d="M30 46h1" />
<path stroke="#391003" d="M12 47h1" />
<path stroke="#572506" d="M13 47h1" />
<path stroke="#7d4211" d="M14 47h1" />
<path stroke="#531b00" d="M15 47h1" />
<path stroke="#3c1100" d="M25 47h1" />
<path stroke="#3f1402" d="M26 47h1" />
<path stroke="#250400" d="M27 47h1" />
</svg>