<svg xmlns="http://www.w3.org/2000/svg" viewBox="0 -0.5 48 48" shape-rendering="crispEdges">
<metadata>Made with Pixels to Svg https://codepen.io/shshaw/pen/XbxvNj</metadata>
<path stroke="#000000" d="M20 10h5M17 11h3M25 11h2M16 12h1M27 12h1M8 13h8M28 13h1M7 14h1M29 14h1M8 15h1M30 15h3M9 16h1M33 16h1M10 17h1M33 17h1M11 18h1M32 18h1M12 19h1M29 19h3M13 20h1M30 20h1M12 21h2M31 21h1M11 22h1M31 22h1M10 23h1M29 23h2M10 24h1M28 24h1M37 24h3M9 25h1M27 25h1M35 25h2M40 25h1M9 26h1M24 26h3M33 26h2M40 26h1M8 27h1M24 27h1M31 27h2M39 27h1M8 28h1M24 28h1M26 28h2M30 28h1M37 28h2M8 29h1M25 29h1M28 29h2M36 29h1M8 30h1M25 30h1M35 30h1M8 31h1M33 31h2M9 32h1M32 32h1M9 33h1M29 33h3M9 34h1M30 34h1M10 35h1M14 35h1M26 35h1M30 35h1M11 36h2M25 36h5M12 37h1M25 37h2M11 38h1M26 38h1M11 39h1M18 39h2M27 39h1M10 40h1M17 40h1M27 40h1M9 41h1M16 41h1M21 41h1M27 41h1M8 42h1M15 42h1M21 42h1M26 42h1M7 43h1M14 43h1M21 43h1M26 43h1M7 44h1M13 44h1M21 44h1M27 44h3M7 45h1M13 45h1M21 45h1M30 45h1M8 46h1M14 46h1M21 46h1M29 46h2M9 47h1M15 47h1M22 47h1M27 47h2" />
<path stroke="#8d2401" d="M20 11h1" />
<path stroke="#822002" d="M21 11h1" />
<path stroke="#982904" d="M22 11h1" />
<path stroke="#982903" d="M23 11h1" />
<path stroke="#922705" d="M24 11h1" />
<path stroke="#460a00" d="M17 12h1" />
<path stroke="#691601" d="M18 12h1" />
<path stroke="#933612" d="M19 12h1" />
<path stroke="#b74e24" d="M20 12h1" />
<path stroke="#b44a22" d="M21 12h1" />
<path stroke="#d1562c" d="M22 12h1" />
<path stroke="#c65028" d="M23 12h1" />
<path stroke="#c7522a" d="M24 12h1" />
<path stroke="#b84219" d="M25 12h1" />
<path stroke="#892201" d="M26 12h1" />
<path stroke="#5a0c00" d="M16 13h1" />
<path stroke="#671c10" d="M17 13h1" />
<path stroke="#5e190e" d="M18 13h1" />
<path stroke="#6b200e" d="M19 13h1" />
<path stroke="#8f2d10" d="M20 13h1" />
<path stroke="#c14d20" d="M21 13h1" />
<path stroke="#bd4c21" d="M22 13h1" />
<path stroke="#983514" d="M23 13h1" />
<path stroke="#983816" d="M24 13h1" />
<path stroke="#af471f" d="M25 13h1" />
<path stroke="#c95227" d="M26 13h1" />
<path stroke="#802402" d="M27 13h1" />
<path stroke="#535700" d="M8 14h1" />
<path stroke="#72840e" d="M9 14h1" />
<path stroke="#6d7e0b" d="M10 14h1" />
<path stroke="#6a7a06" d="M11 14h1" />
<path stroke="#697504" d="M12 14h1" />
<path stroke="#5f7006" d="M13 14h1" />
<path stroke="#23520d" d="M14 14h1" />
<path stroke="#254712" d="M15 14h1" />
<path stroke="#130a05" d="M16 14h1" />
<path stroke="#420703" d="M17 14h1" />
<path stroke="#6d1e0c" d="M18 14h1" />
<path stroke="#5e170a" d="M19 14h1" />
<path stroke="#671909" d="M20 14h1" />
<path stroke="#942e11" d="M21 14h1" />
<path stroke="#a53916" d="M22 14h1" />
<path stroke="#9e3814" d="M23 14h1" />
<path stroke="#9b3513" d="M24 14h1" />
<path stroke="#983311" d="M25 14h1" />
<path stroke="#bd461e" d="M26 14h1" />
<path stroke="#cc4f23" d="M27 14h1" />
<path stroke="#500b00" d="M28 14h1" />
<path stroke="#65992d" d="M9 15h1" />
<path stroke="#6fa93f" d="M10 15h1" />
<path stroke="#24340c" d="M11 15h1" />
<path stroke="#273611" d="M12 15h1" />
<path stroke="#3e5116" d="M13 15h1" />
<path stroke="#82ac2a" d="M14 15h1" />
<path stroke="#96cb2e" d="M15 15h1" />
<path stroke="#558723" d="M16 15h1" />
<path stroke="#040903" d="M17 15h1" />
<path stroke="#4c0c05" d="M18 15h1" />
<path stroke="#69190a" d="M19 15h1M21 15h1" />
<path stroke="#691c0c" d="M20 15h1" />
<path stroke="#6b1a0b" d="M22 15h1" />
<path stroke="#4f1006" d="M23 15h1" />
<path stroke="#2b1a06" d="M24 15h1M19 31h1" />
<path stroke="#2b1b06" d="M25 15h1" />
<path stroke="#431b09" d="M26 15h1" />
<path stroke="#822812" d="M27 15h1" />
<path stroke="#560d0a" d="M28 15h1" />
<path stroke="#400000" d="M29 15h1" />
<path stroke="#3e6a1a" d="M10 16h1" />
<path stroke="#295421" d="M11 16h1" />
<path stroke="#336230" d="M12 16h1" />
<path stroke="#274c23" d="M13 16h1" />
<path stroke="#101906" d="M14 16h1" />
<path stroke="#7b8616" d="M15 16h1" />
<path stroke="#799823" d="M16 16h1" />
<path stroke="#45812b" d="M17 16h1" />
<path stroke="#061f0e" d="M18 16h1" />
<path stroke="#6b1304" d="M19 16h1" />
<path stroke="#741906" d="M20 16h1" />
<path stroke="#18220c" d="M21 16h1" />
<path stroke="#28551e" d="M22 16h1" />
<path stroke="#25561a" d="M23 16h1" />
<path stroke="#659f2c" d="M24 16h1" />
<path stroke="#6fab30" d="M25 16h1" />
<path stroke="#407a29" d="M26 16h1" />
<path stroke="#193112" d="M27 16h1" />
<path stroke="#192d13" d="M28 16h1" />
<path stroke="#313613" d="M29 16h1" />
<path stroke="#030e0e" d="M30 16h1" />
<path stroke="#284427" d="M31 16h1" />
<path stroke="#374609" d="M32 16h1" />
<path stroke="#8fab0a" d="M11 17h1" />
<path stroke="#61922c" d="M12 17h1" />
<path stroke="#386b2e" d="M13 17h1" />
<path stroke="#315528" d="M14 17h1" />
<path stroke="#18311b" d="M15 17h1" />
<path stroke="#0e1b07" d="M16 17h1" />
<path stroke="#92cb38" d="M17 17h1" />
<path stroke="#2b521a" d="M18 17h1" />
<path stroke="#1f0000" d="M19 17h1" />
<path stroke="#2b220a" d="M20 17h1" />
<path stroke="#358637" d="M21 17h1" />
<path stroke="#2d6724" d="M22 17h1" />
<path stroke="#658a1c" d="M23 17h1" />
<path stroke="#a9cc2a" d="M24 17h1" />
<path stroke="#a6cb29" d="M25 17h1" />
<path stroke="#7db135" d="M26 17h1" />
<path stroke="#559b3c" d="M27 17h1" />
<path stroke="#58a943" d="M28 17h1" />
<path stroke="#47792d" d="M29 17h1" />
<path stroke="#142703" d="M30 17h1" />
<path stroke="#567200" d="M31 17h1" />
<path stroke="#3f4c03" d="M32 17h1" />
<path stroke="#6d8610" d="M12 18h1" />
<path stroke="#6e9f2e" d="M13 18h1" />
<path stroke="#437430" d="M14 18h1" />
<path stroke="#407038" d="M15 18h1" />
<path stroke="#101f0c" d="M16 18h1" />
<path stroke="#5d8928" d="M17 18h1" />
<path stroke="#2a4912" d="M18 18h1" />
<path stroke="#1b4a1a" d="M19 18h1" />
<path stroke="#438337" d="M20 18h1" />
<path stroke="#676924" d="M21 18h1" />
<path stroke="#693804" d="M22 18h1" />
<path stroke="#4f2b0d" d="M23 18h1" />
<path stroke="#35440d" d="M24 18h1" />
<path stroke="#98b123" d="M25 18h1" />
<path stroke="#a5c031" d="M26 18h1" />
<path stroke="#5b963a" d="M27 18h1" />
<path stroke="#1f4520" d="M28 18h1" />
<path stroke="#000501" d="M29 18h1" />
<path stroke="#2c4200" d="M30 18h1" />
<path stroke="#1b361e" d="M31 18h1" />
<path stroke="#4c6614" d="M13 19h1" />
<path stroke="#6fa527" d="M14 19h1" />
<path stroke="#518332" d="M15 19h1" />
<path stroke="#29461a" d="M16 19h1" />
<path stroke="#030a04" d="M17 19h1" />
<path stroke="#2b5018" d="M18 19h1" />
<path stroke="#6daf41" d="M19 19h1" />
<path stroke="#519342" d="M20 19h1" />
<path stroke="#925510" d="M21 19h1" />
<path stroke="#ffd920" d="M22 19h1" />
<path stroke="#e1d69e" d="M23 19h1" />
<path stroke="#000006" d="M24 19h1M16 33h1" />
<path stroke="#040303" d="M25 19h1" />
<path stroke="#283817" d="M26 19h1" />
<path stroke="#5c983e" d="M27 19h1" />
<path stroke="#66781c" d="M28 19h1" />
<path stroke="#333901" d="M14 20h1" />
<path stroke="#8cac21" d="M15 20h1" />
<path stroke="#6f9823" d="M16 20h1" />
<path stroke="#0c2410" d="M17 20h1" />
<path stroke="#2e4e19" d="M18 20h1" />
<path stroke="#6ca83c" d="M19 20h1" />
<path stroke="#4a8b42" d="M20 20h1" />
<path stroke="#97580c" d="M21 20h1" />
<path stroke="#fee024" d="M22 20h1" />
<path stroke="#e6e6a4" d="M23 20h1" />
<path stroke="#1a1911" d="M24 20h1" />
<path stroke="#000002" d="M25 20h1M16 21h1M20 24h1M22 26h1" />
<path stroke="#316331" d="M26 20h1" />
<path stroke="#68a742" d="M27 20h1" />
<path stroke="#c3da2e" d="M28 20h1" />
<path stroke="#787c13" d="M29 20h1" />
<path stroke="#050d00" d="M14 21h1" />
<path stroke="#000001" d="M15 21h1M23 26h1M14 28h1M15 32h1M14 37h1" />
<path stroke="#1b4218" d="M17 21h1" />
<path stroke="#437528" d="M18 21h1" />
<path stroke="#6ea93e" d="M19 21h1" />
<path stroke="#529440" d="M20 21h1" />
<path stroke="#846b22" d="M21 21h1" />
<path stroke="#cf9803" d="M22 21h1" />
<path stroke="#e8b111" d="M23 21h1" />
<path stroke="#b2890e" d="M24 21h1" />
<path stroke="#41792d" d="M25 21h1" />
<path stroke="#5a9633" d="M26 21h1" />
<path stroke="#67a639" d="M27 21h1" />
<path stroke="#62a23e" d="M28 21h1" />
<path stroke="#aeca23" d="M29 21h1" />
<path stroke="#405520" d="M30 21h1" />
<path stroke="#4d0a00" d="M12 22h1" />
<path stroke="#281b00" d="M13 22h1" />
<path stroke="#142203" d="M14 22h1" />
<path stroke="#0a0001" d="M15 22h1" />
<path stroke="#040001" d="M16 22h1" />
<path stroke="#2e3e0c" d="M17 22h1" />
<path stroke="#11280c" d="M18 22h1" />
<path stroke="#497c35" d="M19 22h1" />
<path stroke="#68a845" d="M20 22h1" />
<path stroke="#5d9c44" d="M21 22h1" />
<path stroke="#667630" d="M22 22h1" />
<path stroke="#6e6e28" d="M23 22h1" />
<path stroke="#738f3c" d="M24 22h1" />
<path stroke="#38672d" d="M25 22h1" />
<path stroke="#45601a" d="M26 22h1" />
<path stroke="#5f9032" d="M27 22h1" />
<path stroke="#518530" d="M28 22h1" />
<path stroke="#6c9b2d" d="M29 22h1" />
<path stroke="#646a00" d="M30 22h1" />
<path stroke="#4e1a0b" d="M11 23h1" />
<path stroke="#220101" d="M12 23h1" />
<path stroke="#6c210d" d="M13 23h1" />
<path stroke="#be431c" d="M14 23h1" />
<path stroke="#89270d" d="M15 23h1" />
<path stroke="#2d0300" d="M16 23h1" />
<path stroke="#451e02" d="M17 23h1" />
<path stroke="#132d03" d="M18 23h1" />
<path stroke="#020a07" d="M19 23h1" />
<path stroke="#365729" d="M20 23h1" />
<path stroke="#619c42" d="M21 23h1" />
<path stroke="#5ea242" d="M22 23h1" />
<path stroke="#5da143" d="M23 23h1" />
<path stroke="#64a646" d="M24 23h1" />
<path stroke="#467a37" d="M25 23h1" />
<path stroke="#193919" d="M26 23h1" />
<path stroke="#234110" d="M27 23h1" />
<path stroke="#030e0b" d="M28 23h1" />
<path stroke="#8cb92b" d="M11 24h1M11 25h1M11 27h1" />
<path stroke="#062509" d="M12 24h1" />
<path stroke="#54330e" d="M13 24h1" />
<path stroke="#c64d24" d="M14 24h1" />
<path stroke="#d7562d" d="M15 24h1" />
<path stroke="#812c10" d="M16 24h1" />
<path stroke="#92360d" d="M17 24h1" />
<path stroke="#3a3404" d="M18 24h1" />
<path stroke="#0e3a0b" d="M19 24h1" />
<path stroke="#1c3218" d="M21 24h1" />
<path stroke="#5b913d" d="M22 24h1" />
<path stroke="#61983a" d="M23 24h1" />
<path stroke="#6fab39" d="M24 24h1" />
<path stroke="#5a9538" d="M25 24h1" />
<path stroke="#519039" d="M26 24h1" />
<path stroke="#1f3d06" d="M27 24h1" />
<path stroke="#7db937" d="M10 25h1M12 25h1M10 26h1" />
<path stroke="#548f25" d="M13 25h1" />
<path stroke="#361505" d="M14 25h1" />
<path stroke="#d95729" d="M15 25h1" />
<path stroke="#cf5725" d="M16 25h1" />
<path stroke="#9c3913" d="M17 25h1" />
<path stroke="#340a03" d="M18 25h1" />
<path stroke="#365b0d" d="M19 25h1" />
<path stroke="#33621a" d="M20 25h1" />
<path stroke="#000104" d="M21 25h1" />
<path stroke="#010406" d="M22 25h1" />
<path stroke="#1b2c11" d="M23 25h1" />
<path stroke="#5e8c25" d="M24 25h1" />
<path stroke="#618a18" d="M25 25h1" />
<path stroke="#374d03" d="M26 25h1" />
<path stroke="#cec4b6" d="M37 25h1M36 26h1" />
<path stroke="#bcbbbb" d="M38 25h1" />
<path stroke="#979088" d="M39 25h1" />
<path stroke="#8bb721" d="M11 26h1" />
<path stroke="#97c231" d="M12 26h1" />
<path stroke="#85b93a" d="M13 26h1" />
<path stroke="#23571a" d="M14 26h1" />
<path stroke="#75280c" d="M15 26h1" />
<path stroke="#9a3718" d="M16 26h1" />
<path stroke="#130102" d="M17 26h1" />
<path stroke="#5c250b" d="M18 26h1" />
<path stroke="#4b2309" d="M19 26h1" />
<path stroke="#427016" d="M20 26h1" />
<path stroke="#31621b" d="M21 26h1" />
<path stroke="#a79d8e" d="M35 26h1" />
<path stroke="#bdb7b1" d="M37 26h1" />
<path stroke="#e8e4df" d="M38 26h1" />
<path stroke="#72706c" d="M39 26h1" />
<path stroke="#82a817" d="M9 27h2" />
<path stroke="#619d34" d="M12 27h1" />
<path stroke="#458535" d="M13 27h1" />
<path stroke="#0d3611" d="M14 27h1" />
<path stroke="#0a0502" d="M15 27h1" />
<path stroke="#230403" d="M16 27h1" />
<path stroke="#2b0d02" d="M17 27h1" />
<path stroke="#804d16" d="M18 27h1" />
<path stroke="#834917" d="M19 27h1" />
<path stroke="#250d03" d="M20 27h1" />
<path stroke="#0b1906" d="M21 27h1" />
<path stroke="#270606" d="M22 27h1" />
<path stroke="#3e1107" d="M23 27h1" />
<path stroke="#c8c7c7" d="M33 27h1" />
<path stroke="#e9e2d9" d="M34 27h1" />
<path stroke="#a4a6a9" d="M35 27h1" />
<path stroke="#68686a" d="M36 27h1" />
<path stroke="#b8b8b6" d="M37 27h1" />
<path stroke="#716e69" d="M38 27h1" />
<path stroke="#133202" d="M9 28h1" />
<path stroke="#88c131" d="M10 28h1" />
<path stroke="#6e9f2a" d="M11 28h1" />
<path stroke="#377f32" d="M12 28h1" />
<path stroke="#10280e" d="M13 28h1" />
<path stroke="#050101" d="M15 28h1" />
<path stroke="#361503" d="M16 28h1" />
<path stroke="#804710" d="M17 28h1" />
<path stroke="#9a6321" d="M18 28h1" />
<path stroke="#9b6522" d="M19 28h1" />
<path stroke="#774111" d="M20 28h1" />
<path stroke="#492107" d="M21 28h1" />
<path stroke="#693412" d="M22 28h1" />
<path stroke="#561a0a" d="M23 28h1" />
<path stroke="#89837e" d="M31 28h1" />
<path stroke="#a79e98" d="M32 28h1" />
<path stroke="#a4a29f" d="M33 28h1" />
<path stroke="#929291" d="M34 28h1" />
<path stroke="#cacbcb" d="M35 28h1" />
<path stroke="#84817a" d="M36 28h1" />
<path stroke="#452800" d="M9 29h1" />
<path stroke="#5f8f22" d="M10 29h1" />
<path stroke="#88ba21" d="M11 29h1" />
<path stroke="#699e20" d="M12 29h1" />
<path stroke="#000301" d="M13 29h1" />
<path stroke="#1a0204" d="M14 29h1" />
<path stroke="#5b2b0d" d="M15 29h1" />
<path stroke="#6b380b" d="M16 29h1" />
<path stroke="#6d3e0d" d="M17 29h1" />
<path stroke="#7f4f1b" d="M18 29h1" />
<path stroke="#9b6421" d="M19 29h1" />
<path stroke="#98631e" d="M20 29h1" />
<path stroke="#825011" d="M21 29h1" />
<path stroke="#69390c" d="M22 29h1" />
<path stroke="#401306" d="M23 29h1" />
<path stroke="#060310" d="M24 29h1" />
<path stroke="#1a1c2a" d="M26 29h1" />
<path stroke="#642e00" d="M27 29h1" />
<path stroke="#aa9d8f" d="M30 29h1" />
<path stroke="#b2b2b1" d="M31 29h1" />
<path stroke="#717172" d="M32 29h1" />
<path stroke="#6e6e6d" d="M33 29h1" />
<path stroke="#969695" d="M34 29h1" />
<path stroke="#807c75" d="M35 29h1" />
<path stroke="#792400" d="M9 30h1" />
<path stroke="#895013" d="M10 30h1" />
<path stroke="#664f0e" d="M11 30h1" />
<path stroke="#6b490e" d="M12 30h1" />
<path stroke="#1f0b02" d="M13 30h1" />
<path stroke="#090001" d="M14 30h1" />
<path stroke="#4c2507" d="M15 30h1" />
<path stroke="#6e3d0c" d="M16 30h1" />
<path stroke="#7d4914" d="M17 30h1" />
<path stroke="#8c5419" d="M18 30h1" />
<path stroke="#a3661f" d="M19 30h1" />
<path stroke="#975d1e" d="M20 30h1" />
<path stroke="#875117" d="M21 30h1" />
<path stroke="#5f270b" d="M22 30h1" />
<path stroke="#180604" d="M23 30h1" />
<path stroke="#012309" d="M24 30h1" />
<path stroke="#913e02" d="M26 30h1" />
<path stroke="#cf770b" d="M27 30h1" />
<path stroke="#555049" d="M28 30h1" />
<path stroke="#e0d7d1" d="M29 30h1" />
<path stroke="#7c7b7d" d="M30 30h1" />
<path stroke="#828281" d="M31 30h1" />
<path stroke="#a7a8a7" d="M32 30h1" />
<path stroke="#55524f" d="M33 30h1" />
<path stroke="#6b5b46" d="M34 30h1" />
<path stroke="#220300" d="M9 31h1" />
<path stroke="#89280d" d="M10 31h1" />
<path stroke="#a83913" d="M11 31h1" />
<path stroke="#8d2e12" d="M12 31h1" />
<path stroke="#1b0001" d="M13 31h1" />
<path stroke="#020201" d="M14 31h1" />
<path stroke="#231506" d="M15 31h1" />
<path stroke="#5b2b09" d="M16 31h1" />
<path stroke="#8a4614" d="M17 31h1" />
<path stroke="#432710" d="M18 31h1" />
<path stroke="#634b05" d="M20 31h1" />
<path stroke="#624f03" d="M21 31h1" />
<path stroke="#5e4703" d="M22 31h1" />
<path stroke="#140b01" d="M23 31h1" />
<path stroke="#052903" d="M24 31h1" />
<path stroke="#0e3106" d="M25 31h1" />
<path stroke="#421906" d="M26 31h1" />
<path stroke="#bb6d16" d="M27 31h1" />
<path stroke="#3d3831" d="M28 31h1" />
<path stroke="#78797d" d="M29 31h1" />
<path stroke="#6f7070" d="M30 31h1" />
<path stroke="#afb1b0" d="M31 31h1" />
<path stroke="#635d52" d="M32 31h1" />
<path stroke="#494107" d="M10 32h1" />
<path stroke="#3e4906" d="M11 32h1" />
<path stroke="#405609" d="M12 32h1" />
<path stroke="#5e7d12" d="M13 32h1" />
<path stroke="#33400b" d="M14 32h1" />
<path stroke="#14101a" d="M16 32h1" />
<path stroke="#413c3a" d="M17 32h1" />
<path stroke="#42464b" d="M18 32h1" />
<path stroke="#1b232a" d="M19 32h1" />
<path stroke="#917d05" d="M20 32h1" />
<path stroke="#d79d08" d="M21 32h1" />
<path stroke="#d8b709" d="M22 32h1" />
<path stroke="#6b6206" d="M23 32h1" />
<path stroke="#769518" d="M24 32h1" />
<path stroke="#73a227" d="M25 32h1" />
<path stroke="#020003" d="M26 32h1" />
<path stroke="#86400c" d="M27 32h1" />
<path stroke="#1e1713" d="M28 32h1" />
<path stroke="#565555" d="M29 32h1" />
<path stroke="#545049" d="M30 32h1" />
<path stroke="#352e24" d="M31 32h1" />
<path stroke="#578323" d="M10 33h1" />
<path stroke="#74b23a" d="M11 33h1" />
<path stroke="#9bc828" d="M12 33h1" />
<path stroke="#a9d122" d="M13 33h1" />
<path stroke="#80b81f" d="M14 33h1" />
<path stroke="#0e310b" d="M15 33h1" />
<path stroke="#1a1c20" d="M17 33h1" />
<path stroke="#444340" d="M18 33h1" />
<path stroke="#383d44" d="M19 33h1" />
<path stroke="#31280e" d="M20 33h1" />
<path stroke="#c98a0e" d="M21 33h1" />
<path stroke="#2b2503" d="M22 33h1" />
<path stroke="#4c5e13" d="M23 33h1" />
<path stroke="#496418" d="M24 33h1" />
<path stroke="#0b1e05" d="M25 33h1" />
<path stroke="#011905" d="M26 33h1" />
<path stroke="#995f10" d="M27 33h1" />
<path stroke="#7d4a0a" d="M28 33h1" />
<path stroke="#365611" d="M10 34h1" />
<path stroke="#3c702c" d="M11 34h1" />
<path stroke="#80b12b" d="M12 34h1" />
<path stroke="#9bc021" d="M13 34h1" />
<path stroke="#537d14" d="M14 34h1" />
<path stroke="#101b07" d="M15 34h1" />
<path stroke="#270202" d="M16 34h1M27 35h1" />
<path stroke="#070102" d="M17 34h1" />
<path stroke="#110c0d" d="M18 34h1" />
<path stroke="#0e070d" d="M19 34h1" />
<path stroke="#211803" d="M20 34h1" />
<path stroke="#998d0b" d="M21 34h1" />
<path stroke="#130900" d="M22 34h1" />
<path stroke="#042a09" d="M23 34h1" />
<path stroke="#3c6c19" d="M24 34h1" />
<path stroke="#57761a" d="M25 34h1" />
<path stroke="#427e1b" d="M26 34h1" />
<path stroke="#5f320a" d="M27 34h1" />
<path stroke="#ab6210" d="M28 34h1" />
<path stroke="#200c00" d="M29 34h1" />
<path stroke="#385d16" d="M11 35h1" />
<path stroke="#7ab136" d="M12 35h1" />
<path stroke="#749c2b" d="M13 35h1" />
<path stroke="#3f1907" d="M15 35h1" />
<path stroke="#8d440c" d="M16 35h1" />
<path stroke="#411305" d="M17 35h1" />
<path stroke="#2a0603" d="M18 35h1" />
<path stroke="#6e3106" d="M19 35h1" />
<path stroke="#844c10" d="M20 35h1" />
<path stroke="#562c0c" d="M21 35h1" />
<path stroke="#864314" d="M22 35h1" />
<path stroke="#421505" d="M23 35h1" />
<path stroke="#102403" d="M24 35h1" />
<path stroke="#395e1e" d="M25 35h1" />
<path stroke="#bc6706" d="M28 35h1" />
<path stroke="#7a5200" d="M29 35h1" />
<path stroke="#031406" d="M13 36h1" />
<path stroke="#0c0102" d="M14 36h1" />
<path stroke="#61280d" d="M15 36h1" />
<path stroke="#8a5411" d="M16 36h1" />
<path stroke="#150401" d="M17 36h1" />
<path stroke="#50210b" d="M18 36h1" />
<path stroke="#a16119" d="M19 36h1" />
<path stroke="#b26e1f" d="M20 36h1" />
<path stroke="#894d13" d="M21 36h1" />
<path stroke="#5e2e0c" d="M22 36h1" />
<path stroke="#522309" d="M23 36h1" />
<path stroke="#040000" d="M24 36h1" />
<path stroke="#07320c" d="M13 37h1M20 38h1" />
<path stroke="#3c1105" d="M15 37h1" />
<path stroke="#462006" d="M16 37h1" />
<path stroke="#370e02" d="M17 37h1" />
<path stroke="#945218" d="M18 37h1" />
<path stroke="#a36319" d="M19 37h1" />
<path stroke="#522b07" d="M20 37h1" />
<path stroke="#181805" d="M21 37h1" />
<path stroke="#12491e" d="M22 37h1" />
<path stroke="#246120" d="M23 37h1" />
<path stroke="#427221" d="M24 37h1" />
<path stroke="#122d01" d="M12 38h1M20 39h1" />
<path stroke="#81ad22" d="M13 38h1M15 38h1M16 39h2M25 39h1" />
<path stroke="#324f1a" d="M14 38h1M26 39h1" />
<path stroke="#060201" d="M16 38h1" />
<path stroke="#2e1303" d="M17 38h1" />
<path stroke="#3f1900" d="M18 38h1" />
<path stroke="#210e00" d="M19 38h1" />
<path stroke="#3c7b27" d="M21 38h1" />
<path stroke="#5f9732" d="M22 38h1M16 40h1" />
<path stroke="#7aab2b" d="M23 38h1" />
<path stroke="#a4cf2c" d="M24 38h1" />
<path stroke="#586b0d" d="M25 38h1" />
<path stroke="#010600" d="M12 39h1" />
<path stroke="#639832" d="M13 39h1M22 39h1" />
<path stroke="#6a9c2a" d="M14 39h1M23 39h1M15 40h1" />
<path stroke="#9dd42e" d="M15 39h1M25 40h1" />
<path stroke="#427927" d="M21 39h1" />
<path stroke="#80b029" d="M24 39h1" />
<path stroke="#3f1c06" d="M11 40h1" />
<path stroke="#2d0c02" d="M12 40h1" />
<path stroke="#031b02" d="M13 40h1" />
<path stroke="#4c6a12" d="M14 40h1M24 41h1" />
<path stroke="#000110" d="M20 40h1" />
<path stroke="#010302" d="M21 40h1" />
<path stroke="#11290b" d="M22 40h1" />
<path stroke="#3c7623" d="M23 40h1" />
<path stroke="#5b9725" d="M24 40h1" />
<path stroke="#658a09" d="M26 40h1" />
<path stroke="#250700" d="M10 41h1" />
<path stroke="#854510" d="M11 41h1" />
<path stroke="#955313" d="M12 41h1" />
<path stroke="#281401" d="M13 41h1" />
<path stroke="#242104" d="M14 41h1" />
<path stroke="#462a03" d="M15 41h1" />
<path stroke="#33620e" d="M22 41h1" />
<path stroke="#5e982c" d="M23 41h1" />
<path stroke="#497517" d="M25 41h1" />
<path stroke="#224b27" d="M26 41h1" />
<path stroke="#0e0506" d="M9 42h1" />
<path stroke="#4d1e0b" d="M10 42h1" />
<path stroke="#451b10" d="M11 42h1" />
<path stroke="#743c12" d="M12 42h1" />
<path stroke="#874310" d="M13 42h1" />
<path stroke="#360702" d="M14 42h1" />
<path stroke="#242706" d="M22 42h1" />
<path stroke="#45330c" d="M23 42h1" />
<path stroke="#75340c" d="M24 42h1" />
<path stroke="#531200" d="M25 42h1" />
<path stroke="#05071a" d="M8 43h1" />
<path stroke="#3c1004" d="M9 43h1" />
<path stroke="#38120a" d="M10 43h1" />
<path stroke="#250904" d="M11 43h1" />
<path stroke="#441707" d="M12 43h1" />
<path stroke="#451705" d="M13 43h1" />
<path stroke="#74310e" d="M22 43h1" />
<path stroke="#a25718" d="M23 43h1" />
<path stroke="#a85b20" d="M24 43h1" />
<path stroke="#622002" d="M25 43h1" />
<path stroke="#300600" d="M8 44h1" />
<path stroke="#411710" d="M9 44h1" />
<path stroke="#2e1007" d="M10 44h1" />
<path stroke="#130403" d="M11 44h1" />
<path stroke="#110200" d="M12 44h1" />
<path stroke="#3f1804" d="M22 44h1" />
<path stroke="#5c2b0a" d="M23 44h1" />
<path stroke="#230a04" d="M24 44h1" />
<path stroke="#270901" d="M25 44h1" />
<path stroke="#311a0e" d="M26 44h1" />
<path stroke="#2e0600" d="M8 45h1" />
<path stroke="#3a1411" d="M9 45h1" />
<path stroke="#56250e" d="M10 45h1" />
<path stroke="#783a10" d="M11 45h1" />
<path stroke="#541b06" d="M12 45h1" />
<path stroke="#200300" d="M22 45h1" />
<path stroke="#2a0c06" d="M23 45h1" />
<path stroke="#4d220a" d="M24 45h1" />
<path stroke="#7f4414" d="M25 45h1" />
<path stroke="#ac6619" d="M26 45h1" />
<path stroke="#b06210" d="M27 45h1" />
<path stroke="#9c500a" d="M28 45h1" />
<path stroke="#692500" d="M29 45h1" />
<path stroke="#220603" d="M9 46h1" />
<path stroke="#391310" d="M10 46h1" />
<path stroke="#632e0d" d="M11 46h1" />
<path stroke="#914f10" d="M12 46h1" />
<path stroke="#512301" d="M13 46h1" />
<path stroke="#4e1a03" d="M22 46h1" />
<path stroke="#602b13" d="M23 46h1" />
<path stroke="#8c4e17" d="M24 46h1" />
<path stroke="#a86218" d="M25 46h1" />
<path stroke="#8e4c0c" d="M26 46h1" />
<path stroke="#421902" d="M27 46h1" />
<path stroke="#1e0300" d="M28 46h1" />
<path stroke="#250602" d="M10 47h1" />
<path stroke="#3a0e0c" d="M11 47h1" />
<path stroke="#733710" d="M12 47h1" />
<path stroke="#9e5811" d="M13 47h1" />
<path stroke="#6d2e00" d="M14 47h1" />
<path stroke="#431703" d="M23 47h1" />
<path stroke="#421500" d="M24 47h3" />
</svg>