<svg xmlns="http://www.w3.org/2000/svg" viewBox="0 -0.5 32 32" shape-rendering="crispEdges">
<metadata>Made with Pixels to Svg https://codepen.io/shshaw/pen/XbxvNj</metadata>
<path stroke="#241f01" d="M14 7h4M12 8h2M18 8h2M11 9h1M20 9h1M10 10h1M21 10h1M10 11h1M21 11h1M9 12h1M22 12h1M9 13h1M22 13h1M9 14h1M22 14h1M9 15h1M22 15h1M9 16h1M22 16h1M9 17h1M22 17h1M9 18h1M22 18h1M9 19h1M22 19h1M10 20h1M21 20h1M10 21h1M21 21h1M11 22h1M20 22h1M12 23h2M18 23h2M14 24h4" />
<path stroke="#fffecc" d="M14 8h3M12 9h3M11 10h2M11 11h1" />
<path stroke="#f7de4f" d="M17 8h1M15 9h4M13 10h1M12 11h1M14 11h2M10 12h3M10 13h1" />
<path stroke="#f5cd2c" d="M19 9h1M18 10h2M16 11h2M14 12h2M11 13h1M13 13h2M10 14h2" />
<path stroke="#594b04" d="M14 10h4M13 11h1M18 11h1M13 12h1M18 12h1M12 13h1M19 13h1M12 14h1M19 14h1M12 15h1M19 15h1M12 16h1M19 16h1M12 17h1M19 17h1M12 18h1M19 18h1M13 19h1M18 19h1M13 20h1M18 20h1M14 21h4" />
<path stroke="#ebc026" d="M20 10h1M19 11h2M16 12h2M19 12h3M15 13h4M20 13h2M13 14h6M10 15h2M13 15h5M10 16h2M13 16h4M10 17h2M13 17h1M10 18h2" />
<path stroke="#d6aa1a" d="M20 14h2M18 15h1M20 15h2M17 16h2M20 16h2M14 17h5M13 18h6M10 19h3M14 19h3M11 20h2M11 21h1" />
<path stroke="#b88c0b" d="M20 17h2M20 18h2M17 19h1M19 19h3M14 20h4M19 20h2M12 21h2M18 21h3M12 22h8M14 23h4" />
</svg>