<svg xmlns="http://www.w3.org/2000/svg" viewBox="0 -0.5 32 32" shape-rendering="crispEdges">
<metadata>Made with Pixels to Svg https://codepen.io/shshaw/pen/XbxvNj</metadata>
<path stroke="#292929" d="M7 5h1M24 5h1M7 6h1M24 6h1M7 7h1M24 7h1M6 8h1M8 8h1M23 8h1M25 8h1M6 9h1M8 9h1M23 9h1M25 9h1M6 10h1M8 10h1M23 10h1M25 10h1M5 11h1M9 11h1M22 11h1M26 11h1M5 12h1M9 12h1M22 12h1M26 12h1M5 13h1M9 13h1M22 13h1M26 13h1M4 14h1M10 14h1M21 14h1M27 14h1M4 15h1M10 15h1M21 15h1M27 15h1M4 16h1M10 16h1M21 16h1M27 16h1M3 17h1M11 17h1M20 17h1M28 17h1M3 18h1M11 18h1M20 18h1M28 18h1M3 19h1M11 19h1M20 19h1M28 19h1M2 20h1M12 20h1M19 20h1M29 20h1M2 21h1M12 21h1M19 21h1M29 21h1M2 22h1M12 22h1M19 22h1M13 23h1M18 23h1M13 24h1M18 24h1M13 25h1M18 25h1M17 26h1" />
<path stroke="#d8dce3" d="M7 8h1M24 8h1M7 9h1M24 9h1" />
<path stroke="#b3bac7" d="M7 10h1M24 10h1M6 11h3M23 11h3M6 12h3M23 12h3M7 13h1M24 13h1" />
<path stroke="#9aa3b3" d="M6 13h1M8 13h1M23 13h1M25 13h1M5 14h5M22 14h5M6 15h3M23 15h3M7 16h1M24 16h1" />
<path stroke="#828c9e" d="M5 15h1M9 15h1M22 15h1M26 15h1M5 16h2M8 16h2M22 16h2M25 16h2M6 17h4M23 17h3" />
<path stroke="#586070" d="M4 17h2M10 17h1M21 17h2M26 17h2M4 18h7M21 18h7M6 19h4M23 19h3M7 20h1" />
<path stroke="#434b5c" d="M4 19h2M10 19h1M21 19h2M26 19h2M3 20h4M8 20h4M20 20h9M5 21h6M20 21h8M6 22h4M21 22h4" />
<path stroke="#613102" d="M0 21h1M0 22h2M30 22h2M3 23h2M28 23h1M2 24h1M4 24h3M26 24h3M30 24h2M3 25h1M5 25h1M22 25h1M24 25h3M29 25h1M7 26h4M13 26h2M19 26h4M10 27h3M15 27h6M13 28h1M16 28h1M18 28h1" />
<path stroke="#333a4a" d="M3 21h2M11 21h1M28 21h1M3 22h3M10 22h2M20 22h1M25 22h3M5 23h8M19 23h7M7 24h6M19 24h5M11 25h2M19 25h3M18 26h1" />
<path stroke="#241401" d="M30 21h2M28 22h2M0 23h3M26 23h2M29 23h3M3 24h1M24 24h2M29 24h1M0 25h2M4 25h1M6 25h5M23 25h1M27 25h2M30 25h1M1 26h6M11 26h2M23 26h5M30 26h2M3 27h1M13 27h2M21 27h3M26 27h1M31 27h1M3 28h5M14 28h2M17 28h1M19 28h2M25 28h3M2 29h2M7 29h4M15 29h5M24 29h1M26 29h2M1 30h2M10 30h2M14 30h2M18 30h2M23 30h1M27 30h2M1 31h1M11 31h4M19 31h4M28 31h4" />
<path stroke="#4d2802" d="M0 24h2M2 25h1M31 25h1M0 26h1M28 26h2M0 27h3M4 27h6M24 27h2M27 27h4M0 28h3M8 28h5M21 28h4M28 28h2M4 29h3M11 29h4M20 29h4M25 29h1M13 30h1M16 30h2M20 30h2" />
<path stroke="#331b01" d="M30 28h2M0 29h2M28 29h4M0 30h1M3 30h7M12 30h1M22 30h1M24 30h3M29 30h3M0 31h1M2 31h9M15 31h4M23 31h5" />
</svg>