<svg xmlns="http://www.w3.org/2000/svg" viewBox="0 -0.5 48 48" shape-rendering="crispEdges">
<metadata>Made with Pixels to Svg https://codepen.io/shshaw/pen/XbxvNj</metadata>
<path stroke="#000000" d="M11 8h1M13 8h3M9 9h2M16 9h1M8 10h1M17 10h1M7 11h1M17 11h1M6 12h1M17 12h1M5 13h1M18 13h1M5 14h1M18 14h1M5 15h1M19 15h1M5 16h1M19 16h1M5 17h1M19 17h1M5 18h1M19 18h1M32 18h3M6 19h1M20 19h4M30 19h2M35 19h1M7 20h1M24 20h1M29 20h1M36 20h1M8 21h1M25 21h1M29 21h1M36 21h1M9 22h1M19 22h2M26 22h1M29 22h1M36 22h1M10 23h1M17 23h2M21 23h1M27 23h2M36 23h1M9 24h1M16 24h1M22 24h1M35 24h1M8 25h1M15 25h1M23 25h1M33 25h2M8 26h1M15 26h1M23 26h1M32 26h1M8 27h1M23 27h1M31 27h1M8 28h1M22 28h1M30 28h1M8 29h1M21 29h1M28 29h2M9 30h1M20 30h1M28 30h1M9 31h1M29 31h2M10 32h1M31 32h1M11 33h1M32 33h1M12 34h4M33 34h1M16 35h1M24 35h1M34 35h1M16 36h1M24 36h2M34 36h1M16 37h1M24 37h1M26 37h1M35 37h1M16 38h1M24 38h1M27 38h1M36 38h1M15 39h1M24 39h1M28 39h1M36 39h1M14 40h1M24 40h1M29 40h1M37 40h1M13 41h1M24 41h1M29 41h1M38 41h3M12 42h1M23 42h1M30 42h1M41 42h1M12 43h1M22 43h1M31 43h1M42 43h1M11 44h1M21 44h1M32 44h1M41 44h1M11 45h1M20 45h1M32 45h1M39 45h2M11 46h1M20 46h1M32 46h1M38 46h1M12 47h1M20 47h1M33 47h1M36 47h2" />
<path stroke="#050a09" d="M12 8h1" />
<path stroke="#292c3c" d="M11 9h1" />
<path stroke="#212233" d="M12 9h1" />
<path stroke="#171725" d="M13 9h1" />
<path stroke="#222030" d="M14 9h1" />
<path stroke="#0d1217" d="M15 9h1" />
<path stroke="#1e232e" d="M9 10h1" />
<path stroke="#27283a" d="M10 10h1" />
<path stroke="#28293e" d="M11 10h1" />
<path stroke="#1f1f33" d="M12 10h1" />
<path stroke="#121323" d="M13 10h1" />
<path stroke="#100e1f" d="M14 10h1" />
<path stroke="#171524" d="M15 10h1" />
<path stroke="#151821" d="M16 10h1" />
<path stroke="#202331" d="M8 11h1" />
<path stroke="#1e2032" d="M9 11h1" />
<path stroke="#1b1e32" d="M10 11h1" />
<path stroke="#101023" d="M11 11h1" />
<path stroke="#0d0912" d="M12 11h1" />
<path stroke="#1b0c10" d="M13 11h1" />
<path stroke="#1b0b0e" d="M14 11h1" />
<path stroke="#0c060e" d="M15 11h1" />
<path stroke="#05060c" d="M16 11h1" />
<path stroke="#1c1f2c" d="M7 12h1" />
<path stroke="#202133" d="M8 12h1" />
<path stroke="#070a1c" d="M9 12h1" />
<path stroke="#0c0e24" d="M10 12h1" />
<path stroke="#0a0a1c" d="M11 12h1" />
<path stroke="#332021" d="M12 12h1" />
<path stroke="#a87868" d="M13 12h1" />
<path stroke="#af7a68" d="M14 12h1" />
<path stroke="#41221c" d="M15 12h1" />
<path stroke="#281b17" d="M16 12h1" />
<path stroke="#0a0d15" d="M6 13h1" />
<path stroke="#212235" d="M7 13h1" />
<path stroke="#111223" d="M8 13h1M12 23h1M24 29h1" />
<path stroke="#090a1a" d="M9 13h1" />
<path stroke="#121425" d="M10 13h1" />
<path stroke="#14121e" d="M11 13h1" />
<path stroke="#1b0b0b" d="M12 13h1" />
<path stroke="#653d32" d="M13 13h1" />
<path stroke="#c78b72" d="M14 13h1" />
<path stroke="#c58b73" d="M15 13h1" />
<path stroke="#bc8974" d="M16 13h1" />
<path stroke="#5b4732" d="M17 13h1" />
<path stroke="#0b0c19" d="M6 14h1" />
<path stroke="#202032" d="M7 14h1" />
<path stroke="#121122" d="M8 14h1" />
<path stroke="#030309" d="M9 14h1" />
<path stroke="#150a0b" d="M10 14h1" />
<path stroke="#3a2522" d="M11 14h1" />
<path stroke="#5c413c" d="M12 14h1" />
<path stroke="#643a2e" d="M13 14h1" />
<path stroke="#c7886a" d="M14 14h1" />
<path stroke="#e59975" d="M15 14h1" />
<path stroke="#cd805f" d="M16 14h1" />
<path stroke="#c79075" d="M17 14h1" />
<path stroke="#070917" d="M6 15h1" />
<path stroke="#151425" d="M7 15h1M21 30h1" />
<path stroke="#131223" d="M8 15h1" />
<path stroke="#060306" d="M9 15h1" />
<path stroke="#784f42" d="M10 15h1" />
<path stroke="#996251" d="M11 15h1" />
<path stroke="#824f3e" d="M12 15h1" />
<path stroke="#e39f7d" d="M13 15h1" />
<path stroke="#eca179" d="M14 15h1" />
<path stroke="#e89e79" d="M15 15h1" />
<path stroke="#d39476" d="M16 15h1" />
<path stroke="#e4af91" d="M17 15h1" />
<path stroke="#ce9d83" d="M18 15h1" />
<path stroke="#03020c" d="M6 16h1" />
<path stroke="#060615" d="M7 16h1" />
<path stroke="#020310" d="M8 16h1M19 31h1" />
<path stroke="#030104" d="M9 16h1" />
<path stroke="#7a4d3e" d="M10 16h1" />
<path stroke="#d98e6e" d="M11 16h1" />
<path stroke="#e09570" d="M12 16h1" />
<path stroke="#eea176" d="M13 16h1" />
<path stroke="#ed9e75" d="M14 16h1M19 27h1" />
<path stroke="#d5906c" d="M15 16h2M15 17h3M15 18h1M13 29h1" />
<path stroke="#d8a084" d="M17 16h2" />
<path stroke="#020207" d="M6 17h1" />
<path stroke="#010109" d="M7 17h1" />
<path stroke="#01020c" d="M8 17h1" />
<path stroke="#010106" d="M9 17h1M35 43h1M34 45h1" />
<path stroke="#2c1210" d="M10 17h1" />
<path stroke="#ad7157" d="M11 17h1" />
<path stroke="#e1916b" d="M12 17h1" />
<path stroke="#efa177" d="M13 17h1" />
<path stroke="#ea9d76" d="M14 17h1" />
<path stroke="#e0a587" d="M18 17h1" />
<path stroke="#000103" d="M6 18h2" />
<path stroke="#040306" d="M8 18h1" />
<path stroke="#3c2929" d="M9 18h1" />
<path stroke="#301915" d="M10 18h1" />
<path stroke="#38130c" d="M11 18h1" />
<path stroke="#ad654a" d="M12 18h1" />
<path stroke="#ea9a73" d="M13 18h1" />
<path stroke="#e99c75" d="M14 18h1" />
<path stroke="#da9673" d="M16 18h1" />
<path stroke="#e59e7c" d="M17 18h1" />
<path stroke="#ba856c" d="M18 18h1" />
<path stroke="#000002" d="M7 19h1" />
<path stroke="#140707" d="M8 19h1" />
<path stroke="#a97868" d="M9 19h1" />
<path stroke="#b27561" d="M10 19h1" />
<path stroke="#854c3d" d="M11 19h1" />
<path stroke="#b1654b" d="M12 19h1" />
<path stroke="#dd8a67" d="M13 19h1" />
<path stroke="#e1906c" d="M14 19h1" />
<path stroke="#e39371" d="M15 19h1" />
<path stroke="#db8b6a" d="M16 19h1" />
<path stroke="#9b5b43" d="M17 19h1" />
<path stroke="#45251b" d="M18 19h1" />
<path stroke="#0c110a" d="M19 19h1" />
<path stroke="#866455" d="M32 19h1" />
<path stroke="#b78d76" d="M33 19h2" />
<path stroke="#050203" d="M8 20h1" />
<path stroke="#603a31" d="M9 20h1" />
<path stroke="#b87762" d="M10 20h1" />
<path stroke="#b77660" d="M11 20h1" />
<path stroke="#965440" d="M12 20h1" />
<path stroke="#b56a52" d="M13 20h1" />
<path stroke="#9a4d37" d="M14 20h1" />
<path stroke="#b15c43" d="M15 20h1" />
<path stroke="#ba5e44" d="M16 20h1" />
<path stroke="#904634" d="M17 20h1" />
<path stroke="#441e17" d="M18 20h1" />
<path stroke="#100a10" d="M19 20h1" />
<path stroke="#0d121f" d="M20 20h1" />
<path stroke="#070c18" d="M21 20h1" />
<path stroke="#0e121c" d="M22 20h2" />
<path stroke="#845b50" d="M30 20h1M25 23h2" />
<path stroke="#a77766" d="M31 20h1" />
<path stroke="#885749" d="M32 20h1" />
<path stroke="#ba8369" d="M33 20h1" />
<path stroke="#dca88b" d="M34 20h1" />
<path stroke="#bb8971" d="M35 20h1M35 21h1" />
<path stroke="#020100" d="M9 21h1" />
<path stroke="#220c0a" d="M10 21h1" />
<path stroke="#27100d" d="M11 21h1" />
<path stroke="#1f0707" d="M12 21h1" />
<path stroke="#431812" d="M13 21h1" />
<path stroke="#864638" d="M14 21h1" />
<path stroke="#c87b61" d="M15 21h1" />
<path stroke="#d47f62" d="M16 21h1" />
<path stroke="#d07b60" d="M17 21h1" />
<path stroke="#ac6a59" d="M18 21h1" />
<path stroke="#2c191e" d="M19 21h1" />
<path stroke="#111323" d="M20 21h1" />
<path stroke="#0b0b1a" d="M21 21h1" />
<path stroke="#070715" d="M22 21h1" />
<path stroke="#121520" d="M23 21h2" />
<path stroke="#755241" d="M30 21h1" />
<path stroke="#a46a57" d="M31 21h1" />
<path stroke="#5e3830" d="M32 21h1" />
<path stroke="#865544" d="M33 21h1" />
<path stroke="#eeab8a" d="M34 21h1" />
<path stroke="#06100a" d="M10 22h1" />
<path stroke="#010103" d="M11 22h1M37 43h1M15 46h4" />
<path stroke="#02020b" d="M12 22h1" />
<path stroke="#140c18" d="M13 22h1" />
<path stroke="#452725" d="M14 22h1" />
<path stroke="#7f5145" d="M15 22h1" />
<path stroke="#855446" d="M16 22h1" />
<path stroke="#865345" d="M17 22h1" />
<path stroke="#6f463d" d="M18 22h1" />
<path stroke="#131222" d="M21 22h1" />
<path stroke="#0b0b1b" d="M22 22h1" />
<path stroke="#060918" d="M23 22h1" />
<path stroke="#171923" d="M24 22h2" />
<path stroke="#4c2d25" d="M30 22h1" />
<path stroke="#713f37" d="M31 22h1" />
<path stroke="#3f1e1a" d="M32 22h1" />
<path stroke="#5c342a" d="M33 22h1" />
<path stroke="#c17a60" d="M34 22h1" />
<path stroke="#ae735a" d="M35 22h1" />
<path stroke="#0a0a15" d="M11 23h1" />
<path stroke="#18192d" d="M13 23h1" />
<path stroke="#181525" d="M14 23h1" />
<path stroke="#191423" d="M15 23h1" />
<path stroke="#1b1321" d="M16 23h1" />
<path stroke="#311f1c" d="M19 23h1" />
<path stroke="#4c3633" d="M20 23h1" />
<path stroke="#171829" d="M22 23h1" />
<path stroke="#0c0d1e" d="M23 23h1" />
<path stroke="#221217" d="M24 23h1" />
<path stroke="#110c0b" d="M29 23h1" />
<path stroke="#020001" d="M30 23h1" />
<path stroke="#3a1b1a" d="M31 23h1" />
<path stroke="#653733" d="M32 23h1" />
<path stroke="#582720" d="M33 23h1" />
<path stroke="#8a493a" d="M34 23h1" />
<path stroke="#603c2a" d="M35 23h1" />
<path stroke="#131821" d="M10 24h1" />
<path stroke="#1e2030" d="M11 24h1" />
<path stroke="#1f2030" d="M12 24h1" />
<path stroke="#151728" d="M13 24h2" />
<path stroke="#191a2c" d="M15 24h1" />
<path stroke="#997566" d="M17 24h1" />
<path stroke="#a07361" d="M18 24h1" />
<path stroke="#ae7a64" d="M19 24h1" />
<path stroke="#daa083" d="M20 24h1" />
<path stroke="#795245" d="M21 24h1" />
<path stroke="#101122" d="M23 24h1" />
<path stroke="#3e2223" d="M24 24h1" />
<path stroke="#bd7764" d="M25 24h1" />
<path stroke="#ba6750" d="M26 24h1M26 25h2" />
<path stroke="#d98e71" d="M27 24h2" />
<path stroke="#412721" d="M29 24h1" />
<path stroke="#010002" d="M30 24h1" />
<path stroke="#020003" d="M31 24h1" />
<path stroke="#2e1111" d="M32 24h1" />
<path stroke="#6e3f37" d="M33 24h1" />
<path stroke="#5d382a" d="M34 24h1" />
<path stroke="#0b1418" d="M9 25h1" />
<path stroke="#1f2233" d="M10 25h1" />
<path stroke="#1f2133" d="M11 25h1" />
<path stroke="#1f2131" d="M12 25h1" />
<path stroke="#151725" d="M13 25h1" />
<path stroke="#070718" d="M14 25h1" />
<path stroke="#35201f" d="M16 25h1" />
<path stroke="#d1957b" d="M17 25h1" />
<path stroke="#d89472" d="M18 25h1" />
<path stroke="#eaa17b" d="M19 25h1" />
<path stroke="#efa67c" d="M20 25h1" />
<path stroke="#d79476" d="M21 25h1" />
<path stroke="#55342c" d="M22 25h1" />
<path stroke="#211119" d="M24 25h1" />
<path stroke="#894c3f" d="M25 25h1" />
<path stroke="#e39574" d="M28 25h1" />
<path stroke="#9e614d" d="M29 25h1" />
<path stroke="#1f0706" d="M30 25h1" />
<path stroke="#020104" d="M31 25h1M14 46h1" />
<path stroke="#030305" d="M32 25h1" />
<path stroke="#101721" d="M9 26h1" />
<path stroke="#222337" d="M10 26h1" />
<path stroke="#202233" d="M11 26h1" />
<path stroke="#1e1f30" d="M12 26h1" />
<path stroke="#151524" d="M13 26h1" />
<path stroke="#03030e" d="M14 26h1" />
<path stroke="#321c1c" d="M16 26h1" />
<path stroke="#cd8d72" d="M17 26h1" />
<path stroke="#eea37b" d="M18 26h1" />
<path stroke="#eb9f76" d="M19 26h1" />
<path stroke="#eda179" d="M20 26h1" />
<path stroke="#de906b" d="M21 26h1" />
<path stroke="#764436" d="M22 26h1" />
<path stroke="#151220" d="M24 26h1" />
<path stroke="#321111" d="M25 26h1" />
<path stroke="#ab5d4a" d="M26 26h1" />
<path stroke="#d67b5d" d="M27 26h1" />
<path stroke="#cf7353" d="M28 26h1" />
<path stroke="#c36b50" d="M29 26h1" />
<path stroke="#8d5040" d="M30 26h1" />
<path stroke="#281912" d="M31 26h1" />
<path stroke="#101520" d="M9 27h1" />
<path stroke="#222336" d="M10 27h1" />
<path stroke="#1b1a28" d="M11 27h1" />
<path stroke="#221b22" d="M12 27h1" />
<path stroke="#2b2125" d="M13 27h1" />
<path stroke="#0a0409" d="M14 27h1" />
<path stroke="#020206" d="M15 27h1" />
<path stroke="#15090c" d="M16 27h1" />
<path stroke="#804d3f" d="M17 27h1" />
<path stroke="#e29675" d="M18 27h1" />
<path stroke="#ec9e78" d="M20 27h1" />
<path stroke="#d08768" d="M21 27h1" />
<path stroke="#5b3228" d="M22 27h1" />
<path stroke="#151525" d="M24 27h1" />
<path stroke="#0d040a" d="M25 27h1" />
<path stroke="#673228" d="M26 27h1" />
<path stroke="#bf6851" d="M27 27h1" />
<path stroke="#c7684e" d="M28 27h1" />
<path stroke="#a95c44" d="M29 27h1" />
<path stroke="#603927" d="M30 27h1" />
<path stroke="#0a0d17" d="M9 28h1" />
<path stroke="#211a25" d="M10 28h1" />
<path stroke="#573c36" d="M11 28h1" />
<path stroke="#936c5f" d="M12 28h1" />
<path stroke="#7b574f" d="M13 28h1" />
<path stroke="#68453e" d="M14 28h1" />
<path stroke="#2d1a1a" d="M15 28h1" />
<path stroke="#04030a" d="M16 28h1" />
<path stroke="#1b090b" d="M17 28h1" />
<path stroke="#8b5241" d="M18 28h1" />
<path stroke="#d68a6b" d="M19 28h1" />
<path stroke="#bc7b60" d="M20 28h1" />
<path stroke="#5d342b" d="M21 28h1" />
<path stroke="#181527" d="M23 28h1" />
<path stroke="#171728" d="M24 28h1" />
<path stroke="#0a0914" d="M25 28h1" />
<path stroke="#0d0203" d="M26 28h1" />
<path stroke="#60322a" d="M27 28h1" />
<path stroke="#7c4739" d="M28 28h2" />
<path stroke="#0c130b" d="M9 29h1" />
<path stroke="#5f3d34" d="M10 29h1" />
<path stroke="#d5967a" d="M11 29h1" />
<path stroke="#b5775c" d="M12 29h1" />
<path stroke="#d49578" d="M14 29h1" />
<path stroke="#8d5e4f" d="M15 29h1" />
<path stroke="#120609" d="M16 29h1" />
<path stroke="#010105" d="M17 29h1M14 43h1M16 45h1" />
<path stroke="#150506" d="M18 29h1" />
<path stroke="#46241e" d="M19 29h1" />
<path stroke="#381f1c" d="M20 29h1" />
<path stroke="#1b192b" d="M22 29h1" />
<path stroke="#1a192c" d="M23 29h1" />
<path stroke="#0a0a19" d="M25 29h1" />
<path stroke="#212330" d="M26 29h1" />
<path stroke="#19191c" d="M27 29h1" />
<path stroke="#8b5643" d="M10 30h1" />
<path stroke="#e89972" d="M11 30h1" />
<path stroke="#e9a078" d="M12 30h1" />
<path stroke="#eda67e" d="M13 30h1" />
<path stroke="#efa37c" d="M14 30h1" />
<path stroke="#dc9172" d="M15 30h1" />
<path stroke="#6e3f33" d="M16 30h1" />
<path stroke="#0b0304" d="M17 30h1" />
<path stroke="#000104" d="M18 30h1M36 43h1" />
<path stroke="#010207" d="M19 30h1" />
<path stroke="#131425" d="M22 30h1" />
<path stroke="#101121" d="M23 30h1" />
<path stroke="#191a2a" d="M24 30h1" />
<path stroke="#4e5160" d="M25 30h1" />
<path stroke="#6c737f" d="M26 30h2M28 31h1" />
<path stroke="#5c3828" d="M10 31h1" />
<path stroke="#d58a67" d="M11 31h1" />
<path stroke="#f0a277" d="M12 31h1" />
<path stroke="#f1a278" d="M13 31h1" />
<path stroke="#ef9b73" d="M14 31h1" />
<path stroke="#db7f5d" d="M15 31h1" />
<path stroke="#ab5f4b" d="M16 31h1" />
<path stroke="#361a17" d="M17 31h1" />
<path stroke="#000004" d="M18 31h1M14 44h1" />
<path stroke="#0b0a1a" d="M20 31h1" />
<path stroke="#0a0a18" d="M21 31h1" />
<path stroke="#252834" d="M22 31h1" />
<path stroke="#444956" d="M23 31h1" />
<path stroke="#6b717e" d="M24 31h1" />
<path stroke="#7a808c" d="M25 31h1" />
<path stroke="#7b828c" d="M26 31h1" />
<path stroke="#7b828a" d="M27 31h1M30 32h1M31 33h1M32 34h1M33 35h1M21 40h1" />
<path stroke="#925a43" d="M11 32h1" />
<path stroke="#e28d68" d="M12 32h1" />
<path stroke="#ea8d65" d="M13 32h1" />
<path stroke="#d97b59" d="M14 32h1" />
<path stroke="#b7614a" d="M15 32h1" />
<path stroke="#642e25" d="M16 32h1" />
<path stroke="#0c0306" d="M17 32h1" />
<path stroke="#060717" d="M18 32h1" />
<path stroke="#0e1122" d="M19 32h1" />
<path stroke="#363947" d="M20 32h1" />
<path stroke="#4c4f5b" d="M21 32h1" />
<path stroke="#6b707c" d="M22 32h1" />
<path stroke="#747986" d="M23 32h1" />
<path stroke="#737a87" d="M24 32h1" />
<path stroke="#68707e" d="M25 32h1" />
<path stroke="#747b87" d="M26 32h1" />
<path stroke="#79818a" d="M27 32h1" />
<path stroke="#7a828b" d="M28 32h1" />
<path stroke="#737b81" d="M29 32h1" />
<path stroke="#995841" d="M12 33h1" />
<path stroke="#be664d" d="M13 33h1" />
<path stroke="#9e513e" d="M14 33h1" />
<path stroke="#52251e" d="M15 33h1" />
<path stroke="#170b11" d="M16 33h1" />
<path stroke="#202334" d="M17 33h1" />
<path stroke="#3a3f53" d="M18 33h1" />
<path stroke="#535669" d="M19 33h1" />
<path stroke="#717582" d="M20 33h1" />
<path stroke="#777e89" d="M21 33h1M29 35h1" />
<path stroke="#767d88" d="M22 33h1" />
<path stroke="#757b87" d="M23 33h1" />
<path stroke="#4b5162" d="M24 33h1" />
<path stroke="#373d51" d="M25 33h1" />
<path stroke="#6d7683" d="M26 33h1" />
<path stroke="#777f89" d="M27 33h2" />
<path stroke="#778089" d="M29 33h1M19 38h1" />
<path stroke="#778088" d="M30 33h1" />
<path stroke="#192128" d="M16 34h1" />
<path stroke="#42495d" d="M17 34h1" />
<path stroke="#62687a" d="M18 34h1" />
<path stroke="#777d89" d="M19 34h1" />
<path stroke="#7a7e89" d="M20 34h1" />
<path stroke="#79808a" d="M21 34h1M20 35h1" />
<path stroke="#6e7782" d="M22 34h1" />
<path stroke="#575d6a" d="M23 34h1" />
<path stroke="#25293a" d="M24 34h1M36 41h1" />
<path stroke="#32364c" d="M25 34h1" />
<path stroke="#697080" d="M26 34h1" />
<path stroke="#777e8a" d="M27 34h1" />
<path stroke="#767e88" d="M28 34h1" />
<path stroke="#767f88" d="M29 34h1" />
<path stroke="#767f87" d="M30 34h1" />
<path stroke="#788188" d="M31 34h1" />
<path stroke="#4f5467" d="M17 35h1" />
<path stroke="#777d8a" d="M18 35h1M18 36h1" />
<path stroke="#7a808b" d="M19 35h1" />
<path stroke="#798189" d="M21 35h1" />
<path stroke="#6a727e" d="M22 35h1" />
<path stroke="#2b2d3c" d="M23 35h1" />
<path stroke="#30344b" d="M25 35h1" />
<path stroke="#464c62" d="M26 35h1" />
<path stroke="#6a7081" d="M27 35h1" />
<path stroke="#767c89" d="M28 35h1" />
<path stroke="#777f88" d="M30 35h1" />
<path stroke="#78818a" d="M31 35h2" />
<path stroke="#505366" d="M17 36h1" />
<path stroke="#797f8a" d="M19 36h1" />
<path stroke="#788089" d="M20 36h1" />
<path stroke="#787f87" d="M21 36h1M20 37h1" />
<path stroke="#767d86" d="M22 36h1" />
<path stroke="#4a4d58" d="M23 36h1" />
<path stroke="#30354b" d="M26 36h1" />
<path stroke="#3e425b" d="M27 36h1" />
<path stroke="#585f72" d="M28 36h1" />
<path stroke="#737987" d="M29 36h1" />
<path stroke="#79808b" d="M30 36h2" />
<path stroke="#787e8b" d="M32 36h1" />
<path stroke="#606777" d="M33 36h1" />
<path stroke="#383c49" d="M17 37h1" />
<path stroke="#727885" d="M18 37h1" />
<path stroke="#787f89" d="M19 37h1" />
<path stroke="#787f86" d="M21 37h1M21 38h1" />
<path stroke="#7a8289" d="M22 37h1M22 38h1" />
<path stroke="#5d626b" d="M23 37h1" />
<path stroke="#2b3245" d="M27 37h1" />
<path stroke="#393f57" d="M28 37h1M22 42h1M20 43h2" />
<path stroke="#555c71" d="M29 37h1" />
<path stroke="#666b7e" d="M30 37h1" />
<path stroke="#656b7c" d="M31 37h1" />
<path stroke="#5c6276" d="M32 37h1" />
<path stroke="#40455f" d="M33 37h1" />
<path stroke="#2b3144" d="M34 37h1" />
<path stroke="#292c37" d="M17 38h1" />
<path stroke="#6c7480" d="M18 38h1" />
<path stroke="#788087" d="M20 38h1" />
<path stroke="#6e737a" d="M23 38h1" />
<path stroke="#242d39" d="M28 38h1" />
<path stroke="#3c415b" d="M29 38h1" />
<path stroke="#3d425f" d="M30 38h1" />
<path stroke="#3e425e" d="M31 38h1" />
<path stroke="#3c425e" d="M32 38h1M32 42h1" />
<path stroke="#393f5d" d="M33 38h1M31 40h1" />
<path stroke="#393f5a" d="M34 38h2" />
<path stroke="#0b1314" d="M16 39h1" />
<path stroke="#222434" d="M17 39h1" />
<path stroke="#5f6472" d="M18 39h1" />
<path stroke="#777e88" d="M19 39h1" />
<path stroke="#787f88" d="M20 39h1" />
<path stroke="#798087" d="M21 39h1" />
<path stroke="#7c8288" d="M22 39h1" />
<path stroke="#6f7579" d="M23 39h1" />
<path stroke="#282e40" d="M29 39h1" />
<path stroke="#393f5c" d="M30 39h1" />
<path stroke="#393e5e" d="M31 39h1" />
<path stroke="#3a3f5f" d="M32 39h1" />
<path stroke="#393f5e" d="M33 39h1" />
<path stroke="#373d5b" d="M34 39h1" />
<path stroke="#31364d" d="M35 39h1" />
<path stroke="#303449" d="M15 40h1M19 44h2" />
<path stroke="#303345" d="M16 40h1" />
<path stroke="#121324" d="M17 40h1" />
<path stroke="#3f4253" d="M18 40h1" />
<path stroke="#686e7e" d="M19 40h1" />
<path stroke="#7a818b" d="M20 40h1" />
<path stroke="#7d848a" d="M22 40h1" />
<path stroke="#71757a" d="M23 40h1" />
<path stroke="#363a53" d="M30 40h1" />
<path stroke="#393f5f" d="M32 40h1" />
<path stroke="#383e5e" d="M33 40h1" />
<path stroke="#373d5c" d="M34 40h1" />
<path stroke="#373e5b" d="M35 40h1M34 41h1" />
<path stroke="#2a3240" d="M36 40h1" />
<path stroke="#151922" d="M14 41h1" />
<path stroke="#36394e" d="M15 41h1" />
<path stroke="#3c3f55" d="M16 41h1" />
<path stroke="#282c40" d="M17 41h1" />
<path stroke="#33384f" d="M18 41h1" />
<path stroke="#41475d" d="M19 41h1" />
<path stroke="#686d7e" d="M20 41h1" />
<path stroke="#6d7482" d="M21 41h1" />
<path stroke="#6e7680" d="M22 41h2" />
<path stroke="#1b2030" d="M30 41h1" />
<path stroke="#393f5b" d="M31 41h1" />
<path stroke="#39405d" d="M32 41h1" />
<path stroke="#383f5d" d="M33 41h1" />
<path stroke="#353a54" d="M35 41h1" />
<path stroke="#06110b" d="M37 41h1" />
<path stroke="#010203" d="M13 42h1" />
<path stroke="#060612" d="M14 42h1" />
<path stroke="#2a2c3f" d="M15 42h1" />
<path stroke="#3f425a" d="M16 42h1" />
<path stroke="#3d425c" d="M17 42h1M17 43h1" />
<path stroke="#3d435d" d="M18 42h2" />
<path stroke="#404660" d="M20 42h1" />
<path stroke="#42475f" d="M21 42h1" />
<path stroke="#333850" d="M31 42h1" />
<path stroke="#39405b" d="M33 42h1" />
<path stroke="#2c3147" d="M34 42h1" />
<path stroke="#1a1c2d" d="M35 42h1" />
<path stroke="#020209" d="M36 42h1" />
<path stroke="#000102" d="M37 42h2" />
<path stroke="#000101" d="M39 42h1" />
<path stroke="#282c29" d="M40 42h1" />
<path stroke="#010204" d="M13 43h1" />
<path stroke="#111121" d="M15 43h1" />
<path stroke="#36394f" d="M16 43h1" />
<path stroke="#3d425e" d="M18 43h1" />
<path stroke="#3e435f" d="M19 43h1" />
<path stroke="#272b3f" d="M32 43h1" />
<path stroke="#1f2236" d="M33 43h1" />
<path stroke="#050614" d="M34 43h1" />
<path stroke="#050509" d="M38 43h1" />
<path stroke="#313133" d="M39 43h1" />
<path stroke="#a3a3a4" d="M40 43h1" />
<path stroke="#6a6c6e" d="M41 43h1M40 44h1M12 46h2M35 46h1M35 47h1" />
<path stroke="#767777" d="M12 44h1" />
<path stroke="#0e0e12" d="M13 44h1" />
<path stroke="#02020c" d="M15 44h1" />
<path stroke="#0c0c1e" d="M16 44h1" />
<path stroke="#2c3044" d="M17 44h1" />
<path stroke="#31354c" d="M18 44h1" />
<path stroke="#01020a" d="M33 44h2" />
<path stroke="#010206" d="M35 44h2" />
<path stroke="#222225" d="M37 44h1" />
<path stroke="#7c7c7d" d="M38 44h1" />
<path stroke="#acadad" d="M39 44h1" />
<path stroke="#898a8b" d="M12 45h1" />
<path stroke="#151519" d="M13 45h1" />
<path stroke="#010003" d="M14 45h1" />
<path stroke="#000005" d="M15 45h1" />
<path stroke="#010107" d="M17 45h2" />
<path stroke="#06100e" d="M19 45h1" />
<path stroke="#010205" d="M33 45h1" />
<path stroke="#06090e" d="M35 45h1" />
<path stroke="#4b4c4e" d="M36 45h1" />
<path stroke="#9b9b9b" d="M37 45h1" />
<path stroke="#6f7370" d="M38 45h1" />
<path stroke="#020a05" d="M19 46h1" />
<path stroke="#091211" d="M33 46h1" />
<path stroke="#4d4e52" d="M34 46h1M34 47h1" />
<path stroke="#6e7472" d="M36 46h2" />
<path stroke="#838687" d="M13 47h1" />
<path stroke="#818285" d="M14 47h1" />
<path stroke="#808386" d="M15 47h1" />
<path stroke="#7e8284" d="M16 47h1" />
<path stroke="#818386" d="M17 47h1" />
<path stroke="#808183" d="M18 47h1" />
<path stroke="#292d2b" d="M19 47h1" />
</svg>