<svg xmlns="http://www.w3.org/2000/svg" viewBox="0 -0.5 48 48" shape-rendering="crispEdges">
<metadata>Made with Pixels to Svg https://codepen.io/shshaw/pen/XbxvNj</metadata>
<path stroke="#000000" d="M40 36h4M38 37h2M44 37h1M19 38h19M45 38h1M9 39h4M17 39h2M46 39h1M5 40h4M13 40h4M46 40h1M4 41h1M27 41h3M46 41h1M3 42h1M26 42h1M46 42h1M2 43h1M25 43h1M46 43h1M1 44h1M35 44h2M46 44h1M1 45h1M37 45h2M46 45h1M1 46h1M21 46h2M39 46h1M45 46h1M1 47h1M3 47h4M20 47h3M39 47h1M44 47h1" />
<path stroke="#010104" d="M40 37h1" />
<path stroke="#010106" d="M41 37h3M42 38h1" />
<path stroke="#6a4338" d="M38 38h1" />
<path stroke="#8c6253" d="M39 38h1" />
<path stroke="#412b28" d="M40 38h1" />
<path stroke="#010103" d="M41 38h1" />
<path stroke="#01020b" d="M43 38h1" />
<path stroke="#060717" d="M44 38h1" />
<path stroke="#616970" d="M19 39h1" />
<path stroke="#6e757e" d="M20 39h1" />
<path stroke="#7d848e" d="M21 39h1" />
<path stroke="#5e626e" d="M22 39h1" />
<path stroke="#101220" d="M23 39h1" />
<path stroke="#121424" d="M24 39h1" />
<path stroke="#141528" d="M25 39h1" />
<path stroke="#131728" d="M26 39h1" />
<path stroke="#131727" d="M27 39h1" />
<path stroke="#151928" d="M28 39h1" />
<path stroke="#131527" d="M29 39h1" />
<path stroke="#0a0d1e" d="M30 39h1" />
<path stroke="#070a1c" d="M31 39h1" />
<path stroke="#090b1e" d="M32 39h1" />
<path stroke="#15172b" d="M33 39h1" />
<path stroke="#1b1c2e" d="M34 39h1" />
<path stroke="#151119" d="M35 39h1" />
<path stroke="#281312" d="M36 39h1" />
<path stroke="#5d3329" d="M37 39h1" />
<path stroke="#b97d66" d="M38 39h1" />
<path stroke="#b27d66" d="M39 39h1" />
<path stroke="#422822" d="M40 39h1" />
<path stroke="#010002" d="M41 39h1M41 40h1M40 46h1" />
<path stroke="#010107" d="M42 39h1M9 41h1M23 46h1" />
<path stroke="#090a1a" d="M43 39h1" />
<path stroke="#1b1e2e" d="M44 39h1" />
<path stroke="#1b1f2a" d="M45 39h1" />
<path stroke="#010105" d="M9 40h1M8 41h1" />
<path stroke="#01010a" d="M10 40h1" />
<path stroke="#141525" d="M11 40h1" />
<path stroke="#242d38" d="M12 40h1" />
<path stroke="#545c62" d="M17 40h1" />
<path stroke="#727a82" d="M18 40h1" />
<path stroke="#79818a" d="M19 40h1" />
<path stroke="#7a818b" d="M20 40h1" />
<path stroke="#787e88" d="M21 40h1" />
<path stroke="#333543" d="M22 40h1" />
<path stroke="#111222" d="M23 40h1" />
<path stroke="#15192a" d="M24 40h1" />
<path stroke="#131528" d="M25 40h1" />
<path stroke="#0b0d1e" d="M26 40h1M23 42h1" />
<path stroke="#090c1a" d="M27 40h1" />
<path stroke="#0b0d1b" d="M28 40h1" />
<path stroke="#050613" d="M29 40h1" />
<path stroke="#0b0d1c" d="M30 40h1" />
<path stroke="#17182b" d="M31 40h1" />
<path stroke="#17192a" d="M32 40h1" />
<path stroke="#121327" d="M33 40h1" />
<path stroke="#121325" d="M34 40h1" />
<path stroke="#211218" d="M35 40h1" />
<path stroke="#854f3f" d="M36 40h1" />
<path stroke="#b57156" d="M37 40h1" />
<path stroke="#794633" d="M38 40h1" />
<path stroke="#533224" d="M39 40h1" />
<path stroke="#2a1712" d="M40 40h1" />
<path stroke="#090915" d="M42 40h1" />
<path stroke="#1e1e2d" d="M43 40h1" />
<path stroke="#1e2131" d="M44 40h1M14 41h1" />
<path stroke="#222534" d="M45 40h1" />
<path stroke="#6e7072" d="M5 41h1" />
<path stroke="#15151a" d="M6 41h1" />
<path stroke="#000002" d="M7 41h1M6 42h1M4 44h2" />
<path stroke="#010109" d="M10 41h1" />
<path stroke="#151728" d="M11 41h1" />
<path stroke="#24283a" d="M12 41h1" />
<path stroke="#1e2134" d="M13 41h1" />
<path stroke="#464a56" d="M15 41h1" />
<path stroke="#6f7581" d="M16 41h1" />
<path stroke="#767e88" d="M17 41h1M19 41h1" />
<path stroke="#747d87" d="M18 41h1" />
<path stroke="#788089" d="M20 41h1" />
<path stroke="#6e747f" d="M21 41h1" />
<path stroke="#1a1c2a" d="M22 41h1" />
<path stroke="#151828" d="M23 41h1" />
<path stroke="#15182a" d="M24 41h1" />
<path stroke="#0e1222" d="M25 41h1" />
<path stroke="#050615" d="M26 41h1" />
<path stroke="#181a2a" d="M30 41h1" />
<path stroke="#191c2c" d="M31 41h1" />
<path stroke="#1b1e2d" d="M32 41h1" />
<path stroke="#181b2c" d="M33 41h1" />
<path stroke="#050612" d="M34 41h1" />
<path stroke="#341814" d="M35 41h1" />
<path stroke="#c07d5e" d="M36 41h1" />
<path stroke="#ec9e74" d="M37 41h1" />
<path stroke="#e49d73" d="M38 41h1" />
<path stroke="#da9c7c" d="M39 41h1M39 42h1M38 43h1M38 44h1" />
<path stroke="#906253" d="M40 41h1M40 42h1" />
<path stroke="#291313" d="M41 41h1" />
<path stroke="#06040d" d="M42 41h1" />
<path stroke="#060614" d="M43 41h1" />
<path stroke="#090b1a" d="M44 41h1" />
<path stroke="#1f2131" d="M45 41h1" />
<path stroke="#808283" d="M4 42h1" />
<path stroke="#212025" d="M5 42h1" />
<path stroke="#0e0e19" d="M7 42h1" />
<path stroke="#404351" d="M8 42h1" />
<path stroke="#434653" d="M9 42h1" />
<path stroke="#444752" d="M10 42h1" />
<path stroke="#404250" d="M11 42h1" />
<path stroke="#232536" d="M12 42h1" />
<path stroke="#363947" d="M13 42h1" />
<path stroke="#676b78" d="M14 42h1" />
<path stroke="#7a7f8b" d="M15 42h1" />
<path stroke="#797e8a" d="M16 42h1" />
<path stroke="#767d88" d="M17 42h1M20 42h1M18 43h1" />
<path stroke="#767c88" d="M18 42h1" />
<path stroke="#757c87" d="M19 42h1" />
<path stroke="#5d6171" d="M21 42h1" />
<path stroke="#101223" d="M22 42h1" />
<path stroke="#0a0c1c" d="M24 42h1" />
<path stroke="#050718" d="M25 42h1" />
<path stroke="#211317" d="M27 42h1" />
<path stroke="#362422" d="M28 42h1" />
<path stroke="#23171a" d="M29 42h1" />
<path stroke="#14121f" d="M30 42h1" />
<path stroke="#191a2c" d="M31 42h1" />
<path stroke="#171a2b" d="M32 42h1" />
<path stroke="#121524" d="M33 42h1" />
<path stroke="#07040a" d="M34 42h1" />
<path stroke="#7e4b3a" d="M35 42h1" />
<path stroke="#e7976d" d="M36 42h1" />
<path stroke="#f0a171" d="M37 42h1" />
<path stroke="#eda378" d="M38 42h1" />
<path stroke="#71453e" d="M41 42h1" />
<path stroke="#0d060b" d="M42 42h1" />
<path stroke="#000106" d="M43 42h1M4 46h1" />
<path stroke="#060714" d="M44 42h1" />
<path stroke="#1e2030" d="M45 42h1" />
<path stroke="#797c7b" d="M3 43h1" />
<path stroke="#252529" d="M4 43h1" />
<path stroke="#000001" d="M5 43h1" />
<path stroke="#03030a" d="M6 43h1" />
<path stroke="#454756" d="M7 43h1" />
<path stroke="#747a8a" d="M8 43h1" />
<path stroke="#767d8c" d="M9 43h1" />
<path stroke="#767c8a" d="M10 43h1" />
<path stroke="#545869" d="M11 43h1" />
<path stroke="#3f4354" d="M12 43h1" />
<path stroke="#727885" d="M13 43h1" />
<path stroke="#79808b" d="M14 43h1" />
<path stroke="#777f89" d="M15 43h1" />
<path stroke="#787e89" d="M16 43h1" />
<path stroke="#777d89" d="M17 43h1" />
<path stroke="#757c8a" d="M19 43h1" />
<path stroke="#717785" d="M20 43h1" />
<path stroke="#44475b" d="M21 43h1" />
<path stroke="#060718" d="M22 43h1" />
<path stroke="#030411" d="M23 43h1" />
<path stroke="#030610" d="M24 43h1" />
<path stroke="#362020" d="M26 43h1" />
<path stroke="#b27e67" d="M27 43h1" />
<path stroke="#d79a7d" d="M28 43h1" />
<path stroke="#b6816a" d="M29 43h1" />
<path stroke="#583936" d="M30 43h1" />
<path stroke="#130d1c" d="M31 43h1" />
<path stroke="#0b0c1c" d="M32 43h1" />
<path stroke="#040612" d="M33 43h1" />
<path stroke="#060204" d="M34 43h1" />
<path stroke="#a0634d" d="M35 43h1" />
<path stroke="#ea966c" d="M36 43h1" />
<path stroke="#ef9d6d" d="M37 43h1" />
<path stroke="#9f6551" d="M39 43h2M39 44h1" />
<path stroke="#2d1417" d="M41 43h1" />
<path stroke="#11101c" d="M42 43h1" />
<path stroke="#181827" d="M43 43h1" />
<path stroke="#151725" d="M44 43h1" />
<path stroke="#1b1f2d" d="M45 43h1" />
<path stroke="#949696" d="M2 44h1" />
<path stroke="#2e2e32" d="M3 44h1" />
<path stroke="#05050e" d="M6 44h1" />
<path stroke="#44495d" d="M7 44h1" />
<path stroke="#535871" d="M8 44h1" />
<path stroke="#555b72" d="M9 44h1" />
<path stroke="#53586e" d="M10 44h1" />
<path stroke="#3c4055" d="M11 44h1" />
<path stroke="#4c5165" d="M12 44h1" />
<path stroke="#727986" d="M13 44h1" />
<path stroke="#757e88" d="M14 44h1" />
<path stroke="#767e89" d="M15 44h1" />
<path stroke="#777f8a" d="M16 44h1" />
<path stroke="#787f8b" d="M17 44h1" />
<path stroke="#79808c" d="M18 44h1" />
<path stroke="#697080" d="M19 44h1" />
<path stroke="#4c5064" d="M20 44h1" />
<path stroke="#33354a" d="M21 44h1" />
<path stroke="#040614" d="M22 44h1" />
<path stroke="#02030c" d="M23 44h1" />
<path stroke="#020307" d="M24 44h1" />
<path stroke="#11060a" d="M25 44h1" />
<path stroke="#a4725e" d="M26 44h1" />
<path stroke="#d78d6d" d="M27 44h1" />
<path stroke="#a2604a" d="M28 44h1" />
<path stroke="#985d4b" d="M29 44h1" />
<path stroke="#825547" d="M30 44h1" />
<path stroke="#12070d" d="M31 44h1" />
<path stroke="#030510" d="M32 44h1" />
<path stroke="#02030a" d="M33 44h1M23 45h1" />
<path stroke="#060203" d="M34 44h1" />
<path stroke="#dc9069" d="M37 44h1" />
<path stroke="#653a34" d="M40 44h1" />
<path stroke="#10060d" d="M41 44h1" />
<path stroke="#171829" d="M42 44h1" />
<path stroke="#1b1b2c" d="M43 44h1" />
<path stroke="#1c1e30" d="M44 44h1" />
<path stroke="#1c1e2d" d="M45 44h1" />
<path stroke="#929498" d="M2 45h1" />
<path stroke="#03040a" d="M3 45h1" />
<path stroke="#000006" d="M4 45h2" />
<path stroke="#02030d" d="M6 45h1" />
<path stroke="#31344c" d="M7 45h1" />
<path stroke="#393f5c" d="M8 45h2" />
<path stroke="#39405c" d="M10 45h1" />
<path stroke="#383f5a" d="M11 45h1" />
<path stroke="#3d445c" d="M12 45h1" />
<path stroke="#585f73" d="M13 45h1" />
<path stroke="#5f6678" d="M14 45h2" />
<path stroke="#61687b" d="M16 45h1" />
<path stroke="#646b7e" d="M17 45h1" />
<path stroke="#646a7d" d="M18 45h1" />
<path stroke="#4d5368" d="M19 45h1" />
<path stroke="#31344b" d="M20 45h1" />
<path stroke="#222339" d="M21 45h1" />
<path stroke="#0c0d1e" d="M22 45h1" />
<path stroke="#050205" d="M24 45h1" />
<path stroke="#5d362b" d="M25 45h1" />
<path stroke="#df9772" d="M26 45h1" />
<path stroke="#eea074" d="M27 45h1" />
<path stroke="#e39c77" d="M28 45h1" />
<path stroke="#b77a60" d="M29 45h1" />
<path stroke="#6f4437" d="M30 45h1" />
<path stroke="#312020" d="M31 45h1" />
<path stroke="#03030b" d="M32 45h1" />
<path stroke="#110910" d="M33 45h1" />
<path stroke="#301915" d="M34 45h1" />
<path stroke="#6b4137" d="M35 45h1" />
<path stroke="#693c30" d="M36 45h1" />
<path stroke="#985e4b" d="M39 45h1" />
<path stroke="#402320" d="M40 45h1" />
<path stroke="#030209" d="M41 45h1M41 47h1" />
<path stroke="#030312" d="M42 45h1" />
<path stroke="#0a0a1c" d="M43 45h1" />
<path stroke="#1f1e31" d="M44 45h1" />
<path stroke="#201f2d" d="M45 45h1" />
<path stroke="#8d8f92" d="M2 46h1" />
<path stroke="#03040b" d="M3 46h1" />
<path stroke="#000206" d="M5 46h1" />
<path stroke="#02070e" d="M6 46h1" />
<path stroke="#2d3445" d="M7 46h1" />
<path stroke="#383e56" d="M8 46h1M7 47h6" />
<path stroke="#353a55" d="M9 46h1" />
<path stroke="#353a54" d="M10 46h1" />
<path stroke="#343952" d="M11 46h1" />
<path stroke="#333850" d="M12 46h1" />
<path stroke="#343950" d="M13 46h1" />
<path stroke="#363c52" d="M14 46h1" />
<path stroke="#353a53" d="M15 46h2" />
<path stroke="#343850" d="M17 46h1" />
<path stroke="#2e334a" d="M18 46h1M13 47h5" />
<path stroke="#21253c" d="M19 46h1" />
<path stroke="#1c2034" d="M20 46h1M18 47h2" />
<path stroke="#0c0203" d="M24 46h1" />
<path stroke="#a76750" d="M25 46h1" />
<path stroke="#ef9b6e" d="M26 46h1" />
<path stroke="#f1a070" d="M27 46h1" />
<path stroke="#f1a373" d="M28 46h1" />
<path stroke="#f0a67a" d="M29 46h1" />
<path stroke="#be866d" d="M30 46h1" />
<path stroke="#412b2a" d="M31 46h1" />
<path stroke="#0e0509" d="M32 46h1" />
<path stroke="#7e5549" d="M33 46h1" />
<path stroke="#d29578" d="M34 46h1" />
<path stroke="#cd8d70" d="M35 46h1" />
<path stroke="#c3856b" d="M36 46h1" />
<path stroke="#734135" d="M37 46h1" />
<path stroke="#35120d" d="M38 46h1" />
<path stroke="#020209" d="M41 46h1" />
<path stroke="#0d0c1c" d="M42 46h1" />
<path stroke="#201f30" d="M43 46h1" />
<path stroke="#242235" d="M44 46h1" />
<path stroke="#2e3732" d="M2 47h1" />
<path stroke="#010c09" d="M23 47h1" />
<path stroke="#090604" d="M24 47h1" />
<path stroke="#864736" d="M25 47h1" />
<path stroke="#d67a55" d="M26 47h1" />
<path stroke="#e58b60" d="M27 47h1" />
<path stroke="#e89064" d="M28 47h1" />
<path stroke="#e89369" d="M29 47h1" />
<path stroke="#804f3c" d="M30 47h1" />
<path stroke="#020002" d="M31 47h1" />
<path stroke="#251314" d="M32 47h1" />
<path stroke="#cd9075" d="M33 47h1" />
<path stroke="#efa57c" d="M34 47h1" />
<path stroke="#ee9f78" d="M35 47h1" />
<path stroke="#dd8866" d="M36 47h1" />
<path stroke="#ac6a57" d="M37 47h1" />
<path stroke="#25100e" d="M38 47h1" />
<path stroke="#020003" d="M40 47h1" />
<path stroke="#0a0914" d="M42 47h1" />
<path stroke="#0e0d1a" d="M43 47h1" />
</svg>