<svg xmlns="http://www.w3.org/2000/svg" viewBox="0 -0.5 48 48" shape-rendering="crispEdges">
<metadata>Made with Pixels to Svg https://codepen.io/shshaw/pen/XbxvNj</metadata>
<path stroke="#000000" d="M36 27h6M35 28h1M42 28h1M34 29h1M43 29h1M14 30h4M29 30h3M34 30h1M44 30h1M13 31h1M18 31h1M28 31h1M32 31h2M45 31h1M12 32h1M19 32h1M27 32h1M46 32h1M11 33h1M20 33h1M26 33h2M46 33h1M11 34h1M21 34h6M46 34h1M10 35h1M26 35h1M32 35h1M46 35h1M10 36h1M25 36h1M32 36h1M45 36h2M6 37h4M25 37h1M32 37h1M45 37h1M5 38h1M15 38h2M25 38h1M32 38h1M41 38h4M5 39h1M14 39h1M17 39h1M25 39h1M31 39h1M41 39h1M6 40h1M14 40h3M25 40h1M31 40h1M41 40h1M7 41h1M13 41h3M32 41h1M41 41h1M3 42h10M26 42h1M32 42h1M42 42h2M2 43h1M33 43h1M36 43h1M44 43h1M1 44h1M33 44h2M36 44h1M44 44h1M1 45h1M23 45h2M28 45h1M35 45h2M44 45h1M1 46h1M20 46h3M29 46h1M36 46h2M44 46h1M1 47h1M6 47h14M29 47h1M36 47h1M38 47h3M43 47h1" />
<path stroke="#010103" d="M36 28h1" />
<path stroke="#010104" d="M37 28h1" />
<path stroke="#03030c" d="M38 28h1" />
<path stroke="#191929" d="M39 28h1" />
<path stroke="#1c1e2d" d="M40 28h1" />
<path stroke="#181c28" d="M41 28h1" />
<path stroke="#000003" d="M35 29h1M9 38h1M5 46h1" />
<path stroke="#010005" d="M36 29h1" />
<path stroke="#010106" d="M37 29h1M42 36h1M42 37h1" />
<path stroke="#04030d" d="M38 29h1" />
<path stroke="#171527" d="M39 29h1" />
<path stroke="#27273a" d="M40 29h1" />
<path stroke="#29293c" d="M41 29h1" />
<path stroke="#1f202e" d="M42 29h1" />
<path stroke="#0b0306" d="M35 30h1" />
<path stroke="#201011" d="M36 30h1" />
<path stroke="#060207" d="M37 30h1" />
<path stroke="#020109" d="M38 30h1" />
<path stroke="#0a0b1a" d="M39 30h1" />
<path stroke="#222135" d="M40 30h1" />
<path stroke="#100e21" d="M41 30h1" />
<path stroke="#1c1e30" d="M42 30h1" />
<path stroke="#1c1f2b" d="M43 30h1" />
<path stroke="#6b757b" d="M14 31h1M16 31h2M18 32h1" />
<path stroke="#717982" d="M15 31h1" />
<path stroke="#10111e" d="M29 31h3M28 32h1M23 35h1M40 39h1" />
<path stroke="#0a0606" d="M34 31h1" />
<path stroke="#8a6051" d="M35 31h1" />
<path stroke="#bc8671" d="M36 31h1" />
<path stroke="#2a1718" d="M37 31h1" />
<path stroke="#020006" d="M38 31h1" />
<path stroke="#06030c" d="M39 31h1" />
<path stroke="#0c0b1a" d="M40 31h1" />
<path stroke="#060615" d="M41 31h1" />
<path stroke="#090a18" d="M42 31h1M33 40h1" />
<path stroke="#1b1b2b" d="M43 31h1" />
<path stroke="#141720" d="M44 31h1" />
<path stroke="#575e6a" d="M13 32h1" />
<path stroke="#767d89" d="M14 32h1" />
<path stroke="#767e88" d="M15 32h1M17 42h1" />
<path stroke="#767f89" d="M16 32h1M20 36h1M19 44h1" />
<path stroke="#717a83" d="M17 32h1" />
<path stroke="#1a1b2e" d="M29 32h1" />
<path stroke="#1f2036" d="M30 32h1" />
<path stroke="#1f2035" d="M31 32h1M30 34h1" />
<path stroke="#101122" d="M32 32h1" />
<path stroke="#030310" d="M33 32h1" />
<path stroke="#251515" d="M34 32h1" />
<path stroke="#d0967d" d="M35 32h1" />
<path stroke="#9c6853" d="M36 32h1" />
<path stroke="#1b0607" d="M37 32h1" />
<path stroke="#371b1e" d="M38 32h1" />
<path stroke="#502d2c" d="M39 32h1" />
<path stroke="#090206" d="M40 32h1" />
<path stroke="#090a17" d="M41 32h2" />
<path stroke="#0d0e1e" d="M43 32h1" />
<path stroke="#202031" d="M44 32h1" />
<path stroke="#0a0a17" d="M45 32h1M43 36h2M43 37h2" />
<path stroke="#282c3e" d="M12 33h1" />
<path stroke="#51556b" d="M13 33h1" />
<path stroke="#69707f" d="M14 33h1" />
<path stroke="#778089" d="M15 33h1M18 36h1M14 43h1M16 44h1" />
<path stroke="#757e87" d="M16 33h1M19 35h1" />
<path stroke="#747e87" d="M17 33h1" />
<path stroke="#747d86" d="M18 33h1" />
<path stroke="#768089" d="M19 33h1M19 34h2M21 35h1M19 36h1" />
<path stroke="#1b1b30" d="M28 33h1" />
<path stroke="#1f1f33" d="M29 33h1" />
<path stroke="#1e1f35" d="M30 33h2" />
<path stroke="#18182b" d="M32 33h1" />
<path stroke="#090512" d="M33 33h1" />
<path stroke="#2d1514" d="M34 33h1" />
<path stroke="#a87261" d="M35 33h1" />
<path stroke="#5f3328" d="M36 33h1" />
<path stroke="#73473c" d="M37 33h1" />
<path stroke="#5e322a" d="M38 33h1" />
<path stroke="#9e6a60" d="M39 33h1" />
<path stroke="#5f3933" d="M40 33h1" />
<path stroke="#130c14" d="M41 33h1" />
<path stroke="#212333" d="M42 33h1" />
<path stroke="#1b1c2c" d="M43 33h1" />
<path stroke="#232436" d="M44 33h1" />
<path stroke="#0e1419" d="M45 33h1" />
<path stroke="#363c54" d="M12 34h1" />
<path stroke="#3d425e" d="M13 34h1" />
<path stroke="#4a4f66" d="M14 34h1" />
<path stroke="#68707e" d="M15 34h1" />
<path stroke="#737b86" d="M16 34h1" />
<path stroke="#747d87" d="M17 34h1M17 35h1" />
<path stroke="#747f88" d="M18 34h1" />
<path stroke="#0b0c19" d="M27 34h1" />
<path stroke="#1e1e30" d="M28 34h1" />
<path stroke="#202135" d="M29 34h1" />
<path stroke="#1e1f34" d="M31 34h1" />
<path stroke="#11101e" d="M32 34h1" />
<path stroke="#3e2222" d="M33 34h1" />
<path stroke="#4f2723" d="M34 34h1" />
<path stroke="#804a36" d="M35 34h1" />
<path stroke="#d28e6e" d="M36 34h1" />
<path stroke="#dc9271" d="M37 34h1" />
<path stroke="#693a2a" d="M38 34h1" />
<path stroke="#4a2821" d="M39 34h1" />
<path stroke="#935e52" d="M40 34h1" />
<path stroke="#331e22" d="M41 34h1" />
<path stroke="#1f2032" d="M42 34h1" />
<path stroke="#070719" d="M43 34h1" />
<path stroke="#1c1c2d" d="M44 34h1" />
<path stroke="#10131b" d="M45 34h1" />
<path stroke="#252a39" d="M11 35h1" />
<path stroke="#3a3f5b" d="M12 35h1" />
<path stroke="#393e5c" d="M13 35h1" />
<path stroke="#383c58" d="M14 35h1" />
<path stroke="#32364a" d="M15 35h1" />
<path stroke="#565c69" d="M16 35h1" />
<path stroke="#757f88" d="M18 35h1" />
<path stroke="#757e88" d="M20 35h1" />
<path stroke="#343644" d="M22 35h1M22 36h1" />
<path stroke="#0c151b" d="M24 35h1" />
<path stroke="#0e1322" d="M25 35h1" />
<path stroke="#2a1a1c" d="M27 35h1" />
<path stroke="#34242a" d="M28 35h1" />
<path stroke="#211b2b" d="M29 35h1" />
<path stroke="#202032" d="M30 35h1" />
<path stroke="#1f2133" d="M31 35h1" />
<path stroke="#55302c" d="M33 35h1" />
<path stroke="#572822" d="M34 35h1" />
<path stroke="#b17157" d="M35 35h1" />
<path stroke="#f0a074" d="M36 35h1" />
<path stroke="#ef9c6e" d="M37 35h1" />
<path stroke="#ca8464" d="M38 35h1" />
<path stroke="#5e342a" d="M39 35h1" />
<path stroke="#7f4d43" d="M40 35h1" />
<path stroke="#301b20" d="M41 35h1" />
<path stroke="#0e1020" d="M42 35h1" />
<path stroke="#070a1a" d="M43 35h1" />
<path stroke="#121522" d="M44 35h1" />
<path stroke="#091112" d="M45 35h1" />
<path stroke="#393d57" d="M11 36h1" />
<path stroke="#383e5b" d="M12 36h1M12 37h1" />
<path stroke="#383e5c" d="M13 36h1" />
<path stroke="#383d5a" d="M14 36h1" />
<path stroke="#181b31" d="M15 36h1" />
<path stroke="#303346" d="M16 36h1" />
<path stroke="#68707d" d="M17 36h1" />
<path stroke="#727984" d="M21 36h1" />
<path stroke="#0a0b1c" d="M23 36h1" />
<path stroke="#15182c" d="M24 36h1" />
<path stroke="#2d1918" d="M26 36h1" />
<path stroke="#b7816a" d="M27 36h1" />
<path stroke="#c38a70" d="M28 36h1" />
<path stroke="#906352" d="M29 36h1" />
<path stroke="#47302e" d="M30 36h1" />
<path stroke="#1c1721" d="M31 36h1" />
<path stroke="#4f2d2c" d="M33 36h1" />
<path stroke="#502721" d="M34 36h1" />
<path stroke="#ac6b53" d="M35 36h1" />
<path stroke="#ed986c" d="M36 36h1" />
<path stroke="#ef9c6d" d="M37 36h1M28 40h1" />
<path stroke="#d78a65" d="M38 36h1" />
<path stroke="#804435" d="M39 36h1" />
<path stroke="#965b4c" d="M40 36h1" />
<path stroke="#180609" d="M41 36h1" />
<path stroke="#0e111f" d="M10 37h1" />
<path stroke="#373a55" d="M11 37h1" />
<path stroke="#373d5a" d="M13 37h1" />
<path stroke="#333752" d="M14 37h1" />
<path stroke="#121428" d="M15 37h1" />
<path stroke="#1f2235" d="M16 37h1" />
<path stroke="#43475d" d="M17 37h1" />
<path stroke="#646a7b" d="M18 37h1" />
<path stroke="#666c7c" d="M19 37h1" />
<path stroke="#636a77" d="M20 37h1" />
<path stroke="#757c88" d="M21 37h1" />
<path stroke="#363949" d="M22 37h1M22 38h1" />
<path stroke="#090b1b" d="M23 37h1" />
<path stroke="#111427" d="M24 37h1" />
<path stroke="#62362a" d="M26 37h1" />
<path stroke="#e59873" d="M27 37h1" />
<path stroke="#f2a579" d="M28 37h1" />
<path stroke="#efa279" d="M29 37h1" />
<path stroke="#ca8b6d" d="M30 37h1" />
<path stroke="#5a3d35" d="M31 37h1" />
<path stroke="#271418" d="M33 37h1" />
<path stroke="#513232" d="M34 37h1" />
<path stroke="#64362c" d="M35 37h1" />
<path stroke="#cd8262" d="M36 37h1" />
<path stroke="#b76d4d" d="M37 37h1" />
<path stroke="#cb805f" d="M38 37h1" />
<path stroke="#c37a5d" d="M39 37h1" />
<path stroke="#a16651" d="M40 37h1" />
<path stroke="#20180e" d="M41 37h1" />
<path stroke="#666968" d="M6 38h1" />
<path stroke="#070a10" d="M7 38h1" />
<path stroke="#000103" d="M8 38h1" />
<path stroke="#02030b" d="M10 38h1" />
<path stroke="#1a1c30" d="M11 38h1" />
<path stroke="#30344c" d="M12 38h1M13 46h1" />
<path stroke="#383d56" d="M13 38h1" />
<path stroke="#2c3145" d="M14 38h1" />
<path stroke="#212939" d="M17 38h1" />
<path stroke="#40435c" d="M18 38h1" />
<path stroke="#393d53" d="M19 38h1" />
<path stroke="#585e6e" d="M20 38h1" />
<path stroke="#757b88" d="M21 38h1" />
<path stroke="#090a19" d="M23 38h1" />
<path stroke="#0d1120" d="M24 38h1" />
<path stroke="#a66047" d="M26 38h1" />
<path stroke="#ed976d" d="M27 38h1" />
<path stroke="#f09f73" d="M28 38h1" />
<path stroke="#ed996e" d="M29 38h1" />
<path stroke="#bf7b5e" d="M30 38h1" />
<path stroke="#39221c" d="M31 38h1" />
<path stroke="#060610" d="M33 38h1" />
<path stroke="#191018" d="M34 38h1" />
<path stroke="#12060a" d="M35 38h1" />
<path stroke="#72463a" d="M36 38h1" />
<path stroke="#a76c5a" d="M37 38h1M41 43h1" />
<path stroke="#c17e64" d="M38 38h1" />
<path stroke="#ae7057" d="M39 38h1" />
<path stroke="#4f3a28" d="M40 38h1" />
<path stroke="#939794" d="M6 39h1" />
<path stroke="#7b7c7f" d="M7 39h1" />
<path stroke="#202229" d="M8 39h1" />
<path stroke="#010309" d="M9 39h1M4 44h1M25 44h1" />
<path stroke="#000005" d="M10 39h1M6 43h1" />
<path stroke="#00010a" d="M11 39h1" />
<path stroke="#060719" d="M12 39h1" />
<path stroke="#1e1f33" d="M13 39h1" />
<path stroke="#1c1e33" d="M18 39h1" />
<path stroke="#313347" d="M19 39h1" />
<path stroke="#6c7381" d="M20 39h1" />
<path stroke="#727885" d="M21 39h1" />
<path stroke="#343745" d="M22 39h1" />
<path stroke="#040613" d="M23 39h1M38 40h1" />
<path stroke="#050915" d="M24 39h1" />
<path stroke="#ae6045" d="M26 39h1" />
<path stroke="#ea9063" d="M27 39h1" />
<path stroke="#df895d" d="M28 39h1" />
<path stroke="#b05e3e" d="M29 39h1" />
<path stroke="#5c2c20" d="M30 39h1" />
<path stroke="#060612" d="M32 39h1M32 40h1" />
<path stroke="#070917" d="M33 39h1" />
<path stroke="#060715" d="M34 39h1" />
<path stroke="#050713" d="M35 39h1" />
<path stroke="#130b12" d="M36 39h1" />
<path stroke="#382220" d="M37 39h1" />
<path stroke="#3a201c" d="M38 39h1" />
<path stroke="#271314" d="M39 39h1" />
<path stroke="#616664" d="M7 40h1" />
<path stroke="#84878a" d="M8 40h1" />
<path stroke="#55575d" d="M9 40h1" />
<path stroke="#1a1b24" d="M10 40h1" />
<path stroke="#01020c" d="M11 40h1" />
<path stroke="#000107" d="M12 40h2M5 44h1" />
<path stroke="#30373e" d="M17 40h1" />
<path stroke="#363a47" d="M18 40h1" />
<path stroke="#4d5261" d="M19 40h1" />
<path stroke="#717984" d="M20 40h1" />
<path stroke="#717885" d="M21 40h1" />
<path stroke="#373a4a" d="M22 40h1" />
<path stroke="#030512" d="M23 40h1" />
<path stroke="#030613" d="M24 40h1" />
<path stroke="#a96047" d="M26 40h1" />
<path stroke="#ec966a" d="M27 40h1" />
<path stroke="#d98963" d="M29 40h1" />
<path stroke="#6b3d2d" d="M30 40h1" />
<path stroke="#070a18" d="M34 40h1" />
<path stroke="#060918" d="M35 40h1" />
<path stroke="#060717" d="M36 40h1" />
<path stroke="#040614" d="M37 40h1" />
<path stroke="#040511" d="M39 40h1" />
<path stroke="#030406" d="M40 40h1" />
<path stroke="#131719" d="M8 41h1" />
<path stroke="#505156" d="M9 41h1" />
<path stroke="#3e3e46" d="M10 41h1" />
<path stroke="#02020c" d="M11 41h1" />
<path stroke="#050615" d="M12 41h1" />
<path stroke="#4f555f" d="M16 41h1" />
<path stroke="#717883" d="M17 41h1" />
<path stroke="#7a818c" d="M18 41h1" />
<path stroke="#78808a" d="M19 41h1M17 44h2" />
<path stroke="#777f88" d="M20 41h1M20 43h1M15 44h1" />
<path stroke="#747a86" d="M21 41h1" />
<path stroke="#505465" d="M22 41h1" />
<path stroke="#0e1220" d="M23 41h1" />
<path stroke="#020410" d="M24 41h1" />
<path stroke="#0c060d" d="M25 41h1" />
<path stroke="#653428" d="M26 41h1" />
<path stroke="#d88863" d="M27 41h1" />
<path stroke="#f2a374" d="M28 41h1" />
<path stroke="#f2a172" d="M29 41h1" />
<path stroke="#c48161" d="M30 41h1" />
<path stroke="#381f1a" d="M31 41h1" />
<path stroke="#090917" d="M33 41h1" />
<path stroke="#070918" d="M34 41h1" />
<path stroke="#040512" d="M35 41h1" />
<path stroke="#030410" d="M36 41h1" />
<path stroke="#060613" d="M37 41h1" />
<path stroke="#060611" d="M38 41h1" />
<path stroke="#140910" d="M39 41h1" />
<path stroke="#432e2b" d="M40 41h1" />
<path stroke="#646878" d="M13 42h1" />
<path stroke="#737a86" d="M14 42h1" />
<path stroke="#777f89" d="M15 42h2M19 42h1" />
<path stroke="#767e89" d="M18 42h1" />
<path stroke="#788089" d="M20 42h1" />
<path stroke="#767d88" d="M21 42h1" />
<path stroke="#5e6274" d="M22 42h1" />
<path stroke="#191c2b" d="M23 42h1" />
<path stroke="#01020d" d="M24 42h1" />
<path stroke="#02040d" d="M25 42h1" />
<path stroke="#ae6246" d="M27 42h1" />
<path stroke="#ef9d72" d="M28 42h1" />
<path stroke="#f4a575" d="M29 42h1" />
<path stroke="#e29b75" d="M30 42h1" />
<path stroke="#744e42" d="M31 42h1" />
<path stroke="#020307" d="M33 42h1" />
<path stroke="#04060a" d="M34 42h1" />
<path stroke="#020507" d="M35 42h1" />
<path stroke="#0b0509" d="M36 42h1" />
<path stroke="#381b1b" d="M37 42h1" />
<path stroke="#402120" d="M38 42h1" />
<path stroke="#502e2c" d="M39 42h1" />
<path stroke="#613c36" d="M40 42h2M30 47h1" />
<path stroke="#7d827f" d="M3 43h1" />
<path stroke="#626366" d="M4 43h1" />
<path stroke="#14151b" d="M5 43h1" />
<path stroke="#1b1c2e" d="M7 43h1" />
<path stroke="#3a3e57" d="M8 43h1" />
<path stroke="#3a3e5a" d="M9 43h1" />
<path stroke="#3a3d5a" d="M10 43h1" />
<path stroke="#3c3d5a" d="M11 43h1" />
<path stroke="#50556b" d="M12 43h1" />
<path stroke="#777e8b" d="M13 43h1" />
<path stroke="#767f88" d="M15 43h5" />
<path stroke="#747a87" d="M21 43h1" />
<path stroke="#585d70" d="M22 43h1" />
<path stroke="#212435" d="M23 43h1" />
<path stroke="#02020e" d="M24 43h1" />
<path stroke="#02030d" d="M25 43h1" />
<path stroke="#090407" d="M26 43h1" />
<path stroke="#613127" d="M27 43h1" />
<path stroke="#d08060" d="M28 43h1" />
<path stroke="#d8916d" d="M29 43h1" />
<path stroke="#785040" d="M30 43h1" />
<path stroke="#170b0e" d="M31 43h1" />
<path stroke="#010205" d="M32 43h1" />
<path stroke="#94554a" d="M37 43h1" />
<path stroke="#955b52" d="M38 43h1" />
<path stroke="#4d2724" d="M39 43h1" />
<path stroke="#4d241f" d="M40 43h1" />
<path stroke="#b27d61" d="M42 43h2" />
<path stroke="#a7aaa9" d="M2 44h1" />
<path stroke="#4c4d51" d="M3 44h1" />
<path stroke="#020310" d="M6 44h1M6 45h1" />
<path stroke="#32344b" d="M7 44h1" />
<path stroke="#3d415d" d="M8 44h1M9 45h1" />
<path stroke="#3a3f5c" d="M9 44h2" />
<path stroke="#383c5a" d="M11 44h1" />
<path stroke="#42465f" d="M12 44h1" />
<path stroke="#697181" d="M13 44h1" />
<path stroke="#747c87" d="M14 44h1" />
<path stroke="#69717f" d="M20 44h1" />
<path stroke="#505468" d="M21 44h1" />
<path stroke="#393e54" d="M22 44h1" />
<path stroke="#27283c" d="M23 44h1" />
<path stroke="#030511" d="M24 44h1" />
<path stroke="#010507" d="M26 44h1" />
<path stroke="#0b0604" d="M27 44h1" />
<path stroke="#6c4137" d="M28 44h1" />
<path stroke="#643d35" d="M29 44h1" />
<path stroke="#0a0409" d="M30 44h1" />
<path stroke="#010207" d="M31 44h1" />
<path stroke="#090405" d="M32 44h1" />
<path stroke="#7e4a40" d="M37 44h1" />
<path stroke="#5d2b27" d="M38 44h1" />
<path stroke="#673734" d="M39 44h1" />
<path stroke="#7a4036" d="M40 44h1" />
<path stroke="#c07355" d="M41 44h1" />
<path stroke="#f2a176" d="M42 44h1" />
<path stroke="#a37256" d="M43 44h1" />
<path stroke="#afb2b3" d="M2 45h1" />
<path stroke="#2c2d32" d="M3 45h1" />
<path stroke="#000002" d="M4 45h1" />
<path stroke="#000106" d="M5 45h1M6 46h1" />
<path stroke="#303149" d="M7 45h1" />
<path stroke="#3e425e" d="M8 45h1" />
<path stroke="#3a405d" d="M10 45h1" />
<path stroke="#393e5b" d="M11 45h1" />
<path stroke="#3a3f5a" d="M12 45h1" />
<path stroke="#464c64" d="M13 45h1" />
<path stroke="#666d7e" d="M14 45h1" />
<path stroke="#737b87" d="M15 45h1" />
<path stroke="#767e8a" d="M16 45h1" />
<path stroke="#6e7583" d="M17 45h1" />
<path stroke="#5f6475" d="M18 45h1" />
<path stroke="#555b6c" d="M19 45h1" />
<path stroke="#2d3342" d="M20 45h1" />
<path stroke="#1b1e30" d="M21 45h1" />
<path stroke="#171b2a" d="M22 45h1" />
<path stroke="#040205" d="M29 45h1" />
<path stroke="#090306" d="M30 45h1" />
<path stroke="#55362d" d="M31 45h1" />
<path stroke="#a36e57" d="M32 45h1" />
<path stroke="#b78164" d="M33 45h1" />
<path stroke="#6e533d" d="M34 45h1" />
<path stroke="#34201a" d="M37 45h1" />
<path stroke="#4b2827" d="M38 45h1" />
<path stroke="#321514" d="M39 45h1" />
<path stroke="#471f19" d="M40 45h1" />
<path stroke="#bb7255" d="M41 45h1" />
<path stroke="#f6a678" d="M42 45h1" />
<path stroke="#a87556" d="M43 45h1" />
<path stroke="#a2a3a5" d="M2 46h1" />
<path stroke="#292a2e" d="M3 46h1" />
<path stroke="#000001" d="M4 46h1M4 47h1" />
<path stroke="#101224" d="M7 46h1" />
<path stroke="#33364d" d="M8 46h1" />
<path stroke="#32364e" d="M9 46h1" />
<path stroke="#31354e" d="M10 46h1" />
<path stroke="#30344e" d="M11 46h1" />
<path stroke="#30344d" d="M12 46h1" />
<path stroke="#393f52" d="M14 46h1" />
<path stroke="#3d4254" d="M15 46h1" />
<path stroke="#41465a" d="M16 46h1" />
<path stroke="#33374a" d="M17 46h1" />
<path stroke="#171e2c" d="M18 46h1" />
<path stroke="#0e1b22" d="M19 46h1" />
<path stroke="#472c24" d="M30 46h1" />
<path stroke="#d28d70" d="M31 46h1" />
<path stroke="#f2a278" d="M32 46h1" />
<path stroke="#f1a377" d="M33 46h1" />
<path stroke="#e39b78" d="M34 46h1" />
<path stroke="#986d57" d="M35 46h1" />
<path stroke="#191312" d="M38 46h1" />
<path stroke="#010002" d="M39 46h1" />
<path stroke="#210b0b" d="M40 46h1" />
<path stroke="#a3604b" d="M41 46h1" />
<path stroke="#d58966" d="M42 46h1" />
<path stroke="#966a50" d="M43 46h1" />
<path stroke="#383e39" d="M2 47h1" />
<path stroke="#101013" d="M3 47h1" />
<path stroke="#000403" d="M5 47h1" />
<path stroke="#a46a52" d="M31 47h1" />
<path stroke="#e59572" d="M32 47h1" />
<path stroke="#e38c65" d="M33 47h1" />
<path stroke="#e08f69" d="M34 47h1" />
<path stroke="#a56b55" d="M35 47h1" />
<path stroke="#2e2112" d="M41 47h1" />
<path stroke="#392814" d="M42 47h1" />
</svg>